999
dxflib 3.17.0.0
  0
SECTION
  2
HEADER
  9
$ACADVER
  1
AC1015
  9
$HANDSEED
  5
FFFF
  9
$DIMADEC
 70
0
  9
$DIMASZ
 40
2.5
  9
$DIMAUNIT
 70
0
  9
$DIMAZIN
 70
2
  9
$DIMDEC
 70
4
  9
$DIMDSEP
 70
46
  9
$DIMEXE
 40
1.25
  9
$DIMEXO
 40
0.625
  9
$DIMGAP
 40
0.625
  9
$DIMLUNIT
 70
2
  9
$DIMSCALE
 40
1.0
  9
$DIMTSZ
 40
0.0
  9
$DIMTXT
 40
2.5
  9
$DIMZIN
 70
8
  9
$DWGCODEPAGE
  3
ANSI_1252
  9
$INSUNITS
 70
4
  9
$LTSCALE
 40
1.0
  9
$MAXACTVP
 70
32
  9
$MEASUREMENT
 70
1
  9
$PDMODE
 70
0
  9
$PDSIZE
 40
0
  0
ENDSEC
  0
SECTION
  2
TABLES
  0
TABLE
  2
VPORT
  5
8
100
AcDbSymbolTable
 70
1
  0
VPORT
  5
30
100
AcDbSymbolTableRecord
100
AcDbViewportTableRecord
  2
*Active
 70
0
 10
0.0
 20
0.0
 11
1.0
 21
1.0
 12
286.3055555555554861
 22
148.5
 13
0.0
 23
0.0
 14
10.0
 24
10.0
 15
10.0
 25
10.0
 16
0.0
 26
0.0
 36
1.0
 17
0.0
 27
0.0
 37
0.0
 40
297.0
 41
1.92798353909465
 42
50.0
 43
0.0
 44
0.0
 50
0.0
 51
0.0
 71
0
 72
100
 73
1
 74
3
 75
1
 76
1
 77
0
 78
0
281
0
 65
1
110
0.0
120
0.0
130
0.0
111
1.0
121
0.0
131
0.0
112
0.0
122
1.0
132
0.0
 79
0
146
0.0
  0
ENDTAB
  0
TABLE
  2
LTYPE
  5
5
100
AcDbSymbolTable
 70
41
  0
LTYPE
  5
16
100
AcDbSymbolTableRecord
100
AcDbLinetypeTableRecord
  2
Continuous
 70
0
  3
Solid line
 72
65
 73
0
 40
0.0
  0
LTYPE
  5
31
100
AcDbSymbolTableRecord
100
AcDbLinetypeTableRecord
  2
BORDER2
 70
0
  3
Border (.5x) __.__.__.__.__.__.__.__.__.__.__.
 72
65
 73
6
 40
22.2249999999999979
 49
6.3499999999999996
 74
0
 49
-3.1749999999999998
 74
0
 49
6.3499999999999996
 74
0
 49
-3.125
 74
0
 49
0.1
 74
0
 49
-3.125
 74
0
  0
LTYPE
  5
32
100
AcDbSymbolTableRecord
100
AcDbLinetypeTableRecord
  2
ACAD_ISO13W100
 70
0
  3
ISO double-dash double-dot __ __ . . __ __ . . _
 72
65
 73
8
 40
36.0
 49
12.0
 74
0
 49
-3.0
 74
0
 49
12.0
 74
0
 49
-2.9500000000000002
 74
0
 49
0.1
 74
0
 49
-2.9000000000000004
 74
0
 49
0.1
 74
0
 49
-2.9500000000000002
 74
0
  0
LTYPE
  5
33
100
AcDbSymbolTableRecord
100
AcDbLinetypeTableRecord
  2
ACAD_ISO05W100
 70
0
  3
ISO long-dash double-dot ____ .. ____ .. ____ . 
 72
65
 73
6
 40
33.0
 49
24.0
 74
0
 49
-2.9500000000000002
 74
0
 49
0.1
 74
0
 49
-2.9000000000000004
 74
0
 49
0.1
 74
0
 49
-2.9500000000000002
 74
0
  0
LTYPE
  5
34
100
AcDbSymbolTableRecord
100
AcDbLinetypeTableRecord
  2
DIVIDE2
 70
0
  3
Divide (.5x) __..__..__..__..__..__..__..__.._
 72
65
 73
6
 40
15.875
 49
6.3499999999999996
 74
0
 49
-3.125
 74
0
 49
0.1
 74
0
 49
-3.0750000000000002
 74
0
 49
0.1
 74
0
 49
-3.125
 74
0
  0
LTYPE
  5
35
100
AcDbSymbolTableRecord
100
AcDbLinetypeTableRecord
  2
ACAD_ISO12W100
 70
0
  3
ISO dash double-dot __ . . __ . . __ . . __ . . 
 72
65
 73
6
 40
21.0
 49
12.0
 74
0
 49
-2.9500000000000002
 74
0
 49
0.1
 74
0
 49
-2.9000000000000004
 74
0
 49
0.1
 74
0
 49
-2.9500000000000002
 74
0
  0
LTYPE
  5
36
100
AcDbSymbolTableRecord
100
AcDbLinetypeTableRecord
  2
HIDDEN2
 70
0
  3
Hidden (.5x) _ _ _ _ _ _ _ _ _ _ _ _ _ _ _ _ _ 
 72
65
 73
2
 40
4.7624999999999993
 49
3.1749999999999998
 74
0
 49
-1.5874999999999999
 74
0
  0
LTYPE
  5
37
100
AcDbSymbolTableRecord
100
AcDbLinetypeTableRecord
  2
ACAD_ISO04W100
 70
0
  3
ISO long-dash dot ____ . ____ . ____ . ____ . _
 72
65
 73
4
 40
30.0
 49
24.0
 74
0
 49
-2.9500000000000002
 74
0
 49
0.1
 74
0
 49
-2.9500000000000002
 74
0
  0
LTYPE
  5
38
100
AcDbSymbolTableRecord
100
AcDbLinetypeTableRecord
  2
BORDER
 70
0
  3
Border __ __ . __ __ . __ __ . __ __ . __ __ .
 72
65
 73
6
 40
44.4499999999999957
 49
12.6999999999999993
 74
0
 49
-6.3499999999999996
 74
0
 49
12.6999999999999993
 74
0
 49
-6.2999999999999998
 74
0
 49
0.1
 74
0
 49
-6.2999999999999998
 74
0
  0
LTYPE
  5
39
100
AcDbSymbolTableRecord
100
AcDbLinetypeTableRecord
  2
ACAD_ISO11W100
 70
0
  3
ISO double-dash dot __ __ . __ __ . __ __ . __ _
 72
65
 73
6
 40
33.0
 49
12.0
 74
0
 49
-3.0
 74
0
 49
12.0
 74
0
 49
-2.9500000000000002
 74
0
 49
0.1
 74
0
 49
-2.9500000000000002
 74
0
  0
LTYPE
  5
3A
100
AcDbSymbolTableRecord
100
AcDbLinetypeTableRecord
  2
DOT2
 70
0
  3
Dot (.5x) ........................................
 72
65
 73
2
 40
3.1749999999999998
 49
0.1
 74
0
 49
-3.0749999999999997
 74
0
  0
LTYPE
  5
3B
100
AcDbSymbolTableRecord
100
AcDbLinetypeTableRecord
  2
ACAD_ISO03W100
 70
0
  3
ISO dash space __    __    __    __    __    __
 72
65
 73
2
 40
30.0
 49
12.0
 74
0
 49
-18.0
 74
0
  0
LTYPE
  5
3C
100
AcDbSymbolTableRecord
100
AcDbLinetypeTableRecord
  2
CENTERX2
 70
0
  3
Center (2x) ________  __  ________  __  _____
 72
65
 73
4
 40
101.5999999999999943
 49
63.5
 74
0
 49
-12.6999999999999993
 74
0
 49
12.6999999999999993
 74
0
 49
-12.6999999999999993
 74
0
  0
LTYPE
  5
14
100
AcDbSymbolTableRecord
100
AcDbLinetypeTableRecord
  2
BYBLOCK
 70
0
  3

 72
65
 73
0
 40
0.0
  0
LTYPE
  5
3D
100
AcDbSymbolTableRecord
100
AcDbLinetypeTableRecord
  2
ACAD_ISO10W100
 70
0
  3
ISO dash dot __ . __ . __ . __ . __ . __ . __ . 
 72
65
 73
4
 40
18.0
 49
12.0
 74
0
 49
-2.9500000000000002
 74
0
 49
0.1
 74
0
 49
-2.9500000000000002
 74
0
  0
LTYPE
  5
3E
100
AcDbSymbolTableRecord
100
AcDbLinetypeTableRecord
  2
HIDDEN
 70
0
  3
Hidden __ __ __ __ __ __ __ __ __ __ __ __ __ __
 72
65
 73
2
 40
9.5249999999999986
 49
6.3499999999999996
 74
0
 49
-3.1749999999999998
 74
0
  0
LTYPE
  5
3F
100
AcDbSymbolTableRecord
100
AcDbLinetypeTableRecord
  2
ACAD_ISO02W100
 70
0
  3
ISO dash __ __ __ __ __ __ __ __ __ __ __ __ __
 72
65
 73
2
 40
15.0
 49
12.0
 74
0
 49
-3.0
 74
0
  0
LTYPE
  5
40
100
AcDbSymbolTableRecord
100
AcDbLinetypeTableRecord
  2
BORDERX2
 70
0
  3
Border (2x) ____  ____  .  ____  ____  .  ___
 72
65
 73
6
 40
88.8999999999999915
 49
25.3999999999999986
 74
0
 49
-12.6999999999999993
 74
0
 49
25.3999999999999986
 74
0
 49
-12.6499999999999986
 74
0
 49
0.1
 74
0
 49
-12.6499999999999986
 74
0
  0
LTYPE
  5
41
100
AcDbSymbolTableRecord
100
AcDbLinetypeTableRecord
  2
DOT
 70
0
  3
Dot . . . . . . . . . . . . . . . . . . . . . . . .
 72
65
 73
2
 40
6.3499999999999996
 49
0.1
 74
0
 49
-6.25
 74
0
  0
LTYPE
  5
42
100
AcDbSymbolTableRecord
100
AcDbLinetypeTableRecord
  2
DASHDOTX2
 70
0
  3
Dash dot (2x) ____  .  ____  .  ____  .  ___
 72
65
 73
4
 40
50.7999999999999972
 49
25.3999999999999986
 74
0
 49
-12.6499999999999986
 74
0
 49
0.1
 74
0
 49
-12.6499999999999986
 74
0
  0
LTYPE
  5
43
100
AcDbSymbolTableRecord
100
AcDbLinetypeTableRecord
  2
PHANTOM2
 70
0
  3
Phantom (.5x) ___ _ _ ___ _ _ ___ _ _ ___ _ _
 72
65
 73
6
 40
31.75
 49
15.875
 74
0
 49
-3.1749999999999998
 74
0
 49
3.1749999999999998
 74
0
 49
-3.1749999999999998
 74
0
 49
3.1749999999999998
 74
0
 49
-3.1749999999999998
 74
0
  0
LTYPE
  5
44
100
AcDbSymbolTableRecord
100
AcDbLinetypeTableRecord
  2
DASHED2
 70
0
  3
Dashed (.5x) _ _ _ _ _ _ _ _ _ _ _ _ _ _ _ _ _ 
 72
65
 73
2
 40
9.5249999999999986
 49
6.3499999999999996
 74
0
 49
-3.1749999999999998
 74
0
  0
LTYPE
  5
45
100
AcDbSymbolTableRecord
100
AcDbLinetypeTableRecord
  2
HIDDENX2
 70
0
  3
Hidden (2x) ____ ____ ____ ____ ____ ____ ____ 
 72
65
 73
2
 40
19.0499999999999972
 49
12.6999999999999993
 74
0
 49
-6.3499999999999996
 74
0
  0
LTYPE
  5
46
100
AcDbSymbolTableRecord
100
AcDbLinetypeTableRecord
  2
ACAD_ISO09W100
 70
0
  3
ISO long-dash double-short-dash ____ __ __ ____
 72
65
 73
6
 40
45.0
 49
24.0
 74
0
 49
-3.0
 74
0
 49
6.0
 74
0
 49
-3.0
 74
0
 49
6.0
 74
0
 49
-3.0
 74
0
  0
LTYPE
  5
15
100
AcDbSymbolTableRecord
100
AcDbLinetypeTableRecord
  2
BYLAYER
 70
0
  3

 72
65
 73
0
 40
0.0
  0
LTYPE
  5
47
100
AcDbSymbolTableRecord
100
AcDbLinetypeTableRecord
  2
PHANTOMX2
 70
0
  3
Phantom (2x) ____________    ____    ____   _
 72
65
 73
6
 40
127.0
 49
63.5
 74
0
 49
-12.6999999999999993
 74
0
 49
12.6999999999999993
 74
0
 49
-12.6999999999999993
 74
0
 49
12.6999999999999993
 74
0
 49
-12.6999999999999993
 74
0
  0
LTYPE
  5
48
100
AcDbSymbolTableRecord
100
AcDbLinetypeTableRecord
  2
DASHEDX2
 70
0
  3
Dashed (2x) ____  ____  ____  ____  ____  ___
 72
65
 73
2
 40
38.0999999999999943
 49
25.3999999999999986
 74
0
 49
-12.6999999999999993
 74
0
  0
LTYPE
  5
49
100
AcDbSymbolTableRecord
100
AcDbLinetypeTableRecord
  2
CENTER2
 70
0
  3
Center (.5x) ___ _ ___ _ ___ _ ___ _ ___ _ ___
 72
65
 73
4
 40
28.5749999999999993
 49
19.0500000000000007
 74
0
 49
-3.1749999999999998
 74
0
 49
3.1749999999999998
 74
0
 49
-3.1749999999999998
 74
0
  0
LTYPE
  5
4A
100
AcDbSymbolTableRecord
100
AcDbLinetypeTableRecord
  2
ACAD_ISO08W100
 70
0
  3
ISO long-dash short-dash ____ __ ____ __ ____ _
 72
65
 73
4
 40
36.0
 49
24.0
 74
0
 49
-3.0
 74
0
 49
6.0
 74
0
 49
-3.0
 74
0
  0
LTYPE
  5
4B
100
AcDbSymbolTableRecord
100
AcDbLinetypeTableRecord
  2
DASHDOT
 70
0
  3
Dash dot __ . __ . __ . __ . __ . __ . __ . __
 72
65
 73
4
 40
25.3999999999999986
 49
12.6999999999999993
 74
0
 49
-6.2999999999999998
 74
0
 49
0.1
 74
0
 49
-6.2999999999999998
 74
0
  0
LTYPE
  5
4C
100
AcDbSymbolTableRecord
100
AcDbLinetypeTableRecord
  2
ACAD_ISO15W100
 70
0
  3
ISO double-dash triple-dot __ __ . . . __ __ . .
 72
65
 73
10
 40
39.0
 49
12.0
 74
0
 49
-3.0
 74
0
 49
12.0
 74
0
 49
-2.9500000000000002
 74
0
 49
0.1
 74
0
 49
-2.9000000000000004
 74
0
 49
0.1
 74
0
 49
-2.9000000000000004
 74
0
 49
0.1
 74
0
 49
-2.9500000000000002
 74
0
  0
LTYPE
  5
4D
100
AcDbSymbolTableRecord
100
AcDbLinetypeTableRecord
  2
DIVIDEX2
 70
0
  3
Divide (2x) ________  .  .  ________  .  .  _
 72
65
 73
6
 40
63.4999999999999929
 49
25.3999999999999986
 74
0
 49
-12.6499999999999986
 74
0
 49
0.1
 74
0
 49
-12.5999999999999979
 74
0
 49
0.1
 74
0
 49
-12.6499999999999986
 74
0
  0
LTYPE
  5
4E
100
AcDbSymbolTableRecord
100
AcDbLinetypeTableRecord
  2
ACAD_ISO07W100
 70
0
  3
ISO dot . . . . . . . . . . . . . . . . . . . . 
 72
65
 73
2
 40
3.0
 49
0.1
 74
0
 49
-2.8999999999999999
 74
0
  0
LTYPE
  5
4F
100
AcDbSymbolTableRecord
100
AcDbLinetypeTableRecord
  2
ACAD_ISO14W100
 70
0
  3
ISO dash triple-dot __ . . . __ . . . __ . . . _
 72
65
 73
8
 40
24.0
 49
12.0
 74
0
 49
-2.9500000000000002
 74
0
 49
0.1
 74
0
 49
-2.9000000000000004
 74
0
 49
0.1
 74
0
 49
-2.9000000000000004
 74
0
 49
0.1
 74
0
 49
-2.9500000000000002
 74
0
  0
LTYPE
  5
50
100
AcDbSymbolTableRecord
100
AcDbLinetypeTableRecord
  2
CENTER
 70
0
  3
Center ____ _ ____ _ ____ _ ____ _ ____ _ ____
 72
65
 73
4
 40
50.7999999999999972
 49
31.75
 74
0
 49
-6.3499999999999996
 74
0
 49
6.3499999999999996
 74
0
 49
-6.3499999999999996
 74
0
  0
LTYPE
  5
51
100
AcDbSymbolTableRecord
100
AcDbLinetypeTableRecord
  2
DOTX2
 70
0
  3
Dot (2x) .  .  .  .  .  .  .  .  .  .  .  .  .  .
 72
65
 73
2
 40
12.6999999999999993
 49
0.1
 74
0
 49
-12.5999999999999996
 74
0
  0
LTYPE
  5
52
100
AcDbSymbolTableRecord
100
AcDbLinetypeTableRecord
  2
PHANTOM
 70
0
  3
Phantom ______  __  __  ______  __  __  ______ 
 72
65
 73
6
 40
63.5
 49
31.75
 74
0
 49
-6.3499999999999996
 74
0
 49
6.3499999999999996
 74
0
 49
-6.3499999999999996
 74
0
 49
6.3499999999999996
 74
0
 49
-6.3499999999999996
 74
0
  0
LTYPE
  5
53
100
AcDbSymbolTableRecord
100
AcDbLinetypeTableRecord
  2
ACAD_ISO06W100
 70
0
  3
ISO long-dash triple-dot ____ ... ____ ... ____
 72
65
 73
8
 40
36.0
 49
24.0
 74
0
 49
-2.9500000000000002
 74
0
 49
0.1
 74
0
 49
-2.9000000000000004
 74
0
 49
0.1
 74
0
 49
-2.9000000000000004
 74
0
 49
0.1
 74
0
 49
-2.9500000000000002
 74
0
  0
LTYPE
  5
54
100
AcDbSymbolTableRecord
100
AcDbLinetypeTableRecord
  2
DIVIDE
 70
0
  3
Divide ____ . . ____ . . ____ . . ____ . . ____
 72
65
 73
6
 40
31.75
 49
12.6999999999999993
 74
0
 49
-6.2999999999999998
 74
0
 49
0.1
 74
0
 49
-6.25
 74
0
 49
0.1
 74
0
 49
-6.2999999999999998
 74
0
  0
LTYPE
  5
55
100
AcDbSymbolTableRecord
100
AcDbLinetypeTableRecord
  2
DASHDOT2
 70
0
  3
Dash dot (.5x) _._._._._._._._._._._._._._._.
 72
65
 73
4
 40
12.6999999999999993
 49
6.3499999999999996
 74
0
 49
-3.125
 74
0
 49
0.1
 74
0
 49
-3.125
 74
0
  0
LTYPE
  5
56
100
AcDbSymbolTableRecord
100
AcDbLinetypeTableRecord
  2
DASHED
 70
0
  3
Dashed __ __ __ __ __ __ __ __ __ __ __ __ __ _
 72
65
 73
2
 40
19.0499999999999972
 49
12.6999999999999993
 74
0
 49
-6.3499999999999996
 74
0
  0
ENDTAB
  0
TABLE
  2
LAYER
  5
2
100
AcDbSymbolTable
 70
2
  0
LAYER
  5
10
100
AcDbSymbolTableRecord
100
AcDbLayerTableRecord
  2
0
 70
0
 62
7
420
16777215
  6
Continuous
370
25
390
F
  0
LAYER
  5
57
100
AcDbSymbolTableRecord
100
AcDbLayerTableRecord
  2
cut
 70
0
 62
7
420
16777215
  6
Continuous
370
13
390
F
  0
ENDTAB
  0
TABLE
  2
STYLE
  5
3
100
AcDbSymbolTable
 70
1
  0
STYLE
  5
58
100
AcDbSymbolTableRecord
100
AcDbTextStyleTableRecord
  2
Standard
 70
0
 40
0.0
 41
1.0
 50
0.0
 71
0
 42
2.5
  3

  4

1001
ACAD
1000
txt
1071
0
  0
ENDTAB
  0
TABLE
  2
VIEW
  5
6
100
AcDbSymbolTable
 70
0
  0
ENDTAB
  0
TABLE
  2
UCS
  5
7
100
AcDbSymbolTable
 70
0
  0
ENDTAB
  0
TABLE
  2
APPID
  5
9
100
AcDbSymbolTable
 70
1
  0
APPID
  5
12
100
AcDbSymbolTableRecord
100
AcDbRegAppTableRecord
  2
ACAD
 70
0
  0
APPID
  5
59
100
AcDbSymbolTableRecord
100
AcDbRegAppTableRecord
  2
QCAD
 70
0
  0
ENDTAB
  0
TABLE
  2
DIMSTYLE
  5
A
100
AcDbSymbolTable
 70
1
100
AcDbDimStyleTable
 71
0
  0
DIMSTYLE
105
27
100
AcDbSymbolTableRecord
100
AcDbDimStyleTableRecord
  2
Standard
 41
2.5
 42
0.625
 43
3.75
 44
1.25
 70
0
 73
0
 74
0
 77
1
 78
8
140
2.5
141
2.5
143
0.03937007874016
147
0.625
171
3
172
1
271
2
272
2
274
3
278
44
283
0
284
8
340
58
  0
ENDTAB
  0
TABLE
  2
BLOCK_RECORD
  5
1
100
AcDbSymbolTable
 70
1
  0
BLOCK_RECORD
  5
1F
100
AcDbSymbolTableRecord
100
AcDbBlockTableRecord
  2
*Model_Space
340
22
  0
BLOCK_RECORD
  5
1B
100
AcDbSymbolTableRecord
100
AcDbBlockTableRecord
  2
*Paper_Space
340
1E
  0
BLOCK_RECORD
  5
23
100
AcDbSymbolTableRecord
100
AcDbBlockTableRecord
  2
*Paper_Space0
340
26
  0
ENDTAB
  0
ENDSEC
  0
SECTION
  2
BLOCKS
  0
BLOCK
  5
20
100
AcDbEntity
  8
0
100
AcDbBlockBegin
  2
*Model_Space
 70
0
 10
0.0
 20
0.0
 30
0.0
  3
*Model_Space
  1

  0
ENDBLK
  5
21
100
AcDbEntity
  8
0
100
AcDbBlockEnd
  0
BLOCK
  5
1C
100
AcDbEntity
 67
1
  8
0
100
AcDbBlockBegin
  2
*Paper_Space
 70
0
 10
0.0
 20
0.0
 30
0.0
  3
*Paper_Space
  1

  0
ENDBLK
  5
1D
100
AcDbEntity
 67
1
  8
0
100
AcDbBlockEnd
  0
BLOCK
  5
24
100
AcDbEntity
  8
0
100
AcDbBlockBegin
  2
*Paper_Space0
 70
0
 10
0.0
 20
0.0
 30
0.0
  3
*Paper_Space0
  1

  0
ENDBLK
  5
25
100
AcDbEntity
  8
0
100
AcDbBlockEnd
  0
ENDSEC
  0
SECTION
  2
ENTITIES
  0
LINE
  5
5A
100
AcDbEntity
  8
cut
 62
256
370
-1
 48
1.0
  6
BYLAYER
100
AcDbLine
 10
230.33727672035144
 20
-48.5000000000000711
 30
0.0
 11
280.3372767203514968
 21
-48.5000000000000568
 31
0.0
  0
LINE
  5
5B
100
AcDbEntity
  8
cut
 62
256
370
-1
 48
1.0
  6
BYLAYER
100
AcDbLine
 10
30.3372767203513618
 20
-48.4999999999999858
 30
0.0
 11
80.3372767203514115
 21
-48.4999999999999716
 31
0.0
  0
LINE
  5
5C
100
AcDbEntity
  8
cut
 62
256
370
-1
 48
1.0
  6
BYLAYER
100
AcDbLine
 10
180.3372767203514968
 20
48.5000000000000071
 30
0.0
 11
130.3372767203514968
 21
48.5000000000000142
 31
0.0
  0
LINE
  5
5D
100
AcDbEntity
  8
cut
 62
256
370
-1
 48
1.0
  6
BYLAYER
100
AcDbLine
 10
380.33727672035144
 20
48.4999999999998508
 30
0.0
 11
330.33727672035144
 21
48.4999999999998579
 31
0.0
  0
LINE
  5
5E
100
AcDbEntity
  8
cut
 62
256
370
-1
 48
1.0
  6
BYLAYER
100
AcDbLine
 10
-19.6627232796485956
 20
48.5000000000000924
 30
0.0
 11
-69.6627232796486027
 21
48.5000000000000995
 31
0.0
  0
LINE
  5
5F
100
AcDbEntity
  8
cut
 62
256
370
-1
 48
1.0
  6
BYLAYER
100
AcDbLine
 10
260.3372767203513263
 20
-148.5000000000000568
 30
0.0
 11
270.33727672035144
 21
-148.5000000000001137
 31
0.0
  0
LINE
  5
60
100
AcDbEntity
  8
cut
 62
256
370
-1
 48
1.0
  6
BYLAYER
100
AcDbLine
 10
60.337276720351241
 20
-148.4999999999999716
 30
0.0
 11
70.3372767203513547
 21
-148.5000000000000284
 31
0.0
  0
LINE
  5
61
100
AcDbEntity
  8
cut
 62
256
370
-1
 48
1.0
  6
BYLAYER
100
AcDbLine
 10
150.3372767203514968
 20
148.5
 30
0.0
 11
140.3372767203515252
 21
148.5
 31
0.0
  0
LINE
  5
62
100
AcDbEntity
  8
cut
 62
256
370
-1
 48
1.0
  6
BYLAYER
100
AcDbLine
 10
350.33727672035144
 20
148.4999999999998295
 30
0.0
 11
340.3372767203514968
 21
148.4999999999998295
 31
0.0
  0
LINE
  5
63
100
AcDbEntity
  8
cut
 62
256
370
-1
 48
1.0
  6
BYLAYER
100
AcDbLine
 10
-49.6627232796485885
 20
148.5000000000000853
 30
0.0
 11
-59.66272327964856
 21
148.5000000000000853
 31
0.0
  0
LINE
  5
64
100
AcDbEntity
  8
cut
 62
256
370
-1
 48
1.0
  6
BYLAYER
100
AcDbLine
 10
250.3372767203514115
 20
-148.5000000000000853
 30
0.0
 11
240.3372767203513831
 21
-148.5000000000000284
 31
0.0
  0
LINE
  5
65
100
AcDbEntity
  8
cut
 62
256
370
-1
 48
1.0
  6
BYLAYER
100
AcDbLine
 10
50.3372767203513334
 20
-148.5
 30
0.0
 11
40.3372767203512907
 21
-148.4999999999999432
 31
0.0
  0
LINE
  5
66
100
AcDbEntity
  8
cut
 62
256
370
-1
 48
1.0
  6
BYLAYER
100
AcDbLine
 10
160.33727672035144
 20
148.5
 30
0.0
 11
170.3372767203515536
 21
148.5
 31
0.0
  0
LINE
  5
67
100
AcDbEntity
  8
cut
 62
256
370
-1
 48
1.0
  6
BYLAYER
100
AcDbLine
 10
360.33727672035144
 20
148.4999999999998295
 30
0.0
 11
370.3372767203515536
 21
148.4999999999998295
 31
0.0
  0
LINE
  5
68
100
AcDbEntity
  8
cut
 62
256
370
-1
 48
1.0
  6
BYLAYER
100
AcDbLine
 10
-39.6627232796486382
 20
148.5000000000000853
 30
0.0
 11
-29.6627232796485387
 21
148.5000000000000853
 31
0.0
  0
LINE
  5
69
100
AcDbEntity
  8
cut
 62
256
370
-1
 48
1.0
  6
BYLAYER
100
AcDbLine
 10
150.33727672035144
 20
-148.4999999999999716
 30
0.0
 11
140.3372767203510421
 21
-148.4999999999999432
 31
0.0
  0
LINE
  5
6A
100
AcDbEntity
  8
cut
 62
256
370
-1
 48
1.0
  6
BYLAYER
100
AcDbLine
 10
350.33727672035144
 20
-148.5000000000001137
 30
0.0
 11
340.3372767203509852
 21
-148.5000000000001137
 31
0.0
  0
LINE
  5
6B
100
AcDbEntity
  8
cut
 62
256
370
-1
 48
1.0
  6
BYLAYER
100
AcDbLine
 10
-49.6627232796486524
 20
-148.4999999999998863
 30
0.0
 11
-59.6627232796490574
 21
-148.4999999999998579
 31
0.0
  0
LINE
  5
6C
100
AcDbEntity
  8
cut
 62
256
370
-1
 48
1.0
  6
BYLAYER
100
AcDbLine
 10
260.3372767203514968
 20
148.4999999999999432
 30
0.0
 11
270.3372767203516105
 21
148.4999999999999432
 31
0.0
  0
LINE
  5
6D
100
AcDbEntity
  8
cut
 62
256
370
-1
 48
1.0
  6
BYLAYER
100
AcDbLine
 10
60.3372767203514329
 20
148.5000000000000284
 30
0.0
 11
70.337276720351511
 21
148.5000000000000284
 31
0.0
  0
LINE
  5
6E
100
AcDbEntity
  8
cut
 62
256
370
-1
 48
1.0
  6
BYLAYER
100
AcDbLine
 10
160.3372767203514968
 20
-148.4999999999999716
 30
0.0
 11
170.3372767203513831
 21
-148.4999999999999716
 31
0.0
  0
LINE
  5
6F
100
AcDbEntity
  8
cut
 62
256
370
-1
 48
1.0
  6
BYLAYER
100
AcDbLine
 10
360.33727672035144
 20
-148.5000000000001137
 30
0.0
 11
370.3372767203513263
 21
-148.5000000000001137
 31
0.0
  0
LINE
  5
70
100
AcDbEntity
  8
cut
 62
256
370
-1
 48
1.0
  6
BYLAYER
100
AcDbLine
 10
-39.6627232796485956
 20
-148.4999999999998863
 30
0.0
 11
-29.6627232796487021
 21
-148.4999999999998863
 31
0.0
  0
LINE
  5
71
100
AcDbEntity
  8
cut
 62
256
370
-1
 48
1.0
  6
BYLAYER
100
AcDbLine
 10
250.3372767203516105
 20
148.4999999999999432
 30
0.0
 11
240.3372767203515536
 21
148.4999999999999147
 31
0.0
  0
LINE
  5
72
100
AcDbEntity
  8
cut
 62
256
370
-1
 48
1.0
  6
BYLAYER
100
AcDbLine
 10
50.3372767203515181
 20
148.5000000000000284
 30
0.0
 11
40.3372767203514826
 21
148.5
 31
0.0
  0
LINE
  5
73
100
AcDbEntity
  8
cut
 62
256
370
-1
 48
1.0
  6
BYLAYER
100
AcDbLine
 10
205.33727672035144
 20
-83.5000000000000284
 30
0.0
 11
205.33727672035144
 21
-93.5000000000000284
 31
0.0
  0
LINE
  5
74
100
AcDbEntity
  8
cut
 62
256
370
-1
 48
1.0
  6
BYLAYER
100
AcDbLine
 10
405.33727672035144
 20
-83.5000000000001847
 30
0.0
 11
405.33727672035144
 21
-93.5000000000001847
 31
0.0
  0
LINE
  5
75
100
AcDbEntity
  8
cut
 62
256
370
-1
 48
1.0
  6
BYLAYER
100
AcDbLine
 10
5.337276720351368
 20
-83.4999999999999432
 30
0.0
 11
5.3372767203513662
 21
-93.4999999999999432
 31
0.0
  0
LINE
  5
76
100
AcDbEntity
  8
cut
 62
256
370
-1
 48
1.0
  6
BYLAYER
100
AcDbLine
 10
205.3372767203514684
 20
83.5
 30
0.0
 11
205.3372767203514684
 21
93.5
 31
0.0
  0
LINE
  5
77
100
AcDbEntity
  8
cut
 62
256
370
-1
 48
1.0
  6
BYLAYER
100
AcDbLine
 10
405.33727672035144
 20
83.4999999999998437
 30
0.0
 11
405.33727672035144
 21
93.4999999999998437
 31
0.0
  0
LINE
  5
78
100
AcDbEntity
  8
cut
 62
256
370
-1
 48
1.0
  6
BYLAYER
100
AcDbLine
 10
5.3372767203513884
 20
83.5000000000000853
 30
0.0
 11
5.3372767203513884
 21
93.5000000000000853
 31
0.0
  0
LINE
  5
79
100
AcDbEntity
  8
cut
 62
256
370
-1
 48
1.0
  6
BYLAYER
100
AcDbLine
 10
305.33727672035144
 20
-113.5000000000000853
 30
0.0
 11
305.33727672035144
 21
-103.5000000000000995
 31
0.0
  0
LINE
  5
7A
100
AcDbEntity
  8
cut
 62
256
370
-1
 48
1.0
  6
BYLAYER
100
AcDbLine
 10
105.3372767203513689
 20
-113.5
 30
0.0
 11
105.3372767203513405
 21
-103.5000000000000142
 31
0.0
  0
LINE
  5
7B
100
AcDbEntity
  8
cut
 62
256
370
-1
 48
1.0
  6
BYLAYER
100
AcDbLine
 10
105.3372767203514684
 20
113.4999999999999716
 30
0.0
 11
105.3372767203514542
 21
103.5000000000000284
 31
0.0
  0
LINE
  5
7C
100
AcDbEntity
  8
cut
 62
256
370
-1
 48
1.0
  6
BYLAYER
100
AcDbLine
 10
305.33727672035144
 20
113.4999999999998153
 30
0.0
 11
305.33727672035144
 21
103.4999999999998721
 31
0.0
  0
LINE
  5
7D
100
AcDbEntity
  8
cut
 62
256
370
-1
 48
1.0
  6
BYLAYER
100
AcDbLine
 10
-94.6627232796486169
 20
113.5000000000000568
 30
0.0
 11
-94.6627232796486311
 21
103.5000000000001137
 31
0.0
  0
LINE
  5
7E
100
AcDbEntity
  8
cut
 62
256
370
-1
 48
1.0
  6
BYLAYER
100
AcDbLine
 10
305.33727672035144
 20
-83.5000000000001137
 30
0.0
 11
305.33727672035144
 21
-93.5000000000000711
 31
0.0
  0
LINE
  5
7F
100
AcDbEntity
  8
cut
 62
256
370
-1
 48
1.0
  6
BYLAYER
100
AcDbLine
 10
105.3372767203513405
 20
-83.5000000000000284
 30
0.0
 11
105.3372767203513547
 21
-93.4999999999999858
 31
0.0
  0
LINE
  5
80
100
AcDbEntity
  8
cut
 62
256
370
-1
 48
1.0
  6
BYLAYER
100
AcDbLine
 10
105.3372767203514542
 20
83.5
 30
0.0
 11
105.3372767203514684
 21
93.4999999999999858
 31
0.0
  0
LINE
  5
81
100
AcDbEntity
  8
cut
 62
256
370
-1
 48
1.0
  6
BYLAYER
100
AcDbLine
 10
305.33727672035144
 20
83.4999999999998437
 30
0.0
 11
305.33727672035144
 21
93.4999999999998295
 31
0.0
  0
LINE
  5
82
100
AcDbEntity
  8
cut
 62
256
370
-1
 48
1.0
  6
BYLAYER
100
AcDbLine
 10
-94.6627232796486311
 20
83.5000000000000853
 30
0.0
 11
-94.6627232796486169
 21
93.5000000000000711
 31
0.0
  0
LINE
  5
83
100
AcDbEntity
  8
cut
 62
256
370
-1
 48
1.0
  6
BYLAYER
100
AcDbLine
 10
105.3372767203513831
 20
-113.4999999999999147
 30
0.0
 11
105.3372767203513973
 21
-103.4999999999999432
 31
0.0
  0
LINE
  5
84
100
AcDbEntity
  8
cut
 62
256
370
-1
 48
1.0
  6
BYLAYER
100
AcDbLine
 10
305.3372767203513263
 20
-113.5000000000000711
 30
0.0
 11
305.3372767203513831
 21
-103.5000000000000995
 31
0.0
  0
LINE
  5
85
100
AcDbEntity
  8
cut
 62
256
370
-1
 48
1.0
  6
BYLAYER
100
AcDbLine
 10
-94.6627232796487021
 20
-113.4999999999998295
 30
0.0
 11
-94.6627232796486879
 21
-103.4999999999998579
 31
0.0
  0
LINE
  5
86
100
AcDbEntity
  8
cut
 62
256
370
-1
 48
1.0
  6
BYLAYER
100
AcDbLine
 10
305.3372767203515536
 20
113.4999999999998863
 30
0.0
 11
305.3372767203514968
 21
103.4999999999999005
 31
0.0
  0
LINE
  5
87
100
AcDbEntity
  8
cut
 62
256
370
-1
 48
1.0
  6
BYLAYER
100
AcDbLine
 10
105.3372767203514684
 20
113.4999999999999716
 30
0.0
 11
105.3372767203514258
 21
103.4999999999999858
 31
0.0
  0
LINE
  5
88
100
AcDbEntity
  8
cut
 62
256
370
-1
 48
1.0
  6
BYLAYER
100
AcDbLine
 10
105.33727672035144
 20
-83.4999999999999574
 30
0.0
 11
105.3372767203513973
 21
-93.4999999999999289
 31
0.0
  0
LINE
  5
89
100
AcDbEntity
  8
cut
 62
256
370
-1
 48
1.0
  6
BYLAYER
100
AcDbLine
 10
305.33727672035144
 20
-83.5000000000001137
 30
0.0
 11
305.3372767203513831
 21
-93.5000000000000853
 31
0.0
  0
LINE
  5
8A
100
AcDbEntity
  8
cut
 62
256
370
-1
 48
1.0
  6
BYLAYER
100
AcDbLine
 10
-94.6627232796486453
 20
-83.4999999999998721
 30
0.0
 11
-94.6627232796486879
 21
-93.4999999999998437
 31
0.0
  0
LINE
  5
8B
100
AcDbEntity
  8
cut
 62
256
370
-1
 48
1.0
  6
BYLAYER
100
AcDbLine
 10
305.3372767203514968
 20
83.4999999999999432
 30
0.0
 11
305.3372767203515536
 21
93.4999999999999147
 31
0.0
  0
LINE
  5
8C
100
AcDbEntity
  8
cut
 62
256
370
-1
 48
1.0
  6
BYLAYER
100
AcDbLine
 10
105.3372767203514115
 20
83.5000000000000284
 30
0.0
 11
105.3372767203514542
 21
93.5
 31
0.0
  0
LINE
  5
8D
100
AcDbEntity
  8
cut
 62
256
370
-1
 48
1.0
  6
BYLAYER
100
AcDbLine
 10
205.33727672035144
 20
-113.4999999999999716
 30
0.0
 11
205.33727672035144
 21
-103.4999999999999716
 31
0.0
  0
LINE
  5
8E
100
AcDbEntity
  8
cut
 62
256
370
-1
 48
1.0
  6
BYLAYER
100
AcDbLine
 10
405.33727672035144
 20
-113.5000000000001279
 30
0.0
 11
405.33727672035144
 21
-103.5000000000001279
 31
0.0
  0
LINE
  5
8F
100
AcDbEntity
  8
cut
 62
256
370
-1
 48
1.0
  6
BYLAYER
100
AcDbLine
 10
5.3372767203513627
 20
-113.4999999999998863
 30
0.0
 11
5.3372767203513645
 21
-103.4999999999998863
 31
0.0
  0
LINE
  5
90
100
AcDbEntity
  8
cut
 62
256
370
-1
 48
1.0
  6
BYLAYER
100
AcDbLine
 10
205.3372767203514968
 20
113.4999999999999432
 30
0.0
 11
205.3372767203514968
 21
103.4999999999999432
 31
0.0
  0
LINE
  5
91
100
AcDbEntity
  8
cut
 62
256
370
-1
 48
1.0
  6
BYLAYER
100
AcDbLine
 10
405.33727672035144
 20
113.4999999999997868
 30
0.0
 11
405.33727672035144
 21
103.4999999999997868
 31
0.0
  0
LINE
  5
92
100
AcDbEntity
  8
cut
 62
256
370
-1
 48
1.0
  6
BYLAYER
100
AcDbLine
 10
5.3372767203514178
 20
113.5000000000000284
 30
0.0
 11
5.3372767203514151
 21
103.5000000000000284
 31
0.0
  0
ARC
  5
93
100
AcDbEntity
  8
cut
 62
256
370
-1
 48
1.0
  6
BYLAYER
100
AcDbCircle
 10
280.33727672035144
 20
-73.5000000000000568
 30
0.0
 40
25.0
100
AcDbArc
 50
0.0
 51
90.0
  0
ARC
  5
94
100
AcDbEntity
  8
cut
 62
256
370
-1
 48
1.0
  6
BYLAYER
100
AcDbCircle
 10
80.3372767203513689
 20
-73.4999999999999716
 30
0.0
 40
25.0
100
AcDbArc
 50
0.0
 51
90.0
  0
ARC
  5
95
100
AcDbEntity
  8
cut
 62
256
370
-1
 48
1.0
  6
BYLAYER
100
AcDbCircle
 10
130.33727672035144
 20
73.5
 30
0.0
 40
25.0
100
AcDbArc
 50
180.0
 51
270.0
  0
ARC
  5
96
100
AcDbEntity
  8
cut
 62
256
370
-1
 48
1.0
  6
BYLAYER
100
AcDbCircle
 10
330.33727672035144
 20
73.4999999999998437
 30
0.0
 40
25.0
100
AcDbArc
 50
180.0
 51
270.0
  0
ARC
  5
97
100
AcDbEntity
  8
cut
 62
256
370
-1
 48
1.0
  6
BYLAYER
100
AcDbCircle
 10
-69.6627232796486311
 20
73.5000000000000853
 30
0.0
 40
25.0
100
AcDbArc
 50
180.0
 51
270.0
  0
ARC
  5
98
100
AcDbEntity
  8
cut
 62
256
370
-1
 48
1.0
  6
BYLAYER
100
AcDbCircle
 10
230.3372767203514115
 20
-123.5000000000000426
 30
0.0
 40
25.0
100
AcDbArc
 50
180.0
 51
270.0
  0
ARC
  5
99
100
AcDbEntity
  8
cut
 62
256
370
-1
 48
1.0
  6
BYLAYER
100
AcDbCircle
 10
30.3372767203513263
 20
-123.4999999999999574
 30
0.0
 40
25.0
100
AcDbArc
 50
180.0
 51
270.0
  0
ARC
  5
9A
100
AcDbEntity
  8
cut
 62
256
370
-1
 48
1.0
  6
BYLAYER
100
AcDbCircle
 10
180.3372767203514684
 20
123.5
 30
0.0
 40
25.0
100
AcDbArc
 50
0.0
 51
90.0
  0
ARC
  5
9B
100
AcDbEntity
  8
cut
 62
256
370
-1
 48
1.0
  6
BYLAYER
100
AcDbCircle
 10
380.33727672035144
 20
123.4999999999998437
 30
0.0
 40
25.0
100
AcDbArc
 50
0.0
 51
90.0
  0
ARC
  5
9C
100
AcDbEntity
  8
cut
 62
256
370
-1
 48
1.0
  6
BYLAYER
100
AcDbCircle
 10
-19.662723279648624
 20
123.5000000000000853
 30
0.0
 40
25.0
100
AcDbArc
 50
0.0
 51
90.0
  0
ARC
  5
9D
100
AcDbEntity
  8
cut
 62
256
370
-1
 48
1.0
  6
BYLAYER
100
AcDbCircle
 10
230.33727672035144
 20
-73.5000000000000711
 30
0.0
 40
25.0
100
AcDbArc
 50
90.0
 51
180.0
  0
ARC
  5
9E
100
AcDbEntity
  8
cut
 62
256
370
-1
 48
1.0
  6
BYLAYER
100
AcDbCircle
 10
30.3372767203513511
 20
-73.4999999999999858
 30
0.0
 40
25.0
100
AcDbArc
 50
90.0
 51
180.0
  0
ARC
  5
9F
100
AcDbEntity
  8
cut
 62
256
370
-1
 48
1.0
  6
BYLAYER
100
AcDbCircle
 10
180.3372767203514684
 20
73.5
 30
0.0
 40
25.0
100
AcDbArc
 50
270.0
 51
0.0
  0
ARC
  5
A0
100
AcDbEntity
  8
cut
 62
256
370
-1
 48
1.0
  6
BYLAYER
100
AcDbCircle
 10
380.33727672035144
 20
73.4999999999998437
 30
0.0
 40
25.0
100
AcDbArc
 50
270.0
 51
0.0
  0
ARC
  5
A1
100
AcDbEntity
  8
cut
 62
256
370
-1
 48
1.0
  6
BYLAYER
100
AcDbCircle
 10
-19.6627232796486098
 20
73.5000000000000853
 30
0.0
 40
25.0
100
AcDbArc
 50
270.0
 51
0.0
  0
ARC
  5
A2
100
AcDbEntity
  8
cut
 62
256
370
-1
 48
1.0
  6
BYLAYER
100
AcDbCircle
 10
280.3372767203514968
 20
-123.5000000000000426
 30
0.0
 40
25.0
100
AcDbArc
 50
270.0
 51
0.0
  0
ARC
  5
A3
100
AcDbEntity
  8
cut
 62
256
370
-1
 48
1.0
  6
BYLAYER
100
AcDbCircle
 10
80.3372767203513973
 20
-123.4999999999999574
 30
0.0
 40
25.0
100
AcDbArc
 50
270.0
 51
0.0
  0
ARC
  5
A4
100
AcDbEntity
  8
cut
 62
256
370
-1
 48
1.0
  6
BYLAYER
100
AcDbCircle
 10
130.3372767203514684
 20
123.4999999999999858
 30
0.0
 40
25.0
100
AcDbArc
 50
90.0
 51
180.0
  0
ARC
  5
A5
100
AcDbEntity
  8
cut
 62
256
370
-1
 48
1.0
  6
BYLAYER
100
AcDbCircle
 10
330.33727672035144
 20
123.4999999999998295
 30
0.0
 40
25.0
100
AcDbArc
 50
90.0
 51
180.0
  0
ARC
  5
A6
100
AcDbEntity
  8
cut
 62
256
370
-1
 48
1.0
  6
BYLAYER
100
AcDbCircle
 10
-69.6627232796486169
 20
123.5000000000000711
 30
0.0
 40
25.0
100
AcDbArc
 50
90.0
 51
180.0
  0
CIRCLE
  5
A7
100
AcDbEntity
  8
cut
 62
256
370
-1
 48
1.0
  6
BYLAYER
100
AcDbCircle
 10
255.3372767203514684
 20
-98.5000000000000568
 30
0.0
 40
7.5
  0
CIRCLE
  5
A8
100
AcDbEntity
  8
cut
 62
256
370
-1
 48
1.0
  6
BYLAYER
100
AcDbCircle
 10
55.337276720351376
 20
-98.4999999999999716
 30
0.0
 40
7.5
  0
CIRCLE
  5
A9
100
AcDbEntity
  8
cut
 62
256
370
-1
 48
1.0
  6
BYLAYER
100
AcDbCircle
 10
155.33727672035144
 20
98.4999999999999858
 30
0.0
 40
7.5
  0
CIRCLE
  5
AA
100
AcDbEntity
  8
cut
 62
256
370
-1
 48
1.0
  6
BYLAYER
100
AcDbCircle
 10
355.33727672035144
 20
98.4999999999998295
 30
0.0
 40
7.5
  0
CIRCLE
  5
AB
100
AcDbEntity
  8
cut
 62
256
370
-1
 48
1.0
  6
BYLAYER
100
AcDbCircle
 10
-44.6627232796486453
 20
98.5000000000000711
 30
0.0
 40
7.5
  0
LINE
  5
AC
100
AcDbEntity
  8
cut
 62
256
370
-1
 48
1.0
  6
BYLAYER
100
AcDbLine
 10
302.3372767203514968
 20
-123.5000000000000142
 30
0.0
 11
302.3372767203514968
 21
-113.5000000000000284
 31
0.0
  0
LINE
  5
AD
100
AcDbEntity
  8
cut
 62
256
370
-1
 48
1.0
  6
BYLAYER
100
AcDbLine
 10
102.3372767203514258
 20
-123.4999999999999289
 30
0.0
 11
102.3372767203514115
 21
-113.4999999999999432
 31
0.0
  0
LINE
  5
AE
100
AcDbEntity
  8
cut
 62
256
370
-1
 48
1.0
  6
BYLAYER
100
AcDbLine
 10
108.3372767203514968
 20
123.5000000000000284
 30
0.0
 11
108.3372767203514542
 21
113.5
 31
0.0
  0
LINE
  5
AF
100
AcDbEntity
  8
cut
 62
256
370
-1
 48
1.0
  6
BYLAYER
100
AcDbLine
 10
308.33727672035144
 20
123.4999999999998721
 30
0.0
 11
308.33727672035144
 21
113.4999999999998437
 31
0.0
  0
LINE
  5
B0
100
AcDbEntity
  8
cut
 62
256
370
-1
 48
1.0
  6
BYLAYER
100
AcDbLine
 10
-91.6627232796485885
 20
123.5000000000001137
 30
0.0
 11
-91.6627232796486311
 21
113.5000000000000853
 31
0.0
  0
LINE
  5
B1
100
AcDbEntity
  8
cut
 62
256
370
-1
 48
1.0
  6
BYLAYER
100
AcDbLine
 10
302.33727672035144
 20
-73.5000000000001137
 30
0.0
 11
302.3372767203514968
 21
-83.5000000000000142
 31
0.0
  0
LINE
  5
B2
100
AcDbEntity
  8
cut
 62
256
370
-1
 48
1.0
  6
BYLAYER
100
AcDbLine
 10
102.3372767203513689
 20
-73.5000000000000284
 30
0.0
 11
102.3372767203513973
 21
-83.4999999999999289
 31
0.0
  0
LINE
  5
B3
100
AcDbEntity
  8
cut
 62
256
370
-1
 48
1.0
  6
BYLAYER
100
AcDbLine
 10
108.3372767203514968
 20
73.5000000000000284
 30
0.0
 11
108.3372767203514684
 21
83.5
 31
0.0
  0
LINE
  5
B4
100
AcDbEntity
  8
cut
 62
256
370
-1
 48
1.0
  6
BYLAYER
100
AcDbLine
 10
308.33727672035144
 20
73.4999999999998721
 30
0.0
 11
308.33727672035144
 21
83.4999999999998437
 31
0.0
  0
LINE
  5
B5
100
AcDbEntity
  8
cut
 62
256
370
-1
 48
1.0
  6
BYLAYER
100
AcDbLine
 10
-91.6627232796485885
 20
73.5000000000001137
 30
0.0
 11
-91.6627232796486169
 21
83.5000000000000853
 31
0.0
  0
LINE
  5
B6
100
AcDbEntity
  8
cut
 62
256
370
-1
 48
1.0
  6
BYLAYER
100
AcDbLine
 10
208.3372767203516958
 20
-123.5000000000000568
 30
0.0
 11
208.3372767203515536
 21
-113.5000000000000284
 31
0.0
  0
LINE
  5
B7
100
AcDbEntity
  8
cut
 62
256
370
-1
 48
1.0
  6
BYLAYER
100
AcDbLine
 10
8.3372767203515998
 20
-123.4999999999999716
 30
0.0
 11
8.3372767203514648
 21
-113.4999999999999432
 31
0.0
  0
LINE
  5
B8
100
AcDbEntity
  8
cut
 62
256
370
-1
 48
1.0
  6
BYLAYER
100
AcDbLine
 10
202.3372767203511842
 20
123.5
 30
0.0
 11
202.3372767203513263
 21
113.5
 31
0.0
  0
LINE
  5
B9
100
AcDbEntity
  8
cut
 62
256
370
-1
 48
1.0
  6
BYLAYER
100
AcDbLine
 10
402.3372767203511557
 20
123.4999999999998437
 30
0.0
 11
402.3372767203513263
 21
113.4999999999998437
 31
0.0
  0
LINE
  5
BA
100
AcDbEntity
  8
cut
 62
256
370
-1
 48
1.0
  6
BYLAYER
100
AcDbLine
 10
2.3372767203510989
 20
123.5000000000000853
 30
0.0
 11
2.3372767203512388
 21
113.5000000000000853
 31
0.0
  0
LINE
  5
BB
100
AcDbEntity
  8
cut
 62
256
370
-1
 48
1.0
  6
BYLAYER
100
AcDbLine
 10
208.3372767203516389
 20
-73.5000000000000284
 30
0.0
 11
208.3372767203513831
 21
-83.5000000000000426
 31
0.0
  0
LINE
  5
BC
100
AcDbEntity
  8
cut
 62
256
370
-1
 48
1.0
  6
BYLAYER
100
AcDbLine
 10
8.3372767203515536
 20
-73.4999999999999432
 30
0.0
 11
8.3372767203512907
 21
-83.4999999999999574
 31
0.0
  0
LINE
  5
BD
100
AcDbEntity
  8
cut
 62
256
370
-1
 48
1.0
  6
BYLAYER
100
AcDbLine
 10
202.3372767203516673
 20
73.5
 30
0.0
 11
202.3372767203515536
 21
83.5
 31
0.0
  0
LINE
  5
BE
100
AcDbEntity
  8
cut
 62
256
370
-1
 48
1.0
  6
BYLAYER
100
AcDbLine
 10
402.3372767203516673
 20
73.4999999999998437
 30
0.0
 11
402.3372767203515536
 21
83.4999999999998437
 31
0.0
  0
LINE
  5
BF
100
AcDbEntity
  8
cut
 62
256
370
-1
 48
1.0
  6
BYLAYER
100
AcDbLine
 10
2.3372767203515807
 20
73.5000000000000853
 30
0.0
 11
2.3372767203514666
 21
83.5000000000000853
 31
0.0
  0
LINE
  5
C0
100
AcDbEntity
  8
cut
 62
256
370
-1
 48
1.0
  6
BYLAYER
100
AcDbLine
 10
108.3372767203514115
 20
-123.4999999999999574
 30
0.0
 11
108.3372767203513121
 21
-113.4999999999999005
 31
0.0
  0
LINE
  5
C1
100
AcDbEntity
  8
cut
 62
256
370
-1
 48
1.0
  6
BYLAYER
100
AcDbLine
 10
308.3372767203513831
 20
-123.5000000000001137
 30
0.0
 11
308.3372767203512694
 21
-113.5000000000000568
 31
0.0
  0
LINE
  5
C2
100
AcDbEntity
  8
cut
 62
256
370
-1
 48
1.0
  6
BYLAYER
100
AcDbLine
 10
-91.6627232796486737
 20
-123.4999999999998721
 30
0.0
 11
-91.6627232796487732
 21
-113.4999999999998153
 31
0.0
  0
LINE
  5
C3
100
AcDbEntity
  8
cut
 62
256
370
-1
 48
1.0
  6
BYLAYER
100
AcDbLine
 10
302.3372767203514968
 20
123.4999999999999147
 30
0.0
 11
302.3372767203514968
 21
113.4999999999999432
 31
0.0
  0
LINE
  5
C4
100
AcDbEntity
  8
cut
 62
256
370
-1
 48
1.0
  6
BYLAYER
100
AcDbLine
 10
102.3372767203514258
 20
123.5
 30
0.0
 11
102.33727672035144
 21
113.5000000000000284
 31
0.0
  0
LINE
  5
C5
100
AcDbEntity
  8
cut
 62
256
370
-1
 48
1.0
  6
BYLAYER
100
AcDbLine
 10
108.3372767203513973
 20
-73.4999999999999005
 30
0.0
 11
108.3372767203513973
 21
-83.4999999999999432
 31
0.0
  0
LINE
  5
C6
100
AcDbEntity
  8
cut
 62
256
370
-1
 48
1.0
  6
BYLAYER
100
AcDbLine
 10
308.3372767203513831
 20
-73.5000000000000568
 30
0.0
 11
308.3372767203513831
 21
-83.5000000000000995
 31
0.0
  0
LINE
  5
C7
100
AcDbEntity
  8
cut
 62
256
370
-1
 48
1.0
  6
BYLAYER
100
AcDbLine
 10
-91.6627232796486879
 20
-73.4999999999998153
 30
0.0
 11
-91.6627232796486879
 21
-83.4999999999998579
 31
0.0
  0
LINE
  5
C8
100
AcDbEntity
  8
cut
 62
256
370
-1
 48
1.0
  6
BYLAYER
100
AcDbLine
 10
302.3372767203514968
 20
73.4999999999999289
 30
0.0
 11
302.3372767203515536
 21
83.4999999999998721
 31
0.0
  0
LINE
  5
C9
100
AcDbEntity
  8
cut
 62
256
370
-1
 48
1.0
  6
BYLAYER
100
AcDbLine
 10
102.3372767203514115
 20
73.5000000000000142
 30
0.0
 11
102.3372767203514826
 21
83.4999999999999574
 31
0.0
  0
LINE
  5
CA
100
AcDbEntity
  8
cut
 62
256
370
-1
 48
1.0
  6
BYLAYER
100
AcDbLine
 10
202.3372767203512126
 20
-123.4999999999999716
 30
0.0
 11
202.3372767203513547
 21
-113.4999999999999716
 31
0.0
  0
LINE
  5
CB
100
AcDbEntity
  8
cut
 62
256
370
-1
 48
1.0
  6
BYLAYER
100
AcDbLine
 10
402.3372767203512126
 20
-123.5000000000001279
 30
0.0
 11
402.3372767203513263
 21
-113.5000000000001279
 31
0.0
  0
LINE
  5
CC
100
AcDbEntity
  8
cut
 62
256
370
-1
 48
1.0
  6
BYLAYER
100
AcDbLine
 10
2.3372767203511242
 20
-123.4999999999998863
 30
0.0
 11
2.3372767203512623
 21
-113.4999999999998863
 31
0.0
  0
LINE
  5
CD
100
AcDbEntity
  8
cut
 62
256
370
-1
 48
1.0
  6
BYLAYER
100
AcDbLine
 10
208.3372767203517526
 20
123.4999999999999432
 30
0.0
 11
208.3372767203516105
 21
113.4999999999999432
 31
0.0
  0
LINE
  5
CE
100
AcDbEntity
  8
cut
 62
256
370
-1
 48
1.0
  6
BYLAYER
100
AcDbLine
 10
8.3372767203516567
 20
123.5000000000000284
 30
0.0
 11
8.3372767203515181
 21
113.5000000000000284
 31
0.0
  0
LINE
  5
CF
100
AcDbEntity
  8
cut
 62
256
370
-1
 48
1.0
  6
BYLAYER
100
AcDbLine
 10
202.3372767203516673
 20
-73.4999999999999716
 30
0.0
 11
202.3372767203515252
 21
-83.4999999999999716
 31
0.0
  0
LINE
  5
D0
100
AcDbEntity
  8
cut
 62
256
370
-1
 48
1.0
  6
BYLAYER
100
AcDbLine
 10
402.3372767203516673
 20
-73.5000000000001279
 30
0.0
 11
402.3372767203514968
 21
-83.5000000000001279
 31
0.0
  0
LINE
  5
D1
100
AcDbEntity
  8
cut
 62
256
370
-1
 48
1.0
  6
BYLAYER
100
AcDbLine
 10
2.3372767203515803
 20
-73.4999999999998863
 30
0.0
 11
2.3372767203514475
 21
-83.4999999999998863
 31
0.0
  0
LINE
  5
D2
100
AcDbEntity
  8
cut
 62
256
370
-1
 48
1.0
  6
BYLAYER
100
AcDbLine
 10
208.3372767203516673
 20
73.4999999999999432
 30
0.0
 11
208.3372767203514115
 21
83.4999999999999432
 31
0.0
  0
LINE
  5
D3
100
AcDbEntity
  8
cut
 62
256
370
-1
 48
1.0
  6
BYLAYER
100
AcDbLine
 10
8.3372767203515856
 20
73.5000000000000284
 30
0.0
 11
8.3372767203513281
 21
83.5000000000000284
 31
0.0
  0
LINE
  5
D4
100
AcDbEntity
  8
cut
 62
256
370
-1
 48
1.0
  6
BYLAYER
100
AcDbLine
 10
240.3372767203514968
 20
-145.5000000000000284
 30
0.0
 11
230.3372767203514115
 21
-145.5000000000000568
 31
0.0
  0
LINE
  5
D5
100
AcDbEntity
  8
cut
 62
256
370
-1
 48
1.0
  6
BYLAYER
100
AcDbLine
 10
40.3372767203513973
 20
-145.4999999999999432
 30
0.0
 11
30.3372767203513227
 21
-145.4999999999999716
 31
0.0
  0
LINE
  5
D6
100
AcDbEntity
  8
cut
 62
256
370
-1
 48
1.0
  6
BYLAYER
100
AcDbLine
 10
170.33727672035144
 20
145.5
 30
0.0
 11
180.33727672035144
 21
145.5
 31
0.0
  0
LINE
  5
D7
100
AcDbEntity
  8
cut
 62
256
370
-1
 48
1.0
  6
BYLAYER
100
AcDbLine
 10
370.33727672035144
 20
145.4999999999998295
 30
0.0
 11
380.33727672035144
 21
145.4999999999998295
 31
0.0
  0
LINE
  5
D8
100
AcDbEntity
  8
cut
 62
256
370
-1
 48
1.0
  6
BYLAYER
100
AcDbLine
 10
-29.6627232796486382
 20
145.5000000000000853
 30
0.0
 11
-19.6627232796486346
 21
145.5000000000000853
 31
0.0
  0
LINE
  5
D9
100
AcDbEntity
  8
cut
 62
256
370
-1
 48
1.0
  6
BYLAYER
100
AcDbLine
 10
240.3372767203514684
 20
-51.5000000000000426
 30
0.0
 11
230.3372767203514684
 21
-51.5000000000000568
 31
0.0
  0
LINE
  5
DA
100
AcDbEntity
  8
cut
 62
256
370
-1
 48
1.0
  6
BYLAYER
100
AcDbLine
 10
40.3372767203513902
 20
-51.4999999999999574
 30
0.0
 11
30.337276720351376
 21
-51.4999999999999716
 31
0.0
  0
LINE
  5
DB
100
AcDbEntity
  8
cut
 62
256
370
-1
 48
1.0
  6
BYLAYER
100
AcDbLine
 10
170.3372767203514684
 20
51.5000000000000071
 30
0.0
 11
180.3372767203514968
 21
51.5000000000000071
 31
0.0
  0
LINE
  5
DC
100
AcDbEntity
  8
cut
 62
256
370
-1
 48
1.0
  6
BYLAYER
100
AcDbLine
 10
370.33727672035144
 20
51.4999999999998508
 30
0.0
 11
380.33727672035144
 21
51.4999999999998508
 31
0.0
  0
LINE
  5
DD
100
AcDbEntity
  8
cut
 62
256
370
-1
 48
1.0
  6
BYLAYER
100
AcDbLine
 10
-29.6627232796486098
 20
51.5000000000000924
 30
0.0
 11
-19.662723279648592
 21
51.5000000000000924
 31
0.0
  0
LINE
  5
DE
100
AcDbEntity
  8
cut
 62
256
370
-1
 48
1.0
  6
BYLAYER
100
AcDbLine
 10
270.3372767203513831
 20
-145.5000000000000853
 30
0.0
 11
280.3372767203513831
 21
-145.5000000000001137
 31
0.0
  0
LINE
  5
DF
100
AcDbEntity
  8
cut
 62
256
370
-1
 48
1.0
  6
BYLAYER
100
AcDbLine
 10
70.3372767203512836
 20
-145.5
 30
0.0
 11
80.3372767203512694
 21
-145.5000000000000284
 31
0.0
  0
LINE
  5
E0
100
AcDbEntity
  8
cut
 62
256
370
-1
 48
1.0
  6
BYLAYER
100
AcDbLine
 10
140.33727672035144
 20
145.5
 30
0.0
 11
130.3372767203514684
 21
145.5
 31
0.0
  0
LINE
  5
E1
100
AcDbEntity
  8
cut
 62
256
370
-1
 48
1.0
  6
BYLAYER
100
AcDbLine
 10
340.33727672035144
 20
145.4999999999998295
 30
0.0
 11
330.33727672035144
 21
145.4999999999998295
 31
0.0
  0
LINE
  5
E2
100
AcDbEntity
  8
cut
 62
256
370
-1
 48
1.0
  6
BYLAYER
100
AcDbLine
 10
-59.6627232796486311
 20
145.5000000000000853
 30
0.0
 11
-69.6627232796486169
 21
145.5000000000000853
 31
0.0
  0
LINE
  5
E3
100
AcDbEntity
  8
cut
 62
256
370
-1
 48
1.0
  6
BYLAYER
100
AcDbLine
 10
270.3372767203514968
 20
-51.5000000000000568
 30
0.0
 11
280.33727672035144
 21
-51.5000000000000782
 31
0.0
  0
LINE
  5
E4
100
AcDbEntity
  8
cut
 62
256
370
-1
 48
1.0
  6
BYLAYER
100
AcDbLine
 10
70.3372767203513973
 20
-51.4999999999999716
 30
0.0
 11
80.3372767203513547
 21
-51.4999999999999929
 31
0.0
  0
LINE
  5
E5
100
AcDbEntity
  8
cut
 62
256
370
-1
 48
1.0
  6
BYLAYER
100
AcDbLine
 10
140.33727672035144
 20
51.4999999999999858
 30
0.0
 11
130.3372767203514968
 21
51.5000000000000213
 31
0.0
  0
LINE
  5
E6
100
AcDbEntity
  8
cut
 62
256
370
-1
 48
1.0
  6
BYLAYER
100
AcDbLine
 10
340.33727672035144
 20
51.4999999999998295
 30
0.0
 11
330.33727672035144
 21
51.499999999999865
 31
0.0
  0
LINE
  5
E7
100
AcDbEntity
  8
cut
 62
256
370
-1
 48
1.0
  6
BYLAYER
100
AcDbLine
 10
-59.6627232796486311
 20
51.5000000000000711
 30
0.0
 11
-69.6627232796486027
 21
51.5000000000001066
 31
0.0
  0
LINE
  5
E8
100
AcDbEntity
  8
cut
 62
256
370
-1
 48
1.0
  6
BYLAYER
100
AcDbLine
 10
140.3372767203516958
 20
-145.5
 30
0.0
 11
130.33727672035144
 21
-145.4999999999999432
 31
0.0
  0
LINE
  5
E9
100
AcDbEntity
  8
cut
 62
256
370
-1
 48
1.0
  6
BYLAYER
100
AcDbLine
 10
340.3372767203516673
 20
-145.5000000000001705
 30
0.0
 11
330.33727672035144
 21
-145.5000000000001137
 31
0.0
  0
LINE
  5
EA
100
AcDbEntity
  8
cut
 62
256
370
-1
 48
1.0
  6
BYLAYER
100
AcDbLine
 10
-59.6627232796483895
 20
-145.4999999999999147
 30
0.0
 11
-69.6627232796486453
 21
-145.4999999999998579
 31
0.0
  0
LINE
  5
EB
100
AcDbEntity
  8
cut
 62
256
370
-1
 48
1.0
  6
BYLAYER
100
AcDbLine
 10
270.3372767203515536
 20
145.4999999999999147
 30
0.0
 11
280.3372767203514968
 21
145.4999999999999147
 31
0.0
  0
LINE
  5
EC
100
AcDbEntity
  8
cut
 62
256
370
-1
 48
1.0
  6
BYLAYER
100
AcDbLine
 10
70.3372767203514542
 20
145.5
 30
0.0
 11
80.3372767203514115
 21
145.5
 31
0.0
  0
LINE
  5
ED
100
AcDbEntity
  8
cut
 62
256
370
-1
 48
1.0
  6
BYLAYER
100
AcDbLine
 10
140.33727672035144
 20
-51.4999999999999432
 30
0.0
 11
130.3372767203514115
 21
-51.4999999999999361
 31
0.0
  0
LINE
  5
EE
100
AcDbEntity
  8
cut
 62
256
370
-1
 48
1.0
  6
BYLAYER
100
AcDbLine
 10
340.33727672035144
 20
-51.5000000000000995
 30
0.0
 11
330.3372767203513831
 21
-51.5000000000000924
 31
0.0
  0
LINE
  5
EF
100
AcDbEntity
  8
cut
 62
256
370
-1
 48
1.0
  6
BYLAYER
100
AcDbLine
 10
-59.6627232796486595
 20
-51.4999999999998579
 30
0.0
 11
-69.6627232796486737
 21
-51.4999999999998508
 31
0.0
  0
LINE
  5
F0
100
AcDbEntity
  8
cut
 62
256
370
-1
 48
1.0
  6
BYLAYER
100
AcDbLine
 10
270.3372767203514968
 20
51.4999999999999218
 30
0.0
 11
280.3372767203514968
 21
51.4999999999999503
 31
0.0
  0
LINE
  5
F1
100
AcDbEntity
  8
cut
 62
256
370
-1
 48
1.0
  6
BYLAYER
100
AcDbLine
 10
70.3372767203514258
 20
51.5000000000000071
 30
0.0
 11
80.3372767203513973
 21
51.5000000000000355
 31
0.0
  0
LINE
  5
F2
100
AcDbEntity
  8
cut
 62
256
370
-1
 48
1.0
  6
BYLAYER
100
AcDbLine
 10
170.3372767203514115
 20
-145.4999999999999716
 30
0.0
 11
180.3372767203514968
 21
-145.4999999999999716
 31
0.0
  0
LINE
  5
F3
100
AcDbEntity
  8
cut
 62
256
370
-1
 48
1.0
  6
BYLAYER
100
AcDbLine
 10
370.3372767203513831
 20
-145.5000000000001137
 30
0.0
 11
380.33727672035144
 21
-145.5000000000001137
 31
0.0
  0
LINE
  5
F4
100
AcDbEntity
  8
cut
 62
256
370
-1
 48
1.0
  6
BYLAYER
100
AcDbLine
 10
-29.6627232796486666
 20
-145.4999999999998863
 30
0.0
 11
-19.6627232796485991
 21
-145.4999999999998863
 31
0.0
  0
LINE
  5
F5
100
AcDbEntity
  8
cut
 62
256
370
-1
 48
1.0
  6
BYLAYER
100
AcDbLine
 10
240.3372767203515252
 20
145.4999999999999432
 30
0.0
 11
230.3372767203515821
 21
145.4999999999999432
 31
0.0
  0
LINE
  5
F6
100
AcDbEntity
  8
cut
 62
256
370
-1
 48
1.0
  6
BYLAYER
100
AcDbLine
 10
40.3372767203514471
 20
145.5000000000000284
 30
0.0
 11
30.3372767203515075
 21
145.5000000000000284
 31
0.0
  0
LINE
  5
F7
100
AcDbEntity
  8
cut
 62
256
370
-1
 48
1.0
  6
BYLAYER
100
AcDbLine
 10
170.3372767203514684
 20
-51.4999999999999716
 30
0.0
 11
180.3372767203514968
 21
-51.4999999999999787
 31
0.0
  0
LINE
  5
F8
100
AcDbEntity
  8
cut
 62
256
370
-1
 48
1.0
  6
BYLAYER
100
AcDbLine
 10
370.33727672035144
 20
-51.5000000000001279
 30
0.0
 11
380.33727672035144
 21
-51.500000000000135
 31
0.0
  0
LINE
  5
F9
100
AcDbEntity
  8
cut
 62
256
370
-1
 48
1.0
  6
BYLAYER
100
AcDbLine
 10
-29.6627232796486098
 20
-51.4999999999998863
 30
0.0
 11
-19.662723279648592
 21
-51.4999999999998934
 31
0.0
  0
LINE
  5
FA
100
AcDbEntity
  8
cut
 62
256
370
-1
 48
1.0
  6
BYLAYER
100
AcDbLine
 10
240.3372767203514968
 20
51.4999999999999289
 30
0.0
 11
230.3372767203514968
 21
51.4999999999999361
 31
0.0
  0
LINE
  5
FB
100
AcDbEntity
  8
cut
 62
256
370
-1
 48
1.0
  6
BYLAYER
100
AcDbLine
 10
40.3372767203514186
 20
51.5000000000000142
 30
0.0
 11
30.3372767203514044
 21
51.5000000000000213
 31
0.0
  0
LINE
  5
FC
100
AcDbEntity
  8
cut
 62
256
370
-1
 48
1.0
  6
BYLAYER
100
AcDbLine
 10
205.3372767203514684
 20
-73.5000000000000284
 30
0.0
 11
208.3372767203516389
 21
-73.5000000000000284
 31
0.0
  0
LINE
  5
FD
100
AcDbEntity
  8
cut
 62
256
370
-1
 48
1.0
  6
BYLAYER
100
AcDbLine
 10
5.3372767203513698
 20
-73.4999999999999432
 30
0.0
 11
8.3372767203515536
 21
-73.4999999999999432
 31
0.0
  0
LINE
  5
FE
100
AcDbEntity
  8
cut
 62
256
370
-1
 48
1.0
  6
BYLAYER
100
AcDbLine
 10
205.3372767203514684
 20
73.5
 30
0.0
 11
202.3372767203516673
 21
73.5
 31
0.0
  0
LINE
  5
FF
100
AcDbEntity
  8
cut
 62
256
370
-1
 48
1.0
  6
BYLAYER
100
AcDbLine
 10
405.33727672035144
 20
73.4999999999998437
 30
0.0
 11
402.3372767203516673
 21
73.4999999999998437
 31
0.0
  0
LINE
  5
100
100
AcDbEntity
  8
cut
 62
256
370
-1
 48
1.0
  6
BYLAYER
100
AcDbLine
 10
5.3372767203513876
 20
73.5000000000000853
 30
0.0
 11
2.3372767203515807
 21
73.5000000000000853
 31
0.0
  0
LINE
  5
101
100
AcDbEntity
  8
cut
 62
256
370
-1
 48
1.0
  6
BYLAYER
100
AcDbLine
 10
205.33727672035144
 20
-123.5000000000000284
 30
0.0
 11
208.3372767203516958
 21
-123.5000000000000568
 31
0.0
  0
LINE
  5
102
100
AcDbEntity
  8
cut
 62
256
370
-1
 48
1.0
  6
BYLAYER
100
AcDbLine
 10
5.33727672035136
 20
-123.4999999999999432
 30
0.0
 11
8.3372767203515998
 21
-123.4999999999999716
 31
0.0
  0
LINE
  5
103
100
AcDbEntity
  8
cut
 62
256
370
-1
 48
1.0
  6
BYLAYER
100
AcDbLine
 10
205.3372767203514684
 20
123.5
 30
0.0
 11
202.3372767203511842
 21
123.5
 31
0.0
  0
LINE
  5
104
100
AcDbEntity
  8
cut
 62
256
370
-1
 48
1.0
  6
BYLAYER
100
AcDbLine
 10
405.33727672035144
 20
123.4999999999998437
 30
0.0
 11
402.3372767203511557
 21
123.4999999999998437
 31
0.0
  0
LINE
  5
105
100
AcDbEntity
  8
cut
 62
256
370
-1
 48
1.0
  6
BYLAYER
100
AcDbLine
 10
5.3372767203513911
 20
123.5000000000000853
 30
0.0
 11
2.3372767203510989
 21
123.5000000000000853
 31
0.0
  0
LINE
  5
106
100
AcDbEntity
  8
cut
 62
256
370
-1
 48
1.0
  6
BYLAYER
100
AcDbLine
 10
305.3372767203514968
 20
-123.5000000000000142
 30
0.0
 11
302.3372767203514968
 21
-123.5000000000000142
 31
0.0
  0
LINE
  5
107
100
AcDbEntity
  8
cut
 62
256
370
-1
 48
1.0
  6
BYLAYER
100
AcDbLine
 10
105.3372767203514258
 20
-123.4999999999999289
 30
0.0
 11
102.3372767203514258
 21
-123.4999999999999289
 31
0.0
  0
LINE
  5
108
100
AcDbEntity
  8
cut
 62
256
370
-1
 48
1.0
  6
BYLAYER
100
AcDbLine
 10
105.3372767203514826
 20
123.5000000000000284
 30
0.0
 11
108.3372767203514968
 21
123.5000000000000284
 31
0.0
  0
LINE
  5
109
100
AcDbEntity
  8
cut
 62
256
370
-1
 48
1.0
  6
BYLAYER
100
AcDbLine
 10
305.33727672035144
 20
123.4999999999998721
 30
0.0
 11
308.33727672035144
 21
123.4999999999998721
 31
0.0
  0
LINE
  5
10A
100
AcDbEntity
  8
cut
 62
256
370
-1
 48
1.0
  6
BYLAYER
100
AcDbLine
 10
-94.6627232796486027
 20
123.5000000000001137
 30
0.0
 11
-91.6627232796485885
 21
123.5000000000001137
 31
0.0
  0
LINE
  5
10B
100
AcDbEntity
  8
cut
 62
256
370
-1
 48
1.0
  6
BYLAYER
100
AcDbLine
 10
305.33727672035144
 20
-73.5000000000000568
 30
0.0
 11
302.33727672035144
 21
-73.5000000000001137
 31
0.0
  0
LINE
  5
10C
100
AcDbEntity
  8
cut
 62
256
370
-1
 48
1.0
  6
BYLAYER
100
AcDbLine
 10
105.3372767203513689
 20
-73.4999999999999716
 30
0.0
 11
102.3372767203513689
 21
-73.5000000000000284
 31
0.0
  0
LINE
  5
10D
100
AcDbEntity
  8
cut
 62
256
370
-1
 48
1.0
  6
BYLAYER
100
AcDbLine
 10
105.3372767203514968
 20
73.5000000000000284
 30
0.0
 11
108.3372767203514968
 21
73.5000000000000284
 31
0.0
  0
LINE
  5
10E
100
AcDbEntity
  8
cut
 62
256
370
-1
 48
1.0
  6
BYLAYER
100
AcDbLine
 10
305.33727672035144
 20
73.4999999999998721
 30
0.0
 11
308.33727672035144
 21
73.4999999999998721
 31
0.0
  0
LINE
  5
10F
100
AcDbEntity
  8
cut
 62
256
370
-1
 48
1.0
  6
BYLAYER
100
AcDbLine
 10
-94.6627232796485885
 20
73.5000000000001137
 30
0.0
 11
-91.6627232796485885
 21
73.5000000000001137
 31
0.0
  0
LINE
  5
110
100
AcDbEntity
  8
cut
 62
256
370
-1
 48
1.0
  6
BYLAYER
100
AcDbLine
 10
230.33727672035144
 20
-48.5000000000000711
 30
0.0
 11
230.3372767203514684
 21
-51.5000000000000568
 31
0.0
  0
LINE
  5
111
100
AcDbEntity
  8
cut
 62
256
370
-1
 48
1.0
  6
BYLAYER
100
AcDbLine
 10
30.3372767203513618
 20
-48.4999999999999858
 30
0.0
 11
30.337276720351376
 21
-51.4999999999999716
 31
0.0
  0
LINE
  5
112
100
AcDbEntity
  8
cut
 62
256
370
-1
 48
1.0
  6
BYLAYER
100
AcDbLine
 10
180.3372767203514968
 20
48.5000000000000071
 30
0.0
 11
180.3372767203514968
 21
51.5000000000000071
 31
0.0
  0
LINE
  5
113
100
AcDbEntity
  8
cut
 62
256
370
-1
 48
1.0
  6
BYLAYER
100
AcDbLine
 10
380.33727672035144
 20
48.4999999999998508
 30
0.0
 11
380.33727672035144
 21
51.4999999999998508
 31
0.0
  0
LINE
  5
114
100
AcDbEntity
  8
cut
 62
256
370
-1
 48
1.0
  6
BYLAYER
100
AcDbLine
 10
-19.6627232796485956
 20
48.5000000000000924
 30
0.0
 11
-19.662723279648592
 21
51.5000000000000924
 31
0.0
  0
LINE
  5
115
100
AcDbEntity
  8
cut
 62
256
370
-1
 48
1.0
  6
BYLAYER
100
AcDbLine
 10
230.3372767203514684
 20
-148.5000000000000568
 30
0.0
 11
230.3372767203514115
 21
-145.5000000000000568
 31
0.0
  0
LINE
  5
116
100
AcDbEntity
  8
cut
 62
256
370
-1
 48
1.0
  6
BYLAYER
100
AcDbLine
 10
30.3372767203513725
 20
-148.4999999999999716
 30
0.0
 11
30.3372767203513227
 21
-145.4999999999999716
 31
0.0
  0
LINE
  5
117
100
AcDbEntity
  8
cut
 62
256
370
-1
 48
1.0
  6
BYLAYER
100
AcDbLine
 10
180.3372767203514968
 20
148.5
 30
0.0
 11
180.33727672035144
 21
145.5
 31
0.0
  0
LINE
  5
118
100
AcDbEntity
  8
cut
 62
256
370
-1
 48
1.0
  6
BYLAYER
100
AcDbLine
 10
380.33727672035144
 20
148.4999999999998295
 30
0.0
 11
380.33727672035144
 21
145.4999999999998295
 31
0.0
  0
LINE
  5
119
100
AcDbEntity
  8
cut
 62
256
370
-1
 48
1.0
  6
BYLAYER
100
AcDbLine
 10
-19.6627232796485814
 20
148.5000000000000853
 30
0.0
 11
-19.6627232796486346
 21
145.5000000000000853
 31
0.0
  0
LINE
  5
11A
100
AcDbEntity
  8
cut
 62
256
370
-1
 48
1.0
  6
BYLAYER
100
AcDbLine
 10
280.3372767203513831
 20
-148.5000000000000568
 30
0.0
 11
280.3372767203513831
 21
-145.5000000000001137
 31
0.0
  0
LINE
  5
11B
100
AcDbEntity
  8
cut
 62
256
370
-1
 48
1.0
  6
BYLAYER
100
AcDbLine
 10
80.3372767203512979
 20
-148.4999999999999716
 30
0.0
 11
80.3372767203512694
 21
-145.5000000000000284
 31
0.0
  0
LINE
  5
11C
100
AcDbEntity
  8
cut
 62
256
370
-1
 48
1.0
  6
BYLAYER
100
AcDbLine
 10
130.3372767203514968
 20
148.5
 30
0.0
 11
130.3372767203514684
 21
145.5
 31
0.0
  0
LINE
  5
11D
100
AcDbEntity
  8
cut
 62
256
370
-1
 48
1.0
  6
BYLAYER
100
AcDbLine
 10
330.33727672035144
 20
148.4999999999998295
 30
0.0
 11
330.33727672035144
 21
145.4999999999998295
 31
0.0
  0
LINE
  5
11E
100
AcDbEntity
  8
cut
 62
256
370
-1
 48
1.0
  6
BYLAYER
100
AcDbLine
 10
-69.6627232796486027
 20
148.5000000000000853
 30
0.0
 11
-69.6627232796486169
 21
145.5000000000000853
 31
0.0
  0
LINE
  5
11F
100
AcDbEntity
  8
cut
 62
256
370
-1
 48
1.0
  6
BYLAYER
100
AcDbLine
 10
280.3372767203514968
 20
-48.5000000000000568
 30
0.0
 11
280.33727672035144
 21
-51.5000000000000782
 31
0.0
  0
LINE
  5
120
100
AcDbEntity
  8
cut
 62
256
370
-1
 48
1.0
  6
BYLAYER
100
AcDbLine
 10
80.3372767203514115
 20
-48.4999999999999716
 30
0.0
 11
80.3372767203513547
 21
-51.4999999999999929
 31
0.0
  0
LINE
  5
121
100
AcDbEntity
  8
cut
 62
256
370
-1
 48
1.0
  6
BYLAYER
100
AcDbLine
 10
130.3372767203514968
 20
48.5000000000000142
 30
0.0
 11
130.3372767203514968
 21
51.5000000000000213
 31
0.0
  0
LINE
  5
122
100
AcDbEntity
  8
cut
 62
256
370
-1
 48
1.0
  6
BYLAYER
100
AcDbLine
 10
330.33727672035144
 20
48.4999999999998579
 30
0.0
 11
330.33727672035144
 21
51.499999999999865
 31
0.0
  0
LINE
  5
123
100
AcDbEntity
  8
cut
 62
256
370
-1
 48
1.0
  6
BYLAYER
100
AcDbLine
 10
-69.6627232796486027
 20
48.5000000000000995
 30
0.0
 11
-69.6627232796486027
 21
51.5000000000001066
 31
0.0
  0
LINE
  5
124
100
AcDbEntity
  8
cut
 62
256
370
-1
 48
1.0
  6
BYLAYER
100
AcDbLine
 10
205.33727672035144
 20
-83.5000000000000284
 30
0.0
 11
208.3372767203513831
 21
-83.5000000000000426
 31
0.0
  0
LINE
  5
125
100
AcDbEntity
  8
cut
 62
256
370
-1
 48
1.0
  6
BYLAYER
100
AcDbLine
 10
5.337276720351368
 20
-83.4999999999999432
 30
0.0
 11
8.3372767203512907
 21
-83.4999999999999574
 31
0.0
  0
LINE
  5
126
100
AcDbEntity
  8
cut
 62
256
370
-1
 48
1.0
  6
BYLAYER
100
AcDbLine
 10
205.3372767203514684
 20
83.5
 30
0.0
 11
202.3372767203515536
 21
83.5
 31
0.0
  0
LINE
  5
127
100
AcDbEntity
  8
cut
 62
256
370
-1
 48
1.0
  6
BYLAYER
100
AcDbLine
 10
405.33727672035144
 20
83.4999999999998437
 30
0.0
 11
402.3372767203515536
 21
83.4999999999998437
 31
0.0
  0
LINE
  5
128
100
AcDbEntity
  8
cut
 62
256
370
-1
 48
1.0
  6
BYLAYER
100
AcDbLine
 10
5.3372767203513884
 20
83.5000000000000853
 30
0.0
 11
2.3372767203514666
 21
83.5000000000000853
 31
0.0
  0
LINE
  5
129
100
AcDbEntity
  8
cut
 62
256
370
-1
 48
1.0
  6
BYLAYER
100
AcDbLine
 10
205.33727672035144
 20
-113.5000000000000284
 30
0.0
 11
208.3372767203515536
 21
-113.5000000000000284
 31
0.0
  0
LINE
  5
12A
100
AcDbEntity
  8
cut
 62
256
370
-1
 48
1.0
  6
BYLAYER
100
AcDbLine
 10
5.3372767203513627
 20
-113.4999999999999432
 30
0.0
 11
8.3372767203514648
 21
-113.4999999999999432
 31
0.0
  0
LINE
  5
12B
100
AcDbEntity
  8
cut
 62
256
370
-1
 48
1.0
  6
BYLAYER
100
AcDbLine
 10
205.3372767203514684
 20
113.5
 30
0.0
 11
202.3372767203513263
 21
113.5
 31
0.0
  0
LINE
  5
12C
100
AcDbEntity
  8
cut
 62
256
370
-1
 48
1.0
  6
BYLAYER
100
AcDbLine
 10
405.33727672035144
 20
113.4999999999998437
 30
0.0
 11
402.3372767203513263
 21
113.4999999999998437
 31
0.0
  0
LINE
  5
12D
100
AcDbEntity
  8
cut
 62
256
370
-1
 48
1.0
  6
BYLAYER
100
AcDbLine
 10
5.3372767203513902
 20
113.5000000000000853
 30
0.0
 11
2.3372767203512388
 21
113.5000000000000853
 31
0.0
  0
LINE
  5
12E
100
AcDbEntity
  8
cut
 62
256
370
-1
 48
1.0
  6
BYLAYER
100
AcDbLine
 10
305.33727672035144
 20
-113.5000000000000853
 30
0.0
 11
302.3372767203514968
 21
-113.5000000000000284
 31
0.0
  0
LINE
  5
12F
100
AcDbEntity
  8
cut
 62
256
370
-1
 48
1.0
  6
BYLAYER
100
AcDbLine
 10
105.3372767203513689
 20
-113.5
 30
0.0
 11
102.3372767203514115
 21
-113.4999999999999432
 31
0.0
  0
LINE
  5
130
100
AcDbEntity
  8
cut
 62
256
370
-1
 48
1.0
  6
BYLAYER
100
AcDbLine
 10
105.3372767203514684
 20
113.4999999999999716
 30
0.0
 11
108.3372767203514542
 21
113.5
 31
0.0
  0
LINE
  5
131
100
AcDbEntity
  8
cut
 62
256
370
-1
 48
1.0
  6
BYLAYER
100
AcDbLine
 10
305.33727672035144
 20
113.4999999999998153
 30
0.0
 11
308.33727672035144
 21
113.4999999999998437
 31
0.0
  0
LINE
  5
132
100
AcDbEntity
  8
cut
 62
256
370
-1
 48
1.0
  6
BYLAYER
100
AcDbLine
 10
-94.6627232796486169
 20
113.5000000000000568
 30
0.0
 11
-91.6627232796486311
 21
113.5000000000000853
 31
0.0
  0
LINE
  5
133
100
AcDbEntity
  8
cut
 62
256
370
-1
 48
1.0
  6
BYLAYER
100
AcDbLine
 10
305.33727672035144
 20
-83.5000000000001137
 30
0.0
 11
302.3372767203514968
 21
-83.5000000000000142
 31
0.0
  0
LINE
  5
134
100
AcDbEntity
  8
cut
 62
256
370
-1
 48
1.0
  6
BYLAYER
100
AcDbLine
 10
105.3372767203513405
 20
-83.5000000000000284
 30
0.0
 11
102.3372767203513973
 21
-83.4999999999999289
 31
0.0
  0
LINE
  5
135
100
AcDbEntity
  8
cut
 62
256
370
-1
 48
1.0
  6
BYLAYER
100
AcDbLine
 10
105.3372767203514542
 20
83.5
 30
0.0
 11
108.3372767203514684
 21
83.5
 31
0.0
  0
LINE
  5
136
100
AcDbEntity
  8
cut
 62
256
370
-1
 48
1.0
  6
BYLAYER
100
AcDbLine
 10
305.33727672035144
 20
83.4999999999998437
 30
0.0
 11
308.33727672035144
 21
83.4999999999998437
 31
0.0
  0
LINE
  5
137
100
AcDbEntity
  8
cut
 62
256
370
-1
 48
1.0
  6
BYLAYER
100
AcDbLine
 10
-94.6627232796486311
 20
83.5000000000000853
 30
0.0
 11
-91.6627232796486169
 21
83.5000000000000853
 31
0.0
  0
LINE
  5
138
100
AcDbEntity
  8
cut
 62
256
370
-1
 48
1.0
  6
BYLAYER
100
AcDbLine
 10
105.33727672035144
 20
-83.4999999999999574
 30
0.0
 11
108.3372767203513973
 21
-83.4999999999999432
 31
0.0
  0
LINE
  5
139
100
AcDbEntity
  8
cut
 62
256
370
-1
 48
1.0
  6
BYLAYER
100
AcDbLine
 10
305.33727672035144
 20
-83.5000000000001137
 30
0.0
 11
308.3372767203513831
 21
-83.5000000000000995
 31
0.0
  0
LINE
  5
13A
100
AcDbEntity
  8
cut
 62
256
370
-1
 48
1.0
  6
BYLAYER
100
AcDbLine
 10
-94.6627232796486453
 20
-83.4999999999998721
 30
0.0
 11
-91.6627232796486879
 21
-83.4999999999998579
 31
0.0
  0
LINE
  5
13B
100
AcDbEntity
  8
cut
 62
256
370
-1
 48
1.0
  6
BYLAYER
100
AcDbLine
 10
305.3372767203514968
 20
83.4999999999999432
 30
0.0
 11
302.3372767203515536
 21
83.4999999999998721
 31
0.0
  0
LINE
  5
13C
100
AcDbEntity
  8
cut
 62
256
370
-1
 48
1.0
  6
BYLAYER
100
AcDbLine
 10
105.3372767203514115
 20
83.5000000000000284
 30
0.0
 11
102.3372767203514826
 21
83.4999999999999574
 31
0.0
  0
LINE
  5
13D
100
AcDbEntity
  8
cut
 62
256
370
-1
 48
1.0
  6
BYLAYER
100
AcDbLine
 10
105.3372767203513831
 20
-113.4999999999999147
 30
0.0
 11
108.3372767203513121
 21
-113.4999999999999005
 31
0.0
  0
LINE
  5
13E
100
AcDbEntity
  8
cut
 62
256
370
-1
 48
1.0
  6
BYLAYER
100
AcDbLine
 10
305.3372767203513263
 20
-113.5000000000000711
 30
0.0
 11
308.3372767203512694
 21
-113.5000000000000568
 31
0.0
  0
LINE
  5
13F
100
AcDbEntity
  8
cut
 62
256
370
-1
 48
1.0
  6
BYLAYER
100
AcDbLine
 10
-94.6627232796487021
 20
-113.4999999999998295
 30
0.0
 11
-91.6627232796487732
 21
-113.4999999999998153
 31
0.0
  0
LINE
  5
140
100
AcDbEntity
  8
cut
 62
256
370
-1
 48
1.0
  6
BYLAYER
100
AcDbLine
 10
305.3372767203515536
 20
113.4999999999998863
 30
0.0
 11
302.3372767203514968
 21
113.4999999999999432
 31
0.0
  0
LINE
  5
141
100
AcDbEntity
  8
cut
 62
256
370
-1
 48
1.0
  6
BYLAYER
100
AcDbLine
 10
105.3372767203514684
 20
113.4999999999999716
 30
0.0
 11
102.33727672035144
 21
113.5000000000000284
 31
0.0
  0
LINE
  5
142
100
AcDbEntity
  8
cut
 62
256
370
-1
 48
1.0
  6
BYLAYER
100
AcDbLine
 10
205.33727672035144
 20
-113.4999999999999716
 30
0.0
 11
202.3372767203513547
 21
-113.4999999999999716
 31
0.0
  0
LINE
  5
143
100
AcDbEntity
  8
cut
 62
256
370
-1
 48
1.0
  6
BYLAYER
100
AcDbLine
 10
405.33727672035144
 20
-113.5000000000001279
 30
0.0
 11
402.3372767203513263
 21
-113.5000000000001279
 31
0.0
  0
LINE
  5
144
100
AcDbEntity
  8
cut
 62
256
370
-1
 48
1.0
  6
BYLAYER
100
AcDbLine
 10
5.3372767203513627
 20
-113.4999999999998863
 30
0.0
 11
2.3372767203512623
 21
-113.4999999999998863
 31
0.0
  0
LINE
  5
145
100
AcDbEntity
  8
cut
 62
256
370
-1
 48
1.0
  6
BYLAYER
100
AcDbLine
 10
205.3372767203514968
 20
113.4999999999999432
 30
0.0
 11
208.3372767203516105
 21
113.4999999999999432
 31
0.0
  0
LINE
  5
146
100
AcDbEntity
  8
cut
 62
256
370
-1
 48
1.0
  6
BYLAYER
100
AcDbLine
 10
5.3372767203514178
 20
113.5000000000000284
 30
0.0
 11
8.3372767203515181
 21
113.5000000000000284
 31
0.0
  0
LINE
  5
147
100
AcDbEntity
  8
cut
 62
256
370
-1
 48
1.0
  6
BYLAYER
100
AcDbLine
 10
205.33727672035144
 20
-83.4999999999999574
 30
0.0
 11
202.3372767203515252
 21
-83.4999999999999716
 31
0.0
  0
LINE
  5
148
100
AcDbEntity
  8
cut
 62
256
370
-1
 48
1.0
  6
BYLAYER
100
AcDbLine
 10
405.33727672035144
 20
-83.5000000000001137
 30
0.0
 11
402.3372767203514968
 21
-83.5000000000001279
 31
0.0
  0
LINE
  5
149
100
AcDbEntity
  8
cut
 62
256
370
-1
 48
1.0
  6
BYLAYER
100
AcDbLine
 10
5.337276720351368
 20
-83.4999999999998721
 30
0.0
 11
2.3372767203514475
 21
-83.4999999999998863
 31
0.0
  0
LINE
  5
14A
100
AcDbEntity
  8
cut
 62
256
370
-1
 48
1.0
  6
BYLAYER
100
AcDbLine
 10
205.3372767203514968
 20
83.4999999999999432
 30
0.0
 11
208.3372767203514115
 21
83.4999999999999432
 31
0.0
  0
LINE
  5
14B
100
AcDbEntity
  8
cut
 62
256
370
-1
 48
1.0
  6
BYLAYER
100
AcDbLine
 10
5.3372767203514089
 20
83.5000000000000284
 30
0.0
 11
8.3372767203513281
 21
83.5000000000000284
 31
0.0
  0
LINE
  5
14C
100
AcDbEntity
  8
cut
 62
256
370
-1
 48
1.0
  6
BYLAYER
100
AcDbLine
 10
205.33727672035144
 20
-93.5000000000000284
 30
0.0
 11
208.3372767203513263
 21
-93.5000000000000284
 31
0.0
  0
LINE
  5
14D
100
AcDbEntity
  8
cut
 62
256
370
-1
 48
1.0
  6
BYLAYER
100
AcDbLine
 10
5.3372767203513662
 20
-93.4999999999999432
 30
0.0
 11
8.3372767203512481
 21
-93.4999999999999432
 31
0.0
  0
LINE
  5
14E
100
AcDbEntity
  8
cut
 62
256
370
-1
 48
1.0
  6
BYLAYER
100
AcDbLine
 10
205.3372767203514684
 20
93.5
 30
0.0
 11
202.3372767203515536
 21
93.5
 31
0.0
  0
LINE
  5
14F
100
AcDbEntity
  8
cut
 62
256
370
-1
 48
1.0
  6
BYLAYER
100
AcDbLine
 10
405.33727672035144
 20
93.4999999999998437
 30
0.0
 11
402.3372767203515536
 21
93.4999999999998437
 31
0.0
  0
LINE
  5
150
100
AcDbEntity
  8
cut
 62
256
370
-1
 48
1.0
  6
BYLAYER
100
AcDbLine
 10
5.3372767203513884
 20
93.5000000000000853
 30
0.0
 11
2.3372767203514671
 21
93.5000000000000853
 31
0.0
  0
LINE
  5
151
100
AcDbEntity
  8
cut
 62
256
370
-1
 48
1.0
  6
BYLAYER
100
AcDbLine
 10
205.33727672035144
 20
-103.5000000000000426
 30
0.0
 11
208.3372767203516389
 21
-103.5000000000000426
 31
0.0
  0
LINE
  5
152
100
AcDbEntity
  8
cut
 62
256
370
-1
 48
1.0
  6
BYLAYER
100
AcDbLine
 10
5.3372767203513645
 20
-103.4999999999999574
 30
0.0
 11
8.3372767203515554
 21
-103.4999999999999574
 31
0.0
  0
LINE
  5
153
100
AcDbEntity
  8
cut
 62
256
370
-1
 48
1.0
  6
BYLAYER
100
AcDbLine
 10
205.3372767203514684
 20
103.5
 30
0.0
 11
202.3372767203512979
 21
103.5
 31
0.0
  0
LINE
  5
154
100
AcDbEntity
  8
cut
 62
256
370
-1
 48
1.0
  6
BYLAYER
100
AcDbLine
 10
405.33727672035144
 20
103.4999999999998437
 30
0.0
 11
402.3372767203512694
 21
103.4999999999998437
 31
0.0
  0
LINE
  5
155
100
AcDbEntity
  8
cut
 62
256
370
-1
 48
1.0
  6
BYLAYER
100
AcDbLine
 10
5.3372767203513893
 20
103.5000000000000853
 30
0.0
 11
2.3372767203511993
 21
103.5000000000000853
 31
0.0
  0
LINE
  5
156
100
AcDbEntity
  8
cut
 62
256
370
-1
 48
1.0
  6
BYLAYER
100
AcDbLine
 10
305.33727672035144
 20
-103.5000000000000995
 30
0.0
 11
302.3372767203514968
 21
-103.5000000000000568
 31
0.0
  0
LINE
  5
157
100
AcDbEntity
  8
cut
 62
256
370
-1
 48
1.0
  6
BYLAYER
100
AcDbLine
 10
105.3372767203513405
 20
-103.5000000000000142
 30
0.0
 11
102.3372767203513831
 21
-103.4999999999999716
 31
0.0
  0
LINE
  5
158
100
AcDbEntity
  8
cut
 62
256
370
-1
 48
1.0
  6
BYLAYER
100
AcDbLine
 10
105.3372767203514542
 20
103.5000000000000284
 30
0.0
 11
108.3372767203514826
 21
103.5000000000000426
 31
0.0
  0
LINE
  5
159
100
AcDbEntity
  8
cut
 62
256
370
-1
 48
1.0
  6
BYLAYER
100
AcDbLine
 10
305.33727672035144
 20
103.4999999999998721
 30
0.0
 11
308.33727672035144
 21
103.4999999999998863
 31
0.0
  0
LINE
  5
15A
100
AcDbEntity
  8
cut
 62
256
370
-1
 48
1.0
  6
BYLAYER
100
AcDbLine
 10
-94.6627232796486311
 20
103.5000000000001137
 30
0.0
 11
-91.6627232796486027
 21
103.5000000000001279
 31
0.0
  0
LINE
  5
15B
100
AcDbEntity
  8
cut
 62
256
370
-1
 48
1.0
  6
BYLAYER
100
AcDbLine
 10
305.33727672035144
 20
-93.5000000000000711
 30
0.0
 11
302.3372767203514968
 21
-93.5000000000000426
 31
0.0
  0
LINE
  5
15C
100
AcDbEntity
  8
cut
 62
256
370
-1
 48
1.0
  6
BYLAYER
100
AcDbLine
 10
105.3372767203513547
 20
-93.4999999999999858
 30
0.0
 11
102.3372767203513973
 21
-93.4999999999999574
 31
0.0
  0
LINE
  5
15D
100
AcDbEntity
  8
cut
 62
256
370
-1
 48
1.0
  6
BYLAYER
100
AcDbLine
 10
105.3372767203514684
 20
93.4999999999999858
 30
0.0
 11
108.3372767203514826
 21
93.5
 31
0.0
  0
LINE
  5
15E
100
AcDbEntity
  8
cut
 62
256
370
-1
 48
1.0
  6
BYLAYER
100
AcDbLine
 10
305.33727672035144
 20
93.4999999999998295
 30
0.0
 11
308.33727672035144
 21
93.4999999999998437
 31
0.0
  0
LINE
  5
15F
100
AcDbEntity
  8
cut
 62
256
370
-1
 48
1.0
  6
BYLAYER
100
AcDbLine
 10
-94.6627232796486169
 20
93.5000000000000711
 30
0.0
 11
-91.6627232796486027
 21
93.5000000000000853
 31
0.0
  0
LINE
  5
160
100
AcDbEntity
  8
cut
 62
256
370
-1
 48
1.0
  6
BYLAYER
100
AcDbLine
 10
105.3372767203513973
 20
-93.4999999999999289
 30
0.0
 11
108.3372767203514684
 21
-93.4999999999999432
 31
0.0
  0
LINE
  5
161
100
AcDbEntity
  8
cut
 62
256
370
-1
 48
1.0
  6
BYLAYER
100
AcDbLine
 10
305.3372767203513831
 20
-93.5000000000000853
 30
0.0
 11
308.33727672035144
 21
-93.5000000000000995
 31
0.0
  0
LINE
  5
162
100
AcDbEntity
  8
cut
 62
256
370
-1
 48
1.0
  6
BYLAYER
100
AcDbLine
 10
-94.6627232796486879
 20
-93.4999999999998437
 30
0.0
 11
-91.6627232796486169
 21
-93.4999999999998579
 31
0.0
  0
LINE
  5
163
100
AcDbEntity
  8
cut
 62
256
370
-1
 48
1.0
  6
BYLAYER
100
AcDbLine
 10
305.3372767203515536
 20
93.4999999999999147
 30
0.0
 11
302.3372767203514968
 21
93.4999999999999289
 31
0.0
  0
LINE
  5
164
100
AcDbEntity
  8
cut
 62
256
370
-1
 48
1.0
  6
BYLAYER
100
AcDbLine
 10
105.3372767203514542
 20
93.5
 30
0.0
 11
102.3372767203513831
 21
93.5000000000000142
 31
0.0
  0
LINE
  5
165
100
AcDbEntity
  8
cut
 62
256
370
-1
 48
1.0
  6
BYLAYER
100
AcDbLine
 10
105.3372767203513973
 20
-103.4999999999999432
 30
0.0
 11
108.3372767203516105
 21
-103.5000000000000426
 31
0.0
  0
LINE
  5
166
100
AcDbEntity
  8
cut
 62
256
370
-1
 48
1.0
  6
BYLAYER
100
AcDbLine
 10
305.3372767203513831
 20
-103.5000000000000995
 30
0.0
 11
308.3372767203515536
 21
-103.500000000000199
 31
0.0
  0
LINE
  5
167
100
AcDbEntity
  8
cut
 62
256
370
-1
 48
1.0
  6
BYLAYER
100
AcDbLine
 10
-94.6627232796486879
 20
-103.4999999999998579
 30
0.0
 11
-91.6627232796484748
 21
-103.4999999999999574
 31
0.0
  0
LINE
  5
168
100
AcDbEntity
  8
cut
 62
256
370
-1
 48
1.0
  6
BYLAYER
100
AcDbLine
 10
305.3372767203514968
 20
103.4999999999999005
 30
0.0
 11
302.33727672035144
 21
103.4999999999999432
 31
0.0
  0
LINE
  5
169
100
AcDbEntity
  8
cut
 62
256
370
-1
 48
1.0
  6
BYLAYER
100
AcDbLine
 10
105.3372767203514258
 20
103.4999999999999858
 30
0.0
 11
102.3372767203513689
 21
103.5000000000000284
 31
0.0
  0
LINE
  5
16A
100
AcDbEntity
  8
cut
 62
256
370
-1
 48
1.0
  6
BYLAYER
100
AcDbLine
 10
205.33727672035144
 20
-103.4999999999999716
 30
0.0
 11
202.3372767203512694
 21
-103.4999999999999716
 31
0.0
  0
LINE
  5
16B
100
AcDbEntity
  8
cut
 62
256
370
-1
 48
1.0
  6
BYLAYER
100
AcDbLine
 10
405.33727672035144
 20
-103.5000000000001279
 30
0.0
 11
402.3372767203512126
 21
-103.5000000000001279
 31
0.0
  0
LINE
  5
16C
100
AcDbEntity
  8
cut
 62
256
370
-1
 48
1.0
  6
BYLAYER
100
AcDbLine
 10
5.3372767203513645
 20
-103.4999999999998863
 30
0.0
 11
2.3372767203511744
 21
-103.4999999999998863
 31
0.0
  0
LINE
  5
16D
100
AcDbEntity
  8
cut
 62
256
370
-1
 48
1.0
  6
BYLAYER
100
AcDbLine
 10
205.3372767203514968
 20
103.4999999999999432
 30
0.0
 11
208.3372767203516958
 21
103.4999999999999432
 31
0.0
  0
LINE
  5
16E
100
AcDbEntity
  8
cut
 62
256
370
-1
 48
1.0
  6
BYLAYER
100
AcDbLine
 10
5.3372767203514151
 20
103.5000000000000284
 30
0.0
 11
8.3372767203516034
 21
103.5000000000000284
 31
0.0
  0
LINE
  5
16F
100
AcDbEntity
  8
cut
 62
256
370
-1
 48
1.0
  6
BYLAYER
100
AcDbLine
 10
205.33727672035144
 20
-93.4999999999999858
 30
0.0
 11
202.3372767203515821
 21
-93.4999999999999716
 31
0.0
  0
LINE
  5
170
100
AcDbEntity
  8
cut
 62
256
370
-1
 48
1.0
  6
BYLAYER
100
AcDbLine
 10
405.33727672035144
 20
-93.5000000000001421
 30
0.0
 11
402.3372767203515536
 21
-93.5000000000001279
 31
0.0
  0
LINE
  5
171
100
AcDbEntity
  8
cut
 62
256
370
-1
 48
1.0
  6
BYLAYER
100
AcDbLine
 10
5.3372767203513662
 20
-93.4999999999999005
 30
0.0
 11
2.3372767203514866
 21
-93.4999999999998863
 31
0.0
  0
LINE
  5
172
100
AcDbEntity
  8
cut
 62
256
370
-1
 48
1.0
  6
BYLAYER
100
AcDbLine
 10
205.3372767203514968
 20
93.4999999999999432
 30
0.0
 11
208.3372767203514684
 21
93.4999999999999432
 31
0.0
  0
LINE
  5
173
100
AcDbEntity
  8
cut
 62
256
370
-1
 48
1.0
  6
BYLAYER
100
AcDbLine
 10
5.3372767203514115
 20
93.5000000000000284
 30
0.0
 11
8.3372767203513725
 21
93.5000000000000284
 31
0.0
  0
LINE
  5
174
100
AcDbEntity
  8
cut
 62
256
370
-1
 48
1.0
  6
BYLAYER
100
AcDbLine
 10
240.3372767203514968
 20
-48.5000000000000142
 30
0.0
 11
240.3372767203514684
 21
-51.5000000000000426
 31
0.0
  0
LINE
  5
175
100
AcDbEntity
  8
cut
 62
256
370
-1
 48
1.0
  6
BYLAYER
100
AcDbLine
 10
40.3372767203514044
 20
-48.4999999999999289
 30
0.0
 11
40.3372767203513902
 21
-51.4999999999999574
 31
0.0
  0
LINE
  5
176
100
AcDbEntity
  8
cut
 62
256
370
-1
 48
1.0
  6
BYLAYER
100
AcDbLine
 10
170.3372767203514684
 20
48.5000000000000071
 30
0.0
 11
170.3372767203514684
 21
51.5000000000000071
 31
0.0
  0
LINE
  5
177
100
AcDbEntity
  8
cut
 62
256
370
-1
 48
1.0
  6
BYLAYER
100
AcDbLine
 10
370.33727672035144
 20
48.4999999999998508
 30
0.0
 11
370.33727672035144
 21
51.4999999999998508
 31
0.0
  0
LINE
  5
178
100
AcDbEntity
  8
cut
 62
256
370
-1
 48
1.0
  6
BYLAYER
100
AcDbLine
 10
-29.6627232796486098
 20
48.5000000000000924
 30
0.0
 11
-29.6627232796486098
 21
51.5000000000000924
 31
0.0
  0
LINE
  5
179
100
AcDbEntity
  8
cut
 62
256
370
-1
 48
1.0
  6
BYLAYER
100
AcDbLine
 10
240.3372767203513831
 20
-148.5000000000000284
 30
0.0
 11
240.3372767203514968
 21
-145.5000000000000284
 31
0.0
  0
LINE
  5
17A
100
AcDbEntity
  8
cut
 62
256
370
-1
 48
1.0
  6
BYLAYER
100
AcDbLine
 10
40.3372767203512907
 20
-148.4999999999999432
 30
0.0
 11
40.3372767203513973
 21
-145.4999999999999432
 31
0.0
  0
LINE
  5
17B
100
AcDbEntity
  8
cut
 62
256
370
-1
 48
1.0
  6
BYLAYER
100
AcDbLine
 10
170.3372767203515536
 20
148.5
 30
0.0
 11
170.33727672035144
 21
145.5
 31
0.0
  0
LINE
  5
17C
100
AcDbEntity
  8
cut
 62
256
370
-1
 48
1.0
  6
BYLAYER
100
AcDbLine
 10
370.3372767203515536
 20
148.4999999999998295
 30
0.0
 11
370.33727672035144
 21
145.4999999999998295
 31
0.0
  0
LINE
  5
17D
100
AcDbEntity
  8
cut
 62
256
370
-1
 48
1.0
  6
BYLAYER
100
AcDbLine
 10
-29.6627232796485387
 20
148.5000000000000853
 30
0.0
 11
-29.6627232796486382
 21
145.5000000000000853
 31
0.0
  0
LINE
  5
17E
100
AcDbEntity
  8
cut
 62
256
370
-1
 48
1.0
  6
BYLAYER
100
AcDbLine
 10
270.33727672035144
 20
-148.5000000000001137
 30
0.0
 11
270.3372767203513831
 21
-145.5000000000000853
 31
0.0
  0
LINE
  5
17F
100
AcDbEntity
  8
cut
 62
256
370
-1
 48
1.0
  6
BYLAYER
100
AcDbLine
 10
70.3372767203513547
 20
-148.5000000000000284
 30
0.0
 11
70.3372767203512836
 21
-145.5
 31
0.0
  0
LINE
  5
180
100
AcDbEntity
  8
cut
 62
256
370
-1
 48
1.0
  6
BYLAYER
100
AcDbLine
 10
140.3372767203515252
 20
148.5
 30
0.0
 11
140.33727672035144
 21
145.5
 31
0.0
  0
LINE
  5
181
100
AcDbEntity
  8
cut
 62
256
370
-1
 48
1.0
  6
BYLAYER
100
AcDbLine
 10
340.3372767203514968
 20
148.4999999999998295
 30
0.0
 11
340.33727672035144
 21
145.4999999999998295
 31
0.0
  0
LINE
  5
182
100
AcDbEntity
  8
cut
 62
256
370
-1
 48
1.0
  6
BYLAYER
100
AcDbLine
 10
-59.66272327964856
 20
148.5000000000000853
 30
0.0
 11
-59.6627232796486311
 21
145.5000000000000853
 31
0.0
  0
LINE
  5
183
100
AcDbEntity
  8
cut
 62
256
370
-1
 48
1.0
  6
BYLAYER
100
AcDbLine
 10
270.3372767203514968
 20
-48.5000000000000782
 30
0.0
 11
270.3372767203514968
 21
-51.5000000000000568
 31
0.0
  0
LINE
  5
184
100
AcDbEntity
  8
cut
 62
256
370
-1
 48
1.0
  6
BYLAYER
100
AcDbLine
 10
70.3372767203513831
 20
-48.4999999999999929
 30
0.0
 11
70.3372767203513973
 21
-51.4999999999999716
 31
0.0
  0
LINE
  5
185
100
AcDbEntity
  8
cut
 62
256
370
-1
 48
1.0
  6
BYLAYER
100
AcDbLine
 10
140.33727672035144
 20
48.4999999999999858
 30
0.0
 11
140.33727672035144
 21
51.4999999999999858
 31
0.0
  0
LINE
  5
186
100
AcDbEntity
  8
cut
 62
256
370
-1
 48
1.0
  6
BYLAYER
100
AcDbLine
 10
340.33727672035144
 20
48.4999999999998295
 30
0.0
 11
340.33727672035144
 21
51.4999999999998295
 31
0.0
  0
LINE
  5
187
100
AcDbEntity
  8
cut
 62
256
370
-1
 48
1.0
  6
BYLAYER
100
AcDbLine
 10
-59.6627232796486311
 20
48.5000000000000711
 30
0.0
 11
-59.6627232796486311
 21
51.5000000000000711
 31
0.0
  0
LINE
  5
188
100
AcDbEntity
  8
cut
 62
256
370
-1
 48
1.0
  6
BYLAYER
100
AcDbLine
 10
140.33727672035144
 20
-48.4999999999999503
 30
0.0
 11
140.33727672035144
 21
-51.4999999999999432
 31
0.0
  0
LINE
  5
189
100
AcDbEntity
  8
cut
 62
256
370
-1
 48
1.0
  6
BYLAYER
100
AcDbLine
 10
340.33727672035144
 20
-48.5000000000001066
 30
0.0
 11
340.33727672035144
 21
-51.5000000000000995
 31
0.0
  0
LINE
  5
18A
100
AcDbEntity
  8
cut
 62
256
370
-1
 48
1.0
  6
BYLAYER
100
AcDbLine
 10
-59.6627232796486311
 20
-48.499999999999865
 30
0.0
 11
-59.6627232796486595
 21
-51.4999999999998579
 31
0.0
  0
LINE
  5
18B
100
AcDbEntity
  8
cut
 62
256
370
-1
 48
1.0
  6
BYLAYER
100
AcDbLine
 10
270.3372767203514968
 20
48.4999999999999432
 30
0.0
 11
270.3372767203514968
 21
51.4999999999999218
 31
0.0
  0
LINE
  5
18C
100
AcDbEntity
  8
cut
 62
256
370
-1
 48
1.0
  6
BYLAYER
100
AcDbLine
 10
70.3372767203513973
 20
48.5000000000000284
 30
0.0
 11
70.3372767203514258
 21
51.5000000000000071
 31
0.0
  0
LINE
  5
18D
100
AcDbEntity
  8
cut
 62
256
370
-1
 48
1.0
  6
BYLAYER
100
AcDbLine
 10
140.3372767203510421
 20
-148.4999999999999432
 30
0.0
 11
140.3372767203516958
 21
-145.5
 31
0.0
  0
LINE
  5
18E
100
AcDbEntity
  8
cut
 62
256
370
-1
 48
1.0
  6
BYLAYER
100
AcDbLine
 10
340.3372767203509852
 20
-148.5000000000001137
 30
0.0
 11
340.3372767203516673
 21
-145.5000000000001705
 31
0.0
  0
LINE
  5
18F
100
AcDbEntity
  8
cut
 62
256
370
-1
 48
1.0
  6
BYLAYER
100
AcDbLine
 10
-59.6627232796490574
 20
-148.4999999999998579
 30
0.0
 11
-59.6627232796483895
 21
-145.4999999999999147
 31
0.0
  0
LINE
  5
190
100
AcDbEntity
  8
cut
 62
256
370
-1
 48
1.0
  6
BYLAYER
100
AcDbLine
 10
270.3372767203516105
 20
148.4999999999999432
 30
0.0
 11
270.3372767203515536
 21
145.4999999999999147
 31
0.0
  0
LINE
  5
191
100
AcDbEntity
  8
cut
 62
256
370
-1
 48
1.0
  6
BYLAYER
100
AcDbLine
 10
70.337276720351511
 20
148.5000000000000284
 30
0.0
 11
70.3372767203514542
 21
145.5
 31
0.0
  0
LINE
  5
192
100
AcDbEntity
  8
cut
 62
256
370
-1
 48
1.0
  6
BYLAYER
100
AcDbLine
 10
170.3372767203513831
 20
-148.4999999999999716
 30
0.0
 11
170.3372767203514115
 21
-145.4999999999999716
 31
0.0
  0
LINE
  5
193
100
AcDbEntity
  8
cut
 62
256
370
-1
 48
1.0
  6
BYLAYER
100
AcDbLine
 10
370.3372767203513263
 20
-148.5000000000001137
 30
0.0
 11
370.3372767203513831
 21
-145.5000000000001137
 31
0.0
  0
LINE
  5
194
100
AcDbEntity
  8
cut
 62
256
370
-1
 48
1.0
  6
BYLAYER
100
AcDbLine
 10
-29.6627232796487021
 20
-148.4999999999998863
 30
0.0
 11
-29.6627232796486666
 21
-145.4999999999998863
 31
0.0
  0
LINE
  5
195
100
AcDbEntity
  8
cut
 62
256
370
-1
 48
1.0
  6
BYLAYER
100
AcDbLine
 10
240.3372767203515536
 20
148.4999999999999147
 30
0.0
 11
240.3372767203515252
 21
145.4999999999999432
 31
0.0
  0
LINE
  5
196
100
AcDbEntity
  8
cut
 62
256
370
-1
 48
1.0
  6
BYLAYER
100
AcDbLine
 10
40.3372767203514826
 20
148.5
 30
0.0
 11
40.3372767203514471
 21
145.5000000000000284
 31
0.0
  0
LINE
  5
197
100
AcDbEntity
  8
cut
 62
256
370
-1
 48
1.0
  6
BYLAYER
100
AcDbLine
 10
170.3372767203514684
 20
-48.4999999999999645
 30
0.0
 11
170.3372767203514684
 21
-51.4999999999999716
 31
0.0
  0
LINE
  5
198
100
AcDbEntity
  8
cut
 62
256
370
-1
 48
1.0
  6
BYLAYER
100
AcDbLine
 10
370.33727672035144
 20
-48.5000000000001208
 30
0.0
 11
370.33727672035144
 21
-51.5000000000001279
 31
0.0
  0
LINE
  5
199
100
AcDbEntity
  8
cut
 62
256
370
-1
 48
1.0
  6
BYLAYER
100
AcDbLine
 10
-29.662723279648624
 20
-48.4999999999998792
 30
0.0
 11
-29.6627232796486098
 21
-51.4999999999998863
 31
0.0
  0
LINE
  5
19A
100
AcDbEntity
  8
cut
 62
256
370
-1
 48
1.0
  6
BYLAYER
100
AcDbLine
 10
240.3372767203515252
 20
48.4999999999999218
 30
0.0
 11
240.3372767203514968
 21
51.4999999999999289
 31
0.0
  0
LINE
  5
19B
100
AcDbEntity
  8
cut
 62
256
370
-1
 48
1.0
  6
BYLAYER
100
AcDbLine
 10
40.3372767203514329
 20
48.5000000000000071
 30
0.0
 11
40.3372767203514186
 21
51.5000000000000142
 31
0.0
  0
LINE
  5
19C
100
AcDbEntity
  8
cut
 62
256
370
-1
 48
1.0
  6
BYLAYER
100
AcDbLine
 10
250.3372767203514968
 20
-48.5000000000000497
 30
0.0
 11
250.3372767203514684
 21
-51.5000000000000711
 31
0.0
  0
LINE
  5
19D
100
AcDbEntity
  8
cut
 62
256
370
-1
 48
1.0
  6
BYLAYER
100
AcDbLine
 10
50.3372767203513973
 20
-48.4999999999999645
 30
0.0
 11
50.3372767203513902
 21
-51.4999999999999858
 31
0.0
  0
LINE
  5
19E
100
AcDbEntity
  8
cut
 62
256
370
-1
 48
1.0
  6
BYLAYER
100
AcDbLine
 10
160.3372767203514684
 20
48.5000000000000142
 30
0.0
 11
160.3372767203514684
 21
51.5
 31
0.0
  0
LINE
  5
19F
100
AcDbEntity
  8
cut
 62
256
370
-1
 48
1.0
  6
BYLAYER
100
AcDbLine
 10
360.33727672035144
 20
48.4999999999998579
 30
0.0
 11
360.33727672035144
 21
51.4999999999998437
 31
0.0
  0
LINE
  5
1A0
100
AcDbEntity
  8
cut
 62
256
370
-1
 48
1.0
  6
BYLAYER
100
AcDbLine
 10
-39.6627232796486098
 20
48.5000000000000995
 30
0.0
 11
-39.6627232796486169
 21
51.5000000000000853
 31
0.0
  0
LINE
  5
1A1
100
AcDbEntity
  8
cut
 62
256
370
-1
 48
1.0
  6
BYLAYER
100
AcDbLine
 10
250.3372767203514115
 20
-148.5000000000000853
 30
0.0
 11
250.3372767203513831
 21
-145.5000000000000284
 31
0.0
  0
LINE
  5
1A2
100
AcDbEntity
  8
cut
 62
256
370
-1
 48
1.0
  6
BYLAYER
100
AcDbLine
 10
50.3372767203513334
 20
-148.5
 30
0.0
 11
50.3372767203512836
 21
-145.4999999999999432
 31
0.0
  0
LINE
  5
1A3
100
AcDbEntity
  8
cut
 62
256
370
-1
 48
1.0
  6
BYLAYER
100
AcDbLine
 10
160.33727672035144
 20
148.5
 30
0.0
 11
160.3372767203515252
 21
145.5
 31
0.0
  0
LINE
  5
1A4
100
AcDbEntity
  8
cut
 62
256
370
-1
 48
1.0
  6
BYLAYER
100
AcDbLine
 10
360.33727672035144
 20
148.4999999999998295
 30
0.0
 11
360.3372767203514968
 21
145.4999999999998295
 31
0.0
  0
LINE
  5
1A5
100
AcDbEntity
  8
cut
 62
256
370
-1
 48
1.0
  6
BYLAYER
100
AcDbLine
 10
-39.6627232796486382
 20
148.5000000000000853
 30
0.0
 11
-39.66272327964856
 21
145.5000000000000853
 31
0.0
  0
LINE
  5
1A6
100
AcDbEntity
  8
cut
 62
256
370
-1
 48
1.0
  6
BYLAYER
100
AcDbLine
 10
260.3372767203513263
 20
-148.5000000000000568
 30
0.0
 11
260.3372767203513263
 21
-145.5000000000000853
 31
0.0
  0
LINE
  5
1A7
100
AcDbEntity
  8
cut
 62
256
370
-1
 48
1.0
  6
BYLAYER
100
AcDbLine
 10
60.337276720351241
 20
-148.4999999999999716
 30
0.0
 11
60.3372767203512552
 21
-145.5
 31
0.0
  0
LINE
  5
1A8
100
AcDbEntity
  8
cut
 62
256
370
-1
 48
1.0
  6
BYLAYER
100
AcDbLine
 10
150.3372767203514968
 20
148.5
 30
0.0
 11
150.3372767203514684
 21
145.5
 31
0.0
  0
LINE
  5
1A9
100
AcDbEntity
  8
cut
 62
256
370
-1
 48
1.0
  6
BYLAYER
100
AcDbLine
 10
350.33727672035144
 20
148.4999999999998295
 30
0.0
 11
350.33727672035144
 21
145.4999999999998295
 31
0.0
  0
LINE
  5
1AA
100
AcDbEntity
  8
cut
 62
256
370
-1
 48
1.0
  6
BYLAYER
100
AcDbLine
 10
-49.6627232796485885
 20
148.5000000000000853
 30
0.0
 11
-49.6627232796486169
 21
145.5000000000000853
 31
0.0
  0
LINE
  5
1AB
100
AcDbEntity
  8
cut
 62
256
370
-1
 48
1.0
  6
BYLAYER
100
AcDbLine
 10
260.3372767203514968
 20
-48.5000000000000639
 30
0.0
 11
260.33727672035144
 21
-51.5000000000000853
 31
0.0
  0
LINE
  5
1AC
100
AcDbEntity
  8
cut
 62
256
370
-1
 48
1.0
  6
BYLAYER
100
AcDbLine
 10
60.3372767203513831
 20
-48.4999999999999787
 30
0.0
 11
60.3372767203513689
 21
-51.5
 31
0.0
  0
LINE
  5
1AD
100
AcDbEntity
  8
cut
 62
256
370
-1
 48
1.0
  6
BYLAYER
100
AcDbLine
 10
150.3372767203514684
 20
48.5
 30
0.0
 11
150.3372767203514684
 21
51.5
 31
0.0
  0
LINE
  5
1AE
100
AcDbEntity
  8
cut
 62
256
370
-1
 48
1.0
  6
BYLAYER
100
AcDbLine
 10
350.33727672035144
 20
48.4999999999998437
 30
0.0
 11
350.33727672035144
 21
51.4999999999998437
 31
0.0
  0
LINE
  5
1AF
100
AcDbEntity
  8
cut
 62
256
370
-1
 48
1.0
  6
BYLAYER
100
AcDbLine
 10
-49.6627232796486169
 20
48.5000000000000853
 30
0.0
 11
-49.6627232796486169
 21
51.5000000000000853
 31
0.0
  0
LINE
  5
1B0
100
AcDbEntity
  8
cut
 62
256
370
-1
 48
1.0
  6
BYLAYER
100
AcDbLine
 10
150.3372767203515252
 20
-48.4999999999999787
 30
0.0
 11
150.3372767203514684
 21
-51.4999999999999716
 31
0.0
  0
LINE
  5
1B1
100
AcDbEntity
  8
cut
 62
256
370
-1
 48
1.0
  6
BYLAYER
100
AcDbLine
 10
350.3372767203514968
 20
-48.500000000000135
 30
0.0
 11
350.33727672035144
 21
-51.5000000000001279
 31
0.0
  0
LINE
  5
1B2
100
AcDbEntity
  8
cut
 62
256
370
-1
 48
1.0
  6
BYLAYER
100
AcDbLine
 10
-49.66272327964856
 20
-48.4999999999998934
 30
0.0
 11
-49.6627232796486169
 21
-51.4999999999998863
 31
0.0
  0
LINE
  5
1B3
100
AcDbEntity
  8
cut
 62
256
370
-1
 48
1.0
  6
BYLAYER
100
AcDbLine
 10
260.3372767203514968
 20
48.4999999999999432
 30
0.0
 11
260.3372767203514968
 21
51.4999999999999147
 31
0.0
  0
LINE
  5
1B4
100
AcDbEntity
  8
cut
 62
256
370
-1
 48
1.0
  6
BYLAYER
100
AcDbLine
 10
60.3372767203513902
 20
48.5000000000000284
 30
0.0
 11
60.3372767203514329
 21
51.5
 31
0.0
  0
LINE
  5
1B5
100
AcDbEntity
  8
cut
 62
256
370
-1
 48
1.0
  6
BYLAYER
100
AcDbLine
 10
150.33727672035144
 20
-148.4999999999999716
 30
0.0
 11
150.3372767203511273
 21
-145.4999999999999716
 31
0.0
  0
LINE
  5
1B6
100
AcDbEntity
  8
cut
 62
256
370
-1
 48
1.0
  6
BYLAYER
100
AcDbLine
 10
350.33727672035144
 20
-148.5000000000001137
 30
0.0
 11
350.3372767203510989
 21
-145.5000000000001137
 31
0.0
  0
LINE
  5
1B7
100
AcDbEntity
  8
cut
 62
256
370
-1
 48
1.0
  6
BYLAYER
100
AcDbLine
 10
-49.6627232796486524
 20
-148.4999999999998863
 30
0.0
 11
-49.6627232796489508
 21
-145.4999999999998863
 31
0.0
  0
LINE
  5
1B8
100
AcDbEntity
  8
cut
 62
256
370
-1
 48
1.0
  6
BYLAYER
100
AcDbLine
 10
260.3372767203514968
 20
148.4999999999999432
 30
0.0
 11
260.3372767203514968
 21
145.4999999999999432
 31
0.0
  0
LINE
  5
1B9
100
AcDbEntity
  8
cut
 62
256
370
-1
 48
1.0
  6
BYLAYER
100
AcDbLine
 10
60.3372767203514329
 20
148.5000000000000284
 30
0.0
 11
60.3372767203514329
 21
145.5000000000000284
 31
0.0
  0
LINE
  5
1BA
100
AcDbEntity
  8
cut
 62
256
370
-1
 48
1.0
  6
BYLAYER
100
AcDbLine
 10
160.3372767203514968
 20
-148.4999999999999716
 30
0.0
 11
160.3372767203515252
 21
-145.4999999999999716
 31
0.0
  0
LINE
  5
1BB
100
AcDbEntity
  8
cut
 62
256
370
-1
 48
1.0
  6
BYLAYER
100
AcDbLine
 10
-39.6627232796485956
 20
-148.4999999999998863
 30
0.0
 11
-39.6627232796485529
 21
-145.4999999999998863
 31
0.0
  0
LINE
  5
1BC
100
AcDbEntity
  8
cut
 62
256
370
-1
 48
1.0
  6
BYLAYER
100
AcDbLine
 10
360.33727672035144
 20
-148.5000000000001137
 30
0.0
 11
360.3372767203514968
 21
-145.5000000000001137
 31
0.0
  0
LINE
  5
1BD
100
AcDbEntity
  8
cut
 62
256
370
-1
 48
1.0
  6
BYLAYER
100
AcDbLine
 10
250.3372767203516105
 20
148.4999999999999432
 30
0.0
 11
250.3372767203515536
 21
145.4999999999999432
 31
0.0
  0
LINE
  5
1BE
100
AcDbEntity
  8
cut
 62
256
370
-1
 48
1.0
  6
BYLAYER
100
AcDbLine
 10
50.3372767203515181
 20
148.5000000000000284
 30
0.0
 11
50.3372767203514613
 21
145.5000000000000284
 31
0.0
  0
LINE
  5
1BF
100
AcDbEntity
  8
cut
 62
256
370
-1
 48
1.0
  6
BYLAYER
100
AcDbLine
 10
160.33727672035144
 20
-48.4999999999999716
 30
0.0
 11
160.3372767203514684
 21
-51.4999999999999645
 31
0.0
  0
LINE
  5
1C0
100
AcDbEntity
  8
cut
 62
256
370
-1
 48
1.0
  6
BYLAYER
100
AcDbLine
 10
-39.6627232796486311
 20
-48.4999999999998863
 30
0.0
 11
-39.6627232796486169
 21
-51.4999999999998792
 31
0.0
  0
LINE
  5
1C1
100
AcDbEntity
  8
cut
 62
256
370
-1
 48
1.0
  6
BYLAYER
100
AcDbLine
 10
360.33727672035144
 20
-48.5000000000001279
 30
0.0
 11
360.33727672035144
 21
-51.5000000000001208
 31
0.0
  0
LINE
  5
1C2
100
AcDbEntity
  8
cut
 62
256
370
-1
 48
1.0
  6
BYLAYER
100
AcDbLine
 10
250.3372767203514968
 20
48.4999999999999289
 30
0.0
 11
250.3372767203514968
 21
51.4999999999999361
 31
0.0
  0
LINE
  5
1C3
100
AcDbEntity
  8
cut
 62
256
370
-1
 48
1.0
  6
BYLAYER
100
AcDbLine
 10
50.3372767203514115
 20
48.5000000000000142
 30
0.0
 11
50.3372767203514044
 21
51.5000000000000213
 31
0.0
  0
ARC
  5
1C4
100
AcDbEntity
  8
cut
 62
256
370
-1
 48
1.0
  6
BYLAYER
100
AcDbCircle
 10
180.3372767203514968
 20
-73.4999999999999858
 30
0.0
 40
22.0
100
AcDbArc
 50
0.0
 51
90.0
  0
ARC
  5
1C5
100
AcDbEntity
  8
cut
 62
256
370
-1
 48
1.0
  6
BYLAYER
100
AcDbCircle
 10
-19.6627232796485885
 20
-73.4999999999999005
 30
0.0
 40
22.0
100
AcDbArc
 50
0.0
 51
90.0
  0
ARC
  5
1C6
100
AcDbEntity
  8
cut
 62
256
370
-1
 48
1.0
  6
BYLAYER
100
AcDbCircle
 10
380.33727672035144
 20
-73.5000000000001421
 30
0.0
 40
22.0
100
AcDbArc
 50
0.0
 51
90.0
  0
ARC
  5
1C7
100
AcDbEntity
  8
cut
 62
256
370
-1
 48
1.0
  6
BYLAYER
100
AcDbCircle
 10
230.3372767203514968
 20
73.4999999999999289
 30
0.0
 40
22.0
100
AcDbArc
 50
180.0
 51
270.0
  0
ARC
  5
1C8
100
AcDbEntity
  8
cut
 62
256
370
-1
 48
1.0
  6
BYLAYER
100
AcDbCircle
 10
30.3372767203514186
 20
73.5000000000000142
 30
0.0
 40
22.0
100
AcDbArc
 50
180.0
 51
270.0
  0
ARC
  5
1C9
100
AcDbEntity
  8
cut
 62
256
370
-1
 48
1.0
  6
BYLAYER
100
AcDbCircle
 10
180.3372767203514968
 20
-123.4999999999999716
 30
0.0
 40
22.0
100
AcDbArc
 50
270.0
 51
0.0
  0
ARC
  5
1CA
100
AcDbEntity
  8
cut
 62
256
370
-1
 48
1.0
  6
BYLAYER
100
AcDbCircle
 10
-19.6627232796485956
 20
-123.4999999999998863
 30
0.0
 40
22.0
100
AcDbArc
 50
270.0
 51
0.0
  0
ARC
  5
1CB
100
AcDbEntity
  8
cut
 62
256
370
-1
 48
1.0
  6
BYLAYER
100
AcDbCircle
 10
380.33727672035144
 20
-123.5000000000001279
 30
0.0
 40
22.0
100
AcDbArc
 50
270.0
 51
0.0
  0
ARC
  5
1CC
100
AcDbEntity
  8
cut
 62
256
370
-1
 48
1.0
  6
BYLAYER
100
AcDbCircle
 10
230.33727672035144
 20
123.4999999999999432
 30
0.0
 40
22.0
100
AcDbArc
 50
90.0
 51
180.0
  0
ARC
  5
1CD
100
AcDbEntity
  8
cut
 62
256
370
-1
 48
1.0
  6
BYLAYER
100
AcDbCircle
 10
30.3372767203513689
 20
123.5000000000000284
 30
0.0
 40
22.0
100
AcDbArc
 50
90.0
 51
180.0
  0
ARC
  5
1CE
100
AcDbEntity
  8
cut
 62
256
370
-1
 48
1.0
  6
BYLAYER
100
AcDbCircle
 10
130.33727672035144
 20
-123.4999999999999716
 30
0.0
 40
22.0
100
AcDbArc
 50
180.0
 51
270.0
  0
ARC
  5
1CF
100
AcDbEntity
  8
cut
 62
256
370
-1
 48
1.0
  6
BYLAYER
100
AcDbCircle
 10
-69.6627232796486453
 20
-123.4999999999998863
 30
0.0
 40
22.0
100
AcDbArc
 50
180.0
 51
270.0
  0
ARC
  5
1D0
100
AcDbEntity
  8
cut
 62
256
370
-1
 48
1.0
  6
BYLAYER
100
AcDbCircle
 10
330.33727672035144
 20
-123.5000000000001279
 30
0.0
 40
22.0
100
AcDbArc
 50
180.0
 51
270.0
  0
ARC
  5
1D1
100
AcDbEntity
  8
cut
 62
256
370
-1
 48
1.0
  6
BYLAYER
100
AcDbCircle
 10
280.3372767203514968
 20
123.4999999999999289
 30
0.0
 40
22.0
100
AcDbArc
 50
0.0
 51
90.0
  0
ARC
  5
1D2
100
AcDbEntity
  8
cut
 62
256
370
-1
 48
1.0
  6
BYLAYER
100
AcDbCircle
 10
80.3372767203514115
 20
123.5000000000000142
 30
0.0
 40
22.0
100
AcDbArc
 50
0.0
 51
90.0
  0
ARC
  5
1D3
100
AcDbEntity
  8
cut
 62
256
370
-1
 48
1.0
  6
BYLAYER
100
AcDbCircle
 10
130.3372767203514968
 20
-73.4999999999999574
 30
0.0
 40
22.0
100
AcDbArc
 50
90.0
 51
180.0
  0
ARC
  5
1D4
100
AcDbEntity
  8
cut
 62
256
370
-1
 48
1.0
  6
BYLAYER
100
AcDbCircle
 10
-69.6627232796486027
 20
-73.4999999999998721
 30
0.0
 40
22.0
100
AcDbArc
 50
90.0
 51
180.0
  0
ARC
  5
1D5
100
AcDbEntity
  8
cut
 62
256
370
-1
 48
1.0
  6
BYLAYER
100
AcDbCircle
 10
330.33727672035144
 20
-73.5000000000001137
 30
0.0
 40
22.0
100
AcDbArc
 50
90.0
 51
180.0
  0
ARC
  5
1D6
100
AcDbEntity
  8
cut
 62
256
370
-1
 48
1.0
  6
BYLAYER
100
AcDbCircle
 10
280.3372767203514968
 20
73.4999999999999005
 30
0.0
 40
22.0
100
AcDbArc
 50
270.0
 51
0.0
  0
ARC
  5
1D7
100
AcDbEntity
  8
cut
 62
256
370
-1
 48
1.0
  6
BYLAYER
100
AcDbCircle
 10
80.3372767203514258
 20
73.4999999999999858
 30
0.0
 40
22.0
100
AcDbArc
 50
270.0
 51
0.0
  0
CIRCLE
  5
1D8
100
AcDbEntity
  8
cut
 62
256
370
-1
 48
1.0
  6
BYLAYER
100
AcDbCircle
 10
155.3372767203514684
 20
-98.4999999999999716
 30
0.0
 40
3.0
  0
CIRCLE
  5
1D9
100
AcDbEntity
  8
cut
 62
256
370
-1
 48
1.0
  6
BYLAYER
100
AcDbCircle
 10
-44.6627232796486169
 20
-98.4999999999998863
 30
0.0
 40
3.0
  0
CIRCLE
  5
1DA
100
AcDbEntity
  8
cut
 62
256
370
-1
 48
1.0
  6
BYLAYER
100
AcDbCircle
 10
355.33727672035144
 20
-98.5000000000001279
 30
0.0
 40
3.0
  0
CIRCLE
  5
1DB
100
AcDbEntity
  8
cut
 62
256
370
-1
 48
1.0
  6
BYLAYER
100
AcDbCircle
 10
255.3372767203515536
 20
98.4999999999999005
 30
0.0
 40
3.0
  0
CIRCLE
  5
1DC
100
AcDbEntity
  8
cut
 62
256
370
-1
 48
1.0
  6
BYLAYER
100
AcDbCircle
 10
55.3372767203514755
 20
98.4999999999999858
 30
0.0
 40
3.0
  0
LINE
  5
1DD
100
AcDbEntity
  8
cut
 62
256
370
-1
 48
1.0
  6
BYLAYER
100
AcDbLine
 10
208.3372767203514968
 20
23.4999999999999716
 30
0.0
 11
208.3372767203514968
 21
-26.5000000000000568
 31
0.0
  0
LINE
  5
1DE
100
AcDbEntity
  8
cut
 62
256
370
-1
 48
1.0
  6
BYLAYER
100
AcDbLine
 10
8.3372767203514169
 20
23.5000000000000568
 30
0.0
 11
8.3372767203514186
 21
-26.4999999999999716
 31
0.0
  0
LINE
  5
1DF
100
AcDbEntity
  8
cut
 62
256
370
-1
 48
1.0
  6
BYLAYER
100
AcDbLine
 10
202.3372767203514684
 20
-23.5
 30
0.0
 11
202.3372767203514684
 21
26.5000000000000568
 31
0.0
  0
LINE
  5
1E0
100
AcDbEntity
  8
cut
 62
256
370
-1
 48
1.0
  6
BYLAYER
100
AcDbLine
 10
2.3372767203513698
 20
-23.4999999999999147
 30
0.0
 11
2.3372767203513924
 21
26.5000000000001421
 31
0.0
  0
LINE
  5
1E1
100
AcDbEntity
  8
cut
 62
256
370
-1
 48
1.0
  6
BYLAYER
100
AcDbLine
 10
402.33727672035144
 20
-23.5000000000001563
 30
0.0
 11
402.33727672035144
 21
26.4999999999999005
 31
0.0
  0
LINE
  5
1E2
100
AcDbEntity
  8
cut
 62
256
370
-1
 48
1.0
  6
BYLAYER
100
AcDbLine
 10
302.33727672035144
 20
-26.5000000000001172
 30
0.0
 11
302.3372767203514968
 21
23.499999999999968
 31
0.0
  0
LINE
  5
1E3
100
AcDbEntity
  8
cut
 62
256
370
-1
 48
1.0
  6
BYLAYER
100
AcDbLine
 10
102.3372767203513547
 20
-26.500000000000032
 30
0.0
 11
102.3372767203514115
 21
23.5000000000000533
 31
0.0
  0
LINE
  5
1E4
100
AcDbEntity
  8
cut
 62
256
370
-1
 48
1.0
  6
BYLAYER
100
AcDbLine
 10
108.3372767203514826
 20
26.5000000000000142
 30
0.0
 11
108.3372767203514684
 21
-23.4999999999999751
 31
0.0
  0
LINE
  5
1E5
100
AcDbEntity
  8
cut
 62
256
370
-1
 48
1.0
  6
BYLAYER
100
AcDbLine
 10
-91.6627232796486027
 20
26.5000000000000995
 30
0.0
 11
-91.6627232796486169
 21
-23.4999999999998899
 31
0.0
  0
LINE
  5
1E6
100
AcDbEntity
  8
cut
 62
256
370
-1
 48
1.0
  6
BYLAYER
100
AcDbLine
 10
308.33727672035144
 20
26.4999999999998579
 30
0.0
 11
308.33727672035144
 21
-23.5000000000001315
 31
0.0
  0
LINE
  5
1E7
100
AcDbEntity
  8
cut
 62
256
370
-1
 48
1.0
  6
BYLAYER
100
AcDbLine
 10
280.3372767203514968
 20
45.4999999999999716
 30
0.0
 11
230.3372767203514968
 21
45.4999999999999716
 31
0.0
  0
LINE
  5
1E8
100
AcDbEntity
  8
cut
 62
256
370
-1
 48
1.0
  6
BYLAYER
100
AcDbLine
 10
80.3372767203513973
 20
45.5000000000000568
 30
0.0
 11
30.337276720351408
 21
45.5000000000000568
 31
0.0
  0
LINE
  5
1E9
100
AcDbEntity
  8
cut
 62
256
370
-1
 48
1.0
  6
BYLAYER
100
AcDbLine
 10
130.3372767203514684
 20
-45.4999999999999787
 30
0.0
 11
180.33727672035144
 21
-45.4999999999999787
 31
0.0
  0
LINE
  5
1EA
100
AcDbEntity
  8
cut
 62
256
370
-1
 48
1.0
  6
BYLAYER
100
AcDbLine
 10
-69.6627232796486169
 20
-45.4999999999998934
 30
0.0
 11
-19.6627232796486382
 21
-45.4999999999998934
 31
0.0
  0
LINE
  5
1EB
100
AcDbEntity
  8
cut
 62
256
370
-1
 48
1.0
  6
BYLAYER
100
AcDbLine
 10
330.33727672035144
 20
-45.500000000000135
 30
0.0
 11
380.33727672035144
 21
-45.500000000000135
 31
0.0
  0
ARC
  5
1EC
100
AcDbEntity
  8
cut
 62
256
370
-1
 48
1.0
  6
BYLAYER
100
AcDbCircle
 10
280.3372767203514968
 20
23.4999999999999396
 30
0.0
 40
22.0
100
AcDbArc
 50
0.0
 51
90.0
  0
ARC
  5
1ED
100
AcDbEntity
  8
cut
 62
256
370
-1
 48
1.0
  6
BYLAYER
100
AcDbCircle
 10
80.3372767203514258
 20
23.5000000000000249
 30
0.0
 40
22.0
100
AcDbArc
 50
0.0
 51
90.0
  0
ARC
  5
1EE
100
AcDbEntity
  8
cut
 62
256
370
-1
 48
1.0
  6
BYLAYER
100
AcDbCircle
 10
130.3372767203514684
 20
-23.5000000000000071
 30
0.0
 40
22.0
100
AcDbArc
 50
180.0
 51
270.0
  0
ARC
  5
1EF
100
AcDbEntity
  8
cut
 62
256
370
-1
 48
1.0
  6
BYLAYER
100
AcDbCircle
 10
-69.6627232796486169
 20
-23.4999999999999218
 30
0.0
 40
22.0
100
AcDbArc
 50
180.0
 51
270.0
  0
ARC
  5
1F0
100
AcDbEntity
  8
cut
 62
256
370
-1
 48
1.0
  6
BYLAYER
100
AcDbCircle
 10
330.33727672035144
 20
-23.5000000000001634
 30
0.0
 40
22.0
100
AcDbArc
 50
180.0
 51
270.0
  0
ARC
  5
1F1
100
AcDbEntity
  8
cut
 62
256
370
-1
 48
1.0
  6
BYLAYER
100
AcDbCircle
 10
280.3372767203514968
 20
-26.5000000000000249
 30
0.0
 40
22.0
100
AcDbArc
 50
270.0
 51
0.0
  0
ARC
  5
1F2
100
AcDbEntity
  8
cut
 62
256
370
-1
 48
1.0
  6
BYLAYER
100
AcDbCircle
 10
80.3372767203513973
 20
-26.4999999999999396
 30
0.0
 40
22.0
100
AcDbArc
 50
270.0
 51
0.0
  0
ARC
  5
1F3
100
AcDbEntity
  8
cut
 62
256
370
-1
 48
1.0
  6
BYLAYER
100
AcDbCircle
 10
130.3372767203514684
 20
26.5000000000000107
 30
0.0
 40
22.0
100
AcDbArc
 50
90.0
 51
180.0
  0
ARC
  5
1F4
100
AcDbEntity
  8
cut
 62
256
370
-1
 48
1.0
  6
BYLAYER
100
AcDbCircle
 10
-69.6627232796486169
 20
26.5000000000000959
 30
0.0
 40
22.0
100
AcDbArc
 50
90.0
 51
180.0
  0
ARC
  5
1F5
100
AcDbEntity
  8
cut
 62
256
370
-1
 48
1.0
  6
BYLAYER
100
AcDbCircle
 10
330.33727672035144
 20
26.4999999999998543
 30
0.0
 40
22.0
100
AcDbArc
 50
90.0
 51
180.0
  0
ARC
  5
1F6
100
AcDbEntity
  8
cut
 62
256
370
-1
 48
1.0
  6
BYLAYER
100
AcDbCircle
 10
230.3372767203514968
 20
-26.5000000000000675
 30
0.0
 40
22.0
100
AcDbArc
 50
179.9999999999999432
 51
270.0
  0
ARC
  5
1F7
100
AcDbEntity
  8
cut
 62
256
370
-1
 48
1.0
  6
BYLAYER
100
AcDbCircle
 10
30.3372767203514009
 20
-26.4999999999999822
 30
0.0
 40
22.0
100
AcDbArc
 50
179.9999999999999432
 51
270.0
  0
ARC
  5
1F8
100
AcDbEntity
  8
cut
 62
256
370
-1
 48
1.0
  6
BYLAYER
100
AcDbCircle
 10
180.3372767203514684
 20
26.5000000000000036
 30
0.0
 40
22.0
100
AcDbArc
 50
0.0
 51
90.0
  0
ARC
  5
1F9
100
AcDbEntity
  8
cut
 62
256
370
-1
 48
1.0
  6
BYLAYER
100
AcDbCircle
 10
-19.6627232796486098
 20
26.5000000000000888
 30
0.0
 40
22.0
100
AcDbArc
 50
0.0
 51
90.0
  0
ARC
  5
1FA
100
AcDbEntity
  8
cut
 62
256
370
-1
 48
1.0
  6
BYLAYER
100
AcDbCircle
 10
380.33727672035144
 20
26.4999999999998472
 30
0.0
 40
22.0
100
AcDbArc
 50
0.0
 51
90.0
  0
ARC
  5
1FB
100
AcDbEntity
  8
cut
 62
256
370
-1
 48
1.0
  6
BYLAYER
100
AcDbCircle
 10
230.3372767203514968
 20
23.499999999999968
 30
0.0
 40
22.0
100
AcDbArc
 50
90.0
 51
180.0
  0
ARC
  5
1FC
100
AcDbEntity
  8
cut
 62
256
370
-1
 48
1.0
  6
BYLAYER
100
AcDbCircle
 10
30.3372767203514151
 20
23.5000000000000533
 30
0.0
 40
22.0
100
AcDbArc
 50
90.0
 51
180.0
  0
ARC
  5
1FD
100
AcDbEntity
  8
cut
 62
256
370
-1
 48
1.0
  6
BYLAYER
100
AcDbCircle
 10
180.3372767203514684
 20
-23.4999999999999964
 30
0.0
 40
22.0
100
AcDbArc
 50
270.0
 51
0.0
  0
ARC
  5
1FE
100
AcDbEntity
  8
cut
 62
256
370
-1
 48
1.0
  6
BYLAYER
100
AcDbCircle
 10
-19.662723279648624
 20
-23.4999999999999112
 30
0.0
 40
22.0
100
AcDbArc
 50
270.0
 51
0.0
  0
ARC
  5
1FF
100
AcDbEntity
  8
cut
 62
256
370
-1
 48
1.0
  6
BYLAYER
100
AcDbCircle
 10
380.33727672035144
 20
-23.5000000000001528
 30
0.0
 40
22.0
100
AcDbArc
 50
270.0
 51
0.0
  0
CIRCLE
  5
200
100
AcDbEntity
  8
cut
 62
256
370
-1
 48
1.0
  6
BYLAYER
100
AcDbCircle
 10
215.3372767203514968
 20
-1.500000000000062
 30
0.0
 40
1.5
  0
CIRCLE
  5
201
100
AcDbEntity
  8
cut
 62
256
370
-1
 48
1.0
  6
BYLAYER
100
AcDbCircle
 10
15.337276720351424
 20
-1.4999999999999767
 30
0.0
 40
1.5
  0
CIRCLE
  5
202
100
AcDbEntity
  8
cut
 62
256
370
-1
 48
1.0
  6
BYLAYER
100
AcDbCircle
 10
115.3372767203514684
 20
1.4999999999999958
 30
0.0
 40
1.5
  0
CIRCLE
  5
203
100
AcDbEntity
  8
cut
 62
256
370
-1
 48
1.0
  6
BYLAYER
100
AcDbCircle
 10
-84.6627232796486169
 20
1.500000000000081
 30
0.0
 40
1.5
  0
CIRCLE
  5
204
100
AcDbEntity
  8
cut
 62
256
370
-1
 48
1.0
  6
BYLAYER
100
AcDbCircle
 10
315.33727672035144
 20
1.4999999999998395
 30
0.0
 40
1.5
  0
CIRCLE
  5
205
100
AcDbEntity
  8
cut
 62
256
370
-1
 48
1.0
  6
BYLAYER
100
AcDbCircle
 10
215.3372767203514684
 20
98.4999999999999432
 30
0.0
 40
1.5
  0
CIRCLE
  5
206
100
AcDbEntity
  8
cut
 62
256
370
-1
 48
1.0
  6
BYLAYER
100
AcDbCircle
 10
15.3372767203513884
 20
98.5000000000000284
 30
0.0
 40
1.5
  0
CIRCLE
  5
207
100
AcDbEntity
  8
cut
 62
256
370
-1
 48
1.0
  6
BYLAYER
100
AcDbCircle
 10
215.33727672035144
 20
-98.5000000000000568
 30
0.0
 40
1.5
  0
CIRCLE
  5
208
100
AcDbEntity
  8
cut
 62
256
370
-1
 48
1.0
  6
BYLAYER
100
AcDbCircle
 10
15.3372767203513494
 20
-98.4999999999999716
 30
0.0
 40
1.5
  0
CIRCLE
  5
209
100
AcDbEntity
  8
cut
 62
256
370
-1
 48
1.0
  6
BYLAYER
100
AcDbCircle
 10
115.3372767203514968
 20
98.5000000000000284
 30
0.0
 40
1.5
  0
CIRCLE
  5
20A
100
AcDbEntity
  8
cut
 62
256
370
-1
 48
1.0
  6
BYLAYER
100
AcDbCircle
 10
-84.6627232796485885
 20
98.5000000000001137
 30
0.0
 40
1.5
  0
CIRCLE
  5
20B
100
AcDbEntity
  8
cut
 62
256
370
-1
 48
1.0
  6
BYLAYER
100
AcDbCircle
 10
315.33727672035144
 20
98.4999999999998721
 30
0.0
 40
1.5
  0
CIRCLE
  5
20C
100
AcDbEntity
  8
cut
 62
256
370
-1
 48
1.0
  6
BYLAYER
100
AcDbCircle
 10
115.33727672035144
 20
-98.4999999999999432
 30
0.0
 40
1.5
  0
CIRCLE
  5
20D
100
AcDbEntity
  8
cut
 62
256
370
-1
 48
1.0
  6
BYLAYER
100
AcDbCircle
 10
-84.6627232796486453
 20
-98.4999999999998579
 30
0.0
 40
1.5
  0
CIRCLE
  5
20E
100
AcDbEntity
  8
cut
 62
256
370
-1
 48
1.0
  6
BYLAYER
100
AcDbCircle
 10
315.33727672035144
 20
-98.5000000000000995
 30
0.0
 40
1.5
  0
CIRCLE
  5
20F
100
AcDbEntity
  8
cut
 62
256
370
-1
 48
1.0
  6
BYLAYER
100
AcDbCircle
 10
295.3372767203514968
 20
-1.5000000000000473
 30
0.0
 40
1.5
  0
CIRCLE
  5
210
100
AcDbEntity
  8
cut
 62
256
370
-1
 48
1.0
  6
BYLAYER
100
AcDbCircle
 10
95.3372767203514258
 20
-1.499999999999962
 30
0.0
 40
1.5
  0
CIRCLE
  5
211
100
AcDbEntity
  8
cut
 62
256
370
-1
 48
1.0
  6
BYLAYER
100
AcDbCircle
 10
195.3372767203514684
 20
1.5000000000000273
 30
0.0
 40
1.5
  0
CIRCLE
  5
212
100
AcDbEntity
  8
cut
 62
256
370
-1
 48
1.0
  6
BYLAYER
100
AcDbCircle
 10
-4.6627232796486169
 20
1.5000000000001126
 30
0.0
 40
1.5
  0
CIRCLE
  5
213
100
AcDbEntity
  8
cut
 62
256
370
-1
 48
1.0
  6
BYLAYER
100
AcDbCircle
 10
395.33727672035144
 20
1.499999999999871
 30
0.0
 40
1.5
  0
LINE
  5
214
100
AcDbEntity
  8
cut
 62
256
370
-1
 48
1.0
  6
BYLAYER
100
AcDbLine
 10
302.3372767203514968
 20
-103.5000000000000568
 30
0.0
 11
302.3372767203514968
 21
-93.5000000000000426
 31
0.0
  0
LINE
  5
215
100
AcDbEntity
  8
cut
 62
256
370
-1
 48
1.0
  6
BYLAYER
100
AcDbLine
 10
102.3372767203513831
 20
-103.4999999999999716
 30
0.0
 11
102.3372767203513973
 21
-93.4999999999999574
 31
0.0
  0
CIRCLE
  5
216
100
AcDbEntity
  8
cut
 62
256
370
-1
 48
1.0
  6
BYLAYER
100
AcDbCircle
 10
295.3372767203513831
 20
-98.5000000000000711
 30
0.0
 40
1.5
  0
CIRCLE
  5
217
100
AcDbEntity
  8
cut
 62
256
370
-1
 48
1.0
  6
BYLAYER
100
AcDbCircle
 10
95.3372767203512979
 20
-98.4999999999999858
 30
0.0
 40
1.5
  0
CIRCLE
  5
218
100
AcDbEntity
  8
cut
 62
256
370
-1
 48
1.0
  6
BYLAYER
100
AcDbCircle
 10
195.33727672035144
 20
98.5000000000000284
 30
0.0
 40
1.5
  0
CIRCLE
  5
219
100
AcDbEntity
  8
cut
 62
256
370
-1
 48
1.0
  6
BYLAYER
100
AcDbCircle
 10
-4.6627232796486382
 20
98.5000000000001137
 30
0.0
 40
1.5
  0
CIRCLE
  5
21A
100
AcDbEntity
  8
cut
 62
256
370
-1
 48
1.0
  6
BYLAYER
100
AcDbCircle
 10
395.33727672035144
 20
98.4999999999998721
 30
0.0
 40
1.5
  0
LINE
  5
21B
100
AcDbEntity
  8
cut
 62
256
370
-1
 48
1.0
  6
BYLAYER
100
AcDbLine
 10
108.3372767203514826
 20
103.5000000000000426
 30
0.0
 11
108.3372767203514826
 21
93.5
 31
0.0
  0
LINE
  5
21C
100
AcDbEntity
  8
cut
 62
256
370
-1
 48
1.0
  6
BYLAYER
100
AcDbLine
 10
-91.6627232796486027
 20
103.5000000000001279
 30
0.0
 11
-91.6627232796486027
 21
93.5000000000000853
 31
0.0
  0
LINE
  5
21D
100
AcDbEntity
  8
cut
 62
256
370
-1
 48
1.0
  6
BYLAYER
100
AcDbLine
 10
308.33727672035144
 20
103.4999999999998863
 30
0.0
 11
308.33727672035144
 21
93.4999999999998437
 31
0.0
  0
CIRCLE
  5
21E
100
AcDbEntity
  8
cut
 62
256
370
-1
 48
1.0
  6
BYLAYER
100
AcDbCircle
 10
295.3372767203514968
 20
98.4999999999999432
 30
0.0
 40
1.5
  0
CIRCLE
  5
21F
100
AcDbEntity
  8
cut
 62
256
370
-1
 48
1.0
  6
BYLAYER
100
AcDbCircle
 10
95.3372767203514115
 20
98.5000000000000284
 30
0.0
 40
1.5
  0
CIRCLE
  5
220
100
AcDbEntity
  8
cut
 62
256
370
-1
 48
1.0
  6
BYLAYER
100
AcDbCircle
 10
195.3372767203514684
 20
-98.4999999999999432
 30
0.0
 40
1.5
  0
CIRCLE
  5
221
100
AcDbEntity
  8
cut
 62
256
370
-1
 48
1.0
  6
BYLAYER
100
AcDbCircle
 10
-4.6627232796486098
 20
-98.4999999999998579
 30
0.0
 40
1.5
  0
CIRCLE
  5
222
100
AcDbEntity
  8
cut
 62
256
370
-1
 48
1.0
  6
BYLAYER
100
AcDbCircle
 10
395.33727672035144
 20
-98.5000000000000995
 30
0.0
 40
1.5
  0
LINE
  5
223
100
AcDbEntity
  8
cut
 62
256
370
-1
 48
1.0
  6
BYLAYER
100
AcDbLine
 10
208.3372767203513263
 20
-93.5000000000000284
 30
0.0
 11
208.3372767203516389
 21
-103.5000000000000426
 31
0.0
  0
LINE
  5
224
100
AcDbEntity
  8
cut
 62
256
370
-1
 48
1.0
  6
BYLAYER
100
AcDbLine
 10
8.3372767203512481
 20
-93.4999999999999432
 30
0.0
 11
8.3372767203515554
 21
-103.4999999999999574
 31
0.0
  0
LINE
  5
225
100
AcDbEntity
  8
cut
 62
256
370
-1
 48
1.0
  6
BYLAYER
100
AcDbLine
 10
202.3372767203515536
 20
93.5
 30
0.0
 11
202.3372767203512979
 21
103.5
 31
0.0
  0
LINE
  5
226
100
AcDbEntity
  8
cut
 62
256
370
-1
 48
1.0
  6
BYLAYER
100
AcDbLine
 10
2.3372767203514671
 20
93.5000000000000853
 30
0.0
 11
2.3372767203511993
 21
103.5000000000000853
 31
0.0
  0
LINE
  5
227
100
AcDbEntity
  8
cut
 62
256
370
-1
 48
1.0
  6
BYLAYER
100
AcDbLine
 10
402.3372767203515536
 20
93.4999999999998437
 30
0.0
 11
402.3372767203512694
 21
103.4999999999998437
 31
0.0
  0
LINE
  5
228
100
AcDbEntity
  8
cut
 62
256
370
-1
 48
1.0
  6
BYLAYER
100
AcDbLine
 10
260.33727672035144
 20
-51.5000000000000853
 30
0.0
 11
250.3372767203514684
 21
-51.5000000000000711
 31
0.0
  0
LINE
  5
229
100
AcDbEntity
  8
cut
 62
256
370
-1
 48
1.0
  6
BYLAYER
100
AcDbLine
 10
60.3372767203513689
 20
-51.5
 30
0.0
 11
50.3372767203513902
 21
-51.4999999999999858
 31
0.0
  0
LINE
  5
22A
100
AcDbEntity
  8
cut
 62
256
370
-1
 48
1.0
  6
BYLAYER
100
AcDbLine
 10
150.3372767203514684
 20
51.5
 30
0.0
 11
160.3372767203514684
 21
51.5
 31
0.0
  0
LINE
  5
22B
100
AcDbEntity
  8
cut
 62
256
370
-1
 48
1.0
  6
BYLAYER
100
AcDbLine
 10
-49.6627232796486169
 20
51.5000000000000853
 30
0.0
 11
-39.6627232796486169
 21
51.5000000000000853
 31
0.0
  0
LINE
  5
22C
100
AcDbEntity
  8
cut
 62
256
370
-1
 48
1.0
  6
BYLAYER
100
AcDbLine
 10
350.33727672035144
 20
51.4999999999998437
 30
0.0
 11
360.33727672035144
 21
51.4999999999998437
 31
0.0
  0
LINE
  5
22D
100
AcDbEntity
  8
cut
 62
256
370
-1
 48
1.0
  6
BYLAYER
100
AcDbLine
 10
260.3372767203513263
 20
-145.5000000000000853
 30
0.0
 11
250.3372767203513831
 21
-145.5000000000000284
 31
0.0
  0
LINE
  5
22E
100
AcDbEntity
  8
cut
 62
256
370
-1
 48
1.0
  6
BYLAYER
100
AcDbLine
 10
60.3372767203512552
 20
-145.5
 30
0.0
 11
50.3372767203512836
 21
-145.4999999999999432
 31
0.0
  0
LINE
  5
22F
100
AcDbEntity
  8
cut
 62
256
370
-1
 48
1.0
  6
BYLAYER
100
AcDbLine
 10
150.3372767203514684
 20
145.5
 30
0.0
 11
160.3372767203515252
 21
145.5
 31
0.0
  0
LINE
  5
230
100
AcDbEntity
  8
cut
 62
256
370
-1
 48
1.0
  6
BYLAYER
100
AcDbLine
 10
-49.6627232796486169
 20
145.5000000000000853
 30
0.0
 11
-39.66272327964856
 21
145.5000000000000853
 31
0.0
  0
LINE
  5
231
100
AcDbEntity
  8
cut
 62
256
370
-1
 48
1.0
  6
BYLAYER
100
AcDbLine
 10
350.33727672035144
 20
145.4999999999998295
 30
0.0
 11
360.3372767203514968
 21
145.4999999999998295
 31
0.0
  0
LINE
  5
232
100
AcDbEntity
  8
cut
 62
256
370
-1
 48
1.0
  6
BYLAYER
100
AcDbLine
 10
202.3372767203515821
 20
-93.4999999999999716
 30
0.0
 11
202.3372767203512694
 21
-103.4999999999999716
 31
0.0
  0
LINE
  5
233
100
AcDbEntity
  8
cut
 62
256
370
-1
 48
1.0
  6
BYLAYER
100
AcDbLine
 10
2.3372767203514866
 20
-93.4999999999998863
 30
0.0
 11
2.3372767203511744
 21
-103.4999999999998863
 31
0.0
  0
LINE
  5
234
100
AcDbEntity
  8
cut
 62
256
370
-1
 48
1.0
  6
BYLAYER
100
AcDbLine
 10
402.3372767203515536
 20
-93.5000000000001279
 30
0.0
 11
402.3372767203512126
 21
-103.5000000000001279
 31
0.0
  0
LINE
  5
235
100
AcDbEntity
  8
cut
 62
256
370
-1
 48
1.0
  6
BYLAYER
100
AcDbLine
 10
208.3372767203514684
 20
93.4999999999999432
 30
0.0
 11
208.3372767203516958
 21
103.4999999999999432
 31
0.0
  0
LINE
  5
236
100
AcDbEntity
  8
cut
 62
256
370
-1
 48
1.0
  6
BYLAYER
100
AcDbLine
 10
8.3372767203513725
 20
93.5000000000000284
 30
0.0
 11
8.3372767203516034
 21
103.5000000000000284
 31
0.0
  0
LINE
  5
237
100
AcDbEntity
  8
cut
 62
256
370
-1
 48
1.0
  6
BYLAYER
100
AcDbLine
 10
160.3372767203514684
 20
-51.4999999999999645
 30
0.0
 11
150.3372767203514684
 21
-51.4999999999999716
 31
0.0
  0
LINE
  5
238
100
AcDbEntity
  8
cut
 62
256
370
-1
 48
1.0
  6
BYLAYER
100
AcDbLine
 10
-39.6627232796486169
 20
-51.4999999999998792
 30
0.0
 11
-49.6627232796486169
 21
-51.4999999999998863
 31
0.0
  0
LINE
  5
239
100
AcDbEntity
  8
cut
 62
256
370
-1
 48
1.0
  6
BYLAYER
100
AcDbLine
 10
360.33727672035144
 20
-51.5000000000001208
 30
0.0
 11
350.33727672035144
 21
-51.5000000000001279
 31
0.0
  0
LINE
  5
23A
100
AcDbEntity
  8
cut
 62
256
370
-1
 48
1.0
  6
BYLAYER
100
AcDbLine
 10
250.3372767203514968
 20
51.4999999999999361
 30
0.0
 11
260.3372767203514968
 21
51.4999999999999147
 31
0.0
  0
LINE
  5
23B
100
AcDbEntity
  8
cut
 62
256
370
-1
 48
1.0
  6
BYLAYER
100
AcDbLine
 10
50.3372767203514044
 20
51.5000000000000213
 30
0.0
 11
60.3372767203514329
 21
51.5
 31
0.0
  0
LINE
  5
23C
100
AcDbEntity
  8
cut
 62
256
370
-1
 48
1.0
  6
BYLAYER
100
AcDbLine
 10
150.3372767203515252
 20
-48.4999999999999787
 30
0.0
 11
140.33727672035144
 21
-48.4999999999999503
 31
0.0
  0
LINE
  5
23D
100
AcDbEntity
  8
cut
 62
256
370
-1
 48
1.0
  6
BYLAYER
100
AcDbLine
 10
-49.66272327964856
 20
-48.4999999999998934
 30
0.0
 11
-59.6627232796486311
 21
-48.499999999999865
 31
0.0
  0
LINE
  5
23E
100
AcDbEntity
  8
cut
 62
256
370
-1
 48
1.0
  6
BYLAYER
100
AcDbLine
 10
350.3372767203514968
 20
-48.500000000000135
 30
0.0
 11
340.33727672035144
 21
-48.5000000000001066
 31
0.0
  0
LINE
  5
23F
100
AcDbEntity
  8
cut
 62
256
370
-1
 48
1.0
  6
BYLAYER
100
AcDbLine
 10
260.3372767203514968
 20
48.4999999999999432
 30
0.0
 11
270.3372767203514968
 21
48.4999999999999432
 31
0.0
  0
LINE
  5
240
100
AcDbEntity
  8
cut
 62
256
370
-1
 48
1.0
  6
BYLAYER
100
AcDbLine
 10
60.3372767203513902
 20
48.5000000000000284
 30
0.0
 11
70.3372767203513973
 21
48.5000000000000284
 31
0.0
  0
LINE
  5
241
100
AcDbEntity
  8
cut
 62
256
370
-1
 48
1.0
  6
BYLAYER
100
AcDbLine
 10
108.3372767203514684
 20
-93.4999999999999432
 30
0.0
 11
108.3372767203516105
 21
-103.5000000000000426
 31
0.0
  0
LINE
  5
242
100
AcDbEntity
  8
cut
 62
256
370
-1
 48
1.0
  6
BYLAYER
100
AcDbLine
 10
-91.6627232796486169
 20
-93.4999999999998579
 30
0.0
 11
-91.6627232796484748
 21
-103.4999999999999574
 31
0.0
  0
LINE
  5
243
100
AcDbEntity
  8
cut
 62
256
370
-1
 48
1.0
  6
BYLAYER
100
AcDbLine
 10
308.33727672035144
 20
-93.5000000000000995
 30
0.0
 11
308.3372767203515536
 21
-103.500000000000199
 31
0.0
  0
LINE
  5
244
100
AcDbEntity
  8
cut
 62
256
370
-1
 48
1.0
  6
BYLAYER
100
AcDbLine
 10
302.3372767203514968
 20
93.4999999999999289
 30
0.0
 11
302.33727672035144
 21
103.4999999999999432
 31
0.0
  0
LINE
  5
245
100
AcDbEntity
  8
cut
 62
256
370
-1
 48
1.0
  6
BYLAYER
100
AcDbLine
 10
102.3372767203513831
 20
93.5000000000000142
 30
0.0
 11
102.3372767203513689
 21
103.5000000000000284
 31
0.0
  0
LINE
  5
246
100
AcDbEntity
  8
cut
 62
256
370
-1
 48
1.0
  6
BYLAYER
100
AcDbLine
 10
160.3372767203515252
 20
-145.4999999999999716
 30
0.0
 11
150.3372767203511273
 21
-145.4999999999999716
 31
0.0
  0
LINE
  5
247
100
AcDbEntity
  8
cut
 62
256
370
-1
 48
1.0
  6
BYLAYER
100
AcDbLine
 10
-39.6627232796485529
 20
-145.4999999999998863
 30
0.0
 11
-49.6627232796489508
 21
-145.4999999999998863
 31
0.0
  0
LINE
  5
248
100
AcDbEntity
  8
cut
 62
256
370
-1
 48
1.0
  6
BYLAYER
100
AcDbLine
 10
360.3372767203514968
 20
-145.5000000000001137
 30
0.0
 11
350.3372767203510989
 21
-145.5000000000001137
 31
0.0
  0
LINE
  5
249
100
AcDbEntity
  8
cut
 62
256
370
-1
 48
1.0
  6
BYLAYER
100
AcDbLine
 10
250.3372767203515536
 20
145.4999999999999432
 30
0.0
 11
260.3372767203514968
 21
145.4999999999999432
 31
0.0
  0
LINE
  5
24A
100
AcDbEntity
  8
cut
 62
256
370
-1
 48
1.0
  6
BYLAYER
100
AcDbLine
 10
50.3372767203514613
 20
145.5000000000000284
 30
0.0
 11
60.3372767203514329
 21
145.5000000000000284
 31
0.0
  0
LINE
  5
24B
100
AcDbEntity
  8
cut
 62
256
370
-1
 48
1.0
  6
BYLAYER
100
AcDbLine
 10
58.2159381865188266
 20
3.500000000000036
 30
0.0
 11
52.4586152541840249
 21
3.5000000000000577
 31
0.0
  0
LINE
  5
24C
100
AcDbEntity
  8
cut
 62
256
370
-1
 48
1.0
  6
BYLAYER
100
AcDbLine
 10
258.2159381865188834
 20
3.4999999999999507
 30
0.0
 11
252.4586152541841102
 21
3.4999999999999725
 31
0.0
  0
LINE
  5
24D
100
AcDbEntity
  8
cut
 62
256
370
-1
 48
1.0
  6
BYLAYER
100
AcDbLine
 10
-47.5413847458160248
 20
-3.4999999999999165
 30
0.0
 11
-41.7840618134812303
 21
-3.4999999999999121
 31
0.0
  0
LINE
  5
24E
100
AcDbEntity
  8
cut
 62
256
370
-1
 48
1.0
  6
BYLAYER
100
AcDbLine
 10
152.4586152541840534
 20
-3.5000000000000018
 30
0.0
 11
158.215938186518855
 21
-3.4999999999999973
 31
0.0
  0
LINE
  5
24F
100
AcDbEntity
  8
cut
 62
256
370
-1
 48
1.0
  6
BYLAYER
100
AcDbLine
 10
352.4586152541840534
 20
-3.5000000000001581
 30
0.0
 11
358.2159381865188266
 21
-3.5000000000001537
 31
0.0
  0
LINE
  5
250
100
AcDbEntity
  8
cut
 62
256
370
-1
 48
1.0
  6
BYLAYER
100
AcDbLine
 10
58.215938186518855
 20
-6.4999999999999822
 30
0.0
 11
52.4586152541840391
 21
-6.4999999999999751
 31
0.0
  0
LINE
  5
251
100
AcDbEntity
  8
cut
 62
256
370
-1
 48
1.0
  6
BYLAYER
100
AcDbLine
 10
258.2159381865189403
 20
-6.5000000000000675
 30
0.0
 11
252.4586152541841102
 21
-6.5000000000000604
 31
0.0
  0
LINE
  5
252
100
AcDbEntity
  8
cut
 62
256
370
-1
 48
1.0
  6
BYLAYER
100
AcDbLine
 10
-47.5413847458160603
 20
6.5000000000000959
 30
0.0
 11
-41.7840618134812445
 21
6.5000000000000933
 31
0.0
  0
LINE
  5
253
100
AcDbEntity
  8
cut
 62
256
370
-1
 48
1.0
  6
BYLAYER
100
AcDbLine
 10
152.4586152541840249
 20
6.5000000000000107
 30
0.0
 11
158.2159381865188266
 21
6.500000000000008
 31
0.0
  0
LINE
  5
254
100
AcDbEntity
  8
cut
 62
256
370
-1
 48
1.0
  6
BYLAYER
100
AcDbLine
 10
352.4586152541839965
 20
6.4999999999998543
 30
0.0
 11
358.2159381865188266
 21
6.4999999999998517
 31
0.0
  0
LINE
  5
255
100
AcDbEntity
  8
cut
 62
256
370
-1
 48
1.0
  6
BYLAYER
100
AcDbLine
 10
61.1074540002732931
 20
-1.4999999999999973
 30
0.0
 11
58.2159381865188266
 21
-6.4999999999999787
 31
0.0
  0
LINE
  5
256
100
AcDbEntity
  8
cut
 62
256
370
-1
 48
1.0
  6
BYLAYER
100
AcDbLine
 10
261.1074540002733784
 20
-1.5000000000000826
 30
0.0
 11
258.2159381865188834
 21
-6.5000000000000639
 31
0.0
  0
LINE
  5
257
100
AcDbEntity
  8
cut
 62
256
370
-1
 48
1.0
  6
BYLAYER
100
AcDbLine
 10
-50.4329005595704984
 20
1.5000000000000859
 30
0.0
 11
-47.5413847458160319
 21
6.5000000000000684
 31
0.0
  0
LINE
  5
258
100
AcDbEntity
  8
cut
 62
256
370
-1
 48
1.0
  6
BYLAYER
100
AcDbLine
 10
149.5670994404295868
 20
1.5000000000000007
 30
0.0
 11
152.4586152541840534
 21
6.4999999999999831
 31
0.0
  0
LINE
  5
259
100
AcDbEntity
  8
cut
 62
256
370
-1
 48
1.0
  6
BYLAYER
100
AcDbLine
 10
349.5670994404295584
 20
1.4999999999998443
 30
0.0
 11
352.4586152541840534
 21
6.4999999999998268
 31
0.0
  0
LINE
  5
25A
100
AcDbEntity
  8
cut
 62
256
370
-1
 48
1.0
  6
BYLAYER
100
AcDbLine
 10
58.2159381865187981
 20
3.5000000000000342
 30
0.0
 11
61.1074540002732931
 21
-1.4999999999999973
 31
0.0
  0
LINE
  5
25B
100
AcDbEntity
  8
cut
 62
256
370
-1
 48
1.0
  6
BYLAYER
100
AcDbLine
 10
258.2159381865188834
 20
3.4999999999999489
 30
0.0
 11
261.1074540002733784
 21
-1.5000000000000826
 31
0.0
  0
LINE
  5
25C
100
AcDbEntity
  8
cut
 62
256
370
-1
 48
1.0
  6
BYLAYER
100
AcDbLine
 10
-47.5413847458160035
 20
-3.4999999999999152
 30
0.0
 11
-50.4329005595704984
 21
1.5000000000000859
 31
0.0
  0
LINE
  5
25D
100
AcDbEntity
  8
cut
 62
256
370
-1
 48
1.0
  6
BYLAYER
100
AcDbLine
 10
152.4586152541840818
 20
-3.5000000000000004
 30
0.0
 11
149.5670994404295868
 21
1.5000000000000007
 31
0.0
  0
LINE
  5
25E
100
AcDbEntity
  8
cut
 62
256
370
-1
 48
1.0
  6
BYLAYER
100
AcDbLine
 10
352.4586152541840534
 20
-3.5000000000001568
 30
0.0
 11
349.5670994404295584
 21
1.4999999999998443
 31
0.0
  0
LINE
  5
25F
100
AcDbEntity
  8
cut
 62
256
370
-1
 48
1.0
  6
BYLAYER
100
AcDbLine
 10
49.5670994404295371
 20
-1.4999999999999793
 30
0.0
 11
52.4586152541840249
 21
3.5000000000000577
 31
0.0
  0
LINE
  5
260
100
AcDbEntity
  8
cut
 62
256
370
-1
 48
1.0
  6
BYLAYER
100
AcDbLine
 10
249.5670994404296152
 20
-1.5000000000000646
 30
0.0
 11
252.4586152541841102
 21
3.4999999999999725
 31
0.0
  0
LINE
  5
261
100
AcDbEntity
  8
cut
 62
256
370
-1
 48
1.0
  6
BYLAYER
100
AcDbLine
 10
-38.8925459997267495
 20
1.5000000000000848
 30
0.0
 11
-41.7840618134812303
 21
-3.4999999999999121
 31
0.0
  0
LINE
  5
262
100
AcDbEntity
  8
cut
 62
256
370
-1
 48
1.0
  6
BYLAYER
100
AcDbLine
 10
161.1074540002733215
 20
1.4999999999999996
 30
0.0
 11
158.215938186518855
 21
-3.4999999999999973
 31
0.0
  0
LINE
  5
263
100
AcDbEntity
  8
cut
 62
256
370
-1
 48
1.0
  6
BYLAYER
100
AcDbLine
 10
361.1074540002733215
 20
1.4999999999998432
 30
0.0
 11
358.2159381865188266
 21
-3.5000000000001537
 31
0.0
  0
LINE
  5
264
100
AcDbEntity
  8
cut
 62
256
370
-1
 48
1.0
  6
BYLAYER
100
AcDbLine
 10
52.4586152541840391
 20
-6.4999999999999751
 30
0.0
 11
49.5670994404295371
 21
-1.4999999999999793
 31
0.0
  0
LINE
  5
265
100
AcDbEntity
  8
cut
 62
256
370
-1
 48
1.0
  6
BYLAYER
100
AcDbLine
 10
252.4586152541841102
 20
-6.5000000000000604
 30
0.0
 11
249.5670994404296152
 21
-1.5000000000000646
 31
0.0
  0
LINE
  5
266
100
AcDbEntity
  8
cut
 62
256
370
-1
 48
1.0
  6
BYLAYER
100
AcDbLine
 10
-41.7840618134812445
 20
6.5000000000000933
 30
0.0
 11
-38.8925459997267495
 21
1.5000000000000848
 31
0.0
  0
LINE
  5
267
100
AcDbEntity
  8
cut
 62
256
370
-1
 48
1.0
  6
BYLAYER
100
AcDbLine
 10
158.2159381865188266
 20
6.500000000000008
 30
0.0
 11
161.1074540002733215
 21
1.4999999999999996
 31
0.0
  0
LINE
  5
268
100
AcDbEntity
  8
cut
 62
256
370
-1
 48
1.0
  6
BYLAYER
100
AcDbLine
 10
358.2159381865188266
 20
6.4999999999998517
 30
0.0
 11
361.1074540002733215
 21
1.4999999999998432
 31
0.0
  0
LINE
  5
269
100
AcDbEntity
  8
cut
 62
256
370
-1
 48
1.0
  6
BYLAYER
100
AcDbLine
 10
-39.6627232796486311
 20
-48.4999999999998863
 30
0.0
 11
-29.662723279648624
 21
-48.4999999999998792
 31
0.0
  0
LINE
  5
26A
100
AcDbEntity
  8
cut
 62
256
370
-1
 48
1.0
  6
BYLAYER
100
AcDbLine
 10
160.33727672035144
 20
-48.4999999999999716
 30
0.0
 11
170.3372767203514684
 21
-48.4999999999999645
 31
0.0
  0
LINE
  5
26B
100
AcDbEntity
  8
cut
 62
256
370
-1
 48
1.0
  6
BYLAYER
100
AcDbLine
 10
360.33727672035144
 20
-48.5000000000001279
 30
0.0
 11
370.33727672035144
 21
-48.5000000000001208
 31
0.0
  0
LINE
  5
26C
100
AcDbEntity
  8
cut
 62
256
370
-1
 48
1.0
  6
BYLAYER
100
AcDbLine
 10
40.3372767203514329
 20
48.5000000000000071
 30
0.0
 11
50.3372767203514115
 21
48.5000000000000142
 31
0.0
  0
LINE
  5
26D
100
AcDbEntity
  8
cut
 62
256
370
-1
 48
1.0
  6
BYLAYER
100
AcDbLine
 10
240.3372767203515252
 20
48.4999999999999218
 30
0.0
 11
250.3372767203514968
 21
48.4999999999999289
 31
0.0
  0
LINE
  5
26E
100
AcDbEntity
  8
cut
 62
256
370
-1
 48
1.0
  6
BYLAYER
100
AcDbLine
 10
-14.6627232796486098
 20
-8.4999999999998899
 30
0.0
 11
-14.6627232796486169
 21
11.5000000000001137
 31
0.0
  0
LINE
  5
26F
100
AcDbEntity
  8
cut
 62
256
370
-1
 48
1.0
  6
BYLAYER
100
AcDbLine
 10
-74.6627232796486169
 20
-8.4999999999998703
 30
0.0
 11
-74.6627232796486169
 21
11.5000000000001066
 31
0.0
  0
LINE
  5
270
100
AcDbEntity
  8
cut
 62
256
370
-1
 48
1.0
  6
BYLAYER
100
AcDbLine
 10
85.3372767203513405
 20
-108.5
 30
0.0
 11
85.3372767203513973
 21
-88.4999999999999289
 31
0.0
  0
LINE
  5
271
100
AcDbEntity
  8
cut
 62
256
370
-1
 48
1.0
  6
BYLAYER
100
AcDbLine
 10
25.3372767203513973
 20
-108.4999999999999289
 30
0.0
 11
25.3372767203513796
 21
-88.4999999999999289
 31
0.0
  0
LINE
  5
272
100
AcDbEntity
  8
cut
 62
256
370
-1
 48
1.0
  6
BYLAYER
100
AcDbLine
 10
-14.6627232796486595
 20
-108.4999999999998437
 30
0.0
 11
-14.6627232796486275
 21
-88.4999999999998579
 31
0.0
  0
LINE
  5
273
100
AcDbEntity
  8
cut
 62
256
370
-1
 48
1.0
  6
BYLAYER
100
AcDbLine
 10
-74.6627232796486595
 20
-108.4999999999998153
 30
0.0
 11
-74.6627232796486311
 21
-88.4999999999998579
 31
0.0
  0
LINE
  5
274
100
AcDbEntity
  8
cut
 62
256
370
-1
 48
1.0
  6
BYLAYER
100
AcDbLine
 10
125.3372767203514258
 20
-108.4999999999999005
 30
0.0
 11
125.3372767203514542
 21
-88.4999999999999432
 31
0.0
  0
LINE
  5
275
100
AcDbEntity
  8
cut
 62
256
370
-1
 48
1.0
  6
BYLAYER
100
AcDbLine
 10
125.3372767203514684
 20
-8.4999999999999556
 30
0.0
 11
125.3372767203514684
 21
11.5000000000000213
 31
0.0
  0
LINE
  5
276
100
AcDbEntity
  8
cut
 62
256
370
-1
 48
1.0
  6
BYLAYER
100
AcDbLine
 10
285.33727672035144
 20
-108.5000000000000853
 30
0.0
 11
285.3372767203514968
 21
-88.5000000000000142
 31
0.0
  0
LINE
  5
277
100
AcDbEntity
  8
cut
 62
256
370
-1
 48
1.0
  6
BYLAYER
100
AcDbLine
 10
225.3372767203514968
 20
-108.5000000000000142
 30
0.0
 11
225.3372767203514684
 21
-88.5000000000000142
 31
0.0
  0
LINE
  5
278
100
AcDbEntity
  8
cut
 62
256
370
-1
 48
1.0
  6
BYLAYER
100
AcDbLine
 10
185.33727672035144
 20
-108.4999999999999289
 30
0.0
 11
185.3372767203514684
 21
-88.4999999999999432
 31
0.0
  0
LINE
  5
279
100
AcDbEntity
  8
cut
 62
256
370
-1
 48
1.0
  6
BYLAYER
100
AcDbLine
 10
225.3372767203514115
 20
88.4999999999999716
 30
0.0
 11
225.3372767203515252
 21
108.4999999999999574
 31
0.0
  0
LINE
  5
27A
100
AcDbEntity
  8
cut
 62
256
370
-1
 48
1.0
  6
BYLAYER
100
AcDbLine
 10
285.3372767203514968
 20
-11.5000000000000391
 30
0.0
 11
285.3372767203514968
 21
8.4999999999999503
 31
0.0
  0
LINE
  5
27B
100
AcDbEntity
  8
cut
 62
256
370
-1
 48
1.0
  6
BYLAYER
100
AcDbLine
 10
225.3372767203514968
 20
-11.5000000000000409
 30
0.0
 11
225.3372767203514968
 21
8.4999999999999716
 31
0.0
  0
LINE
  5
27C
100
AcDbEntity
  8
cut
 62
256
370
-1
 48
1.0
  6
BYLAYER
100
AcDbLine
 10
185.3372767203514684
 20
-8.4999999999999751
 30
0.0
 11
185.3372767203514684
 21
11.5000000000000284
 31
0.0
  0
LINE
  5
27D
100
AcDbEntity
  8
cut
 62
256
370
-1
 48
1.0
  6
BYLAYER
100
AcDbLine
 10
185.3372767203514968
 20
88.5000000000000284
 30
0.0
 11
185.3372767203514684
 21
108.5000000000000284
 31
0.0
  0
LINE
  5
27E
100
AcDbEntity
  8
cut
 62
256
370
-1
 48
1.0
  6
BYLAYER
100
AcDbLine
 10
125.3372767203514826
 20
88.5000000000000284
 30
0.0
 11
125.3372767203514542
 21
108.5000000000000284
 31
0.0
  0
LINE
  5
27F
100
AcDbEntity
  8
cut
 62
256
370
-1
 48
1.0
  6
BYLAYER
100
AcDbLine
 10
285.3372767203514968
 20
88.4999999999999432
 30
0.0
 11
285.3372767203515536
 21
108.4999999999999147
 31
0.0
  0
LINE
  5
280
100
AcDbEntity
  8
cut
 62
256
370
-1
 48
1.0
  6
BYLAYER
100
AcDbLine
 10
385.33727672035144
 20
-8.5000000000001315
 30
0.0
 11
385.33727672035144
 21
11.4999999999998721
 31
0.0
  0
LINE
  5
281
100
AcDbEntity
  8
cut
 62
256
370
-1
 48
1.0
  6
BYLAYER
100
AcDbLine
 10
385.33727672035144
 20
88.4999999999998721
 30
0.0
 11
385.33727672035144
 21
108.4999999999998721
 31
0.0
  0
LINE
  5
282
100
AcDbEntity
  8
cut
 62
256
370
-1
 48
1.0
  6
BYLAYER
100
AcDbLine
 10
325.33727672035144
 20
88.4999999999998721
 30
0.0
 11
325.33727672035144
 21
108.4999999999998721
 31
0.0
  0
LINE
  5
283
100
AcDbEntity
  8
cut
 62
256
370
-1
 48
1.0
  6
BYLAYER
100
AcDbLine
 10
385.33727672035144
 20
-108.5000000000000853
 30
0.0
 11
385.33727672035144
 21
-88.5000000000000995
 31
0.0
  0
LINE
  5
284
100
AcDbEntity
  8
cut
 62
256
370
-1
 48
1.0
  6
BYLAYER
100
AcDbLine
 10
325.3372767203513831
 20
-108.5000000000000568
 30
0.0
 11
325.33727672035144
 21
-88.5000000000000995
 31
0.0
  0
LINE
  5
285
100
AcDbEntity
  8
cut
 62
256
370
-1
 48
1.0
  6
BYLAYER
100
AcDbLine
 10
325.33727672035144
 20
-8.5000000000001119
 30
0.0
 11
325.33727672035144
 21
11.499999999999865
 31
0.0
  0
LINE
  5
286
100
AcDbEntity
  8
cut
 62
256
370
-1
 48
1.0
  6
BYLAYER
100
AcDbLine
 10
-14.6627232796485849
 20
88.5000000000001137
 30
0.0
 11
-14.662723279648624
 21
108.5000000000001137
 31
0.0
  0
LINE
  5
287
100
AcDbEntity
  8
cut
 62
256
370
-1
 48
1.0
  6
BYLAYER
100
AcDbLine
 10
-74.6627232796486027
 20
88.5000000000001137
 30
0.0
 11
-74.6627232796486311
 21
108.5000000000001137
 31
0.0
  0
LINE
  5
288
100
AcDbEntity
  8
cut
 62
256
370
-1
 48
1.0
  6
BYLAYER
100
AcDbLine
 10
85.3372767203514258
 20
88.5000000000000284
 30
0.0
 11
85.3372767203514542
 21
108.5
 31
0.0
  0
LINE
  5
289
100
AcDbEntity
  8
cut
 62
256
370
-1
 48
1.0
  6
BYLAYER
100
AcDbLine
 10
25.3372767203513298
 20
88.5000000000000568
 30
0.0
 11
25.3372767203514435
 21
108.5000000000000426
 31
0.0
  0
LINE
  5
28A
100
AcDbEntity
  8
cut
 62
256
370
-1
 48
1.0
  6
BYLAYER
100
AcDbLine
 10
85.3372767203514115
 20
-11.4999999999999538
 30
0.0
 11
85.3372767203514258
 21
8.5000000000000355
 31
0.0
  0
LINE
  5
28B
100
AcDbEntity
  8
cut
 62
256
370
-1
 48
1.0
  6
BYLAYER
100
AcDbLine
 10
25.3372767203514186
 20
-11.4999999999999556
 30
0.0
 11
25.3372767203514258
 21
8.5000000000000568
 31
0.0
  0
LINE
  5
28C
100
AcDbEntity
  8
cut
 62
256
370
-1
 48
1.0
  6
BYLAYER
100
AcDbLine
 10
-14.6627232796486169
 20
11.5000000000001137
 30
0.0
 11
-34.6627232796486098
 21
11.5000000000001243
 31
0.0
  0
LINE
  5
28D
100
AcDbEntity
  8
cut
 62
256
370
-1
 48
1.0
  6
BYLAYER
100
AcDbLine
 10
25.3372767203513796
 20
-88.4999999999999289
 30
0.0
 11
45.3372767203514044
 21
-88.4999999999999289
 31
0.0
  0
LINE
  5
28E
100
AcDbEntity
  8
cut
 62
256
370
-1
 48
1.0
  6
BYLAYER
100
AcDbLine
 10
85.3372767203513973
 20
-88.4999999999999289
 30
0.0
 11
65.3372767203513831
 21
-88.4999999999999432
 31
0.0
  0
LINE
  5
28F
100
AcDbEntity
  8
cut
 62
256
370
-1
 48
1.0
  6
BYLAYER
100
AcDbLine
 10
-14.6627232796486275
 20
-88.4999999999998579
 30
0.0
 11
-34.6627232796486382
 21
-88.4999999999998437
 31
0.0
  0
LINE
  5
290
100
AcDbEntity
  8
cut
 62
256
370
-1
 48
1.0
  6
BYLAYER
100
AcDbLine
 10
-74.6627232796486311
 20
-88.4999999999998579
 30
0.0
 11
-54.6627232796486098
 21
-88.4999999999998579
 31
0.0
  0
LINE
  5
291
100
AcDbEntity
  8
cut
 62
256
370
-1
 48
1.0
  6
BYLAYER
100
AcDbLine
 10
125.3372767203514542
 20
-88.4999999999999432
 30
0.0
 11
145.3372767203514684
 21
-88.4999999999999432
 31
0.0
  0
LINE
  5
292
100
AcDbEntity
  8
cut
 62
256
370
-1
 48
1.0
  6
BYLAYER
100
AcDbLine
 10
185.3372767203514684
 20
11.5000000000000284
 30
0.0
 11
165.3372767203514684
 21
11.5000000000000391
 31
0.0
  0
LINE
  5
293
100
AcDbEntity
  8
cut
 62
256
370
-1
 48
1.0
  6
BYLAYER
100
AcDbLine
 10
225.3372767203514684
 20
-88.5000000000000142
 30
0.0
 11
245.3372767203514968
 21
-88.5000000000000142
 31
0.0
  0
LINE
  5
294
100
AcDbEntity
  8
cut
 62
256
370
-1
 48
1.0
  6
BYLAYER
100
AcDbLine
 10
285.3372767203514968
 20
-88.5000000000000142
 30
0.0
 11
265.3372767203514968
 21
-88.5000000000000284
 31
0.0
  0
LINE
  5
295
100
AcDbEntity
  8
cut
 62
256
370
-1
 48
1.0
  6
BYLAYER
100
AcDbLine
 10
185.3372767203514684
 20
-88.4999999999999432
 30
0.0
 11
165.33727672035144
 21
-88.4999999999999289
 31
0.0
  0
LINE
  5
296
100
AcDbEntity
  8
cut
 62
256
370
-1
 48
1.0
  6
BYLAYER
100
AcDbLine
 10
225.3372767203515252
 20
108.4999999999999574
 30
0.0
 11
245.3372767203514968
 21
108.4999999999999432
 31
0.0
  0
LINE
  5
297
100
AcDbEntity
  8
cut
 62
256
370
-1
 48
1.0
  6
BYLAYER
100
AcDbLine
 10
285.3372767203514968
 20
8.4999999999999503
 30
0.0
 11
265.3372767203514968
 21
8.4999999999999325
 31
0.0
  0
LINE
  5
298
100
AcDbEntity
  8
cut
 62
256
370
-1
 48
1.0
  6
BYLAYER
100
AcDbLine
 10
225.3372767203514968
 20
8.4999999999999716
 30
0.0
 11
245.3372767203514968
 21
8.4999999999999698
 31
0.0
  0
LINE
  5
299
100
AcDbEntity
  8
cut
 62
256
370
-1
 48
1.0
  6
BYLAYER
100
AcDbLine
 10
125.3372767203514684
 20
11.5000000000000213
 30
0.0
 11
145.3372767203514684
 21
11.500000000000032
 31
0.0
  0
LINE
  5
29A
100
AcDbEntity
  8
cut
 62
256
370
-1
 48
1.0
  6
BYLAYER
100
AcDbLine
 10
125.3372767203514542
 20
108.5000000000000284
 30
0.0
 11
145.33727672035144
 21
108.5000000000000142
 31
0.0
  0
LINE
  5
29B
100
AcDbEntity
  8
cut
 62
256
370
-1
 48
1.0
  6
BYLAYER
100
AcDbLine
 10
185.3372767203514684
 20
108.5000000000000284
 30
0.0
 11
165.3372767203514968
 21
108.5000000000000284
 31
0.0
  0
LINE
  5
29C
100
AcDbEntity
  8
cut
 62
256
370
-1
 48
1.0
  6
BYLAYER
100
AcDbLine
 10
285.3372767203515536
 20
108.4999999999999147
 30
0.0
 11
265.3372767203514968
 21
108.4999999999999574
 31
0.0
  0
LINE
  5
29D
100
AcDbEntity
  8
cut
 62
256
370
-1
 48
1.0
  6
BYLAYER
100
AcDbLine
 10
325.33727672035144
 20
11.499999999999865
 30
0.0
 11
345.33727672035144
 21
11.4999999999998757
 31
0.0
  0
LINE
  5
29E
100
AcDbEntity
  8
cut
 62
256
370
-1
 48
1.0
  6
BYLAYER
100
AcDbLine
 10
325.33727672035144
 20
108.4999999999998721
 30
0.0
 11
345.33727672035144
 21
108.4999999999998579
 31
0.0
  0
LINE
  5
29F
100
AcDbEntity
  8
cut
 62
256
370
-1
 48
1.0
  6
BYLAYER
100
AcDbLine
 10
385.33727672035144
 20
108.4999999999998721
 30
0.0
 11
365.33727672035144
 21
108.4999999999998721
 31
0.0
  0
LINE
  5
2A0
100
AcDbEntity
  8
cut
 62
256
370
-1
 48
1.0
  6
BYLAYER
100
AcDbLine
 10
385.33727672035144
 20
-88.5000000000000995
 30
0.0
 11
365.33727672035144
 21
-88.5000000000000853
 31
0.0
  0
LINE
  5
2A1
100
AcDbEntity
  8
cut
 62
256
370
-1
 48
1.0
  6
BYLAYER
100
AcDbLine
 10
325.33727672035144
 20
-88.5000000000000995
 30
0.0
 11
345.33727672035144
 21
-88.5000000000000995
 31
0.0
  0
LINE
  5
2A2
100
AcDbEntity
  8
cut
 62
256
370
-1
 48
1.0
  6
BYLAYER
100
AcDbLine
 10
385.33727672035144
 20
11.4999999999998721
 30
0.0
 11
365.33727672035144
 21
11.4999999999998828
 31
0.0
  0
LINE
  5
2A3
100
AcDbEntity
  8
cut
 62
256
370
-1
 48
1.0
  6
BYLAYER
100
AcDbLine
 10
-74.6627232796486311
 20
108.5000000000001137
 30
0.0
 11
-54.6627232796486311
 21
108.5000000000000995
 31
0.0
  0
LINE
  5
2A4
100
AcDbEntity
  8
cut
 62
256
370
-1
 48
1.0
  6
BYLAYER
100
AcDbLine
 10
-14.662723279648624
 20
108.5000000000001137
 30
0.0
 11
-34.6627232796486027
 21
108.5000000000001137
 31
0.0
  0
LINE
  5
2A5
100
AcDbEntity
  8
cut
 62
256
370
-1
 48
1.0
  6
BYLAYER
100
AcDbLine
 10
85.3372767203514542
 20
108.5
 30
0.0
 11
65.3372767203514115
 21
108.5000000000000426
 31
0.0
  0
LINE
  5
2A6
100
AcDbEntity
  8
cut
 62
256
370
-1
 48
1.0
  6
BYLAYER
100
AcDbLine
 10
25.3372767203514435
 20
108.5000000000000426
 30
0.0
 11
45.3372767203514115
 21
108.5000000000000284
 31
0.0
  0
LINE
  5
2A7
100
AcDbEntity
  8
cut
 62
256
370
-1
 48
1.0
  6
BYLAYER
100
AcDbLine
 10
85.3372767203514258
 20
8.5000000000000355
 30
0.0
 11
65.33727672035144
 21
8.5000000000000178
 31
0.0
  0
LINE
  5
2A8
100
AcDbEntity
  8
cut
 62
256
370
-1
 48
1.0
  6
BYLAYER
100
AcDbLine
 10
25.3372767203514258
 20
8.5000000000000568
 30
0.0
 11
45.3372767203514258
 21
8.5000000000000551
 31
0.0
  0
LINE
  5
2A9
100
AcDbEntity
  8
cut
 62
256
370
-1
 48
1.0
  6
BYLAYER
100
AcDbLine
 10
-74.6627232796486169
 20
11.5000000000001066
 30
0.0
 11
-54.6627232796486169
 21
11.5000000000001172
 31
0.0
  0
LINE
  5
2AA
100
AcDbEntity
  8
cut
 62
256
370
-1
 48
1.0
  6
BYLAYER
100
AcDbLine
 10
65.3372767203513831
 20
-88.4999999999999432
 30
0.0
 11
65.3372767203513831
 21
-108.4999999999999432
 31
0.0
  0
LINE
  5
2AB
100
AcDbEntity
  8
cut
 62
256
370
-1
 48
1.0
  6
BYLAYER
100
AcDbLine
 10
45.3372767203514044
 20
-88.4999999999999289
 30
0.0
 11
45.3372767203513831
 21
-108.4999999999999432
 31
0.0
  0
LINE
  5
2AC
100
AcDbEntity
  8
cut
 62
256
370
-1
 48
1.0
  6
BYLAYER
100
AcDbLine
 10
-34.6627232796486382
 20
-88.4999999999998437
 30
0.0
 11
-34.6627232796486311
 21
-108.4999999999998579
 31
0.0
  0
LINE
  5
2AD
100
AcDbEntity
  8
cut
 62
256
370
-1
 48
1.0
  6
BYLAYER
100
AcDbLine
 10
-54.6627232796486098
 20
-88.4999999999998579
 30
0.0
 11
-54.662723279648624
 21
-108.4999999999998579
 31
0.0
  0
LINE
  5
2AE
100
AcDbEntity
  8
cut
 62
256
370
-1
 48
1.0
  6
BYLAYER
100
AcDbLine
 10
145.3372767203514684
 20
-88.4999999999999432
 30
0.0
 11
145.3372767203514684
 21
-108.4999999999999432
 31
0.0
  0
LINE
  5
2AF
100
AcDbEntity
  8
cut
 62
256
370
-1
 48
1.0
  6
BYLAYER
100
AcDbLine
 10
145.3372767203514684
 20
11.500000000000032
 30
0.0
 11
145.3372767203514684
 21
-8.4999999999999627
 31
0.0
  0
LINE
  5
2B0
100
AcDbEntity
  8
cut
 62
256
370
-1
 48
1.0
  6
BYLAYER
100
AcDbLine
 10
265.3372767203514968
 20
-88.5000000000000284
 30
0.0
 11
265.3372767203514968
 21
-108.5000000000000284
 31
0.0
  0
LINE
  5
2B1
100
AcDbEntity
  8
cut
 62
256
370
-1
 48
1.0
  6
BYLAYER
100
AcDbLine
 10
245.3372767203514968
 20
-88.5000000000000142
 30
0.0
 11
245.3372767203514684
 21
-108.5000000000000284
 31
0.0
  0
LINE
  5
2B2
100
AcDbEntity
  8
cut
 62
256
370
-1
 48
1.0
  6
BYLAYER
100
AcDbLine
 10
165.33727672035144
 20
-88.4999999999999289
 30
0.0
 11
165.33727672035144
 21
-108.4999999999999432
 31
0.0
  0
LINE
  5
2B3
100
AcDbEntity
  8
cut
 62
256
370
-1
 48
1.0
  6
BYLAYER
100
AcDbLine
 10
245.3372767203514968
 20
108.4999999999999432
 30
0.0
 11
245.3372767203514968
 21
88.4999999999999574
 31
0.0
  0
LINE
  5
2B4
100
AcDbEntity
  8
cut
 62
256
370
-1
 48
1.0
  6
BYLAYER
100
AcDbLine
 10
265.3372767203514968
 20
8.4999999999999325
 30
0.0
 11
265.3372767203514968
 21
-11.500000000000048
 31
0.0
  0
LINE
  5
2B5
100
AcDbEntity
  8
cut
 62
256
370
-1
 48
1.0
  6
BYLAYER
100
AcDbLine
 10
245.3372767203514968
 20
8.4999999999999698
 30
0.0
 11
245.3372767203514968
 21
-11.5000000000000391
 31
0.0
  0
LINE
  5
2B6
100
AcDbEntity
  8
cut
 62
256
370
-1
 48
1.0
  6
BYLAYER
100
AcDbLine
 10
165.3372767203514684
 20
11.5000000000000391
 30
0.0
 11
165.3372767203514684
 21
-8.4999999999999662
 31
0.0
  0
LINE
  5
2B7
100
AcDbEntity
  8
cut
 62
256
370
-1
 48
1.0
  6
BYLAYER
100
AcDbLine
 10
165.3372767203514968
 20
108.5000000000000284
 30
0.0
 11
165.3372767203514684
 21
88.5000000000000284
 31
0.0
  0
LINE
  5
2B8
100
AcDbEntity
  8
cut
 62
256
370
-1
 48
1.0
  6
BYLAYER
100
AcDbLine
 10
145.33727672035144
 20
108.5000000000000142
 30
0.0
 11
145.33727672035144
 21
88.5000000000000142
 31
0.0
  0
LINE
  5
2B9
100
AcDbEntity
  8
cut
 62
256
370
-1
 48
1.0
  6
BYLAYER
100
AcDbLine
 10
265.3372767203514968
 20
108.4999999999999574
 30
0.0
 11
265.3372767203514968
 21
88.4999999999999716
 31
0.0
  0
LINE
  5
2BA
100
AcDbEntity
  8
cut
 62
256
370
-1
 48
1.0
  6
BYLAYER
100
AcDbLine
 10
365.33727672035144
 20
11.4999999999998828
 30
0.0
 11
365.33727672035144
 21
-8.5000000000001226
 31
0.0
  0
LINE
  5
2BB
100
AcDbEntity
  8
cut
 62
256
370
-1
 48
1.0
  6
BYLAYER
100
AcDbLine
 10
365.33727672035144
 20
108.4999999999998721
 30
0.0
 11
365.33727672035144
 21
88.4999999999998721
 31
0.0
  0
LINE
  5
2BC
100
AcDbEntity
  8
cut
 62
256
370
-1
 48
1.0
  6
BYLAYER
100
AcDbLine
 10
345.33727672035144
 20
108.4999999999998579
 30
0.0
 11
345.33727672035144
 21
88.4999999999998579
 31
0.0
  0
LINE
  5
2BD
100
AcDbEntity
  8
cut
 62
256
370
-1
 48
1.0
  6
BYLAYER
100
AcDbLine
 10
365.33727672035144
 20
-88.5000000000000853
 30
0.0
 11
365.33727672035144
 21
-108.5000000000000995
 31
0.0
  0
LINE
  5
2BE
100
AcDbEntity
  8
cut
 62
256
370
-1
 48
1.0
  6
BYLAYER
100
AcDbLine
 10
345.33727672035144
 20
-88.5000000000000995
 30
0.0
 11
345.33727672035144
 21
-108.5000000000000995
 31
0.0
  0
LINE
  5
2BF
100
AcDbEntity
  8
cut
 62
256
370
-1
 48
1.0
  6
BYLAYER
100
AcDbLine
 10
345.33727672035144
 20
11.4999999999998757
 30
0.0
 11
345.33727672035144
 21
-8.500000000000119
 31
0.0
  0
LINE
  5
2C0
100
AcDbEntity
  8
cut
 62
256
370
-1
 48
1.0
  6
BYLAYER
100
AcDbLine
 10
-34.6627232796486027
 20
108.5000000000001137
 30
0.0
 11
-34.6627232796486098
 21
88.5000000000001137
 31
0.0
  0
LINE
  5
2C1
100
AcDbEntity
  8
cut
 62
256
370
-1
 48
1.0
  6
BYLAYER
100
AcDbLine
 10
-54.6627232796486311
 20
108.5000000000000995
 30
0.0
 11
-54.6627232796486382
 21
88.5000000000000995
 31
0.0
  0
LINE
  5
2C2
100
AcDbEntity
  8
cut
 62
256
370
-1
 48
1.0
  6
BYLAYER
100
AcDbLine
 10
65.3372767203514115
 20
108.5000000000000426
 30
0.0
 11
65.3372767203514115
 21
88.5000000000000568
 31
0.0
  0
LINE
  5
2C3
100
AcDbEntity
  8
cut
 62
256
370
-1
 48
1.0
  6
BYLAYER
100
AcDbLine
 10
45.3372767203514115
 20
108.5000000000000284
 30
0.0
 11
45.3372767203514258
 21
88.5000000000000426
 31
0.0
  0
LINE
  5
2C4
100
AcDbEntity
  8
cut
 62
256
370
-1
 48
1.0
  6
BYLAYER
100
AcDbLine
 10
65.33727672035144
 20
8.5000000000000178
 30
0.0
 11
65.3372767203514115
 21
-11.4999999999999627
 31
0.0
  0
LINE
  5
2C5
100
AcDbEntity
  8
cut
 62
256
370
-1
 48
1.0
  6
BYLAYER
100
AcDbLine
 10
45.3372767203514258
 20
8.5000000000000551
 30
0.0
 11
45.3372767203514258
 21
-11.4999999999999538
 31
0.0
  0
LINE
  5
2C6
100
AcDbEntity
  8
cut
 62
256
370
-1
 48
1.0
  6
BYLAYER
100
AcDbLine
 10
-34.6627232796486098
 20
11.5000000000001243
 30
0.0
 11
-34.6627232796486169
 21
-8.499999999999881
 31
0.0
  0
LINE
  5
2C7
100
AcDbEntity
  8
cut
 62
256
370
-1
 48
1.0
  6
BYLAYER
100
AcDbLine
 10
-54.6627232796486169
 20
11.5000000000001172
 30
0.0
 11
-54.6627232796486169
 21
-8.4999999999998774
 31
0.0
  0
LINE
  5
2C8
100
AcDbEntity
  8
cut
 62
256
370
-1
 48
1.0
  6
BYLAYER
100
AcDbLine
 10
65.3372767203513831
 20
-108.4999999999999432
 30
0.0
 11
85.3372767203513405
 21
-108.5
 31
0.0
  0
LINE
  5
2C9
100
AcDbEntity
  8
cut
 62
256
370
-1
 48
1.0
  6
BYLAYER
100
AcDbLine
 10
45.3372767203513831
 20
-108.4999999999999432
 30
0.0
 11
25.3372767203513973
 21
-108.4999999999999289
 31
0.0
  0
LINE
  5
2CA
100
AcDbEntity
  8
cut
 62
256
370
-1
 48
1.0
  6
BYLAYER
100
AcDbLine
 10
-34.6627232796486311
 20
-108.4999999999998579
 30
0.0
 11
-14.6627232796486595
 21
-108.4999999999998437
 31
0.0
  0
LINE
  5
2CB
100
AcDbEntity
  8
cut
 62
256
370
-1
 48
1.0
  6
BYLAYER
100
AcDbLine
 10
-54.662723279648624
 20
-108.4999999999998579
 30
0.0
 11
-74.6627232796486595
 21
-108.4999999999998153
 31
0.0
  0
LINE
  5
2CC
100
AcDbEntity
  8
cut
 62
256
370
-1
 48
1.0
  6
BYLAYER
100
AcDbLine
 10
145.3372767203514684
 20
-108.4999999999999432
 30
0.0
 11
125.3372767203514258
 21
-108.4999999999999005
 31
0.0
  0
LINE
  5
2CD
100
AcDbEntity
  8
cut
 62
256
370
-1
 48
1.0
  6
BYLAYER
100
AcDbLine
 10
145.3372767203514684
 20
-8.4999999999999627
 30
0.0
 11
125.3372767203514684
 21
-8.4999999999999556
 31
0.0
  0
LINE
  5
2CE
100
AcDbEntity
  8
cut
 62
256
370
-1
 48
1.0
  6
BYLAYER
100
AcDbLine
 10
265.3372767203514968
 20
-108.5000000000000284
 30
0.0
 11
285.33727672035144
 21
-108.5000000000000853
 31
0.0
  0
LINE
  5
2CF
100
AcDbEntity
  8
cut
 62
256
370
-1
 48
1.0
  6
BYLAYER
100
AcDbLine
 10
245.3372767203514684
 20
-108.5000000000000284
 30
0.0
 11
225.3372767203514968
 21
-108.5000000000000142
 31
0.0
  0
LINE
  5
2D0
100
AcDbEntity
  8
cut
 62
256
370
-1
 48
1.0
  6
BYLAYER
100
AcDbLine
 10
165.33727672035144
 20
-108.4999999999999432
 30
0.0
 11
185.33727672035144
 21
-108.4999999999999289
 31
0.0
  0
LINE
  5
2D1
100
AcDbEntity
  8
cut
 62
256
370
-1
 48
1.0
  6
BYLAYER
100
AcDbLine
 10
265.3372767203514968
 20
88.4999999999999716
 30
0.0
 11
285.3372767203514968
 21
88.4999999999999432
 31
0.0
  0
LINE
  5
2D2
100
AcDbEntity
  8
cut
 62
256
370
-1
 48
1.0
  6
BYLAYER
100
AcDbLine
 10
245.3372767203514968
 20
-11.5000000000000391
 30
0.0
 11
225.3372767203514968
 21
-11.5000000000000409
 31
0.0
  0
LINE
  5
2D3
100
AcDbEntity
  8
cut
 62
256
370
-1
 48
1.0
  6
BYLAYER
100
AcDbLine
 10
265.3372767203514968
 20
-11.500000000000048
 30
0.0
 11
285.3372767203514968
 21
-11.5000000000000391
 31
0.0
  0
LINE
  5
2D4
100
AcDbEntity
  8
cut
 62
256
370
-1
 48
1.0
  6
BYLAYER
100
AcDbLine
 10
165.3372767203514684
 20
-8.4999999999999662
 30
0.0
 11
185.3372767203514684
 21
-8.4999999999999751
 31
0.0
  0
LINE
  5
2D5
100
AcDbEntity
  8
cut
 62
256
370
-1
 48
1.0
  6
BYLAYER
100
AcDbLine
 10
165.3372767203514684
 20
88.5000000000000284
 30
0.0
 11
185.3372767203514968
 21
88.5000000000000284
 31
0.0
  0
LINE
  5
2D6
100
AcDbEntity
  8
cut
 62
256
370
-1
 48
1.0
  6
BYLAYER
100
AcDbLine
 10
145.33727672035144
 20
88.5000000000000142
 30
0.0
 11
125.3372767203514826
 21
88.5000000000000284
 31
0.0
  0
LINE
  5
2D7
100
AcDbEntity
  8
cut
 62
256
370
-1
 48
1.0
  6
BYLAYER
100
AcDbLine
 10
245.3372767203514968
 20
88.4999999999999574
 30
0.0
 11
225.3372767203514115
 21
88.4999999999999716
 31
0.0
  0
LINE
  5
2D8
100
AcDbEntity
  8
cut
 62
256
370
-1
 48
1.0
  6
BYLAYER
100
AcDbLine
 10
365.33727672035144
 20
-8.5000000000001226
 30
0.0
 11
385.33727672035144
 21
-8.5000000000001315
 31
0.0
  0
LINE
  5
2D9
100
AcDbEntity
  8
cut
 62
256
370
-1
 48
1.0
  6
BYLAYER
100
AcDbLine
 10
365.33727672035144
 20
88.4999999999998721
 30
0.0
 11
385.33727672035144
 21
88.4999999999998721
 31
0.0
  0
LINE
  5
2DA
100
AcDbEntity
  8
cut
 62
256
370
-1
 48
1.0
  6
BYLAYER
100
AcDbLine
 10
345.33727672035144
 20
88.4999999999998579
 30
0.0
 11
325.33727672035144
 21
88.4999999999998721
 31
0.0
  0
LINE
  5
2DB
100
AcDbEntity
  8
cut
 62
256
370
-1
 48
1.0
  6
BYLAYER
100
AcDbLine
 10
365.33727672035144
 20
-108.5000000000000995
 30
0.0
 11
385.33727672035144
 21
-108.5000000000000853
 31
0.0
  0
LINE
  5
2DC
100
AcDbEntity
  8
cut
 62
256
370
-1
 48
1.0
  6
BYLAYER
100
AcDbLine
 10
345.33727672035144
 20
-108.5000000000000995
 30
0.0
 11
325.3372767203513831
 21
-108.5000000000000568
 31
0.0
  0
LINE
  5
2DD
100
AcDbEntity
  8
cut
 62
256
370
-1
 48
1.0
  6
BYLAYER
100
AcDbLine
 10
345.33727672035144
 20
-8.500000000000119
 30
0.0
 11
325.33727672035144
 21
-8.5000000000001119
 31
0.0
  0
LINE
  5
2DE
100
AcDbEntity
  8
cut
 62
256
370
-1
 48
1.0
  6
BYLAYER
100
AcDbLine
 10
-34.6627232796486098
 20
88.5000000000001137
 30
0.0
 11
-14.6627232796485849
 21
88.5000000000001137
 31
0.0
  0
LINE
  5
2DF
100
AcDbEntity
  8
cut
 62
256
370
-1
 48
1.0
  6
BYLAYER
100
AcDbLine
 10
-54.6627232796486382
 20
88.5000000000000995
 30
0.0
 11
-74.6627232796486027
 21
88.5000000000001137
 31
0.0
  0
LINE
  5
2E0
100
AcDbEntity
  8
cut
 62
256
370
-1
 48
1.0
  6
BYLAYER
100
AcDbLine
 10
45.3372767203514258
 20
88.5000000000000426
 30
0.0
 11
25.3372767203513298
 21
88.5000000000000568
 31
0.0
  0
LINE
  5
2E1
100
AcDbEntity
  8
cut
 62
256
370
-1
 48
1.0
  6
BYLAYER
100
AcDbLine
 10
65.3372767203514115
 20
88.5000000000000568
 30
0.0
 11
85.3372767203514258
 21
88.5000000000000284
 31
0.0
  0
LINE
  5
2E2
100
AcDbEntity
  8
cut
 62
256
370
-1
 48
1.0
  6
BYLAYER
100
AcDbLine
 10
45.3372767203514258
 20
-11.4999999999999538
 30
0.0
 11
25.3372767203514186
 21
-11.4999999999999556
 31
0.0
  0
LINE
  5
2E3
100
AcDbEntity
  8
cut
 62
256
370
-1
 48
1.0
  6
BYLAYER
100
AcDbLine
 10
65.3372767203514115
 20
-11.4999999999999627
 30
0.0
 11
85.3372767203514115
 21
-11.4999999999999538
 31
0.0
  0
LINE
  5
2E4
100
AcDbEntity
  8
cut
 62
256
370
-1
 48
1.0
  6
BYLAYER
100
AcDbLine
 10
-34.6627232796486169
 20
-8.499999999999881
 30
0.0
 11
-14.6627232796486098
 21
-8.4999999999998899
 31
0.0
  0
LINE
  5
2E5
100
AcDbEntity
  8
cut
 62
256
370
-1
 48
1.0
  6
BYLAYER
100
AcDbLine
 10
-54.6627232796486169
 20
-8.4999999999998774
 30
0.0
 11
-74.6627232796486169
 21
-8.4999999999998703
 31
0.0
  0
ENDSEC
  0
SECTION
  2
OBJECTS
  0
DICTIONARY
  5
C
100
AcDbDictionary
280
0
281
1
  3
ACAD_GROUP
350
D
  3
ACAD_LAYOUT
350
1A
  3
ACAD_MLINESTYLE
350
17
  3
ACAD_PLOTSETTINGS
350
19
  3
ACAD_PLOTSTYLENAME
350
E
  3
AcDbVariableDictionary
350
2E6
  3
QCAD_OBJECTS
350
2E7
  0
DICTIONARY
  5
D
100
AcDbDictionary
280
0
281
1
  0
ACDBDICTIONARYWDFLT
  5
E
100
AcDbDictionary
281
1
  3
Normal
350
F
100
AcDbDictionaryWithDefault
340
F
  0
ACDBPLACEHOLDER
  5
F
  0
DICTIONARY
  5
17
100
AcDbDictionary
280
0
281
1
  3
Standard
350
18
  0
MLINESTYLE
  5
18
100
AcDbMlineStyle
  2
STANDARD
 70
0
  3

 62
256
 51
90.0
 52
90.0
 71
2
 49
0.5
 62
256
  6
BYLAYER
 49
-0.5
 62
256
  6
BYLAYER
  0
DICTIONARY
  5
19
100
AcDbDictionary
280
0
281
1
  0
DICTIONARY
  5
1A
100
AcDbDictionary
281
1
  3
Layout1
350
1E
  3
Layout2
350
26
  3
Model
350
22
  0
LAYOUT
  5
1E
100
AcDbPlotSettings
  1

  2
none_device
  4

  6

 40
0.0
 41
0.0
 42
0.0
 43
0.0
 44
0.0
 45
0.0
 46
0.0
 47
0.0
 48
0.0
 49
0.0
140
0.0
141
0.0
142
1.0
143
1.0
 70
688
 72
0
 73
0
 74
5
  7

 75
16
147
1.0
148
0.0
149
0.0
100
AcDbLayout
  1
Layout1
 70
1
 71
1
 10
0.0
 20
0.0
 11
420.0
 21
297.0
 12
0.0
 22
0.0
 32
0.0
 14
100000000000000000000.0
 24
100000000000000000000.0
 34
100000000000000000000.0
 15
-100000000000000000000.0
 25
-100000000000000000000.0
 35
-100000000000000000000.0
146
0.0
 13
0.0
 23
0.0
 33
0.0
 16
1.0
 26
0.0
 36
0.0
 17
0.0
 27
1.0
 37
0.0
 76
0
330
1B
  0
LAYOUT
  5
22
100
AcDbPlotSettings
  1

  2
none_device
  4

  6

 40
0.0
 41
0.0
 42
0.0
 43
0.0
 44
0.0
 45
0.0
 46
0.0
 47
0.0
 48
0.0
 49
0.0
140
0.0
141
0.0
142
1.0
143
1.0
 70
1712
 72
0
 73
0
 74
0
  7

 75
0
147
1.0
148
0.0
149
0.0
100
AcDbLayout
  1
Model
 70
1
 71
0
 10
0.0
 20
0.0
 11
12.0
 21
9.0
 12
0.0
 22
0.0
 32
0.0
 14
0.0
 24
0.0
 34
0.0
 15
0.0
 25
0.0
 35
0.0
146
0.0
 13
0.0
 23
0.0
 33
0.0
 16
1.0
 26
0.0
 36
0.0
 17
0.0
 27
1.0
 37
0.0
 76
0
330
1F
  0
LAYOUT
  5
26
100
AcDbPlotSettings
  1

  2
none_device
  4

  6

 40
0.0
 41
0.0
 42
0.0
 43
0.0
 44
0.0
 45
0.0
 46
0.0
 47
0.0
 48
0.0
 49
0.0
140
0.0
141
0.0
142
1.0
143
1.0
 70
688
 72
0
 73
0
 74
5
  7

 75
16
147
1.0
148
0.0
149
0.0
100
AcDbLayout
  1
Layout2
 70
1
 71
2
 10
0.0
 20
0.0
 11
12.0
 21
9.0
 12
0.0
 22
0.0
 32
0.0
 14
0.0
 24
0.0
 34
0.0
 15
0.0
 25
0.0
 35
0.0
146
0.0
 13
0.0
 23
0.0
 33
0.0
 16
1.0
 26
0.0
 36
0.0
 17
0.0
 27
1.0
 37
0.0
 76
0
330
23
  0
DICTIONARY
  5
2E6
100
AcDbDictionary
281
1
  3
DIMASSOC
350
2E9
  3
HIDETEXT
350
2E8
  0
DICTIONARYVAR
  5
2E8
100
DictionaryVariables
280
0
  1
2
  0
DICTIONARYVAR
  5
2E9
100
DictionaryVariables
280
0
  1
1
  0
DICTIONARY
  5
2E7
100
AcDbDictionary
281
1
  3
ColorSettings/BackgroundColor
350
2EA
  3
ColorSettings/ColorMode
350
2EB
  3
Grid/DisplayGrid00
350
2EC
  3
Grid/DisplayGrid01
350
2ED
  3
Grid/DisplayGrid02
350
2EE
  3
Grid/DisplayGrid03
350
2EF
  3
Grid/GridSpacingX00
350
2F0
  3
Grid/GridSpacingX01
350
2F1
  3
Grid/GridSpacingX02
350
2F2
  3
Grid/GridSpacingX03
350
2F3
  3
Grid/GridSpacingY00
350
2F4
  3
Grid/GridSpacingY01
350
2F5
  3
Grid/GridSpacingY02
350
2F6
  3
Grid/GridSpacingY03
350
2F7
  3
Grid/IsometricGrid00
350
2F8
  3
Grid/IsometricGrid01
350
2F9
  3
Grid/IsometricGrid02
350
2FA
  3
Grid/IsometricGrid03
350
2FB
  3
Grid/IsometricProjection00
350
2FC
  3
Grid/IsometricProjection01
350
2FD
  3
Grid/IsometricProjection02
350
2FE
  3
Grid/IsometricProjection03
350
2FF
  3
Grid/MetaGridSpacingX00
350
300
  3
Grid/MetaGridSpacingX01
350
301
  3
Grid/MetaGridSpacingX02
350
302
  3
Grid/MetaGridSpacingX03
350
303
  3
Grid/MetaGridSpacingY00
350
304
  3
Grid/MetaGridSpacingY01
350
305
  3
Grid/MetaGridSpacingY02
350
306
  3
Grid/MetaGridSpacingY03
350
307
  3
MultiPageSettings/Columns
350
308
  3
MultiPageSettings/GlueMarginsBottom
350
309
  3
MultiPageSettings/GlueMarginsLeft
350
30A
  3
MultiPageSettings/GlueMarginsRight
350
30B
  3
MultiPageSettings/GlueMarginsTop
350
30C
  3
MultiPageSettings/PrintCropMarks
350
30D
  3
MultiPageSettings/Rows
350
30E
  3
PageSettings/OffsetX
350
30F
  3
PageSettings/OffsetY
350
310
  3
PageSettings/PageOrientation
350
311
  3
PageSettings/PaperHeight
350
312
  3
PageSettings/PaperWidth
350
313
  3
PageSettings/Scale
350
314
  3
PageSettings/ShowPaperBorders
350
315
  3
QCADVersion
350
316
  3
UnitSettings/PaperUnit
350
317
  3
ViewportCenter
350
318
  3
ViewportHeight
350
319
  3
ViewportWidth
350
31A
  0
XRECORD
  5
2EA
330
2E7
100
AcDbXrecord
280
1
1000
Blanc
  0
XRECORD
  5
2EB
330
2E7
100
AcDbXrecord
280
1
1000
FullColor
  0
XRECORD
  5
2EC
330
2E7
100
AcDbXrecord
280
1
290
1
  0
XRECORD
  5
2ED
330
2E7
100
AcDbXrecord
280
1
290
1
  0
XRECORD
  5
2EE
330
2E7
100
AcDbXrecord
280
1
290
1
  0
XRECORD
  5
2EF
330
2E7
100
AcDbXrecord
280
1
290
1
  0
XRECORD
  5
2F0
330
2E7
100
AcDbXrecord
280
1
1000
auto
  0
XRECORD
  5
2F1
330
2E7
100
AcDbXrecord
280
1
1000
auto
  0
XRECORD
  5
2F2
330
2E7
100
AcDbXrecord
280
1
1000
auto
  0
XRECORD
  5
2F3
330
2E7
100
AcDbXrecord
280
1
1000
auto
  0
XRECORD
  5
2F4
330
2E7
100
AcDbXrecord
280
1
1000
auto
  0
XRECORD
  5
2F5
330
2E7
100
AcDbXrecord
280
1
1000
auto
  0
XRECORD
  5
2F6
330
2E7
100
AcDbXrecord
280
1
1000
auto
  0
XRECORD
  5
2F7
330
2E7
100
AcDbXrecord
280
1
1000
auto
  0
XRECORD
  5
2F8
330
2E7
100
AcDbXrecord
280
1
290
0
  0
XRECORD
  5
2F9
330
2E7
100
AcDbXrecord
280
1
290
0
  0
XRECORD
  5
2FA
330
2E7
100
AcDbXrecord
280
1
290
0
  0
XRECORD
  5
2FB
330
2E7
100
AcDbXrecord
280
1
290
0
  0
XRECORD
  5
2FC
330
2E7
100
AcDbXrecord
280
1
 90
65537
  0
XRECORD
  5
2FD
330
2E7
100
AcDbXrecord
280
1
 90
65537
  0
XRECORD
  5
2FE
330
2E7
100
AcDbXrecord
280
1
 90
65537
  0
XRECORD
  5
2FF
330
2E7
100
AcDbXrecord
280
1
 90
65537
  0
XRECORD
  5
300
330
2E7
100
AcDbXrecord
280
1
1000
auto
  0
XRECORD
  5
301
330
2E7
100
AcDbXrecord
280
1
1000
auto
  0
XRECORD
  5
302
330
2E7
100
AcDbXrecord
280
1
1000
auto
  0
XRECORD
  5
303
330
2E7
100
AcDbXrecord
280
1
1000
auto
  0
XRECORD
  5
304
330
2E7
100
AcDbXrecord
280
1
1000
auto
  0
XRECORD
  5
305
330
2E7
100
AcDbXrecord
280
1
1000
auto
  0
XRECORD
  5
306
330
2E7
100
AcDbXrecord
280
1
1000
auto
  0
XRECORD
  5
307
330
2E7
100
AcDbXrecord
280
1
1000
auto
  0
XRECORD
  5
308
330
2E7
100
AcDbXrecord
280
1
 90
1
  0
XRECORD
  5
309
330
2E7
100
AcDbXrecord
280
1
 40
10.0
  0
XRECORD
  5
30A
330
2E7
100
AcDbXrecord
280
1
 40
10.0
  0
XRECORD
  5
30B
330
2E7
100
AcDbXrecord
280
1
 40
10.0
  0
XRECORD
  5
30C
330
2E7
100
AcDbXrecord
280
1
 40
10.0
  0
XRECORD
  5
30D
330
2E7
100
AcDbXrecord
280
1
290
0
  0
XRECORD
  5
30E
330
2E7
100
AcDbXrecord
280
1
 90
1
  0
XRECORD
  5
30F
330
2E7
100
AcDbXrecord
280
1
 40
0.0
  0
XRECORD
  5
310
330
2E7
100
AcDbXrecord
280
1
 40
0.0
  0
XRECORD
  5
311
330
2E7
100
AcDbXrecord
280
1
1000
Portrait
  0
XRECORD
  5
312
330
2E7
100
AcDbXrecord
280
1
 40
297.0
  0
XRECORD
  5
313
330
2E7
100
AcDbXrecord
280
1
 40
210.0
  0
XRECORD
  5
314
330
2E7
100
AcDbXrecord
280
1
1000
1:1
  0
XRECORD
  5
315
330
2E7
100
AcDbXrecord
280
1
290
1
  0
XRECORD
  5
316
330
2E7
100
AcDbXrecord
280
1
1000
3.17.3
  0
XRECORD
  5
317
330
2E7
100
AcDbXrecord
280
1
 90
4
  0
XRECORD
  5
319
330
2E7
100
AcDbXrecord
280
1
 40
347.8133681214421813
  0
XRECORD
  5
31A
330
2E7
100
AcDbXrecord
280
1
 40
523.855332068311327
  0
ENDSEC
  0
EOF
