999
dxflib 3.17.0.0
  0
SECTION
  2
HEADER
  9
$ACADVER
  1
AC1015
  9
$HANDSEED
  5
FFFF
  9
$DIMADEC
 70
0
  9
$DIMASZ
 40
2.5
  9
$DIMAUNIT
 70
0
  9
$DIMAZIN
 70
2
  9
$DIMDEC
 70
4
  9
$DIMDSEP
 70
46
  9
$DIMEXE
 40
1.25
  9
$DIMEXO
 40
0.625
  9
$DIMGAP
 40
0.625
  9
$DIMLUNIT
 70
2
  9
$DIMSCALE
 40
1.0
  9
$DIMTSZ
 40
0.0
  9
$DIMTXT
 40
2.5
  9
$DIMZIN
 70
8
  9
$DWGCODEPAGE
  3
ANSI_1252
  9
$INSUNITS
 70
4
  9
$LTSCALE
 40
1.0
  9
$MAXACTVP
 70
32
  9
$MEASUREMENT
 70
1
  9
$PDMODE
 70
0
  9
$PDSIZE
 40
0
  0
ENDSEC
  0
SECTION
  2
TABLES
  0
TABLE
  2
VPORT
  5
8
100
AcDbSymbolTable
 70
1
  0
VPORT
  5
30
100
AcDbSymbolTableRecord
100
AcDbViewportTableRecord
  2
*Active
 70
0
 10
0.0
 20
0.0
 11
1.0
 21
1.0
 12
286.3055555555554861
 22
148.5
 13
0.0
 23
0.0
 14
10.0
 24
10.0
 15
10.0
 25
10.0
 16
0.0
 26
0.0
 36
1.0
 17
0.0
 27
0.0
 37
0.0
 40
297.0
 41
1.92798353909465
 42
50.0
 43
0.0
 44
0.0
 50
0.0
 51
0.0
 71
0
 72
100
 73
1
 74
3
 75
1
 76
1
 77
0
 78
0
281
0
 65
1
110
0.0
120
0.0
130
0.0
111
1.0
121
0.0
131
0.0
112
0.0
122
1.0
132
0.0
 79
0
146
0.0
  0
ENDTAB
  0
TABLE
  2
LTYPE
  5
5
100
AcDbSymbolTable
 70
41
  0
LTYPE
  5
16
100
AcDbSymbolTableRecord
100
AcDbLinetypeTableRecord
  2
Continuous
 70
0
  3
Solid line
 72
65
 73
0
 40
0.0
  0
LTYPE
  5
31
100
AcDbSymbolTableRecord
100
AcDbLinetypeTableRecord
  2
BORDER2
 70
0
  3
Border (.5x) __.__.__.__.__.__.__.__.__.__.__.
 72
65
 73
6
 40
22.2249999999999979
 49
6.3499999999999996
 74
0
 49
-3.1749999999999998
 74
0
 49
6.3499999999999996
 74
0
 49
-3.125
 74
0
 49
0.1
 74
0
 49
-3.125
 74
0
  0
LTYPE
  5
32
100
AcDbSymbolTableRecord
100
AcDbLinetypeTableRecord
  2
ACAD_ISO13W100
 70
0
  3
ISO double-dash double-dot __ __ . . __ __ . . _
 72
65
 73
8
 40
36.0
 49
12.0
 74
0
 49
-3.0
 74
0
 49
12.0
 74
0
 49
-2.9500000000000002
 74
0
 49
0.1
 74
0
 49
-2.9000000000000004
 74
0
 49
0.1
 74
0
 49
-2.9500000000000002
 74
0
  0
LTYPE
  5
33
100
AcDbSymbolTableRecord
100
AcDbLinetypeTableRecord
  2
ACAD_ISO05W100
 70
0
  3
ISO long-dash double-dot ____ .. ____ .. ____ . 
 72
65
 73
6
 40
33.0
 49
24.0
 74
0
 49
-2.9500000000000002
 74
0
 49
0.1
 74
0
 49
-2.9000000000000004
 74
0
 49
0.1
 74
0
 49
-2.9500000000000002
 74
0
  0
LTYPE
  5
34
100
AcDbSymbolTableRecord
100
AcDbLinetypeTableRecord
  2
DIVIDE2
 70
0
  3
Divide (.5x) __..__..__..__..__..__..__..__.._
 72
65
 73
6
 40
15.875
 49
6.3499999999999996
 74
0
 49
-3.125
 74
0
 49
0.1
 74
0
 49
-3.0750000000000002
 74
0
 49
0.1
 74
0
 49
-3.125
 74
0
  0
LTYPE
  5
35
100
AcDbSymbolTableRecord
100
AcDbLinetypeTableRecord
  2
ACAD_ISO12W100
 70
0
  3
ISO dash double-dot __ . . __ . . __ . . __ . . 
 72
65
 73
6
 40
21.0
 49
12.0
 74
0
 49
-2.9500000000000002
 74
0
 49
0.1
 74
0
 49
-2.9000000000000004
 74
0
 49
0.1
 74
0
 49
-2.9500000000000002
 74
0
  0
LTYPE
  5
36
100
AcDbSymbolTableRecord
100
AcDbLinetypeTableRecord
  2
HIDDEN2
 70
0
  3
Hidden (.5x) _ _ _ _ _ _ _ _ _ _ _ _ _ _ _ _ _ 
 72
65
 73
2
 40
4.7624999999999993
 49
3.1749999999999998
 74
0
 49
-1.5874999999999999
 74
0
  0
LTYPE
  5
37
100
AcDbSymbolTableRecord
100
AcDbLinetypeTableRecord
  2
ACAD_ISO04W100
 70
0
  3
ISO long-dash dot ____ . ____ . ____ . ____ . _
 72
65
 73
4
 40
30.0
 49
24.0
 74
0
 49
-2.9500000000000002
 74
0
 49
0.1
 74
0
 49
-2.9500000000000002
 74
0
  0
LTYPE
  5
38
100
AcDbSymbolTableRecord
100
AcDbLinetypeTableRecord
  2
BORDER
 70
0
  3
Border __ __ . __ __ . __ __ . __ __ . __ __ .
 72
65
 73
6
 40
44.4499999999999957
 49
12.6999999999999993
 74
0
 49
-6.3499999999999996
 74
0
 49
12.6999999999999993
 74
0
 49
-6.2999999999999998
 74
0
 49
0.1
 74
0
 49
-6.2999999999999998
 74
0
  0
LTYPE
  5
39
100
AcDbSymbolTableRecord
100
AcDbLinetypeTableRecord
  2
ACAD_ISO11W100
 70
0
  3
ISO double-dash dot __ __ . __ __ . __ __ . __ _
 72
65
 73
6
 40
33.0
 49
12.0
 74
0
 49
-3.0
 74
0
 49
12.0
 74
0
 49
-2.9500000000000002
 74
0
 49
0.1
 74
0
 49
-2.9500000000000002
 74
0
  0
LTYPE
  5
3A
100
AcDbSymbolTableRecord
100
AcDbLinetypeTableRecord
  2
DOT2
 70
0
  3
Dot (.5x) ........................................
 72
65
 73
2
 40
3.1749999999999998
 49
0.1
 74
0
 49
-3.0749999999999997
 74
0
  0
LTYPE
  5
3B
100
AcDbSymbolTableRecord
100
AcDbLinetypeTableRecord
  2
ACAD_ISO03W100
 70
0
  3
ISO dash space __    __    __    __    __    __
 72
65
 73
2
 40
30.0
 49
12.0
 74
0
 49
-18.0
 74
0
  0
LTYPE
  5
3C
100
AcDbSymbolTableRecord
100
AcDbLinetypeTableRecord
  2
CENTERX2
 70
0
  3
Center (2x) ________  __  ________  __  _____
 72
65
 73
4
 40
101.5999999999999943
 49
63.5
 74
0
 49
-12.6999999999999993
 74
0
 49
12.6999999999999993
 74
0
 49
-12.6999999999999993
 74
0
  0
LTYPE
  5
14
100
AcDbSymbolTableRecord
100
AcDbLinetypeTableRecord
  2
BYBLOCK
 70
0
  3

 72
65
 73
0
 40
0.0
  0
LTYPE
  5
3D
100
AcDbSymbolTableRecord
100
AcDbLinetypeTableRecord
  2
ACAD_ISO10W100
 70
0
  3
ISO dash dot __ . __ . __ . __ . __ . __ . __ . 
 72
65
 73
4
 40
18.0
 49
12.0
 74
0
 49
-2.9500000000000002
 74
0
 49
0.1
 74
0
 49
-2.9500000000000002
 74
0
  0
LTYPE
  5
3E
100
AcDbSymbolTableRecord
100
AcDbLinetypeTableRecord
  2
HIDDEN
 70
0
  3
Hidden __ __ __ __ __ __ __ __ __ __ __ __ __ __
 72
65
 73
2
 40
9.5249999999999986
 49
6.3499999999999996
 74
0
 49
-3.1749999999999998
 74
0
  0
LTYPE
  5
3F
100
AcDbSymbolTableRecord
100
AcDbLinetypeTableRecord
  2
ACAD_ISO02W100
 70
0
  3
ISO dash __ __ __ __ __ __ __ __ __ __ __ __ __
 72
65
 73
2
 40
15.0
 49
12.0
 74
0
 49
-3.0
 74
0
  0
LTYPE
  5
40
100
AcDbSymbolTableRecord
100
AcDbLinetypeTableRecord
  2
BORDERX2
 70
0
  3
Border (2x) ____  ____  .  ____  ____  .  ___
 72
65
 73
6
 40
88.8999999999999915
 49
25.3999999999999986
 74
0
 49
-12.6999999999999993
 74
0
 49
25.3999999999999986
 74
0
 49
-12.6499999999999986
 74
0
 49
0.1
 74
0
 49
-12.6499999999999986
 74
0
  0
LTYPE
  5
41
100
AcDbSymbolTableRecord
100
AcDbLinetypeTableRecord
  2
DOT
 70
0
  3
Dot . . . . . . . . . . . . . . . . . . . . . . . .
 72
65
 73
2
 40
6.3499999999999996
 49
0.1
 74
0
 49
-6.25
 74
0
  0
LTYPE
  5
42
100
AcDbSymbolTableRecord
100
AcDbLinetypeTableRecord
  2
DASHDOTX2
 70
0
  3
Dash dot (2x) ____  .  ____  .  ____  .  ___
 72
65
 73
4
 40
50.7999999999999972
 49
25.3999999999999986
 74
0
 49
-12.6499999999999986
 74
0
 49
0.1
 74
0
 49
-12.6499999999999986
 74
0
  0
LTYPE
  5
43
100
AcDbSymbolTableRecord
100
AcDbLinetypeTableRecord
  2
PHANTOM2
 70
0
  3
Phantom (.5x) ___ _ _ ___ _ _ ___ _ _ ___ _ _
 72
65
 73
6
 40
31.75
 49
15.875
 74
0
 49
-3.1749999999999998
 74
0
 49
3.1749999999999998
 74
0
 49
-3.1749999999999998
 74
0
 49
3.1749999999999998
 74
0
 49
-3.1749999999999998
 74
0
  0
LTYPE
  5
44
100
AcDbSymbolTableRecord
100
AcDbLinetypeTableRecord
  2
DASHED2
 70
0
  3
Dashed (.5x) _ _ _ _ _ _ _ _ _ _ _ _ _ _ _ _ _ 
 72
65
 73
2
 40
9.5249999999999986
 49
6.3499999999999996
 74
0
 49
-3.1749999999999998
 74
0
  0
LTYPE
  5
45
100
AcDbSymbolTableRecord
100
AcDbLinetypeTableRecord
  2
HIDDENX2
 70
0
  3
Hidden (2x) ____ ____ ____ ____ ____ ____ ____ 
 72
65
 73
2
 40
19.0499999999999972
 49
12.6999999999999993
 74
0
 49
-6.3499999999999996
 74
0
  0
LTYPE
  5
46
100
AcDbSymbolTableRecord
100
AcDbLinetypeTableRecord
  2
ACAD_ISO09W100
 70
0
  3
ISO long-dash double-short-dash ____ __ __ ____
 72
65
 73
6
 40
45.0
 49
24.0
 74
0
 49
-3.0
 74
0
 49
6.0
 74
0
 49
-3.0
 74
0
 49
6.0
 74
0
 49
-3.0
 74
0
  0
LTYPE
  5
15
100
AcDbSymbolTableRecord
100
AcDbLinetypeTableRecord
  2
BYLAYER
 70
0
  3

 72
65
 73
0
 40
0.0
  0
LTYPE
  5
47
100
AcDbSymbolTableRecord
100
AcDbLinetypeTableRecord
  2
PHANTOMX2
 70
0
  3
Phantom (2x) ____________    ____    ____   _
 72
65
 73
6
 40
127.0
 49
63.5
 74
0
 49
-12.6999999999999993
 74
0
 49
12.6999999999999993
 74
0
 49
-12.6999999999999993
 74
0
 49
12.6999999999999993
 74
0
 49
-12.6999999999999993
 74
0
  0
LTYPE
  5
48
100
AcDbSymbolTableRecord
100
AcDbLinetypeTableRecord
  2
DASHEDX2
 70
0
  3
Dashed (2x) ____  ____  ____  ____  ____  ___
 72
65
 73
2
 40
38.0999999999999943
 49
25.3999999999999986
 74
0
 49
-12.6999999999999993
 74
0
  0
LTYPE
  5
49
100
AcDbSymbolTableRecord
100
AcDbLinetypeTableRecord
  2
CENTER2
 70
0
  3
Center (.5x) ___ _ ___ _ ___ _ ___ _ ___ _ ___
 72
65
 73
4
 40
28.5749999999999993
 49
19.0500000000000007
 74
0
 49
-3.1749999999999998
 74
0
 49
3.1749999999999998
 74
0
 49
-3.1749999999999998
 74
0
  0
LTYPE
  5
4A
100
AcDbSymbolTableRecord
100
AcDbLinetypeTableRecord
  2
ACAD_ISO08W100
 70
0
  3
ISO long-dash short-dash ____ __ ____ __ ____ _
 72
65
 73
4
 40
36.0
 49
24.0
 74
0
 49
-3.0
 74
0
 49
6.0
 74
0
 49
-3.0
 74
0
  0
LTYPE
  5
4B
100
AcDbSymbolTableRecord
100
AcDbLinetypeTableRecord
  2
DASHDOT
 70
0
  3
Dash dot __ . __ . __ . __ . __ . __ . __ . __
 72
65
 73
4
 40
25.3999999999999986
 49
12.6999999999999993
 74
0
 49
-6.2999999999999998
 74
0
 49
0.1
 74
0
 49
-6.2999999999999998
 74
0
  0
LTYPE
  5
4C
100
AcDbSymbolTableRecord
100
AcDbLinetypeTableRecord
  2
ACAD_ISO15W100
 70
0
  3
ISO double-dash triple-dot __ __ . . . __ __ . .
 72
65
 73
10
 40
39.0
 49
12.0
 74
0
 49
-3.0
 74
0
 49
12.0
 74
0
 49
-2.9500000000000002
 74
0
 49
0.1
 74
0
 49
-2.9000000000000004
 74
0
 49
0.1
 74
0
 49
-2.9000000000000004
 74
0
 49
0.1
 74
0
 49
-2.9500000000000002
 74
0
  0
LTYPE
  5
4D
100
AcDbSymbolTableRecord
100
AcDbLinetypeTableRecord
  2
DIVIDEX2
 70
0
  3
Divide (2x) ________  .  .  ________  .  .  _
 72
65
 73
6
 40
63.4999999999999929
 49
25.3999999999999986
 74
0
 49
-12.6499999999999986
 74
0
 49
0.1
 74
0
 49
-12.5999999999999979
 74
0
 49
0.1
 74
0
 49
-12.6499999999999986
 74
0
  0
LTYPE
  5
4E
100
AcDbSymbolTableRecord
100
AcDbLinetypeTableRecord
  2
ACAD_ISO07W100
 70
0
  3
ISO dot . . . . . . . . . . . . . . . . . . . . 
 72
65
 73
2
 40
3.0
 49
0.1
 74
0
 49
-2.8999999999999999
 74
0
  0
LTYPE
  5
4F
100
AcDbSymbolTableRecord
100
AcDbLinetypeTableRecord
  2
ACAD_ISO14W100
 70
0
  3
ISO dash triple-dot __ . . . __ . . . __ . . . _
 72
65
 73
8
 40
24.0
 49
12.0
 74
0
 49
-2.9500000000000002
 74
0
 49
0.1
 74
0
 49
-2.9000000000000004
 74
0
 49
0.1
 74
0
 49
-2.9000000000000004
 74
0
 49
0.1
 74
0
 49
-2.9500000000000002
 74
0
  0
LTYPE
  5
50
100
AcDbSymbolTableRecord
100
AcDbLinetypeTableRecord
  2
CENTER
 70
0
  3
Center ____ _ ____ _ ____ _ ____ _ ____ _ ____
 72
65
 73
4
 40
50.7999999999999972
 49
31.75
 74
0
 49
-6.3499999999999996
 74
0
 49
6.3499999999999996
 74
0
 49
-6.3499999999999996
 74
0
  0
LTYPE
  5
51
100
AcDbSymbolTableRecord
100
AcDbLinetypeTableRecord
  2
DOTX2
 70
0
  3
Dot (2x) .  .  .  .  .  .  .  .  .  .  .  .  .  .
 72
65
 73
2
 40
12.6999999999999993
 49
0.1
 74
0
 49
-12.5999999999999996
 74
0
  0
LTYPE
  5
52
100
AcDbSymbolTableRecord
100
AcDbLinetypeTableRecord
  2
PHANTOM
 70
0
  3
Phantom ______  __  __  ______  __  __  ______ 
 72
65
 73
6
 40
63.5
 49
31.75
 74
0
 49
-6.3499999999999996
 74
0
 49
6.3499999999999996
 74
0
 49
-6.3499999999999996
 74
0
 49
6.3499999999999996
 74
0
 49
-6.3499999999999996
 74
0
  0
LTYPE
  5
53
100
AcDbSymbolTableRecord
100
AcDbLinetypeTableRecord
  2
ACAD_ISO06W100
 70
0
  3
ISO long-dash triple-dot ____ ... ____ ... ____
 72
65
 73
8
 40
36.0
 49
24.0
 74
0
 49
-2.9500000000000002
 74
0
 49
0.1
 74
0
 49
-2.9000000000000004
 74
0
 49
0.1
 74
0
 49
-2.9000000000000004
 74
0
 49
0.1
 74
0
 49
-2.9500000000000002
 74
0
  0
LTYPE
  5
54
100
AcDbSymbolTableRecord
100
AcDbLinetypeTableRecord
  2
DIVIDE
 70
0
  3
Divide ____ . . ____ . . ____ . . ____ . . ____
 72
65
 73
6
 40
31.75
 49
12.6999999999999993
 74
0
 49
-6.2999999999999998
 74
0
 49
0.1
 74
0
 49
-6.25
 74
0
 49
0.1
 74
0
 49
-6.2999999999999998
 74
0
  0
LTYPE
  5
55
100
AcDbSymbolTableRecord
100
AcDbLinetypeTableRecord
  2
DASHDOT2
 70
0
  3
Dash dot (.5x) _._._._._._._._._._._._._._._.
 72
65
 73
4
 40
12.6999999999999993
 49
6.3499999999999996
 74
0
 49
-3.125
 74
0
 49
0.1
 74
0
 49
-3.125
 74
0
  0
LTYPE
  5
56
100
AcDbSymbolTableRecord
100
AcDbLinetypeTableRecord
  2
DASHED
 70
0
  3
Dashed __ __ __ __ __ __ __ __ __ __ __ __ __ _
 72
65
 73
2
 40
19.0499999999999972
 49
12.6999999999999993
 74
0
 49
-6.3499999999999996
 74
0
  0
ENDTAB
  0
TABLE
  2
LAYER
  5
2
100
AcDbSymbolTable
 70
2
  0
LAYER
  5
10
100
AcDbSymbolTableRecord
100
AcDbLayerTableRecord
  2
0
 70
0
 62
7
420
16777215
  6
Continuous
370
25
390
F
  0
LAYER
  5
57
100
AcDbSymbolTableRecord
100
AcDbLayerTableRecord
  2
cut
 70
0
 62
7
420
16777215
  6
Continuous
370
13
390
F
  0
ENDTAB
  0
TABLE
  2
STYLE
  5
3
100
AcDbSymbolTable
 70
1
  0
STYLE
  5
58
100
AcDbSymbolTableRecord
100
AcDbTextStyleTableRecord
  2
Standard
 70
0
 40
0.0
 41
1.0
 50
0.0
 71
0
 42
2.5
  3

  4

1001
ACAD
1000
txt
1071
0
  0
ENDTAB
  0
TABLE
  2
VIEW
  5
6
100
AcDbSymbolTable
 70
0
  0
ENDTAB
  0
TABLE
  2
UCS
  5
7
100
AcDbSymbolTable
 70
0
  0
ENDTAB
  0
TABLE
  2
APPID
  5
9
100
AcDbSymbolTable
 70
1
  0
APPID
  5
12
100
AcDbSymbolTableRecord
100
AcDbRegAppTableRecord
  2
ACAD
 70
0
  0
APPID
  5
59
100
AcDbSymbolTableRecord
100
AcDbRegAppTableRecord
  2
QCAD
 70
0
  0
ENDTAB
  0
TABLE
  2
DIMSTYLE
  5
A
100
AcDbSymbolTable
 70
1
100
AcDbDimStyleTable
 71
0
  0
DIMSTYLE
105
27
100
AcDbSymbolTableRecord
100
AcDbDimStyleTableRecord
  2
Standard
 41
2.5
 42
0.625
 43
3.75
 44
1.25
 70
0
 73
0
 74
0
 77
1
 78
8
140
2.5
141
2.5
143
0.03937007874016
147
0.625
171
3
172
1
271
2
272
2
274
3
278
44
283
0
284
8
340
58
  0
ENDTAB
  0
TABLE
  2
BLOCK_RECORD
  5
1
100
AcDbSymbolTable
 70
1
  0
BLOCK_RECORD
  5
1F
100
AcDbSymbolTableRecord
100
AcDbBlockTableRecord
  2
*Model_Space
340
22
  0
BLOCK_RECORD
  5
1B
100
AcDbSymbolTableRecord
100
AcDbBlockTableRecord
  2
*Paper_Space
340
1E
  0
BLOCK_RECORD
  5
23
100
AcDbSymbolTableRecord
100
AcDbBlockTableRecord
  2
*Paper_Space0
340
26
  0
ENDTAB
  0
ENDSEC
  0
SECTION
  2
BLOCKS
  0
BLOCK
  5
20
100
AcDbEntity
  8
0
100
AcDbBlockBegin
  2
*Model_Space
 70
0
 10
0.0
 20
0.0
 30
0.0
  3
*Model_Space
  1

  0
ENDBLK
  5
21
100
AcDbEntity
  8
0
100
AcDbBlockEnd
  0
BLOCK
  5
1C
100
AcDbEntity
 67
1
  8
0
100
AcDbBlockBegin
  2
*Paper_Space
 70
0
 10
0.0
 20
0.0
 30
0.0
  3
*Paper_Space
  1

  0
ENDBLK
  5
1D
100
AcDbEntity
 67
1
  8
0
100
AcDbBlockEnd
  0
BLOCK
  5
24
100
AcDbEntity
  8
0
100
AcDbBlockBegin
  2
*Paper_Space0
 70
0
 10
0.0
 20
0.0
 30
0.0
  3
*Paper_Space0
  1

  0
ENDBLK
  5
25
100
AcDbEntity
  8
0
100
AcDbBlockEnd
  0
ENDSEC
  0
SECTION
  2
ENTITIES
  0
LINE
  5
5A
100
AcDbEntity
  8
cut
 62
256
370
-1
 48
1.0
  6
BYLAYER
100
AcDbLine
 10
-32.0000000000004832
 20
25.0000000000000142
 30
0.0
 11
-32.0000000000004832
 21
75.0000000000000142
 31
0.0
  0
LINE
  5
5B
100
AcDbEntity
  8
cut
 62
256
370
-1
 48
1.0
  6
BYLAYER
100
AcDbLine
 10
67.9999999999995168
 20
54.9999999999999574
 30
0.0
 11
67.9999999999995168
 21
65.0000000000000142
 31
0.0
  0
LINE
  5
5C
100
AcDbEntity
  8
cut
 62
256
370
-1
 48
1.0
  6
BYLAYER
100
AcDbLine
 10
67.9999999999995168
 20
45.0000000000000142
 30
0.0
 11
67.9999999999995168
 21
34.9999999999999432
 31
0.0
  0
LINE
  5
5D
100
AcDbEntity
  8
cut
 62
256
370
-1
 48
1.0
  6
BYLAYER
100
AcDbLine
 10
67.99999999999946
 20
-55.0
 30
0.0
 11
67.99999999999946
 21
-65.0000000000000853
 31
0.0
  0
LINE
  5
5E
100
AcDbEntity
  8
cut
 62
256
370
-1
 48
1.0
  6
BYLAYER
100
AcDbLine
 10
67.99999999999946
 20
-45.0000000000000568
 30
0.0
 11
67.99999999999946
 21
-35.0
 31
0.0
  0
LINE
  5
5F
100
AcDbEntity
  8
cut
 62
256
370
-1
 48
1.0
  6
BYLAYER
100
AcDbLine
 10
-132.00000000000054
 20
-55.0000000000000142
 30
0.0
 11
-132.00000000000054
 21
-65.0000000000000142
 31
0.0
  0
LINE
  5
60
100
AcDbEntity
  8
cut
 62
256
370
-1
 48
1.0
  6
BYLAYER
100
AcDbLine
 10
2.9999999999995168
 20
0.0000000000000142
 30
0.0
 11
12.9999999999995168
 21
0.0000000000000142
 31
0.0
  0
LINE
  5
61
100
AcDbEntity
  8
cut
 62
256
370
-1
 48
1.0
  6
BYLAYER
100
AcDbLine
 10
32.9999999999995168
 20
100.0000000000000142
 30
0.0
 11
22.9999999999995168
 21
100.0000000000000142
 31
0.0
  0
LINE
  5
62
100
AcDbEntity
  8
cut
 62
256
370
-1
 48
1.0
  6
BYLAYER
100
AcDbLine
 10
2.9999999999995168
 20
100.0000000000000142
 30
0.0
 11
12.9999999999995168
 21
100.0000000000000142
 31
0.0
  0
LINE
  5
63
100
AcDbEntity
  8
cut
 62
256
370
-1
 48
1.0
  6
BYLAYER
100
AcDbLine
 10
32.99999999999946
 20
-100.0
 30
0.0
 11
22.99999999999946
 21
-100.0
 31
0.0
  0
LINE
  5
64
100
AcDbEntity
  8
cut
 62
256
370
-1
 48
1.0
  6
BYLAYER
100
AcDbLine
 10
2.99999999999946
 20
-100.0
 30
0.0
 11
12.99999999999946
 21
-100.0000000000000142
 31
0.0
  0
LINE
  5
65
100
AcDbEntity
  8
cut
 62
256
370
-1
 48
1.0
  6
BYLAYER
100
AcDbLine
 10
32.99999999999946
 20
-0.0000000000000284
 30
0.0
 11
22.99999999999946
 21
0.0
 31
0.0
  0
LINE
  5
66
100
AcDbEntity
  8
cut
 62
256
370
-1
 48
1.0
  6
BYLAYER
100
AcDbLine
 10
-132.00000000000054
 20
-45.0000000000000142
 30
0.0
 11
-132.00000000000054
 21
-35.0000000000000142
 31
0.0
  0
LINE
  5
67
100
AcDbEntity
  8
cut
 62
256
370
-1
 48
1.0
  6
BYLAYER
100
AcDbLine
 10
-67.00000000000054
 20
-100.0
 30
0.0
 11
-77.00000000000054
 21
-100.0000000000000142
 31
0.0
  0
ARC
  5
68
100
AcDbEntity
  8
cut
 62
256
370
-1
 48
1.0
  6
BYLAYER
100
AcDbCircle
 10
-7.0000000000004832
 20
75.0000000000000142
 30
0.0
 40
25.0
100
AcDbArc
 50
90.0
 51
180.0
  0
ARC
  5
69
100
AcDbEntity
  8
cut
 62
256
370
-1
 48
1.0
  6
BYLAYER
100
AcDbCircle
 10
42.9999999999995168
 20
25.0000000000000142
 30
0.0
 40
25.0
100
AcDbArc
 50
270.0
 51
0.0
  0
ARC
  5
6A
100
AcDbEntity
  8
cut
 62
256
370
-1
 48
1.0
  6
BYLAYER
100
AcDbCircle
 10
-7.0000000000004832
 20
25.0000000000000142
 30
0.0
 40
25.0
100
AcDbArc
 50
180.0
 51
270.0
  0
LINE
  5
6B
100
AcDbEntity
  8
cut
 62
256
370
-1
 48
1.0
  6
BYLAYER
100
AcDbLine
 10
27.9999999999993747
 20
-20.0000000000001137
 30
0.0
 11
7.9999999999994316
 21
-20.0000000000000568
 31
0.0
  0
ARC
  5
6C
100
AcDbEntity
  8
cut
 62
256
370
-1
 48
1.0
  6
BYLAYER
100
AcDbCircle
 10
42.9999999999995168
 20
75.0000000000000142
 30
0.0
 40
25.0
100
AcDbArc
 50
360.0
 51
89.9999999999999858
  0
LINE
  5
6D
100
AcDbEntity
  8
cut
 62
256
370
-1
 48
1.0
  6
BYLAYER
100
AcDbLine
 10
-69.00000000000054
 20
79.9999999999999716
 30
0.0
 11
-89.0000000000004832
 21
80.0
 31
0.0
  0
LINE
  5
6E
100
AcDbEntity
  8
cut
 62
256
370
-1
 48
1.0
  6
BYLAYER
100
AcDbLine
 10
-97.00000000000054
 20
-100.0000000000000142
 30
0.0
 11
-87.00000000000054
 21
-100.0000000000000142
 31
0.0
  0
LINE
  5
6F
100
AcDbEntity
  8
cut
 62
256
370
-1
 48
1.0
  6
BYLAYER
100
AcDbLine
 10
27.99999999999946
 20
79.9999999999999716
 30
0.0
 11
7.9999999999995168
 21
80.0
 31
0.0
  0
LINE
  5
70
100
AcDbEntity
  8
cut
 62
256
370
-1
 48
1.0
  6
BYLAYER
100
AcDbLine
 10
-67.00000000000054
 20
-0.0000000000000284
 30
0.0
 11
-77.00000000000054
 21
-0.0000000000000142
 31
0.0
  0
LINE
  5
71
100
AcDbEntity
  8
cut
 62
256
370
-1
 48
1.0
  6
BYLAYER
100
AcDbLine
 10
27.9999999999993463
 20
-80.0000000000001705
 30
0.0
 11
7.9999999999993747
 21
-80.0000000000000568
 31
0.0
  0
LINE
  5
72
100
AcDbEntity
  8
cut
 62
256
370
-1
 48
1.0
  6
BYLAYER
100
AcDbLine
 10
-97.00000000000054
 20
-0.0000000000000142
 30
0.0
 11
-87.00000000000054
 21
-0.0000000000000142
 31
0.0
  0
LINE
  5
73
100
AcDbEntity
  8
cut
 62
256
370
-1
 48
1.0
  6
BYLAYER
100
AcDbLine
 10
-69.00000000000054
 20
19.9999999999998863
 30
0.0
 11
-89.00000000000054
 21
20.0
 31
0.0
  0
LINE
  5
74
100
AcDbEntity
  8
cut
 62
256
370
-1
 48
1.0
  6
BYLAYER
100
AcDbLine
 10
-57.00000000000054
 20
-97.0
 30
0.0
 11
-67.00000000000054
 21
-97.0000000000000284
 31
0.0
  0
LINE
  5
75
100
AcDbEntity
  8
cut
 62
256
370
-1
 48
1.0
  6
BYLAYER
100
AcDbLine
 10
27.9999999999994316
 20
19.9999999999998863
 30
0.0
 11
7.99999999999946
 21
20.0
 31
0.0
  0
CIRCLE
  5
76
100
AcDbEntity
  8
cut
 62
256
370
-1
 48
1.0
  6
BYLAYER
100
AcDbCircle
 10
17.9999999999995168
 20
50.0000000000000142
 30
0.0
 40
7.5
  0
LINE
  5
77
100
AcDbEntity
  8
cut
 62
256
370
-1
 48
1.0
  6
BYLAYER
100
AcDbLine
 10
7.9999999999994316
 20
-20.0000000000000568
 30
0.0
 11
7.9999999999993747
 21
-40.0000000000001137
 31
0.0
  0
LINE
  5
78
100
AcDbEntity
  8
cut
 62
256
370
-1
 48
1.0
  6
BYLAYER
100
AcDbLine
 10
42.9999999999995168
 20
97.0000000000000142
 30
0.0
 11
32.9999999999995168
 21
97.0000000000000142
 31
0.0
  0
LINE
  5
79
100
AcDbEntity
  8
cut
 62
256
370
-1
 48
1.0
  6
BYLAYER
100
AcDbLine
 10
-89.0000000000004832
 20
80.0
 30
0.0
 11
-89.00000000000054
 21
59.9999999999999432
 31
0.0
  0
LINE
  5
7A
100
AcDbEntity
  8
cut
 62
256
370
-1
 48
1.0
  6
BYLAYER
100
AcDbLine
 10
-7.0000000000004832
 20
97.0000000000000142
 30
0.0
 11
2.9999999999995168
 21
97.0000000000000142
 31
0.0
  0
LINE
  5
7B
100
AcDbEntity
  8
cut
 62
256
370
-1
 48
1.0
  6
BYLAYER
100
AcDbLine
 10
7.9999999999995168
 20
80.0
 30
0.0
 11
7.99999999999946
 21
59.9999999999999432
 31
0.0
  0
LINE
  5
7C
100
AcDbEntity
  8
cut
 62
256
370
-1
 48
1.0
  6
BYLAYER
100
AcDbLine
 10
42.9999999999995168
 20
3.0000000000000142
 30
0.0
 11
32.9999999999995168
 21
3.0000000000000142
 31
0.0
  0
LINE
  5
7D
100
AcDbEntity
  8
cut
 62
256
370
-1
 48
1.0
  6
BYLAYER
100
AcDbLine
 10
7.9999999999993747
 20
-80.0000000000000568
 30
0.0
 11
7.9999999999994031
 21
-60.0000000000001137
 31
0.0
  0
LINE
  5
7E
100
AcDbEntity
  8
cut
 62
256
370
-1
 48
1.0
  6
BYLAYER
100
AcDbLine
 10
-7.0000000000004832
 20
3.0000000000000142
 30
0.0
 11
2.9999999999995168
 21
3.0000000000000142
 31
0.0
  0
LINE
  5
7F
100
AcDbEntity
  8
cut
 62
256
370
-1
 48
1.0
  6
BYLAYER
100
AcDbLine
 10
-89.00000000000054
 20
20.0
 30
0.0
 11
-89.00000000000054
 21
39.9999999999999716
 31
0.0
  0
LINE
  5
80
100
AcDbEntity
  8
cut
 62
256
370
-1
 48
1.0
  6
BYLAYER
100
AcDbLine
 10
42.99999999999946
 20
-97.0
 30
0.0
 11
32.99999999999946
 21
-97.0000000000000142
 31
0.0
  0
LINE
  5
81
100
AcDbEntity
  8
cut
 62
256
370
-1
 48
1.0
  6
BYLAYER
100
AcDbLine
 10
7.99999999999946
 20
20.0
 30
0.0
 11
7.9999999999994884
 21
39.9999999999999716
 31
0.0
  0
LINE
  5
82
100
AcDbEntity
  8
cut
 62
256
370
-1
 48
1.0
  6
BYLAYER
100
AcDbLine
 10
-7.00000000000054
 20
-97.0
 30
0.0
 11
2.99999999999946
 21
-97.0000000000000142
 31
0.0
  0
LINE
  5
83
100
AcDbEntity
  8
cut
 62
256
370
-1
 48
1.0
  6
BYLAYER
100
AcDbLine
 10
7.9999999999993747
 20
-40.0000000000001137
 30
0.0
 11
27.9999999999993463
 21
-40.0000000000001137
 31
0.0
  0
LINE
  5
84
100
AcDbEntity
  8
cut
 62
256
370
-1
 48
1.0
  6
BYLAYER
100
AcDbLine
 10
42.99999999999946
 20
-3.0
 30
0.0
 11
32.99999999999946
 21
-3.0
 31
0.0
  0
LINE
  5
85
100
AcDbEntity
  8
cut
 62
256
370
-1
 48
1.0
  6
BYLAYER
100
AcDbLine
 10
-89.00000000000054
 20
59.9999999999999432
 30
0.0
 11
-69.0000000000005969
 21
59.9999999999999432
 31
0.0
  0
LINE
  5
86
100
AcDbEntity
  8
cut
 62
256
370
-1
 48
1.0
  6
BYLAYER
100
AcDbLine
 10
-7.00000000000054
 20
-3.0
 30
0.0
 11
2.99999999999946
 21
-3.0
 31
0.0
  0
LINE
  5
87
100
AcDbEntity
  8
cut
 62
256
370
-1
 48
1.0
  6
BYLAYER
100
AcDbLine
 10
7.99999999999946
 20
59.9999999999999432
 30
0.0
 11
27.9999999999994316
 21
59.9999999999999432
 31
0.0
  0
LINE
  5
88
100
AcDbEntity
  8
cut
 62
256
370
-1
 48
1.0
  6
BYLAYER
100
AcDbLine
 10
-107.00000000000054
 20
-97.0
 30
0.0
 11
-97.00000000000054
 21
-97.0000000000000284
 31
0.0
  0
LINE
  5
89
100
AcDbEntity
  8
cut
 62
256
370
-1
 48
1.0
  6
BYLAYER
100
AcDbLine
 10
7.9999999999994031
 20
-60.0000000000001137
 30
0.0
 11
27.9999999999993747
 21
-60.0000000000001137
 31
0.0
  0
LINE
  5
8A
100
AcDbEntity
  8
cut
 62
256
370
-1
 48
1.0
  6
BYLAYER
100
AcDbLine
 10
64.9999999999995168
 20
35.0000000000000142
 30
0.0
 11
64.9999999999995168
 21
25.0000000000000142
 31
0.0
  0
LINE
  5
8B
100
AcDbEntity
  8
cut
 62
256
370
-1
 48
1.0
  6
BYLAYER
100
AcDbLine
 10
-89.00000000000054
 20
39.9999999999999716
 30
0.0
 11
-69.00000000000054
 21
39.9999999999999716
 31
0.0
  0
LINE
  5
8C
100
AcDbEntity
  8
cut
 62
256
370
-1
 48
1.0
  6
BYLAYER
100
AcDbLine
 10
-29.0000000000004832
 20
35.0000000000000142
 30
0.0
 11
-29.0000000000004832
 21
25.0000000000000142
 31
0.0
  0
LINE
  5
8D
100
AcDbEntity
  8
cut
 62
256
370
-1
 48
1.0
  6
BYLAYER
100
AcDbLine
 10
7.9999999999994884
 20
39.9999999999999716
 30
0.0
 11
27.99999999999946
 21
39.9999999999999716
 31
0.0
  0
LINE
  5
8E
100
AcDbEntity
  8
cut
 62
256
370
-1
 48
1.0
  6
BYLAYER
100
AcDbLine
 10
64.9999999999995168
 20
64.9999999999999858
 30
0.0
 11
64.9999999999995168
 21
75.0000000000000142
 31
0.0
  0
LINE
  5
8F
100
AcDbEntity
  8
cut
 62
256
370
-1
 48
1.0
  6
BYLAYER
100
AcDbLine
 10
27.9999999999993747
 20
-60.0000000000001137
 30
0.0
 11
27.9999999999993463
 21
-80.0000000000001705
 31
0.0
  0
LINE
  5
90
100
AcDbEntity
  8
cut
 62
256
370
-1
 48
1.0
  6
BYLAYER
100
AcDbLine
 10
-29.0000000000004832
 20
65.0000000000000142
 30
0.0
 11
-29.0000000000004832
 21
75.0000000000000142
 31
0.0
  0
LINE
  5
91
100
AcDbEntity
  8
cut
 62
256
370
-1
 48
1.0
  6
BYLAYER
100
AcDbLine
 10
-69.00000000000054
 20
39.9999999999999716
 30
0.0
 11
-69.00000000000054
 21
19.9999999999998863
 31
0.0
  0
LINE
  5
92
100
AcDbEntity
  8
cut
 62
256
370
-1
 48
1.0
  6
BYLAYER
100
AcDbLine
 10
64.99999999999946
 20
-65.0
 30
0.0
 11
64.99999999999946
 21
-75.0
 31
0.0
  0
LINE
  5
93
100
AcDbEntity
  8
cut
 62
256
370
-1
 48
1.0
  6
BYLAYER
100
AcDbLine
 10
27.99999999999946
 20
39.9999999999999716
 30
0.0
 11
27.9999999999994316
 21
19.9999999999998863
 31
0.0
  0
LINE
  5
94
100
AcDbEntity
  8
cut
 62
256
370
-1
 48
1.0
  6
BYLAYER
100
AcDbLine
 10
-29.00000000000054
 20
-65.0
 30
0.0
 11
-29.00000000000054
 21
-75.0
 31
0.0
  0
LINE
  5
95
100
AcDbEntity
  8
cut
 62
256
370
-1
 48
1.0
  6
BYLAYER
100
AcDbLine
 10
27.9999999999993463
 20
-40.0000000000001137
 30
0.0
 11
27.9999999999993747
 21
-20.0000000000001137
 31
0.0
  0
LINE
  5
96
100
AcDbEntity
  8
cut
 62
256
370
-1
 48
1.0
  6
BYLAYER
100
AcDbLine
 10
64.99999999999946
 20
-35.0000000000000284
 30
0.0
 11
64.99999999999946
 21
-25.0000000000000284
 31
0.0
  0
LINE
  5
97
100
AcDbEntity
  8
cut
 62
256
370
-1
 48
1.0
  6
BYLAYER
100
AcDbLine
 10
-69.0000000000005969
 20
59.9999999999999432
 30
0.0
 11
-69.00000000000054
 21
79.9999999999999716
 31
0.0
  0
LINE
  5
98
100
AcDbEntity
  8
cut
 62
256
370
-1
 48
1.0
  6
BYLAYER
100
AcDbLine
 10
-29.00000000000054
 20
-35.0
 30
0.0
 11
-29.00000000000054
 21
-25.0
 31
0.0
  0
LINE
  5
99
100
AcDbEntity
  8
cut
 62
256
370
-1
 48
1.0
  6
BYLAYER
100
AcDbLine
 10
27.9999999999994316
 20
59.9999999999999432
 30
0.0
 11
27.99999999999946
 21
79.9999999999999716
 31
0.0
  0
LINE
  5
9A
100
AcDbEntity
  8
cut
 62
256
370
-1
 48
1.0
  6
BYLAYER
100
AcDbLine
 10
-57.00000000000054
 20
-3.0000000000000142
 30
0.0
 11
-67.00000000000054
 21
-3.0000000000000142
 31
0.0
  0
LINE
  5
9B
100
AcDbEntity
  8
cut
 62
256
370
-1
 48
1.0
  6
BYLAYER
100
AcDbLine
 10
-107.00000000000054
 20
-3.0000000000000142
 30
0.0
 11
-97.00000000000054
 21
-3.0000000000000142
 31
0.0
  0
LINE
  5
9C
100
AcDbEntity
  8
cut
 62
256
370
-1
 48
1.0
  6
BYLAYER
100
AcDbLine
 10
-35.00000000000054
 20
-65.0000000000000142
 30
0.0
 11
-35.00000000000054
 21
-75.0000000000000142
 31
0.0
  0
LINE
  5
9D
100
AcDbEntity
  8
cut
 62
256
370
-1
 48
1.0
  6
BYLAYER
100
AcDbLine
 10
-129.00000000000054
 20
-65.0000000000000142
 30
0.0
 11
-129.00000000000054
 21
-75.0000000000000142
 31
0.0
  0
LINE
  5
9E
100
AcDbEntity
  8
cut
 62
256
370
-1
 48
1.0
  6
BYLAYER
100
AcDbLine
 10
-35.00000000000054
 20
-35.0000000000000426
 30
0.0
 11
-35.00000000000054
 21
-25.0000000000000284
 31
0.0
  0
LINE
  5
9F
100
AcDbEntity
  8
cut
 62
256
370
-1
 48
1.0
  6
BYLAYER
100
AcDbLine
 10
-7.0000000000004832
 20
0.0000000000000142
 30
0.0
 11
-7.0000000000004832
 21
3.0000000000000142
 31
0.0
  0
LINE
  5
A0
100
AcDbEntity
  8
cut
 62
256
370
-1
 48
1.0
  6
BYLAYER
100
AcDbLine
 10
42.9999999999995168
 20
0.0000000000000142
 30
0.0
 11
42.9999999999995168
 21
3.0000000000000142
 31
0.0
  0
LINE
  5
A1
100
AcDbEntity
  8
cut
 62
256
370
-1
 48
1.0
  6
BYLAYER
100
AcDbLine
 10
42.9999999999995168
 20
100.0000000000000142
 30
0.0
 11
42.9999999999995168
 21
97.0000000000000142
 31
0.0
  0
LINE
  5
A2
100
AcDbEntity
  8
cut
 62
256
370
-1
 48
1.0
  6
BYLAYER
100
AcDbLine
 10
-7.0000000000004832
 20
100.0000000000000142
 30
0.0
 11
-7.0000000000004832
 21
97.0000000000000142
 31
0.0
  0
LINE
  5
A3
100
AcDbEntity
  8
cut
 62
256
370
-1
 48
1.0
  6
BYLAYER
100
AcDbLine
 10
-32.0000000000004832
 20
25.0000000000000142
 30
0.0
 11
-29.0000000000004832
 21
25.0000000000000142
 31
0.0
  0
LINE
  5
A4
100
AcDbEntity
  8
cut
 62
256
370
-1
 48
1.0
  6
BYLAYER
100
AcDbLine
 10
67.9999999999995168
 20
25.0000000000000284
 30
0.0
 11
64.9999999999995168
 21
25.0000000000000142
 31
0.0
  0
LINE
  5
A5
100
AcDbEntity
  8
cut
 62
256
370
-1
 48
1.0
  6
BYLAYER
100
AcDbLine
 10
67.9999999999995168
 20
74.9999999999999858
 30
0.0
 11
64.9999999999995168
 21
75.0000000000000142
 31
0.0
  0
LINE
  5
A6
100
AcDbEntity
  8
cut
 62
256
370
-1
 48
1.0
  6
BYLAYER
100
AcDbLine
 10
-32.0000000000004832
 20
75.0000000000000142
 30
0.0
 11
-29.0000000000004832
 21
75.0000000000000142
 31
0.0
  0
LINE
  5
A7
100
AcDbEntity
  8
cut
 62
256
370
-1
 48
1.0
  6
BYLAYER
100
AcDbLine
 10
2.9999999999995168
 20
0.0000000000000142
 30
0.0
 11
2.9999999999995168
 21
3.0000000000000142
 31
0.0
  0
LINE
  5
A8
100
AcDbEntity
  8
cut
 62
256
370
-1
 48
1.0
  6
BYLAYER
100
AcDbLine
 10
32.9999999999995168
 20
0.0000000000000284
 30
0.0
 11
32.9999999999995168
 21
3.0000000000000142
 31
0.0
  0
LINE
  5
A9
100
AcDbEntity
  8
cut
 62
256
370
-1
 48
1.0
  6
BYLAYER
100
AcDbLine
 10
32.9999999999995168
 20
100.0000000000000142
 30
0.0
 11
32.9999999999995168
 21
97.0000000000000142
 31
0.0
  0
LINE
  5
AA
100
AcDbEntity
  8
cut
 62
256
370
-1
 48
1.0
  6
BYLAYER
100
AcDbLine
 10
2.9999999999995168
 20
100.0000000000000142
 30
0.0
 11
2.9999999999995168
 21
97.0000000000000142
 31
0.0
  0
LINE
  5
AB
100
AcDbEntity
  8
cut
 62
256
370
-1
 48
1.0
  6
BYLAYER
100
AcDbLine
 10
2.99999999999946
 20
-100.0
 30
0.0
 11
2.99999999999946
 21
-97.0000000000000142
 31
0.0
  0
LINE
  5
AC
100
AcDbEntity
  8
cut
 62
256
370
-1
 48
1.0
  6
BYLAYER
100
AcDbLine
 10
32.99999999999946
 20
-100.0
 30
0.0
 11
32.99999999999946
 21
-97.0000000000000142
 31
0.0
  0
LINE
  5
AD
100
AcDbEntity
  8
cut
 62
256
370
-1
 48
1.0
  6
BYLAYER
100
AcDbLine
 10
32.99999999999946
 20
-0.0000000000000284
 30
0.0
 11
32.99999999999946
 21
-3.0
 31
0.0
  0
LINE
  5
AE
100
AcDbEntity
  8
cut
 62
256
370
-1
 48
1.0
  6
BYLAYER
100
AcDbLine
 10
2.99999999999946
 20
0.0
 30
0.0
 11
2.99999999999946
 21
-3.0
 31
0.0
  0
LINE
  5
AF
100
AcDbEntity
  8
cut
 62
256
370
-1
 48
1.0
  6
BYLAYER
100
AcDbLine
 10
-129.00000000000054
 20
-35.0000000000000142
 30
0.0
 11
-129.00000000000054
 21
-25.0000000000000142
 31
0.0
  0
LINE
  5
B0
100
AcDbEntity
  8
cut
 62
256
370
-1
 48
1.0
  6
BYLAYER
100
AcDbLine
 10
12.9999999999995168
 20
0.0000000000000142
 30
0.0
 11
12.9999999999995168
 21
3.0000000000000142
 31
0.0
  0
LINE
  5
B1
100
AcDbEntity
  8
cut
 62
256
370
-1
 48
1.0
  6
BYLAYER
100
AcDbLine
 10
22.9999999999995168
 20
0.0000000000000142
 30
0.0
 11
22.9999999999995168
 21
3.0000000000000142
 31
0.0
  0
LINE
  5
B2
100
AcDbEntity
  8
cut
 62
256
370
-1
 48
1.0
  6
BYLAYER
100
AcDbLine
 10
22.9999999999995168
 20
100.0000000000000142
 30
0.0
 11
22.9999999999995168
 21
97.0000000000000142
 31
0.0
  0
LINE
  5
B3
100
AcDbEntity
  8
cut
 62
256
370
-1
 48
1.0
  6
BYLAYER
100
AcDbLine
 10
12.9999999999995168
 20
100.0000000000000142
 30
0.0
 11
12.9999999999995168
 21
97.0000000000000142
 31
0.0
  0
LINE
  5
B4
100
AcDbEntity
  8
cut
 62
256
370
-1
 48
1.0
  6
BYLAYER
100
AcDbLine
 10
12.99999999999946
 20
-100.0000000000000142
 30
0.0
 11
12.99999999999946
 21
-97.0
 31
0.0
  0
LINE
  5
B5
100
AcDbEntity
  8
cut
 62
256
370
-1
 48
1.0
  6
BYLAYER
100
AcDbLine
 10
22.99999999999946
 20
-100.0
 30
0.0
 11
22.99999999999946
 21
-97.0
 31
0.0
  0
LINE
  5
B6
100
AcDbEntity
  8
cut
 62
256
370
-1
 48
1.0
  6
BYLAYER
100
AcDbLine
 10
22.99999999999946
 20
0.0
 30
0.0
 11
22.99999999999946
 21
-3.0
 31
0.0
  0
LINE
  5
B7
100
AcDbEntity
  8
cut
 62
256
370
-1
 48
1.0
  6
BYLAYER
100
AcDbLine
 10
12.99999999999946
 20
0.0
 30
0.0
 11
12.99999999999946
 21
-3.0
 31
0.0
  0
LINE
  5
B8
100
AcDbEntity
  8
cut
 62
256
370
-1
 48
1.0
  6
BYLAYER
100
AcDbLine
 10
-97.00000000000054
 20
-100.0000000000000142
 30
0.0
 11
-97.00000000000054
 21
-97.0000000000000284
 31
0.0
  0
LINE
  5
B9
100
AcDbEntity
  8
cut
 62
256
370
-1
 48
1.0
  6
BYLAYER
100
AcDbLine
 10
-32.0000000000004832
 20
35.0000000000000142
 30
0.0
 11
-29.0000000000004832
 21
35.0000000000000142
 31
0.0
  0
LINE
  5
BA
100
AcDbEntity
  8
cut
 62
256
370
-1
 48
1.0
  6
BYLAYER
100
AcDbLine
 10
67.9999999999995168
 20
34.9999999999999432
 30
0.0
 11
64.9999999999995168
 21
35.0000000000000142
 31
0.0
  0
LINE
  5
BB
100
AcDbEntity
  8
cut
 62
256
370
-1
 48
1.0
  6
BYLAYER
100
AcDbLine
 10
67.9999999999995168
 20
65.0000000000000142
 30
0.0
 11
64.9999999999995168
 21
64.9999999999999858
 31
0.0
  0
LINE
  5
BC
100
AcDbEntity
  8
cut
 62
256
370
-1
 48
1.0
  6
BYLAYER
100
AcDbLine
 10
-32.0000000000004832
 20
65.0000000000000142
 30
0.0
 11
-29.0000000000004832
 21
65.0000000000000142
 31
0.0
  0
LINE
  5
BD
100
AcDbEntity
  8
cut
 62
256
370
-1
 48
1.0
  6
BYLAYER
100
AcDbLine
 10
-32.00000000000054
 20
-65.0
 30
0.0
 11
-29.00000000000054
 21
-65.0
 31
0.0
  0
LINE
  5
BE
100
AcDbEntity
  8
cut
 62
256
370
-1
 48
1.0
  6
BYLAYER
100
AcDbLine
 10
67.99999999999946
 20
-65.0000000000000853
 30
0.0
 11
64.99999999999946
 21
-65.0
 31
0.0
  0
LINE
  5
BF
100
AcDbEntity
  8
cut
 62
256
370
-1
 48
1.0
  6
BYLAYER
100
AcDbLine
 10
67.99999999999946
 20
-35.0
 30
0.0
 11
64.99999999999946
 21
-35.0000000000000284
 31
0.0
  0
LINE
  5
C0
100
AcDbEntity
  8
cut
 62
256
370
-1
 48
1.0
  6
BYLAYER
100
AcDbLine
 10
-32.00000000000054
 20
-35.0
 30
0.0
 11
-29.00000000000054
 21
-35.0
 31
0.0
  0
LINE
  5
C1
100
AcDbEntity
  8
cut
 62
256
370
-1
 48
1.0
  6
BYLAYER
100
AcDbLine
 10
-67.00000000000054
 20
-100.0
 30
0.0
 11
-67.00000000000054
 21
-97.0000000000000284
 31
0.0
  0
LINE
  5
C2
100
AcDbEntity
  8
cut
 62
256
370
-1
 48
1.0
  6
BYLAYER
100
AcDbLine
 10
-32.0000000000004832
 20
45.0000000000000142
 30
0.0
 11
-29.0000000000004832
 21
45.0000000000000142
 31
0.0
  0
LINE
  5
C3
100
AcDbEntity
  8
cut
 62
256
370
-1
 48
1.0
  6
BYLAYER
100
AcDbLine
 10
67.9999999999995168
 20
45.0000000000000142
 30
0.0
 11
64.9999999999995168
 21
44.9999999999999858
 31
0.0
  0
LINE
  5
C4
100
AcDbEntity
  8
cut
 62
256
370
-1
 48
1.0
  6
BYLAYER
100
AcDbLine
 10
67.9999999999995168
 20
54.9999999999999574
 30
0.0
 11
64.9999999999995168
 21
55.0000000000000142
 31
0.0
  0
LINE
  5
C5
100
AcDbEntity
  8
cut
 62
256
370
-1
 48
1.0
  6
BYLAYER
100
AcDbLine
 10
-32.0000000000004832
 20
55.0000000000000142
 30
0.0
 11
-29.0000000000004832
 21
55.0000000000000142
 31
0.0
  0
LINE
  5
C6
100
AcDbEntity
  8
cut
 62
256
370
-1
 48
1.0
  6
BYLAYER
100
AcDbLine
 10
-32.00000000000054
 20
-55.0
 30
0.0
 11
-29.00000000000054
 21
-55.0
 31
0.0
  0
LINE
  5
C7
100
AcDbEntity
  8
cut
 62
256
370
-1
 48
1.0
  6
BYLAYER
100
AcDbLine
 10
67.99999999999946
 20
-55.0
 30
0.0
 11
64.99999999999946
 21
-55.0000000000000284
 31
0.0
  0
LINE
  5
C8
100
AcDbEntity
  8
cut
 62
256
370
-1
 48
1.0
  6
BYLAYER
100
AcDbLine
 10
67.99999999999946
 20
-45.0000000000000568
 30
0.0
 11
64.99999999999946
 21
-45.0
 31
0.0
  0
LINE
  5
C9
100
AcDbEntity
  8
cut
 62
256
370
-1
 48
1.0
  6
BYLAYER
100
AcDbLine
 10
-32.00000000000054
 20
-45.0
 30
0.0
 11
-29.00000000000054
 21
-45.0
 31
0.0
  0
LINE
  5
CA
100
AcDbEntity
  8
cut
 62
256
370
-1
 48
1.0
  6
BYLAYER
100
AcDbLine
 10
-67.00000000000054
 20
-0.0000000000000284
 30
0.0
 11
-67.00000000000054
 21
-3.0000000000000142
 31
0.0
  0
ARC
  5
CB
100
AcDbEntity
  8
cut
 62
256
370
-1
 48
1.0
  6
BYLAYER
100
AcDbCircle
 10
-7.00000000000054
 20
-25.0
 30
0.0
 40
22.0
100
AcDbArc
 50
90.0
 51
180.0
  0
LINE
  5
CC
100
AcDbEntity
  8
cut
 62
256
370
-1
 48
1.0
  6
BYLAYER
100
AcDbLine
 10
-97.00000000000054
 20
-0.0000000000000142
 30
0.0
 11
-97.00000000000054
 21
-3.0000000000000142
 31
0.0
  0
ARC
  5
CD
100
AcDbEntity
  8
cut
 62
256
370
-1
 48
1.0
  6
BYLAYER
100
AcDbCircle
 10
42.99999999999946
 20
-25.0
 30
0.0
 40
22.0
100
AcDbArc
 50
360.0
 51
89.9999999999999858
  0
LINE
  5
CE
100
AcDbEntity
  8
cut
 62
256
370
-1
 48
1.0
  6
BYLAYER
100
AcDbLine
 10
-87.00000000000054
 20
-100.0000000000000142
 30
0.0
 11
-87.00000000000054
 21
-97.0
 31
0.0
  0
ARC
  5
CF
100
AcDbEntity
  8
cut
 62
256
370
-1
 48
1.0
  6
BYLAYER
100
AcDbCircle
 10
42.99999999999946
 20
-75.0000000000000142
 30
0.0
 40
22.0
100
AcDbArc
 50
270.0
 51
0.0
  0
LINE
  5
D0
100
AcDbEntity
  8
cut
 62
256
370
-1
 48
1.0
  6
BYLAYER
100
AcDbLine
 10
-77.00000000000054
 20
-100.0000000000000142
 30
0.0
 11
-77.00000000000054
 21
-97.0
 31
0.0
  0
ARC
  5
D1
100
AcDbEntity
  8
cut
 62
256
370
-1
 48
1.0
  6
BYLAYER
100
AcDbCircle
 10
-7.00000000000054
 20
-75.0
 30
0.0
 40
22.0
100
AcDbArc
 50
180.0
 51
270.0
  0
LINE
  5
D2
100
AcDbEntity
  8
cut
 62
256
370
-1
 48
1.0
  6
BYLAYER
100
AcDbLine
 10
-77.00000000000054
 20
-0.0000000000000142
 30
0.0
 11
-77.00000000000054
 21
-3.0000000000000142
 31
0.0
  0
CIRCLE
  5
D3
100
AcDbEntity
  8
cut
 62
256
370
-1
 48
1.0
  6
BYLAYER
100
AcDbCircle
 10
17.99999999999946
 20
-50.0
 30
0.0
 40
3.0
  0
LINE
  5
D4
100
AcDbEntity
  8
cut
 62
256
370
-1
 48
1.0
  6
BYLAYER
100
AcDbLine
 10
-87.00000000000054
 20
-0.0000000000000142
 30
0.0
 11
-87.00000000000054
 21
-3.0000000000000142
 31
0.0
  0
LINE
  5
D5
100
AcDbEntity
  8
cut
 62
256
370
-1
 48
1.0
  6
BYLAYER
100
AcDbLine
 10
-132.00000000000054
 20
-65.0000000000000142
 30
0.0
 11
-129.00000000000054
 21
-65.0000000000000142
 31
0.0
  0
LINE
  5
D6
100
AcDbEntity
  8
cut
 62
256
370
-1
 48
1.0
  6
BYLAYER
100
AcDbLine
 10
-32.00000000000054
 20
-65.0000000000000853
 30
0.0
 11
-35.00000000000054
 21
-65.0000000000000142
 31
0.0
  0
LINE
  5
D7
100
AcDbEntity
  8
cut
 62
256
370
-1
 48
1.0
  6
BYLAYER
100
AcDbLine
 10
-104.0000000000004832
 20
3.0000000000000142
 30
0.0
 11
-54.0000000000004263
 21
3.0000000000000142
 31
0.0
  0
LINE
  5
D8
100
AcDbEntity
  8
cut
 62
256
370
-1
 48
1.0
  6
BYLAYER
100
AcDbLine
 10
-32.00000000000054
 20
-35.0000000000000142
 30
0.0
 11
-35.00000000000054
 21
-35.0000000000000426
 31
0.0
  0
LINE
  5
D9
100
AcDbEntity
  8
cut
 62
256
370
-1
 48
1.0
  6
BYLAYER
100
AcDbLine
 10
-132.00000000000054
 20
-35.0000000000000142
 30
0.0
 11
-129.00000000000054
 21
-35.0000000000000142
 31
0.0
  0
LINE
  5
DA
100
AcDbEntity
  8
cut
 62
256
370
-1
 48
1.0
  6
BYLAYER
100
AcDbLine
 10
-132.00000000000054
 20
-55.0000000000000142
 30
0.0
 11
-129.00000000000054
 21
-55.0000000000000142
 31
0.0
  0
LINE
  5
DB
100
AcDbEntity
  8
cut
 62
256
370
-1
 48
1.0
  6
BYLAYER
100
AcDbLine
 10
-32.0000000000005684
 20
-55.0000000000000142
 30
0.0
 11
-35.00000000000054
 21
-55.0000000000000355
 31
0.0
  0
LINE
  5
DC
100
AcDbEntity
  8
cut
 62
256
370
-1
 48
1.0
  6
BYLAYER
100
AcDbLine
 10
-54.0000000000004832
 20
97.0000000000000142
 30
0.0
 11
-104.0000000000004832
 21
97.0000000000000142
 31
0.0
  0
LINE
  5
DD
100
AcDbEntity
  8
cut
 62
256
370
-1
 48
1.0
  6
BYLAYER
100
AcDbLine
 10
77.99999999999946
 20
80.2000000000004718
 30
0.0
 11
83.9999999999993463
 21
80.2000000000004718
 31
0.0
  0
LINE
  5
DE
100
AcDbEntity
  8
cut
 62
256
370
-1
 48
1.0
  6
BYLAYER
100
AcDbLine
 10
-32.0000000000005684
 20
-45.0000000000000568
 30
0.0
 11
-35.00000000000054
 21
-45.0000000000000071
 31
0.0
  0
LINE
  5
DF
100
AcDbEntity
  8
cut
 62
256
370
-1
 48
1.0
  6
BYLAYER
100
AcDbLine
 10
83.9999999999993463
 20
80.2000000000004718
 30
0.0
 11
83.9999999999995737
 21
70.2000000000004434
 31
0.0
  0
LINE
  5
E0
100
AcDbEntity
  8
cut
 62
256
370
-1
 48
1.0
  6
BYLAYER
100
AcDbLine
 10
-132.00000000000054
 20
-45.0000000000000142
 30
0.0
 11
-129.00000000000054
 21
-45.0000000000000142
 31
0.0
  0
LINE
  5
E1
100
AcDbEntity
  8
cut
 62
256
370
-1
 48
1.0
  6
BYLAYER
100
AcDbLine
 10
83.9999999999995737
 20
70.2000000000004434
 30
0.0
 11
77.9999999999995737
 21
70.2000000000004434
 31
0.0
  0
LINE
  5
E2
100
AcDbEntity
  8
cut
 62
256
370
-1
 48
1.0
  6
BYLAYER
100
AcDbLine
 10
-126.000000000000469
 20
75.0000000000000142
 30
0.0
 11
-126.000000000000469
 21
25.0000000000000142
 31
0.0
  0
ARC
  5
E3
100
AcDbEntity
  8
cut
 62
256
370
-1
 48
1.0
  6
BYLAYER
100
AcDbCircle
 10
-107.00000000000054
 20
-25.0000000000000142
 30
0.0
 40
22.0
100
AcDbArc
 50
90.0
 51
180.0
  0
LINE
  5
E4
100
AcDbEntity
  8
cut
 62
256
370
-1
 48
1.0
  6
BYLAYER
100
AcDbLine
 10
77.9999999999995168
 20
60.2000000000004505
 30
0.0
 11
80.9999999999994031
 21
60.2000000000004505
 31
0.0
  0
ARC
  5
E5
100
AcDbEntity
  8
cut
 62
256
370
-1
 48
1.0
  6
BYLAYER
100
AcDbCircle
 10
-104.0000000000004832
 20
75.0000000000000142
 30
0.0
 40
22.0
100
AcDbArc
 50
90.0
 51
180.0
  0
LINE
  5
E6
100
AcDbEntity
  8
cut
 62
256
370
-1
 48
1.0
  6
BYLAYER
100
AcDbLine
 10
80.9999999999994031
 20
60.2000000000004505
 30
0.0
 11
80.9999999999993463
 21
24.9999999999999929
 31
0.0
  0
ARC
  5
E7
100
AcDbEntity
  8
cut
 62
256
370
-1
 48
1.0
  6
BYLAYER
100
AcDbCircle
 10
-57.00000000000054
 20
-25.0000000000000142
 30
0.0
 40
22.0
100
AcDbArc
 50
360.0
 51
89.9999999999999858
  0
LINE
  5
E8
100
AcDbEntity
  8
cut
 62
256
370
-1
 48
1.0
  6
BYLAYER
100
AcDbLine
 10
80.9999999999993463
 20
24.9999999999999929
 30
0.0
 11
77.9999999999995168
 21
25.0000000000000071
 31
0.0
  0
ARC
  5
E9
100
AcDbEntity
  8
cut
 62
256
370
-1
 48
1.0
  6
BYLAYER
100
AcDbCircle
 10
-54.0000000000004832
 20
75.0000000000000142
 30
0.0
 40
22.0
100
AcDbArc
 50
0.0
 51
90.0
  0
ARC
  5
EA
100
AcDbEntity
  8
cut
 62
256
370
-1
 48
1.0
  6
BYLAYER
100
AcDbCircle
 10
-57.00000000000054
 20
-75.0000000000000284
 30
0.0
 40
22.0
100
AcDbArc
 50
270.0
 51
0.0
  0
LINE
  5
EB
100
AcDbEntity
  8
cut
 62
256
370
-1
 48
1.0
  6
BYLAYER
100
AcDbLine
 10
77.9999999999995737
 20
15.0000000000000071
 30
0.0
 11
83.9999999999995737
 21
15.0000000000000071
 31
0.0
  0
ARC
  5
EC
100
AcDbEntity
  8
cut
 62
256
370
-1
 48
1.0
  6
BYLAYER
100
AcDbCircle
 10
-54.0000000000004832
 20
25.0000000000000142
 30
0.0
 40
22.0
100
AcDbArc
 50
269.9999999999999432
 51
0.0
  0
LINE
  5
ED
100
AcDbEntity
  8
cut
 62
256
370
-1
 48
1.0
  6
BYLAYER
100
AcDbLine
 10
83.9999999999995737
 20
15.0000000000000071
 30
0.0
 11
83.9999999999992895
 21
5.0000000000000071
 31
0.0
  0
ARC
  5
EE
100
AcDbEntity
  8
cut
 62
256
370
-1
 48
1.0
  6
BYLAYER
100
AcDbCircle
 10
-107.00000000000054
 20
-75.0000000000000142
 30
0.0
 40
22.0
100
AcDbArc
 50
180.0
 51
270.0
  0
LINE
  5
EF
100
AcDbEntity
  8
cut
 62
256
370
-1
 48
1.0
  6
BYLAYER
100
AcDbLine
 10
83.9999999999992895
 20
5.0000000000000071
 30
0.0
 11
77.99999999999946
 21
5.0000000000000071
 31
0.0
  0
ARC
  5
F0
100
AcDbEntity
  8
cut
 62
256
370
-1
 48
1.0
  6
BYLAYER
100
AcDbCircle
 10
-104.0000000000004832
 20
25.0000000000000142
 30
0.0
 40
22.0
100
AcDbArc
 50
180.0
 51
270.0
  0
LINE
  5
F1
100
AcDbEntity
  8
cut
 62
256
370
-1
 48
1.0
  6
BYLAYER
100
AcDbLine
 10
22.9999999999995168
 20
97.0000000000000142
 30
0.0
 11
12.9999999999995168
 21
97.0000000000000142
 31
0.0
  0
LINE
  5
F2
100
AcDbEntity
  8
cut
 62
256
370
-1
 48
1.0
  6
BYLAYER
100
AcDbLine
 10
77.99999999999946
 20
-4.9999999999999929
 30
0.0
 11
83.9999999999992895
 21
-4.9999999999999929
 31
0.0
  0
LINE
  5
F3
100
AcDbEntity
  8
cut
 62
256
370
-1
 48
1.0
  6
BYLAYER
100
AcDbLine
 10
83.9999999999992895
 20
-4.9999999999999929
 30
0.0
 11
83.9999999999995737
 21
-14.9999999999999929
 31
0.0
  0
LINE
  5
F4
100
AcDbEntity
  8
cut
 62
256
370
-1
 48
1.0
  6
BYLAYER
100
AcDbLine
 10
12.9999999999995168
 20
3.0000000000000142
 30
0.0
 11
22.9999999999995168
 21
3.0000000000000142
 31
0.0
  0
LINE
  5
F5
100
AcDbEntity
  8
cut
 62
256
370
-1
 48
1.0
  6
BYLAYER
100
AcDbLine
 10
83.9999999999995737
 20
-14.9999999999999929
 30
0.0
 11
77.9999999999995737
 21
-14.9999999999999929
 31
0.0
  0
LINE
  5
F6
100
AcDbEntity
  8
cut
 62
256
370
-1
 48
1.0
  6
BYLAYER
100
AcDbLine
 10
-29.0000000000004832
 20
55.0000000000000142
 30
0.0
 11
-29.0000000000004832
 21
45.0000000000000142
 31
0.0
  0
LINE
  5
F7
100
AcDbEntity
  8
cut
 62
256
370
-1
 48
1.0
  6
BYLAYER
100
AcDbLine
 10
64.9999999999995168
 20
55.0000000000000142
 30
0.0
 11
64.9999999999995168
 21
44.9999999999999858
 31
0.0
  0
LINE
  5
F8
100
AcDbEntity
  8
cut
 62
256
370
-1
 48
1.0
  6
BYLAYER
100
AcDbLine
 10
77.9999999999995168
 20
-24.9999999999999929
 30
0.0
 11
80.9999999999993463
 21
-24.9999999999999929
 31
0.0
  0
LINE
  5
F9
100
AcDbEntity
  8
cut
 62
256
370
-1
 48
1.0
  6
BYLAYER
100
AcDbLine
 10
12.99999999999946
 20
-3.0
 30
0.0
 11
22.99999999999946
 21
-3.0
 31
0.0
  0
LINE
  5
FA
100
AcDbEntity
  8
cut
 62
256
370
-1
 48
1.0
  6
BYLAYER
100
AcDbLine
 10
80.9999999999993463
 20
-24.9999999999999929
 30
0.0
 11
80.9999999999992895
 21
-60.2000000000004363
 31
0.0
  0
LINE
  5
FB
100
AcDbEntity
  8
cut
 62
256
370
-1
 48
1.0
  6
BYLAYER
100
AcDbLine
 10
-87.00000000000054
 20
-3.0000000000000142
 30
0.0
 11
-77.00000000000054
 21
-3.0000000000000142
 31
0.0
  0
LINE
  5
FC
100
AcDbEntity
  8
cut
 62
256
370
-1
 48
1.0
  6
BYLAYER
100
AcDbLine
 10
80.9999999999992895
 20
-60.2000000000004363
 30
0.0
 11
77.9999999999995168
 21
-60.2000000000004363
 31
0.0
  0
LINE
  5
FD
100
AcDbEntity
  8
cut
 62
256
370
-1
 48
1.0
  6
BYLAYER
100
AcDbLine
 10
-29.00000000000054
 20
-45.0
 30
0.0
 11
-29.00000000000054
 21
-55.0
 31
0.0
  0
LINE
  5
FE
100
AcDbEntity
  8
cut
 62
256
370
-1
 48
1.0
  6
BYLAYER
100
AcDbLine
 10
-32.00000000000054
 20
-35.0
 30
0.0
 11
-32.00000000000054
 21
-45.0
 31
0.0
  0
LINE
  5
FF
100
AcDbEntity
  8
cut
 62
256
370
-1
 48
1.0
  6
BYLAYER
100
AcDbLine
 10
77.9999999999995737
 20
-70.2000000000004434
 30
0.0
 11
83.9999999999993463
 21
-70.2000000000004434
 31
0.0
  0
LINE
  5
100
100
AcDbEntity
  8
cut
 62
256
370
-1
 48
1.0
  6
BYLAYER
100
AcDbLine
 10
-32.00000000000054
 20
-55.0
 30
0.0
 11
-32.00000000000054
 21
-65.0
 31
0.0
  0
LINE
  5
101
100
AcDbEntity
  8
cut
 62
256
370
-1
 48
1.0
  6
BYLAYER
100
AcDbLine
 10
83.9999999999993463
 20
-70.2000000000004434
 30
0.0
 11
83.9999999999992895
 21
-80.2000000000004434
 31
0.0
  0
LINE
  5
102
100
AcDbEntity
  8
cut
 62
256
370
-1
 48
1.0
  6
BYLAYER
100
AcDbLine
 10
12.99999999999946
 20
-97.0
 30
0.0
 11
22.99999999999946
 21
-97.0
 31
0.0
  0
LINE
  5
103
100
AcDbEntity
  8
cut
 62
256
370
-1
 48
1.0
  6
BYLAYER
100
AcDbLine
 10
83.9999999999992895
 20
-80.2000000000004434
 30
0.0
 11
77.9999999999995168
 21
-80.2000000000004434
 31
0.0
  0
LINE
  5
104
100
AcDbEntity
  8
cut
 62
256
370
-1
 48
1.0
  6
BYLAYER
100
AcDbLine
 10
64.99999999999946
 20
-45.0
 30
0.0
 11
64.99999999999946
 21
-55.0000000000000284
 31
0.0
  0
CIRCLE
  5
105
100
AcDbEntity
  8
cut
 62
256
370
-1
 48
1.0
  6
BYLAYER
100
AcDbCircle
 10
-79.0000000000004832
 20
90.0000000000000142
 30
0.0
 40
1.5
  0
LINE
  5
106
100
AcDbEntity
  8
cut
 62
256
370
-1
 48
1.0
  6
BYLAYER
100
AcDbLine
 10
77.9999999999995737
 20
-85.2000000000004434
 30
0.0
 11
141.9999999999994031
 21
-85.2000000000004434
 31
0.0
  0
CIRCLE
  5
107
100
AcDbEntity
  8
cut
 62
256
370
-1
 48
1.0
  6
BYLAYER
100
AcDbCircle
 10
17.99999999999946
 20
-9.9999999999999858
 30
0.0
 40
1.5
  0
LINE
  5
108
100
AcDbEntity
  8
cut
 62
256
370
-1
 48
1.0
  6
BYLAYER
100
AcDbLine
 10
141.9999999999994031
 20
-85.2000000000004434
 30
0.0
 11
141.99999999999946
 21
-80.2000000000004718
 31
0.0
  0
CIRCLE
  5
109
100
AcDbEntity
  8
cut
 62
256
370
-1
 48
1.0
  6
BYLAYER
100
AcDbCircle
 10
-79.0000000000004547
 20
10.0000000000000142
 30
0.0
 40
1.5
  0
LINE
  5
10A
100
AcDbEntity
  8
cut
 62
256
370
-1
 48
1.0
  6
BYLAYER
100
AcDbLine
 10
141.99999999999946
 20
-80.2000000000004718
 30
0.0
 11
138.9999999999993463
 21
-80.200000000000415
 31
0.0
  0
CIRCLE
  5
10B
100
AcDbEntity
  8
cut
 62
256
370
-1
 48
1.0
  6
BYLAYER
100
AcDbCircle
 10
17.9999999999994884
 20
-89.9999999999999858
 30
0.0
 40
1.5
  0
LINE
  5
10C
100
AcDbEntity
  8
cut
 62
256
370
-1
 48
1.0
  6
BYLAYER
100
AcDbLine
 10
138.9999999999993463
 20
-80.200000000000415
 30
0.0
 11
138.9999999999992895
 21
-70.2000000000004434
 31
0.0
  0
CIRCLE
  5
10D
100
AcDbEntity
  8
cut
 62
256
370
-1
 48
1.0
  6
BYLAYER
100
AcDbCircle
 10
17.9999999999995168
 20
90.0000000000000142
 30
0.0
 40
1.5
  0
LINE
  5
10E
100
AcDbEntity
  8
cut
 62
256
370
-1
 48
1.0
  6
BYLAYER
100
AcDbLine
 10
138.9999999999992895
 20
-70.2000000000004434
 30
0.0
 11
141.9999999999995168
 21
-70.2000000000004434
 31
0.0
  0
CIRCLE
  5
10F
100
AcDbEntity
  8
cut
 62
256
370
-1
 48
1.0
  6
BYLAYER
100
AcDbCircle
 10
17.9999999999995737
 20
10.0000000000000142
 30
0.0
 40
1.5
  0
LINE
  5
110
100
AcDbEntity
  8
cut
 62
256
370
-1
 48
1.0
  6
BYLAYER
100
AcDbLine
 10
141.9999999999995168
 20
-70.2000000000004434
 30
0.0
 11
141.9999999999995168
 21
-15.0000000000000213
 31
0.0
  0
LINE
  5
111
100
AcDbEntity
  8
cut
 62
256
370
-1
 48
1.0
  6
BYLAYER
100
AcDbLine
 10
-84.0000000000004832
 20
52.8786614661674292
 30
0.0
 11
-84.0000000000004832
 21
47.1213385338326276
 31
0.0
  0
LINE
  5
112
100
AcDbEntity
  8
cut
 62
256
370
-1
 48
1.0
  6
BYLAYER
100
AcDbLine
 10
141.9999999999995168
 20
-15.0000000000000213
 30
0.0
 11
138.9999999999994031
 21
-14.9999999999999787
 31
0.0
  0
LINE
  5
113
100
AcDbEntity
  8
cut
 62
256
370
-1
 48
1.0
  6
BYLAYER
100
AcDbLine
 10
-74.0000000000004832
 20
52.8786614661674577
 30
0.0
 11
-74.0000000000004832
 21
47.1213385338326418
 31
0.0
  0
LINE
  5
114
100
AcDbEntity
  8
cut
 62
256
370
-1
 48
1.0
  6
BYLAYER
100
AcDbLine
 10
138.9999999999994031
 20
-14.9999999999999787
 30
0.0
 11
138.9999999999994031
 21
-5.0000000000000213
 31
0.0
  0
LINE
  5
115
100
AcDbEntity
  8
cut
 62
256
370
-1
 48
1.0
  6
BYLAYER
100
AcDbLine
 10
-79.0000000000004832
 20
55.7701772799218958
 30
0.0
 11
-74.0000000000005116
 21
52.8786614661674292
 31
0.0
  0
LINE
  5
116
100
AcDbEntity
  8
cut
 62
256
370
-1
 48
1.0
  6
BYLAYER
100
AcDbLine
 10
-84.0000000000004832
 20
52.8786614661674008
 30
0.0
 11
-79.0000000000004832
 21
55.7701772799218958
 31
0.0
  0
LINE
  5
117
100
AcDbEntity
  8
cut
 62
256
370
-1
 48
1.0
  6
BYLAYER
100
AcDbLine
 10
138.9999999999994031
 20
-5.0000000000000213
 30
0.0
 11
141.9999999999993463
 21
-4.9999999999999503
 31
0.0
  0
LINE
  5
118
100
AcDbEntity
  8
cut
 62
256
370
-1
 48
1.0
  6
BYLAYER
100
AcDbLine
 10
-79.0000000000004832
 20
44.2298227200781469
 30
0.0
 11
-84.0000000000004832
 21
47.1213385338326276
 31
0.0
  0
LINE
  5
119
100
AcDbEntity
  8
cut
 62
256
370
-1
 48
1.0
  6
BYLAYER
100
AcDbLine
 10
-74.0000000000004832
 20
47.1213385338326418
 30
0.0
 11
-79.0000000000004832
 21
44.2298227200781469
 31
0.0
  0
LINE
  5
11A
100
AcDbEntity
  8
cut
 62
256
370
-1
 48
1.0
  6
BYLAYER
100
AcDbLine
 10
141.9999999999993463
 20
-4.9999999999999503
 30
0.0
 11
141.99999999999946
 21
4.9999999999999645
 31
0.0
  0
LINE
  5
11B
100
AcDbEntity
  8
cut
 62
256
370
-1
 48
1.0
  6
BYLAYER
100
AcDbLine
 10
-129.00000000000054
 20
-45.0000000000000142
 30
0.0
 11
-129.00000000000054
 21
-55.0000000000000142
 31
0.0
  0
LINE
  5
11C
100
AcDbEntity
  8
cut
 62
256
370
-1
 48
1.0
  6
BYLAYER
100
AcDbLine
 10
-87.00000000000054
 20
-97.0
 30
0.0
 11
-77.00000000000054
 21
-97.0
 31
0.0
  0
LINE
  5
11D
100
AcDbEntity
  8
cut
 62
256
370
-1
 48
1.0
  6
BYLAYER
100
AcDbLine
 10
141.99999999999946
 20
4.9999999999999645
 30
0.0
 11
138.9999999999994031
 21
5.0000000000000213
 31
0.0
  0
LINE
  5
11E
100
AcDbEntity
  8
cut
 62
256
370
-1
 48
1.0
  6
BYLAYER
100
AcDbLine
 10
-35.00000000000054
 20
-45.0000000000000071
 30
0.0
 11
-35.00000000000054
 21
-55.0000000000000355
 31
0.0
  0
LINE
  5
11F
100
AcDbEntity
  8
cut
 62
256
370
-1
 48
1.0
  6
BYLAYER
100
AcDbLine
 10
138.9999999999994031
 20
5.0000000000000213
 30
0.0
 11
138.9999999999994031
 21
14.9999999999999645
 31
0.0
  0
LINE
  5
120
100
AcDbEntity
  8
cut
 62
256
370
-1
 48
1.0
  6
BYLAYER
100
AcDbLine
 10
138.9999999999994031
 20
14.9999999999999645
 30
0.0
 11
141.9999999999994031
 21
15.0000000000000213
 31
0.0
  0
LINE
  5
121
100
AcDbEntity
  8
cut
 62
256
370
-1
 48
1.0
  6
BYLAYER
100
AcDbLine
 10
141.9999999999994031
 20
15.0000000000000213
 30
0.0
 11
141.9999999999993463
 21
70.2000000000004434
 31
0.0
  0
LINE
  5
122
100
AcDbEntity
  8
cut
 62
256
370
-1
 48
1.0
  6
BYLAYER
100
AcDbLine
 10
141.9999999999993463
 20
70.2000000000004434
 30
0.0
 11
138.9999999999994031
 21
70.2000000000004434
 31
0.0
  0
LINE
  5
123
100
AcDbEntity
  8
cut
 62
256
370
-1
 48
1.0
  6
BYLAYER
100
AcDbLine
 10
138.9999999999994031
 20
70.2000000000004434
 30
0.0
 11
138.9999999999994031
 21
80.200000000000415
 31
0.0
  0
LINE
  5
124
100
AcDbEntity
  8
cut
 62
256
370
-1
 48
1.0
  6
BYLAYER
100
AcDbLine
 10
138.9999999999994031
 20
80.200000000000415
 30
0.0
 11
141.9999999999995168
 21
80.2000000000004434
 31
0.0
  0
LINE
  5
125
100
AcDbEntity
  8
cut
 62
256
370
-1
 48
1.0
  6
BYLAYER
100
AcDbLine
 10
141.9999999999995168
 20
80.2000000000004434
 30
0.0
 11
141.9999999999995168
 21
85.2000000000004434
 31
0.0
  0
LINE
  5
126
100
AcDbEntity
  8
cut
 62
256
370
-1
 48
1.0
  6
BYLAYER
100
AcDbLine
 10
141.9999999999995168
 20
85.2000000000004434
 30
0.0
 11
109.9999999999995168
 21
85.200000000000415
 31
0.0
  0
LINE
  5
127
100
AcDbEntity
  8
cut
 62
256
370
-1
 48
1.0
  6
BYLAYER
100
AcDbLine
 10
109.9999999999995168
 20
85.200000000000415
 30
0.0
 11
109.9999999999994031
 21
80.2000000000004434
 31
0.0
  0
LINE
  5
128
100
AcDbEntity
  8
cut
 62
256
370
-1
 48
1.0
  6
BYLAYER
100
AcDbLine
 10
106.99999999999946
 20
80.200000000000415
 30
0.0
 11
115.9999999999993463
 21
80.2000000000004718
 31
0.0
  0
LINE
  5
129
100
AcDbEntity
  8
cut
 62
256
370
-1
 48
1.0
  6
BYLAYER
100
AcDbLine
 10
115.9999999999993463
 20
80.2000000000004718
 30
0.0
 11
115.9999999999995737
 21
70.2000000000004434
 31
0.0
  0
LINE
  5
12A
100
AcDbEntity
  8
cut
 62
256
370
-1
 48
1.0
  6
BYLAYER
100
AcDbLine
 10
115.9999999999995737
 20
70.2000000000004434
 30
0.0
 11
106.99999999999946
 21
70.2000000000004434
 31
0.0
  0
LINE
  5
12B
100
AcDbEntity
  8
cut
 62
256
370
-1
 48
1.0
  6
BYLAYER
100
AcDbLine
 10
106.99999999999946
 20
70.2000000000004434
 30
0.0
 11
106.9999999999994031
 21
80.200000000000415
 31
0.0
  0
LINE
  5
12C
100
AcDbEntity
  8
cut
 62
256
370
-1
 48
1.0
  6
BYLAYER
100
AcDbLine
 10
109.9999999999995737
 20
70.2000000000004718
 30
0.0
 11
109.9999999999995737
 21
60.2000000000004505
 31
0.0
  0
LINE
  5
12D
100
AcDbEntity
  8
cut
 62
256
370
-1
 48
1.0
  6
BYLAYER
100
AcDbLine
 10
109.9999999999995737
 20
60.2000000000004505
 30
0.0
 11
112.9999999999993463
 21
60.2000000000004505
 31
0.0
  0
LINE
  5
12E
100
AcDbEntity
  8
cut
 62
256
370
-1
 48
1.0
  6
BYLAYER
100
AcDbLine
 10
112.9999999999993463
 20
60.2000000000004505
 30
0.0
 11
112.9999999999993463
 21
24.9999999999999929
 31
0.0
  0
LINE
  5
12F
100
AcDbEntity
  8
cut
 62
256
370
-1
 48
1.0
  6
BYLAYER
100
AcDbLine
 10
112.9999999999993463
 20
24.9999999999999929
 30
0.0
 11
109.9999999999993463
 21
25.0000000000000071
 31
0.0
  0
LINE
  5
130
100
AcDbEntity
  8
cut
 62
256
370
-1
 48
1.0
  6
BYLAYER
100
AcDbLine
 10
109.9999999999993463
 20
25.0000000000000071
 30
0.0
 11
109.9999999999993463
 21
15.0000000000000213
 31
0.0
  0
LINE
  5
131
100
AcDbEntity
  8
cut
 62
256
370
-1
 48
1.0
  6
BYLAYER
100
AcDbLine
 10
106.9999999999994031
 20
14.9999999999999645
 30
0.0
 11
115.9999999999995737
 21
15.0000000000000071
 31
0.0
  0
LINE
  5
132
100
AcDbEntity
  8
cut
 62
256
370
-1
 48
1.0
  6
BYLAYER
100
AcDbLine
 10
115.9999999999995737
 20
15.0000000000000071
 30
0.0
 11
115.9999999999992895
 21
5.0000000000000071
 31
0.0
  0
LINE
  5
133
100
AcDbEntity
  8
cut
 62
256
370
-1
 48
1.0
  6
BYLAYER
100
AcDbLine
 10
115.9999999999992895
 20
5.0000000000000071
 30
0.0
 11
106.9999999999994031
 21
5.0000000000000213
 31
0.0
  0
LINE
  5
134
100
AcDbEntity
  8
cut
 62
256
370
-1
 48
1.0
  6
BYLAYER
100
AcDbLine
 10
106.9999999999994031
 20
5.0000000000000213
 30
0.0
 11
106.9999999999994031
 21
14.9999999999999645
 31
0.0
  0
LINE
  5
135
100
AcDbEntity
  8
cut
 62
256
370
-1
 48
1.0
  6
BYLAYER
100
AcDbLine
 10
109.9999999999993463
 20
4.9999999999999787
 30
0.0
 11
109.9999999999995168
 21
-4.9999999999999503
 31
0.0
  0
LINE
  5
136
100
AcDbEntity
  8
cut
 62
256
370
-1
 48
1.0
  6
BYLAYER
100
AcDbLine
 10
106.9999999999994031
 20
-5.0000000000000213
 30
0.0
 11
115.9999999999992895
 21
-4.9999999999999929
 31
0.0
  0
LINE
  5
137
100
AcDbEntity
  8
cut
 62
256
370
-1
 48
1.0
  6
BYLAYER
100
AcDbLine
 10
115.9999999999992895
 20
-4.9999999999999929
 30
0.0
 11
115.9999999999995737
 21
-14.9999999999999929
 31
0.0
  0
LINE
  5
138
100
AcDbEntity
  8
cut
 62
256
370
-1
 48
1.0
  6
BYLAYER
100
AcDbLine
 10
115.9999999999995737
 20
-14.9999999999999929
 30
0.0
 11
106.9999999999994031
 21
-14.9999999999999787
 31
0.0
  0
LINE
  5
139
100
AcDbEntity
  8
cut
 62
256
370
-1
 48
1.0
  6
BYLAYER
100
AcDbLine
 10
106.9999999999994031
 20
-14.9999999999999787
 30
0.0
 11
106.9999999999994031
 21
-5.0000000000000213
 31
0.0
  0
LINE
  5
13A
100
AcDbEntity
  8
cut
 62
256
370
-1
 48
1.0
  6
BYLAYER
100
AcDbLine
 10
109.9999999999994031
 20
-15.0000000000000213
 30
0.0
 11
109.9999999999995737
 21
-25.0000000000000213
 31
0.0
  0
LINE
  5
13B
100
AcDbEntity
  8
cut
 62
256
370
-1
 48
1.0
  6
BYLAYER
100
AcDbLine
 10
109.9999999999995737
 20
-60.2000000000005215
 30
0.0
 11
112.9999999999994031
 21
-60.2000000000004931
 31
0.0
  0
LINE
  5
13C
100
AcDbEntity
  8
cut
 62
256
370
-1
 48
1.0
  6
BYLAYER
100
AcDbLine
 10
109.9999999999995737
 20
-25.0000000000000213
 30
0.0
 11
112.9999999999994031
 21
-24.9999999999999929
 31
0.0
  0
LINE
  5
13D
100
AcDbEntity
  8
cut
 62
256
370
-1
 48
1.0
  6
BYLAYER
100
AcDbLine
 10
112.9999999999994031
 20
-24.9999999999999929
 30
0.0
 11
112.9999999999992895
 21
-60.2000000000004363
 31
0.0
  0
LINE
  5
13E
100
AcDbEntity
  8
cut
 62
256
370
-1
 48
1.0
  6
BYLAYER
100
AcDbLine
 10
112.9999999999992895
 20
-60.2000000000004363
 30
0.0
 11
109.9999999999995168
 21
-60.2000000000003652
 31
0.0
  0
LINE
  5
13F
100
AcDbEntity
  8
cut
 62
256
370
-1
 48
1.0
  6
BYLAYER
100
AcDbLine
 10
109.9999999999995168
 20
-60.2000000000003652
 30
0.0
 11
109.9999999999995737
 21
-70.2000000000004434
 31
0.0
  0
LINE
  5
140
100
AcDbEntity
  8
cut
 62
256
370
-1
 48
1.0
  6
BYLAYER
100
AcDbLine
 10
106.9999999999993463
 20
-70.2000000000004434
 30
0.0
 11
115.9999999999994031
 21
-70.2000000000004434
 31
0.0
  0
LINE
  5
141
100
AcDbEntity
  8
cut
 62
256
370
-1
 48
1.0
  6
BYLAYER
100
AcDbLine
 10
115.9999999999994031
 20
-70.2000000000004434
 30
0.0
 11
115.9999999999992895
 21
-80.2000000000004434
 31
0.0
  0
LINE
  5
142
100
AcDbEntity
  8
cut
 62
256
370
-1
 48
1.0
  6
BYLAYER
100
AcDbLine
 10
115.9999999999992895
 20
-80.2000000000004434
 30
0.0
 11
106.9999999999993463
 21
-80.200000000000415
 31
0.0
  0
LINE
  5
143
100
AcDbEntity
  8
cut
 62
256
370
-1
 48
1.0
  6
BYLAYER
100
AcDbLine
 10
106.9999999999993463
 20
-80.200000000000415
 30
0.0
 11
106.9999999999993463
 21
-70.2000000000004434
 31
0.0
  0
LINE
  5
144
100
AcDbEntity
  8
cut
 62
256
370
-1
 48
1.0
  6
BYLAYER
100
AcDbLine
 10
109.9999999999993463
 20
-80.2000000000004718
 30
0.0
 11
109.9999999999995737
 21
-85.2000000000004434
 31
0.0
  0
LINE
  5
145
100
AcDbEntity
  8
cut
 62
256
370
-1
 48
1.0
  6
BYLAYER
100
AcDbLine
 10
109.9999999999995168
 20
-60.2000000000003652
 30
0.0
 11
109.9999999999996305
 21
-25.0000000000000213
 31
0.0
  0
LINE
  5
146
100
AcDbEntity
  8
cut
 62
256
370
-1
 48
1.0
  6
BYLAYER
100
AcDbLine
 10
109.9999999999992895
 20
25.0000000000000071
 30
0.0
 11
109.9999999999993463
 21
60.2000000000004505
 31
0.0
  0
LINE
  5
147
100
AcDbEntity
  8
cut
 62
256
370
-1
 48
1.0
  6
BYLAYER
100
AcDbLine
 10
109.9999999999994031
 20
85.2000000000003865
 30
0.0
 11
77.9999999999995168
 21
85.200000000000415
 31
0.0
  0
LINE
  5
148
100
AcDbEntity
  8
cut
 62
256
370
-1
 48
1.0
  6
BYLAYER
100
AcDbLine
 10
93.7999999999994145
 20
24.999999999999325
 30
0.0
 11
80.9999999999993463
 21
24.9999999999992966
 31
0.0
  0
LINE
  5
149
100
AcDbEntity
  8
cut
 62
256
370
-1
 48
1.0
  6
BYLAYER
100
AcDbLine
 10
93.7999999999994145
 20
26.5999999999993761
 30
0.0
 11
80.9999999999993463
 21
26.5999999999993477
 31
0.0
  0
LINE
  5
14A
100
AcDbEntity
  8
cut
 62
256
370
-1
 48
1.0
  6
BYLAYER
100
AcDbLine
 10
93.7999999999994145
 20
28.1999999999994273
 30
0.0
 11
80.9999999999993463
 21
28.1999999999993989
 31
0.0
  0
LINE
  5
14B
100
AcDbEntity
  8
cut
 62
256
370
-1
 48
1.0
  6
BYLAYER
100
AcDbLine
 10
93.7999999999994145
 20
29.7999999999994785
 30
0.0
 11
80.9999999999993463
 21
29.79999999999945
 31
0.0
  0
LINE
  5
14C
100
AcDbEntity
  8
cut
 62
256
370
-1
 48
1.0
  6
BYLAYER
100
AcDbLine
 10
93.7999999999994145
 20
31.3999999999995296
 30
0.0
 11
80.9999999999993463
 21
31.3999999999995012
 31
0.0
  0
LINE
  5
14D
100
AcDbEntity
  8
cut
 62
256
370
-1
 48
1.0
  6
BYLAYER
100
AcDbLine
 10
93.7999999999994145
 20
32.9999999999995808
 30
0.0
 11
80.9999999999993463
 21
32.9999999999995524
 31
0.0
  0
LINE
  5
14E
100
AcDbEntity
  8
cut
 62
256
370
-1
 48
1.0
  6
BYLAYER
100
AcDbLine
 10
93.7999999999994145
 20
34.5999999999996319
 30
0.0
 11
80.9999999999993463
 21
34.5999999999996035
 31
0.0
  0
LINE
  5
14F
100
AcDbEntity
  8
cut
 62
256
370
-1
 48
1.0
  6
BYLAYER
100
AcDbLine
 10
93.7999999999994145
 20
36.1999999999996831
 30
0.0
 11
80.9999999999993463
 21
36.1999999999996547
 31
0.0
  0
LINE
  5
150
100
AcDbEntity
  8
cut
 62
256
370
-1
 48
1.0
  6
BYLAYER
100
AcDbLine
 10
93.7999999999994145
 20
37.7999999999997343
 30
0.0
 11
80.9999999999993463
 21
37.7999999999997058
 31
0.0
  0
LINE
  5
151
100
AcDbEntity
  8
cut
 62
256
370
-1
 48
1.0
  6
BYLAYER
100
AcDbLine
 10
93.7999999999994145
 20
39.3999999999997854
 30
0.0
 11
80.9999999999993463
 21
39.399999999999757
 31
0.0
  0
LINE
  5
152
100
AcDbEntity
  8
cut
 62
256
370
-1
 48
1.0
  6
BYLAYER
100
AcDbLine
 10
93.7999999999994145
 20
40.9999999999998366
 30
0.0
 11
80.9999999999993463
 21
40.9999999999998082
 31
0.0
  0
LINE
  5
153
100
AcDbEntity
  8
cut
 62
256
370
-1
 48
1.0
  6
BYLAYER
100
AcDbLine
 10
93.7999999999994145
 20
42.5999999999998877
 30
0.0
 11
80.9999999999993463
 21
42.5999999999998593
 31
0.0
  0
LINE
  5
154
100
AcDbEntity
  8
cut
 62
256
370
-1
 48
1.0
  6
BYLAYER
100
AcDbLine
 10
93.7999999999994145
 20
44.1999999999999389
 30
0.0
 11
80.9999999999993463
 21
44.1999999999999105
 31
0.0
  0
LINE
  5
155
100
AcDbEntity
  8
cut
 62
256
370
-1
 48
1.0
  6
BYLAYER
100
AcDbLine
 10
93.7999999999994145
 20
45.7999999999999901
 30
0.0
 11
80.9999999999993463
 21
45.7999999999999616
 31
0.0
  0
LINE
  5
156
100
AcDbEntity
  8
cut
 62
256
370
-1
 48
1.0
  6
BYLAYER
100
AcDbLine
 10
93.7999999999994145
 20
47.4000000000000412
 30
0.0
 11
80.9999999999993463
 21
47.4000000000000128
 31
0.0
  0
LINE
  5
157
100
AcDbEntity
  8
cut
 62
256
370
-1
 48
1.0
  6
BYLAYER
100
AcDbLine
 10
93.7999999999994145
 20
49.0000000000000924
 30
0.0
 11
80.9999999999993463
 21
49.0000000000000639
 31
0.0
  0
LINE
  5
158
100
AcDbEntity
  8
cut
 62
256
370
-1
 48
1.0
  6
BYLAYER
100
AcDbLine
 10
93.7999999999994145
 20
50.6000000000001435
 30
0.0
 11
80.9999999999993463
 21
50.6000000000001151
 31
0.0
  0
LINE
  5
159
100
AcDbEntity
  8
cut
 62
256
370
-1
 48
1.0
  6
BYLAYER
100
AcDbLine
 10
93.7999999999994145
 20
52.2000000000001947
 30
0.0
 11
80.9999999999993463
 21
52.2000000000001663
 31
0.0
  0
LINE
  5
15A
100
AcDbEntity
  8
cut
 62
256
370
-1
 48
1.0
  6
BYLAYER
100
AcDbLine
 10
93.7999999999994145
 20
53.8000000000002458
 30
0.0
 11
80.9999999999993463
 21
53.8000000000002174
 31
0.0
  0
LINE
  5
15B
100
AcDbEntity
  8
cut
 62
256
370
-1
 48
1.0
  6
BYLAYER
100
AcDbLine
 10
93.7999999999994145
 20
55.400000000000297
 30
0.0
 11
80.9999999999993463
 21
55.4000000000002686
 31
0.0
  0
LINE
  5
15C
100
AcDbEntity
  8
cut
 62
256
370
-1
 48
1.0
  6
BYLAYER
100
AcDbLine
 10
93.7999999999994145
 20
57.0000000000003482
 30
0.0
 11
80.9999999999993463
 21
57.0000000000003197
 31
0.0
  0
LINE
  5
15D
100
AcDbEntity
  8
cut
 62
256
370
-1
 48
1.0
  6
BYLAYER
100
AcDbLine
 10
93.7999999999994145
 20
58.6000000000003993
 30
0.0
 11
80.9999999999993463
 21
58.6000000000003709
 31
0.0
  0
LINE
  5
15E
100
AcDbEntity
  8
cut
 62
256
370
-1
 48
1.0
  6
BYLAYER
100
AcDbLine
 10
93.7999999999994145
 20
60.2000000000004505
 30
0.0
 11
80.9999999999993463
 21
60.2000000000004221
 31
0.0
  0
LINE
  5
15F
100
AcDbEntity
  8
cut
 62
256
370
-1
 48
1.0
  6
BYLAYER
100
AcDbLine
 10
86.7499999999994031
 20
25.7999999999993648
 30
0.0
 11
80.9999999999994031
 21
25.7999999999993648
 31
0.0
  0
LINE
  5
160
100
AcDbEntity
  8
cut
 62
256
370
-1
 48
1.0
  6
BYLAYER
100
AcDbLine
 10
86.7499999999994031
 20
27.3999999999994159
 30
0.0
 11
80.9999999999994031
 21
27.3999999999994159
 31
0.0
  0
LINE
  5
161
100
AcDbEntity
  8
cut
 62
256
370
-1
 48
1.0
  6
BYLAYER
100
AcDbLine
 10
86.7499999999994031
 20
28.9999999999994671
 30
0.0
 11
80.9999999999994031
 21
28.9999999999994671
 31
0.0
  0
LINE
  5
162
100
AcDbEntity
  8
cut
 62
256
370
-1
 48
1.0
  6
BYLAYER
100
AcDbLine
 10
86.7499999999994031
 20
30.5999999999995183
 30
0.0
 11
80.9999999999994031
 21
30.5999999999995183
 31
0.0
  0
LINE
  5
163
100
AcDbEntity
  8
cut
 62
256
370
-1
 48
1.0
  6
BYLAYER
100
AcDbLine
 10
86.7499999999994031
 20
32.1999999999995694
 30
0.0
 11
80.9999999999994031
 21
32.1999999999995694
 31
0.0
  0
LINE
  5
164
100
AcDbEntity
  8
cut
 62
256
370
-1
 48
1.0
  6
BYLAYER
100
AcDbLine
 10
86.7499999999994031
 20
33.7999999999996206
 30
0.0
 11
80.9999999999994031
 21
33.7999999999996206
 31
0.0
  0
LINE
  5
165
100
AcDbEntity
  8
cut
 62
256
370
-1
 48
1.0
  6
BYLAYER
100
AcDbLine
 10
86.7499999999994031
 20
35.3999999999996717
 30
0.0
 11
80.9999999999994031
 21
35.3999999999996717
 31
0.0
  0
LINE
  5
166
100
AcDbEntity
  8
cut
 62
256
370
-1
 48
1.0
  6
BYLAYER
100
AcDbLine
 10
86.7499999999994031
 20
36.9999999999997229
 30
0.0
 11
80.9999999999994031
 21
36.9999999999997229
 31
0.0
  0
LINE
  5
167
100
AcDbEntity
  8
cut
 62
256
370
-1
 48
1.0
  6
BYLAYER
100
AcDbLine
 10
86.7499999999994031
 20
38.599999999999774
 30
0.0
 11
80.9999999999994031
 21
38.599999999999774
 31
0.0
  0
LINE
  5
168
100
AcDbEntity
  8
cut
 62
256
370
-1
 48
1.0
  6
BYLAYER
100
AcDbLine
 10
86.7499999999994031
 20
40.1999999999998252
 30
0.0
 11
80.9999999999994031
 21
40.1999999999998252
 31
0.0
  0
LINE
  5
169
100
AcDbEntity
  8
cut
 62
256
370
-1
 48
1.0
  6
BYLAYER
100
AcDbLine
 10
86.7499999999994031
 20
41.7999999999998764
 30
0.0
 11
80.9999999999994031
 21
41.7999999999998764
 31
0.0
  0
LINE
  5
16A
100
AcDbEntity
  8
cut
 62
256
370
-1
 48
1.0
  6
BYLAYER
100
AcDbLine
 10
86.7499999999994031
 20
43.3999999999999275
 30
0.0
 11
80.9999999999994031
 21
43.3999999999999275
 31
0.0
  0
LINE
  5
16B
100
AcDbEntity
  8
cut
 62
256
370
-1
 48
1.0
  6
BYLAYER
100
AcDbLine
 10
86.7499999999994031
 20
44.9999999999999787
 30
0.0
 11
80.9999999999994031
 21
44.9999999999999787
 31
0.0
  0
LINE
  5
16C
100
AcDbEntity
  8
cut
 62
256
370
-1
 48
1.0
  6
BYLAYER
100
AcDbLine
 10
86.7499999999994031
 20
46.6000000000000298
 30
0.0
 11
80.9999999999994031
 21
46.6000000000000298
 31
0.0
  0
LINE
  5
16D
100
AcDbEntity
  8
cut
 62
256
370
-1
 48
1.0
  6
BYLAYER
100
AcDbLine
 10
86.7499999999994031
 20
48.200000000000081
 30
0.0
 11
80.9999999999994031
 21
48.200000000000081
 31
0.0
  0
LINE
  5
16E
100
AcDbEntity
  8
cut
 62
256
370
-1
 48
1.0
  6
BYLAYER
100
AcDbLine
 10
86.7499999999994031
 20
49.8000000000001322
 30
0.0
 11
80.9999999999994031
 21
49.8000000000001322
 31
0.0
  0
LINE
  5
16F
100
AcDbEntity
  8
cut
 62
256
370
-1
 48
1.0
  6
BYLAYER
100
AcDbLine
 10
86.7499999999994031
 20
51.4000000000001833
 30
0.0
 11
80.9999999999994031
 21
51.4000000000001833
 31
0.0
  0
LINE
  5
170
100
AcDbEntity
  8
cut
 62
256
370
-1
 48
1.0
  6
BYLAYER
100
AcDbLine
 10
86.7499999999994031
 20
53.0000000000002345
 30
0.0
 11
80.9999999999994031
 21
53.0000000000002345
 31
0.0
  0
LINE
  5
171
100
AcDbEntity
  8
cut
 62
256
370
-1
 48
1.0
  6
BYLAYER
100
AcDbLine
 10
86.7499999999994031
 20
54.6000000000002856
 30
0.0
 11
80.9999999999994031
 21
54.6000000000002856
 31
0.0
  0
LINE
  5
172
100
AcDbEntity
  8
cut
 62
256
370
-1
 48
1.0
  6
BYLAYER
100
AcDbLine
 10
86.7499999999994031
 20
56.2000000000003368
 30
0.0
 11
80.9999999999994031
 21
56.2000000000003368
 31
0.0
  0
LINE
  5
173
100
AcDbEntity
  8
cut
 62
256
370
-1
 48
1.0
  6
BYLAYER
100
AcDbLine
 10
86.7499999999994031
 20
57.800000000000388
 30
0.0
 11
80.9999999999994031
 21
57.800000000000388
 31
0.0
  0
LINE
  5
174
100
AcDbEntity
  8
cut
 62
256
370
-1
 48
1.0
  6
BYLAYER
100
AcDbLine
 10
86.7499999999994031
 20
59.4000000000004391
 30
0.0
 11
80.9999999999994031
 21
59.4000000000004391
 31
0.0
  0
LINE
  5
175
100
AcDbEntity
  8
cut
 62
256
370
-1
 48
1.0
  6
BYLAYER
100
AcDbLine
 10
101.2499999999995168
 20
25.7999999999993648
 30
0.0
 11
89.7499999999994031
 21
25.7999999999993648
 31
0.0
  0
LINE
  5
176
100
AcDbEntity
  8
cut
 62
256
370
-1
 48
1.0
  6
BYLAYER
100
AcDbLine
 10
101.2499999999995168
 20
27.3999999999994159
 30
0.0
 11
89.7499999999994031
 21
27.3999999999994159
 31
0.0
  0
LINE
  5
177
100
AcDbEntity
  8
cut
 62
256
370
-1
 48
1.0
  6
BYLAYER
100
AcDbLine
 10
101.2499999999995168
 20
28.9999999999994671
 30
0.0
 11
89.7499999999994031
 21
28.9999999999994671
 31
0.0
  0
LINE
  5
178
100
AcDbEntity
  8
cut
 62
256
370
-1
 48
1.0
  6
BYLAYER
100
AcDbLine
 10
101.2499999999995168
 20
30.5999999999995183
 30
0.0
 11
89.7499999999994031
 21
30.5999999999995183
 31
0.0
  0
LINE
  5
179
100
AcDbEntity
  8
cut
 62
256
370
-1
 48
1.0
  6
BYLAYER
100
AcDbLine
 10
101.2499999999995168
 20
32.1999999999995694
 30
0.0
 11
89.7499999999994031
 21
32.1999999999995694
 31
0.0
  0
LINE
  5
17A
100
AcDbEntity
  8
cut
 62
256
370
-1
 48
1.0
  6
BYLAYER
100
AcDbLine
 10
101.2499999999995168
 20
33.7999999999996206
 30
0.0
 11
89.7499999999994031
 21
33.7999999999996206
 31
0.0
  0
LINE
  5
17B
100
AcDbEntity
  8
cut
 62
256
370
-1
 48
1.0
  6
BYLAYER
100
AcDbLine
 10
101.2499999999995168
 20
35.3999999999996717
 30
0.0
 11
89.7499999999994031
 21
35.3999999999996717
 31
0.0
  0
LINE
  5
17C
100
AcDbEntity
  8
cut
 62
256
370
-1
 48
1.0
  6
BYLAYER
100
AcDbLine
 10
101.2499999999995168
 20
36.9999999999997229
 30
0.0
 11
89.7499999999994031
 21
36.9999999999997229
 31
0.0
  0
LINE
  5
17D
100
AcDbEntity
  8
cut
 62
256
370
-1
 48
1.0
  6
BYLAYER
100
AcDbLine
 10
101.2499999999995168
 20
38.599999999999774
 30
0.0
 11
89.7499999999994031
 21
38.599999999999774
 31
0.0
  0
LINE
  5
17E
100
AcDbEntity
  8
cut
 62
256
370
-1
 48
1.0
  6
BYLAYER
100
AcDbLine
 10
101.2499999999995168
 20
40.1999999999998252
 30
0.0
 11
89.7499999999994031
 21
40.1999999999998252
 31
0.0
  0
LINE
  5
17F
100
AcDbEntity
  8
cut
 62
256
370
-1
 48
1.0
  6
BYLAYER
100
AcDbLine
 10
101.2499999999995168
 20
41.7999999999998764
 30
0.0
 11
89.7499999999994031
 21
41.7999999999998764
 31
0.0
  0
LINE
  5
180
100
AcDbEntity
  8
cut
 62
256
370
-1
 48
1.0
  6
BYLAYER
100
AcDbLine
 10
101.2499999999995168
 20
43.3999999999999275
 30
0.0
 11
89.7499999999994031
 21
43.3999999999999275
 31
0.0
  0
LINE
  5
181
100
AcDbEntity
  8
cut
 62
256
370
-1
 48
1.0
  6
BYLAYER
100
AcDbLine
 10
101.2499999999995168
 20
44.9999999999999787
 30
0.0
 11
89.7499999999994031
 21
44.9999999999999787
 31
0.0
  0
LINE
  5
182
100
AcDbEntity
  8
cut
 62
256
370
-1
 48
1.0
  6
BYLAYER
100
AcDbLine
 10
101.2499999999995168
 20
46.6000000000000298
 30
0.0
 11
89.7499999999994031
 21
46.6000000000000298
 31
0.0
  0
LINE
  5
183
100
AcDbEntity
  8
cut
 62
256
370
-1
 48
1.0
  6
BYLAYER
100
AcDbLine
 10
101.2499999999995168
 20
48.200000000000081
 30
0.0
 11
89.7499999999994031
 21
48.200000000000081
 31
0.0
  0
LINE
  5
184
100
AcDbEntity
  8
cut
 62
256
370
-1
 48
1.0
  6
BYLAYER
100
AcDbLine
 10
101.2499999999995168
 20
49.8000000000001322
 30
0.0
 11
89.7499999999994031
 21
49.8000000000001322
 31
0.0
  0
LINE
  5
185
100
AcDbEntity
  8
cut
 62
256
370
-1
 48
1.0
  6
BYLAYER
100
AcDbLine
 10
101.2499999999995168
 20
51.4000000000001833
 30
0.0
 11
89.7499999999994031
 21
51.4000000000001833
 31
0.0
  0
LINE
  5
186
100
AcDbEntity
  8
cut
 62
256
370
-1
 48
1.0
  6
BYLAYER
100
AcDbLine
 10
101.2499999999995168
 20
53.0000000000002345
 30
0.0
 11
89.7499999999994031
 21
53.0000000000002345
 31
0.0
  0
LINE
  5
187
100
AcDbEntity
  8
cut
 62
256
370
-1
 48
1.0
  6
BYLAYER
100
AcDbLine
 10
101.2499999999995168
 20
54.6000000000002856
 30
0.0
 11
89.7499999999994031
 21
54.6000000000002856
 31
0.0
  0
LINE
  5
188
100
AcDbEntity
  8
cut
 62
256
370
-1
 48
1.0
  6
BYLAYER
100
AcDbLine
 10
101.2499999999995168
 20
56.2000000000003368
 30
0.0
 11
89.7499999999994031
 21
56.2000000000003368
 31
0.0
  0
LINE
  5
189
100
AcDbEntity
  8
cut
 62
256
370
-1
 48
1.0
  6
BYLAYER
100
AcDbLine
 10
101.2499999999995168
 20
57.800000000000388
 30
0.0
 11
89.7499999999994031
 21
57.800000000000388
 31
0.0
  0
LINE
  5
18A
100
AcDbEntity
  8
cut
 62
256
370
-1
 48
1.0
  6
BYLAYER
100
AcDbLine
 10
101.2499999999995168
 20
59.4000000000004391
 30
0.0
 11
89.7499999999994031
 21
59.4000000000004391
 31
0.0
  0
LINE
  5
18B
100
AcDbEntity
  8
cut
 62
256
370
-1
 48
1.0
  6
BYLAYER
100
AcDbLine
 10
96.99999999999946
 20
24.999999999999325
 30
0.0
 11
109.9999999999993463
 21
24.9999999999992681
 31
0.0
  0
LINE
  5
18C
100
AcDbEntity
  8
cut
 62
256
370
-1
 48
1.0
  6
BYLAYER
100
AcDbLine
 10
96.99999999999946
 20
26.5999999999993761
 30
0.0
 11
109.9999999999993463
 21
26.5999999999993193
 31
0.0
  0
LINE
  5
18D
100
AcDbEntity
  8
cut
 62
256
370
-1
 48
1.0
  6
BYLAYER
100
AcDbLine
 10
96.99999999999946
 20
28.1999999999994273
 30
0.0
 11
109.9999999999993463
 21
28.1999999999993705
 31
0.0
  0
LINE
  5
18E
100
AcDbEntity
  8
cut
 62
256
370
-1
 48
1.0
  6
BYLAYER
100
AcDbLine
 10
96.99999999999946
 20
29.7999999999994785
 30
0.0
 11
109.9999999999993463
 21
29.7999999999994216
 31
0.0
  0
LINE
  5
18F
100
AcDbEntity
  8
cut
 62
256
370
-1
 48
1.0
  6
BYLAYER
100
AcDbLine
 10
96.99999999999946
 20
31.3999999999995296
 30
0.0
 11
109.9999999999993463
 21
31.3999999999994728
 31
0.0
  0
LINE
  5
190
100
AcDbEntity
  8
cut
 62
256
370
-1
 48
1.0
  6
BYLAYER
100
AcDbLine
 10
96.99999999999946
 20
32.9999999999995808
 30
0.0
 11
109.9999999999993463
 21
32.9999999999995239
 31
0.0
  0
LINE
  5
191
100
AcDbEntity
  8
cut
 62
256
370
-1
 48
1.0
  6
BYLAYER
100
AcDbLine
 10
96.99999999999946
 20
34.5999999999996319
 30
0.0
 11
109.9999999999993463
 21
34.5999999999995751
 31
0.0
  0
LINE
  5
192
100
AcDbEntity
  8
cut
 62
256
370
-1
 48
1.0
  6
BYLAYER
100
AcDbLine
 10
96.99999999999946
 20
36.1999999999996831
 30
0.0
 11
109.9999999999993463
 21
36.1999999999996263
 31
0.0
  0
LINE
  5
193
100
AcDbEntity
  8
cut
 62
256
370
-1
 48
1.0
  6
BYLAYER
100
AcDbLine
 10
96.99999999999946
 20
37.7999999999997343
 30
0.0
 11
109.9999999999993463
 21
37.7999999999996774
 31
0.0
  0
LINE
  5
194
100
AcDbEntity
  8
cut
 62
256
370
-1
 48
1.0
  6
BYLAYER
100
AcDbLine
 10
96.99999999999946
 20
39.3999999999997854
 30
0.0
 11
109.9999999999993463
 21
39.3999999999997286
 31
0.0
  0
LINE
  5
195
100
AcDbEntity
  8
cut
 62
256
370
-1
 48
1.0
  6
BYLAYER
100
AcDbLine
 10
96.99999999999946
 20
40.9999999999998366
 30
0.0
 11
109.9999999999993463
 21
40.9999999999997797
 31
0.0
  0
LINE
  5
196
100
AcDbEntity
  8
cut
 62
256
370
-1
 48
1.0
  6
BYLAYER
100
AcDbLine
 10
96.99999999999946
 20
42.5999999999998877
 30
0.0
 11
109.9999999999993463
 21
42.5999999999998309
 31
0.0
  0
LINE
  5
197
100
AcDbEntity
  8
cut
 62
256
370
-1
 48
1.0
  6
BYLAYER
100
AcDbLine
 10
96.99999999999946
 20
44.1999999999999389
 30
0.0
 11
109.9999999999993463
 21
44.199999999999882
 31
0.0
  0
LINE
  5
198
100
AcDbEntity
  8
cut
 62
256
370
-1
 48
1.0
  6
BYLAYER
100
AcDbLine
 10
96.99999999999946
 20
45.7999999999999901
 30
0.0
 11
109.9999999999993463
 21
45.7999999999999332
 31
0.0
  0
LINE
  5
199
100
AcDbEntity
  8
cut
 62
256
370
-1
 48
1.0
  6
BYLAYER
100
AcDbLine
 10
96.99999999999946
 20
47.4000000000000412
 30
0.0
 11
109.9999999999993463
 21
47.3999999999999844
 31
0.0
  0
LINE
  5
19A
100
AcDbEntity
  8
cut
 62
256
370
-1
 48
1.0
  6
BYLAYER
100
AcDbLine
 10
96.99999999999946
 20
49.0000000000000924
 30
0.0
 11
109.9999999999993463
 21
49.0000000000000355
 31
0.0
  0
LINE
  5
19B
100
AcDbEntity
  8
cut
 62
256
370
-1
 48
1.0
  6
BYLAYER
100
AcDbLine
 10
96.99999999999946
 20
50.6000000000001435
 30
0.0
 11
109.9999999999993463
 21
50.6000000000000867
 31
0.0
  0
LINE
  5
19C
100
AcDbEntity
  8
cut
 62
256
370
-1
 48
1.0
  6
BYLAYER
100
AcDbLine
 10
96.99999999999946
 20
52.2000000000001947
 30
0.0
 11
109.9999999999993463
 21
52.2000000000001378
 31
0.0
  0
LINE
  5
19D
100
AcDbEntity
  8
cut
 62
256
370
-1
 48
1.0
  6
BYLAYER
100
AcDbLine
 10
96.99999999999946
 20
53.8000000000002458
 30
0.0
 11
109.9999999999993463
 21
53.800000000000189
 31
0.0
  0
LINE
  5
19E
100
AcDbEntity
  8
cut
 62
256
370
-1
 48
1.0
  6
BYLAYER
100
AcDbLine
 10
96.99999999999946
 20
55.400000000000297
 30
0.0
 11
109.9999999999993463
 21
55.4000000000002402
 31
0.0
  0
LINE
  5
19F
100
AcDbEntity
  8
cut
 62
256
370
-1
 48
1.0
  6
BYLAYER
100
AcDbLine
 10
96.99999999999946
 20
57.0000000000003482
 30
0.0
 11
109.9999999999993463
 21
57.0000000000002913
 31
0.0
  0
LINE
  5
1A0
100
AcDbEntity
  8
cut
 62
256
370
-1
 48
1.0
  6
BYLAYER
100
AcDbLine
 10
96.99999999999946
 20
58.6000000000003993
 30
0.0
 11
109.9999999999993463
 21
58.6000000000003425
 31
0.0
  0
LINE
  5
1A1
100
AcDbEntity
  8
cut
 62
256
370
-1
 48
1.0
  6
BYLAYER
100
AcDbLine
 10
96.99999999999946
 20
60.2000000000004505
 30
0.0
 11
109.9999999999993463
 21
60.2000000000003936
 31
0.0
  0
LINE
  5
1A2
100
AcDbEntity
  8
cut
 62
256
370
-1
 48
1.0
  6
BYLAYER
100
AcDbLine
 10
104.2499999999995168
 20
25.7999999999993648
 30
0.0
 11
109.9999999999995168
 21
25.7999999999993648
 31
0.0
  0
LINE
  5
1A3
100
AcDbEntity
  8
cut
 62
256
370
-1
 48
1.0
  6
BYLAYER
100
AcDbLine
 10
104.2499999999995168
 20
27.3999999999994159
 30
0.0
 11
109.9999999999995168
 21
27.3999999999994159
 31
0.0
  0
LINE
  5
1A4
100
AcDbEntity
  8
cut
 62
256
370
-1
 48
1.0
  6
BYLAYER
100
AcDbLine
 10
104.2499999999995168
 20
28.9999999999994671
 30
0.0
 11
109.9999999999995168
 21
28.9999999999994671
 31
0.0
  0
LINE
  5
1A5
100
AcDbEntity
  8
cut
 62
256
370
-1
 48
1.0
  6
BYLAYER
100
AcDbLine
 10
104.2499999999995168
 20
30.5999999999995183
 30
0.0
 11
109.9999999999995168
 21
30.5999999999995183
 31
0.0
  0
LINE
  5
1A6
100
AcDbEntity
  8
cut
 62
256
370
-1
 48
1.0
  6
BYLAYER
100
AcDbLine
 10
104.2499999999995168
 20
32.1999999999995694
 30
0.0
 11
109.9999999999995168
 21
32.1999999999995694
 31
0.0
  0
LINE
  5
1A7
100
AcDbEntity
  8
cut
 62
256
370
-1
 48
1.0
  6
BYLAYER
100
AcDbLine
 10
104.2499999999995168
 20
33.7999999999996206
 30
0.0
 11
109.9999999999995168
 21
33.7999999999996206
 31
0.0
  0
LINE
  5
1A8
100
AcDbEntity
  8
cut
 62
256
370
-1
 48
1.0
  6
BYLAYER
100
AcDbLine
 10
104.2499999999995168
 20
35.3999999999996717
 30
0.0
 11
109.9999999999995168
 21
35.3999999999996717
 31
0.0
  0
LINE
  5
1A9
100
AcDbEntity
  8
cut
 62
256
370
-1
 48
1.0
  6
BYLAYER
100
AcDbLine
 10
104.2499999999995168
 20
36.9999999999997229
 30
0.0
 11
109.9999999999995168
 21
36.9999999999997229
 31
0.0
  0
LINE
  5
1AA
100
AcDbEntity
  8
cut
 62
256
370
-1
 48
1.0
  6
BYLAYER
100
AcDbLine
 10
104.2499999999995168
 20
38.599999999999774
 30
0.0
 11
109.9999999999995168
 21
38.599999999999774
 31
0.0
  0
LINE
  5
1AB
100
AcDbEntity
  8
cut
 62
256
370
-1
 48
1.0
  6
BYLAYER
100
AcDbLine
 10
104.2499999999995168
 20
40.1999999999998252
 30
0.0
 11
109.9999999999995168
 21
40.1999999999998252
 31
0.0
  0
LINE
  5
1AC
100
AcDbEntity
  8
cut
 62
256
370
-1
 48
1.0
  6
BYLAYER
100
AcDbLine
 10
104.2499999999995168
 20
41.7999999999998764
 30
0.0
 11
109.9999999999995168
 21
41.7999999999998764
 31
0.0
  0
LINE
  5
1AD
100
AcDbEntity
  8
cut
 62
256
370
-1
 48
1.0
  6
BYLAYER
100
AcDbLine
 10
104.2499999999995168
 20
43.3999999999999275
 30
0.0
 11
109.9999999999995168
 21
43.3999999999999275
 31
0.0
  0
LINE
  5
1AE
100
AcDbEntity
  8
cut
 62
256
370
-1
 48
1.0
  6
BYLAYER
100
AcDbLine
 10
104.2499999999995168
 20
44.9999999999999787
 30
0.0
 11
109.9999999999995168
 21
44.9999999999999787
 31
0.0
  0
LINE
  5
1AF
100
AcDbEntity
  8
cut
 62
256
370
-1
 48
1.0
  6
BYLAYER
100
AcDbLine
 10
104.2499999999995168
 20
46.6000000000000298
 30
0.0
 11
109.9999999999995168
 21
46.6000000000000298
 31
0.0
  0
LINE
  5
1B0
100
AcDbEntity
  8
cut
 62
256
370
-1
 48
1.0
  6
BYLAYER
100
AcDbLine
 10
104.2499999999995168
 20
48.200000000000081
 30
0.0
 11
109.9999999999995168
 21
48.200000000000081
 31
0.0
  0
LINE
  5
1B1
100
AcDbEntity
  8
cut
 62
256
370
-1
 48
1.0
  6
BYLAYER
100
AcDbLine
 10
104.2499999999995168
 20
49.8000000000001322
 30
0.0
 11
109.9999999999995168
 21
49.8000000000001322
 31
0.0
  0
LINE
  5
1B2
100
AcDbEntity
  8
cut
 62
256
370
-1
 48
1.0
  6
BYLAYER
100
AcDbLine
 10
104.2499999999995168
 20
51.4000000000001833
 30
0.0
 11
109.9999999999995168
 21
51.4000000000001833
 31
0.0
  0
LINE
  5
1B3
100
AcDbEntity
  8
cut
 62
256
370
-1
 48
1.0
  6
BYLAYER
100
AcDbLine
 10
104.2499999999995168
 20
53.0000000000002345
 30
0.0
 11
109.9999999999995168
 21
53.0000000000002345
 31
0.0
  0
LINE
  5
1B4
100
AcDbEntity
  8
cut
 62
256
370
-1
 48
1.0
  6
BYLAYER
100
AcDbLine
 10
104.2499999999995168
 20
54.6000000000002856
 30
0.0
 11
109.9999999999995168
 21
54.6000000000002856
 31
0.0
  0
LINE
  5
1B5
100
AcDbEntity
  8
cut
 62
256
370
-1
 48
1.0
  6
BYLAYER
100
AcDbLine
 10
104.2499999999995168
 20
56.2000000000003368
 30
0.0
 11
109.9999999999995168
 21
56.2000000000003368
 31
0.0
  0
LINE
  5
1B6
100
AcDbEntity
  8
cut
 62
256
370
-1
 48
1.0
  6
BYLAYER
100
AcDbLine
 10
104.2499999999995168
 20
57.800000000000388
 30
0.0
 11
109.9999999999995168
 21
57.800000000000388
 31
0.0
  0
LINE
  5
1B7
100
AcDbEntity
  8
cut
 62
256
370
-1
 48
1.0
  6
BYLAYER
100
AcDbLine
 10
104.2499999999995168
 20
59.4000000000004391
 30
0.0
 11
109.9999999999995168
 21
59.4000000000004391
 31
0.0
  0
LINE
  5
1B8
100
AcDbEntity
  8
cut
 62
256
370
-1
 48
1.0
  6
BYLAYER
100
AcDbLine
 10
113.0000000000006537
 20
24.9999999999999503
 30
0.0
 11
125.8000000000006651
 21
24.9999999999999503
 31
0.0
  0
LINE
  5
1B9
100
AcDbEntity
  8
cut
 62
256
370
-1
 48
1.0
  6
BYLAYER
100
AcDbLine
 10
113.0000000000005969
 20
26.599999999999973
 30
0.0
 11
125.8000000000006082
 21
26.599999999999973
 31
0.0
  0
LINE
  5
1BA
100
AcDbEntity
  8
cut
 62
256
370
-1
 48
1.0
  6
BYLAYER
100
AcDbLine
 10
113.00000000000054
 20
28.1999999999999957
 30
0.0
 11
125.8000000000005514
 21
28.1999999999999957
 31
0.0
  0
LINE
  5
1BB
100
AcDbEntity
  8
cut
 62
256
370
-1
 48
1.0
  6
BYLAYER
100
AcDbLine
 10
113.0000000000004832
 20
29.8000000000000185
 30
0.0
 11
125.8000000000004945
 21
29.8000000000000185
 31
0.0
  0
LINE
  5
1BC
100
AcDbEntity
  8
cut
 62
256
370
-1
 48
1.0
  6
BYLAYER
100
AcDbLine
 10
113.0000000000004263
 20
31.4000000000000412
 30
0.0
 11
125.8000000000004377
 21
31.4000000000000412
 31
0.0
  0
LINE
  5
1BD
100
AcDbEntity
  8
cut
 62
256
370
-1
 48
1.0
  6
BYLAYER
100
AcDbLine
 10
113.0000000000003695
 20
33.0000000000000639
 30
0.0
 11
125.8000000000003809
 21
33.0000000000000639
 31
0.0
  0
LINE
  5
1BE
100
AcDbEntity
  8
cut
 62
256
370
-1
 48
1.0
  6
BYLAYER
100
AcDbLine
 10
113.0000000000003126
 20
34.6000000000000867
 30
0.0
 11
125.800000000000324
 21
34.6000000000000867
 31
0.0
  0
LINE
  5
1BF
100
AcDbEntity
  8
cut
 62
256
370
-1
 48
1.0
  6
BYLAYER
100
AcDbLine
 10
113.0000000000002558
 20
36.2000000000001094
 30
0.0
 11
125.8000000000002672
 21
36.2000000000001094
 31
0.0
  0
LINE
  5
1C0
100
AcDbEntity
  8
cut
 62
256
370
-1
 48
1.0
  6
BYLAYER
100
AcDbLine
 10
113.000000000000199
 20
37.8000000000001322
 30
0.0
 11
125.8000000000002103
 21
37.8000000000001322
 31
0.0
  0
LINE
  5
1C1
100
AcDbEntity
  8
cut
 62
256
370
-1
 48
1.0
  6
BYLAYER
100
AcDbLine
 10
113.0000000000001421
 20
39.4000000000001549
 30
0.0
 11
125.8000000000001535
 21
39.4000000000001549
 31
0.0
  0
LINE
  5
1C2
100
AcDbEntity
  8
cut
 62
256
370
-1
 48
1.0
  6
BYLAYER
100
AcDbLine
 10
113.0000000000000853
 20
41.0000000000001776
 30
0.0
 11
125.8000000000000966
 21
41.0000000000001776
 31
0.0
  0
LINE
  5
1C3
100
AcDbEntity
  8
cut
 62
256
370
-1
 48
1.0
  6
BYLAYER
100
AcDbLine
 10
113.0000000000000284
 20
42.6000000000002004
 30
0.0
 11
125.8000000000000398
 21
42.6000000000002004
 31
0.0
  0
LINE
  5
1C4
100
AcDbEntity
  8
cut
 62
256
370
-1
 48
1.0
  6
BYLAYER
100
AcDbLine
 10
112.9999999999999716
 20
44.2000000000002231
 30
0.0
 11
125.7999999999999829
 21
44.2000000000002231
 31
0.0
  0
LINE
  5
1C5
100
AcDbEntity
  8
cut
 62
256
370
-1
 48
1.0
  6
BYLAYER
100
AcDbLine
 10
112.9999999999999147
 20
45.8000000000002458
 30
0.0
 11
125.7999999999999261
 21
45.8000000000002458
 31
0.0
  0
LINE
  5
1C6
100
AcDbEntity
  8
cut
 62
256
370
-1
 48
1.0
  6
BYLAYER
100
AcDbLine
 10
112.9999999999998579
 20
47.4000000000002686
 30
0.0
 11
125.7999999999998693
 21
47.4000000000002686
 31
0.0
  0
LINE
  5
1C7
100
AcDbEntity
  8
cut
 62
256
370
-1
 48
1.0
  6
BYLAYER
100
AcDbLine
 10
112.999999999999801
 20
49.0000000000002913
 30
0.0
 11
125.7999999999998124
 21
49.0000000000002913
 31
0.0
  0
LINE
  5
1C8
100
AcDbEntity
  8
cut
 62
256
370
-1
 48
1.0
  6
BYLAYER
100
AcDbLine
 10
112.9999999999997442
 20
50.6000000000003141
 30
0.0
 11
125.7999999999997556
 21
50.6000000000003141
 31
0.0
  0
LINE
  5
1C9
100
AcDbEntity
  8
cut
 62
256
370
-1
 48
1.0
  6
BYLAYER
100
AcDbLine
 10
112.9999999999996874
 20
52.2000000000003368
 30
0.0
 11
125.7999999999996987
 21
52.2000000000003368
 31
0.0
  0
LINE
  5
1CA
100
AcDbEntity
  8
cut
 62
256
370
-1
 48
1.0
  6
BYLAYER
100
AcDbLine
 10
112.9999999999996305
 20
53.8000000000003595
 30
0.0
 11
125.7999999999996419
 21
53.8000000000003595
 31
0.0
  0
LINE
  5
1CB
100
AcDbEntity
  8
cut
 62
256
370
-1
 48
1.0
  6
BYLAYER
100
AcDbLine
 10
112.9999999999995737
 20
55.4000000000003823
 30
0.0
 11
125.799999999999585
 21
55.4000000000003823
 31
0.0
  0
LINE
  5
1CC
100
AcDbEntity
  8
cut
 62
256
370
-1
 48
1.0
  6
BYLAYER
100
AcDbLine
 10
112.9999999999995168
 20
57.000000000000405
 30
0.0
 11
125.7999999999995282
 21
57.000000000000405
 31
0.0
  0
LINE
  5
1CD
100
AcDbEntity
  8
cut
 62
256
370
-1
 48
1.0
  6
BYLAYER
100
AcDbLine
 10
112.99999999999946
 20
58.6000000000004277
 30
0.0
 11
125.7999999999994714
 21
58.6000000000004277
 31
0.0
  0
LINE
  5
1CE
100
AcDbEntity
  8
cut
 62
256
370
-1
 48
1.0
  6
BYLAYER
100
AcDbLine
 10
112.9999999999994031
 20
60.2000000000004505
 30
0.0
 11
125.7999999999994145
 21
60.2000000000004505
 31
0.0
  0
LINE
  5
1CF
100
AcDbEntity
  8
cut
 62
256
370
-1
 48
1.0
  6
BYLAYER
100
AcDbLine
 10
129.0000000000007105
 20
24.9999999999999503
 30
0.0
 11
142.00000000000054
 21
24.9999999999998934
 31
0.0
  0
LINE
  5
1D0
100
AcDbEntity
  8
cut
 62
256
370
-1
 48
1.0
  6
BYLAYER
100
AcDbLine
 10
129.0000000000006537
 20
26.599999999999973
 30
0.0
 11
142.0000000000004832
 21
26.5999999999999162
 31
0.0
  0
LINE
  5
1D1
100
AcDbEntity
  8
cut
 62
256
370
-1
 48
1.0
  6
BYLAYER
100
AcDbLine
 10
129.0000000000005969
 20
28.1999999999999957
 30
0.0
 11
142.0000000000004263
 21
28.1999999999999389
 31
0.0
  0
LINE
  5
1D2
100
AcDbEntity
  8
cut
 62
256
370
-1
 48
1.0
  6
BYLAYER
100
AcDbLine
 10
129.00000000000054
 20
29.8000000000000185
 30
0.0
 11
142.0000000000003695
 21
29.7999999999999616
 31
0.0
  0
LINE
  5
1D3
100
AcDbEntity
  8
cut
 62
256
370
-1
 48
1.0
  6
BYLAYER
100
AcDbLine
 10
129.0000000000004832
 20
31.4000000000000412
 30
0.0
 11
142.0000000000003126
 21
31.3999999999999844
 31
0.0
  0
LINE
  5
1D4
100
AcDbEntity
  8
cut
 62
256
370
-1
 48
1.0
  6
BYLAYER
100
AcDbLine
 10
129.0000000000004263
 20
33.0000000000000639
 30
0.0
 11
142.0000000000002558
 21
33.0000000000000071
 31
0.0
  0
LINE
  5
1D5
100
AcDbEntity
  8
cut
 62
256
370
-1
 48
1.0
  6
BYLAYER
100
AcDbLine
 10
129.0000000000003695
 20
34.6000000000000867
 30
0.0
 11
142.000000000000199
 21
34.6000000000000298
 31
0.0
  0
LINE
  5
1D6
100
AcDbEntity
  8
cut
 62
256
370
-1
 48
1.0
  6
BYLAYER
100
AcDbLine
 10
129.0000000000003126
 20
36.2000000000001094
 30
0.0
 11
142.0000000000001421
 21
36.2000000000000526
 31
0.0
  0
LINE
  5
1D7
100
AcDbEntity
  8
cut
 62
256
370
-1
 48
1.0
  6
BYLAYER
100
AcDbLine
 10
129.0000000000002558
 20
37.8000000000001322
 30
0.0
 11
142.0000000000000853
 21
37.8000000000000753
 31
0.0
  0
LINE
  5
1D8
100
AcDbEntity
  8
cut
 62
256
370
-1
 48
1.0
  6
BYLAYER
100
AcDbLine
 10
129.000000000000199
 20
39.4000000000001549
 30
0.0
 11
142.0000000000000284
 21
39.4000000000000981
 31
0.0
  0
LINE
  5
1D9
100
AcDbEntity
  8
cut
 62
256
370
-1
 48
1.0
  6
BYLAYER
100
AcDbLine
 10
129.0000000000001421
 20
41.0000000000001776
 30
0.0
 11
141.9999999999999716
 21
41.0000000000001208
 31
0.0
  0
LINE
  5
1DA
100
AcDbEntity
  8
cut
 62
256
370
-1
 48
1.0
  6
BYLAYER
100
AcDbLine
 10
129.0000000000000853
 20
42.6000000000002004
 30
0.0
 11
141.9999999999999147
 21
42.6000000000001435
 31
0.0
  0
LINE
  5
1DB
100
AcDbEntity
  8
cut
 62
256
370
-1
 48
1.0
  6
BYLAYER
100
AcDbLine
 10
129.0000000000000284
 20
44.2000000000002231
 30
0.0
 11
141.9999999999998579
 21
44.2000000000001663
 31
0.0
  0
LINE
  5
1DC
100
AcDbEntity
  8
cut
 62
256
370
-1
 48
1.0
  6
BYLAYER
100
AcDbLine
 10
128.9999999999999716
 20
45.8000000000002458
 30
0.0
 11
141.999999999999801
 21
45.800000000000189
 31
0.0
  0
LINE
  5
1DD
100
AcDbEntity
  8
cut
 62
256
370
-1
 48
1.0
  6
BYLAYER
100
AcDbLine
 10
128.9999999999999147
 20
47.4000000000002686
 30
0.0
 11
141.9999999999997442
 21
47.4000000000002117
 31
0.0
  0
LINE
  5
1DE
100
AcDbEntity
  8
cut
 62
256
370
-1
 48
1.0
  6
BYLAYER
100
AcDbLine
 10
128.9999999999998579
 20
49.0000000000002913
 30
0.0
 11
141.9999999999996874
 21
49.0000000000002345
 31
0.0
  0
LINE
  5
1DF
100
AcDbEntity
  8
cut
 62
256
370
-1
 48
1.0
  6
BYLAYER
100
AcDbLine
 10
128.999999999999801
 20
50.6000000000003141
 30
0.0
 11
141.9999999999996305
 21
50.6000000000002572
 31
0.0
  0
LINE
  5
1E0
100
AcDbEntity
  8
cut
 62
256
370
-1
 48
1.0
  6
BYLAYER
100
AcDbLine
 10
128.9999999999997442
 20
52.2000000000003368
 30
0.0
 11
141.9999999999995737
 21
52.20000000000028
 31
0.0
  0
LINE
  5
1E1
100
AcDbEntity
  8
cut
 62
256
370
-1
 48
1.0
  6
BYLAYER
100
AcDbLine
 10
128.9999999999996874
 20
53.8000000000003595
 30
0.0
 11
141.9999999999995168
 21
53.8000000000003027
 31
0.0
  0
LINE
  5
1E2
100
AcDbEntity
  8
cut
 62
256
370
-1
 48
1.0
  6
BYLAYER
100
AcDbLine
 10
128.9999999999996305
 20
55.4000000000003823
 30
0.0
 11
141.99999999999946
 21
55.4000000000003254
 31
0.0
  0
LINE
  5
1E3
100
AcDbEntity
  8
cut
 62
256
370
-1
 48
1.0
  6
BYLAYER
100
AcDbLine
 10
128.9999999999995737
 20
57.000000000000405
 30
0.0
 11
141.9999999999994031
 21
57.0000000000003482
 31
0.0
  0
LINE
  5
1E4
100
AcDbEntity
  8
cut
 62
256
370
-1
 48
1.0
  6
BYLAYER
100
AcDbLine
 10
128.9999999999995168
 20
58.6000000000004277
 30
0.0
 11
141.9999999999993463
 21
58.6000000000003709
 31
0.0
  0
LINE
  5
1E5
100
AcDbEntity
  8
cut
 62
256
370
-1
 48
1.0
  6
BYLAYER
100
AcDbLine
 10
128.99999999999946
 20
60.2000000000004505
 30
0.0
 11
141.9999999999992895
 21
60.2000000000003936
 31
0.0
  0
LINE
  5
1E6
100
AcDbEntity
  8
cut
 62
256
370
-1
 48
1.0
  6
BYLAYER
100
AcDbLine
 10
113.0000000000005969
 20
25.7999999999999616
 30
0.0
 11
118.7500000000005969
 21
25.7999999999999616
 31
0.0
  0
LINE
  5
1E7
100
AcDbEntity
  8
cut
 62
256
370
-1
 48
1.0
  6
BYLAYER
100
AcDbLine
 10
113.00000000000054
 20
27.3999999999999844
 30
0.0
 11
118.75000000000054
 21
27.3999999999999844
 31
0.0
  0
LINE
  5
1E8
100
AcDbEntity
  8
cut
 62
256
370
-1
 48
1.0
  6
BYLAYER
100
AcDbLine
 10
113.0000000000004832
 20
29.0000000000000071
 30
0.0
 11
118.7500000000004832
 21
29.0000000000000071
 31
0.0
  0
LINE
  5
1E9
100
AcDbEntity
  8
cut
 62
256
370
-1
 48
1.0
  6
BYLAYER
100
AcDbLine
 10
113.0000000000004263
 20
30.6000000000000298
 30
0.0
 11
118.7500000000004263
 21
30.6000000000000298
 31
0.0
  0
LINE
  5
1EA
100
AcDbEntity
  8
cut
 62
256
370
-1
 48
1.0
  6
BYLAYER
100
AcDbLine
 10
113.0000000000003695
 20
32.2000000000000526
 30
0.0
 11
118.7500000000003695
 21
32.2000000000000526
 31
0.0
  0
LINE
  5
1EB
100
AcDbEntity
  8
cut
 62
256
370
-1
 48
1.0
  6
BYLAYER
100
AcDbLine
 10
113.0000000000003126
 20
33.8000000000000753
 30
0.0
 11
118.7500000000003126
 21
33.8000000000000753
 31
0.0
  0
LINE
  5
1EC
100
AcDbEntity
  8
cut
 62
256
370
-1
 48
1.0
  6
BYLAYER
100
AcDbLine
 10
113.0000000000002558
 20
35.4000000000000981
 30
0.0
 11
118.7500000000002558
 21
35.4000000000000981
 31
0.0
  0
LINE
  5
1ED
100
AcDbEntity
  8
cut
 62
256
370
-1
 48
1.0
  6
BYLAYER
100
AcDbLine
 10
113.000000000000199
 20
37.0000000000001208
 30
0.0
 11
118.750000000000199
 21
37.0000000000001208
 31
0.0
  0
LINE
  5
1EE
100
AcDbEntity
  8
cut
 62
256
370
-1
 48
1.0
  6
BYLAYER
100
AcDbLine
 10
113.0000000000001421
 20
38.6000000000001435
 30
0.0
 11
118.7500000000001421
 21
38.6000000000001435
 31
0.0
  0
LINE
  5
1EF
100
AcDbEntity
  8
cut
 62
256
370
-1
 48
1.0
  6
BYLAYER
100
AcDbLine
 10
113.0000000000000853
 20
40.2000000000001663
 30
0.0
 11
118.7500000000000853
 21
40.2000000000001663
 31
0.0
  0
LINE
  5
1F0
100
AcDbEntity
  8
cut
 62
256
370
-1
 48
1.0
  6
BYLAYER
100
AcDbLine
 10
113.0000000000000284
 20
41.800000000000189
 30
0.0
 11
118.7500000000000284
 21
41.800000000000189
 31
0.0
  0
LINE
  5
1F1
100
AcDbEntity
  8
cut
 62
256
370
-1
 48
1.0
  6
BYLAYER
100
AcDbLine
 10
112.9999999999999716
 20
43.4000000000002117
 30
0.0
 11
118.7499999999999716
 21
43.4000000000002117
 31
0.0
  0
LINE
  5
1F2
100
AcDbEntity
  8
cut
 62
256
370
-1
 48
1.0
  6
BYLAYER
100
AcDbLine
 10
112.9999999999999147
 20
45.0000000000002345
 30
0.0
 11
118.7499999999999147
 21
45.0000000000002345
 31
0.0
  0
LINE
  5
1F3
100
AcDbEntity
  8
cut
 62
256
370
-1
 48
1.0
  6
BYLAYER
100
AcDbLine
 10
112.9999999999998579
 20
46.6000000000002572
 30
0.0
 11
118.7499999999998579
 21
46.6000000000002572
 31
0.0
  0
LINE
  5
1F4
100
AcDbEntity
  8
cut
 62
256
370
-1
 48
1.0
  6
BYLAYER
100
AcDbLine
 10
112.999999999999801
 20
48.20000000000028
 30
0.0
 11
118.749999999999801
 21
48.20000000000028
 31
0.0
  0
LINE
  5
1F5
100
AcDbEntity
  8
cut
 62
256
370
-1
 48
1.0
  6
BYLAYER
100
AcDbLine
 10
112.9999999999997442
 20
49.8000000000003027
 30
0.0
 11
118.7499999999997442
 21
49.8000000000003027
 31
0.0
  0
LINE
  5
1F6
100
AcDbEntity
  8
cut
 62
256
370
-1
 48
1.0
  6
BYLAYER
100
AcDbLine
 10
112.9999999999996874
 20
51.4000000000003254
 30
0.0
 11
118.7499999999996874
 21
51.4000000000003254
 31
0.0
  0
LINE
  5
1F7
100
AcDbEntity
  8
cut
 62
256
370
-1
 48
1.0
  6
BYLAYER
100
AcDbLine
 10
112.9999999999996305
 20
53.0000000000003482
 30
0.0
 11
118.7499999999996305
 21
53.0000000000003482
 31
0.0
  0
LINE
  5
1F8
100
AcDbEntity
  8
cut
 62
256
370
-1
 48
1.0
  6
BYLAYER
100
AcDbLine
 10
112.9999999999995737
 20
54.6000000000003709
 30
0.0
 11
118.7499999999995737
 21
54.6000000000003709
 31
0.0
  0
LINE
  5
1F9
100
AcDbEntity
  8
cut
 62
256
370
-1
 48
1.0
  6
BYLAYER
100
AcDbLine
 10
112.9999999999995168
 20
56.2000000000003936
 30
0.0
 11
118.7499999999995168
 21
56.2000000000003936
 31
0.0
  0
LINE
  5
1FA
100
AcDbEntity
  8
cut
 62
256
370
-1
 48
1.0
  6
BYLAYER
100
AcDbLine
 10
112.99999999999946
 20
57.8000000000004164
 30
0.0
 11
118.74999999999946
 21
57.8000000000004164
 31
0.0
  0
LINE
  5
1FB
100
AcDbEntity
  8
cut
 62
256
370
-1
 48
1.0
  6
BYLAYER
100
AcDbLine
 10
112.9999999999994031
 20
59.4000000000004391
 30
0.0
 11
118.7499999999994031
 21
59.4000000000004391
 31
0.0
  0
LINE
  5
1FC
100
AcDbEntity
  8
cut
 62
256
370
-1
 48
1.0
  6
BYLAYER
100
AcDbLine
 10
121.7500000000005969
 20
25.7999999999999616
 30
0.0
 11
133.2000000000006992
 21
25.7999999999999616
 31
0.0
  0
LINE
  5
1FD
100
AcDbEntity
  8
cut
 62
256
370
-1
 48
1.0
  6
BYLAYER
100
AcDbLine
 10
121.75000000000054
 20
27.3999999999999844
 30
0.0
 11
133.2000000000006423
 21
27.3999999999999844
 31
0.0
  0
LINE
  5
1FE
100
AcDbEntity
  8
cut
 62
256
370
-1
 48
1.0
  6
BYLAYER
100
AcDbLine
 10
121.7500000000004832
 20
29.0000000000000071
 30
0.0
 11
133.2000000000005855
 21
29.0000000000000071
 31
0.0
  0
LINE
  5
1FF
100
AcDbEntity
  8
cut
 62
256
370
-1
 48
1.0
  6
BYLAYER
100
AcDbLine
 10
121.7500000000004263
 20
30.6000000000000298
 30
0.0
 11
133.2000000000005286
 21
30.6000000000000298
 31
0.0
  0
LINE
  5
200
100
AcDbEntity
  8
cut
 62
256
370
-1
 48
1.0
  6
BYLAYER
100
AcDbLine
 10
121.7500000000003695
 20
32.2000000000000526
 30
0.0
 11
133.2000000000004718
 21
32.2000000000000526
 31
0.0
  0
LINE
  5
201
100
AcDbEntity
  8
cut
 62
256
370
-1
 48
1.0
  6
BYLAYER
100
AcDbLine
 10
121.7500000000003126
 20
33.8000000000000753
 30
0.0
 11
133.200000000000415
 21
33.8000000000000753
 31
0.0
  0
LINE
  5
202
100
AcDbEntity
  8
cut
 62
256
370
-1
 48
1.0
  6
BYLAYER
100
AcDbLine
 10
121.7500000000002558
 20
35.4000000000000981
 30
0.0
 11
133.2000000000003581
 21
35.4000000000000981
 31
0.0
  0
LINE
  5
203
100
AcDbEntity
  8
cut
 62
256
370
-1
 48
1.0
  6
BYLAYER
100
AcDbLine
 10
121.750000000000199
 20
37.0000000000001208
 30
0.0
 11
133.2000000000003013
 21
37.0000000000001208
 31
0.0
  0
LINE
  5
204
100
AcDbEntity
  8
cut
 62
256
370
-1
 48
1.0
  6
BYLAYER
100
AcDbLine
 10
121.7500000000001421
 20
38.6000000000001435
 30
0.0
 11
133.2000000000002444
 21
38.6000000000001435
 31
0.0
  0
LINE
  5
205
100
AcDbEntity
  8
cut
 62
256
370
-1
 48
1.0
  6
BYLAYER
100
AcDbLine
 10
121.7500000000000853
 20
40.2000000000001663
 30
0.0
 11
133.2000000000001876
 21
40.2000000000001663
 31
0.0
  0
LINE
  5
206
100
AcDbEntity
  8
cut
 62
256
370
-1
 48
1.0
  6
BYLAYER
100
AcDbLine
 10
121.7500000000000284
 20
41.800000000000189
 30
0.0
 11
133.2000000000001307
 21
41.800000000000189
 31
0.0
  0
LINE
  5
207
100
AcDbEntity
  8
cut
 62
256
370
-1
 48
1.0
  6
BYLAYER
100
AcDbLine
 10
121.7499999999999716
 20
43.4000000000002117
 30
0.0
 11
133.2000000000000739
 21
43.4000000000002117
 31
0.0
  0
LINE
  5
208
100
AcDbEntity
  8
cut
 62
256
370
-1
 48
1.0
  6
BYLAYER
100
AcDbLine
 10
121.7499999999999147
 20
45.0000000000002345
 30
0.0
 11
133.2000000000000171
 21
45.0000000000002345
 31
0.0
  0
LINE
  5
209
100
AcDbEntity
  8
cut
 62
256
370
-1
 48
1.0
  6
BYLAYER
100
AcDbLine
 10
121.7499999999998579
 20
46.6000000000002572
 30
0.0
 11
133.1999999999999602
 21
46.6000000000002572
 31
0.0
  0
LINE
  5
20A
100
AcDbEntity
  8
cut
 62
256
370
-1
 48
1.0
  6
BYLAYER
100
AcDbLine
 10
121.749999999999801
 20
48.20000000000028
 30
0.0
 11
133.1999999999999034
 21
48.20000000000028
 31
0.0
  0
LINE
  5
20B
100
AcDbEntity
  8
cut
 62
256
370
-1
 48
1.0
  6
BYLAYER
100
AcDbLine
 10
121.7499999999997442
 20
49.8000000000003027
 30
0.0
 11
133.1999999999998465
 21
49.8000000000003027
 31
0.0
  0
LINE
  5
20C
100
AcDbEntity
  8
cut
 62
256
370
-1
 48
1.0
  6
BYLAYER
100
AcDbLine
 10
121.7499999999996874
 20
51.4000000000003254
 30
0.0
 11
133.1999999999997897
 21
51.4000000000003254
 31
0.0
  0
LINE
  5
20D
100
AcDbEntity
  8
cut
 62
256
370
-1
 48
1.0
  6
BYLAYER
100
AcDbLine
 10
121.7499999999996305
 20
53.0000000000003482
 30
0.0
 11
133.1999999999997328
 21
53.0000000000003482
 31
0.0
  0
LINE
  5
20E
100
AcDbEntity
  8
cut
 62
256
370
-1
 48
1.0
  6
BYLAYER
100
AcDbLine
 10
121.7499999999995737
 20
54.6000000000003709
 30
0.0
 11
133.199999999999676
 21
54.6000000000003709
 31
0.0
  0
LINE
  5
20F
100
AcDbEntity
  8
cut
 62
256
370
-1
 48
1.0
  6
BYLAYER
100
AcDbLine
 10
121.7499999999995168
 20
56.2000000000003936
 30
0.0
 11
133.1999999999996191
 21
56.2000000000003936
 31
0.0
  0
LINE
  5
210
100
AcDbEntity
  8
cut
 62
256
370
-1
 48
1.0
  6
BYLAYER
100
AcDbLine
 10
121.74999999999946
 20
57.8000000000004164
 30
0.0
 11
133.1999999999995623
 21
57.8000000000004164
 31
0.0
  0
LINE
  5
211
100
AcDbEntity
  8
cut
 62
256
370
-1
 48
1.0
  6
BYLAYER
100
AcDbLine
 10
121.7499999999994031
 20
59.4000000000004391
 30
0.0
 11
133.1999999999995055
 21
59.4000000000004391
 31
0.0
  0
LINE
  5
212
100
AcDbEntity
  8
cut
 62
256
370
-1
 48
1.0
  6
BYLAYER
100
AcDbLine
 10
136.2500000000007105
 20
25.7999999999999616
 30
0.0
 11
142.0000000000004832
 21
25.7999999999999616
 31
0.0
  0
LINE
  5
213
100
AcDbEntity
  8
cut
 62
256
370
-1
 48
1.0
  6
BYLAYER
100
AcDbLine
 10
136.2500000000006537
 20
27.3999999999999844
 30
0.0
 11
142.0000000000004263
 21
27.3999999999999844
 31
0.0
  0
LINE
  5
214
100
AcDbEntity
  8
cut
 62
256
370
-1
 48
1.0
  6
BYLAYER
100
AcDbLine
 10
136.2500000000005969
 20
29.0000000000000071
 30
0.0
 11
142.0000000000003695
 21
29.0000000000000071
 31
0.0
  0
LINE
  5
215
100
AcDbEntity
  8
cut
 62
256
370
-1
 48
1.0
  6
BYLAYER
100
AcDbLine
 10
136.25000000000054
 20
30.6000000000000298
 30
0.0
 11
142.0000000000003126
 21
30.6000000000000298
 31
0.0
  0
LINE
  5
216
100
AcDbEntity
  8
cut
 62
256
370
-1
 48
1.0
  6
BYLAYER
100
AcDbLine
 10
136.2500000000004832
 20
32.2000000000000526
 30
0.0
 11
142.0000000000002558
 21
32.2000000000000526
 31
0.0
  0
LINE
  5
217
100
AcDbEntity
  8
cut
 62
256
370
-1
 48
1.0
  6
BYLAYER
100
AcDbLine
 10
136.2500000000004263
 20
33.8000000000000753
 30
0.0
 11
142.000000000000199
 21
33.8000000000000753
 31
0.0
  0
LINE
  5
218
100
AcDbEntity
  8
cut
 62
256
370
-1
 48
1.0
  6
BYLAYER
100
AcDbLine
 10
136.2500000000003695
 20
35.4000000000000981
 30
0.0
 11
142.0000000000001421
 21
35.4000000000000981
 31
0.0
  0
LINE
  5
219
100
AcDbEntity
  8
cut
 62
256
370
-1
 48
1.0
  6
BYLAYER
100
AcDbLine
 10
136.2500000000003126
 20
37.0000000000001208
 30
0.0
 11
142.0000000000000853
 21
37.0000000000001208
 31
0.0
  0
LINE
  5
21A
100
AcDbEntity
  8
cut
 62
256
370
-1
 48
1.0
  6
BYLAYER
100
AcDbLine
 10
136.2500000000002558
 20
38.6000000000001435
 30
0.0
 11
142.0000000000000284
 21
38.6000000000001435
 31
0.0
  0
LINE
  5
21B
100
AcDbEntity
  8
cut
 62
256
370
-1
 48
1.0
  6
BYLAYER
100
AcDbLine
 10
136.250000000000199
 20
40.2000000000001663
 30
0.0
 11
141.9999999999999716
 21
40.2000000000001663
 31
0.0
  0
LINE
  5
21C
100
AcDbEntity
  8
cut
 62
256
370
-1
 48
1.0
  6
BYLAYER
100
AcDbLine
 10
136.2500000000001421
 20
41.800000000000189
 30
0.0
 11
141.9999999999999147
 21
41.800000000000189
 31
0.0
  0
LINE
  5
21D
100
AcDbEntity
  8
cut
 62
256
370
-1
 48
1.0
  6
BYLAYER
100
AcDbLine
 10
136.2500000000000853
 20
43.4000000000002117
 30
0.0
 11
141.9999999999998579
 21
43.4000000000002117
 31
0.0
  0
LINE
  5
21E
100
AcDbEntity
  8
cut
 62
256
370
-1
 48
1.0
  6
BYLAYER
100
AcDbLine
 10
136.2500000000000284
 20
45.0000000000002345
 30
0.0
 11
141.999999999999801
 21
45.0000000000002345
 31
0.0
  0
LINE
  5
21F
100
AcDbEntity
  8
cut
 62
256
370
-1
 48
1.0
  6
BYLAYER
100
AcDbLine
 10
136.2499999999999716
 20
46.6000000000002572
 30
0.0
 11
141.9999999999997442
 21
46.6000000000002572
 31
0.0
  0
LINE
  5
220
100
AcDbEntity
  8
cut
 62
256
370
-1
 48
1.0
  6
BYLAYER
100
AcDbLine
 10
136.2499999999999147
 20
48.20000000000028
 30
0.0
 11
141.9999999999996874
 21
48.20000000000028
 31
0.0
  0
LINE
  5
221
100
AcDbEntity
  8
cut
 62
256
370
-1
 48
1.0
  6
BYLAYER
100
AcDbLine
 10
136.2499999999998579
 20
49.8000000000003027
 30
0.0
 11
141.9999999999996305
 21
49.8000000000003027
 31
0.0
  0
LINE
  5
222
100
AcDbEntity
  8
cut
 62
256
370
-1
 48
1.0
  6
BYLAYER
100
AcDbLine
 10
136.249999999999801
 20
51.4000000000003254
 30
0.0
 11
141.9999999999995737
 21
51.4000000000003254
 31
0.0
  0
LINE
  5
223
100
AcDbEntity
  8
cut
 62
256
370
-1
 48
1.0
  6
BYLAYER
100
AcDbLine
 10
136.2499999999997442
 20
53.0000000000003482
 30
0.0
 11
141.9999999999995168
 21
53.0000000000003482
 31
0.0
  0
LINE
  5
224
100
AcDbEntity
  8
cut
 62
256
370
-1
 48
1.0
  6
BYLAYER
100
AcDbLine
 10
136.2499999999996874
 20
54.6000000000003709
 30
0.0
 11
141.99999999999946
 21
54.6000000000003709
 31
0.0
  0
LINE
  5
225
100
AcDbEntity
  8
cut
 62
256
370
-1
 48
1.0
  6
BYLAYER
100
AcDbLine
 10
136.2499999999996305
 20
56.2000000000003936
 30
0.0
 11
141.9999999999994031
 21
56.2000000000003936
 31
0.0
  0
LINE
  5
226
100
AcDbEntity
  8
cut
 62
256
370
-1
 48
1.0
  6
BYLAYER
100
AcDbLine
 10
136.2499999999995737
 20
57.8000000000004164
 30
0.0
 11
141.9999999999993463
 21
57.8000000000004164
 31
0.0
  0
LINE
  5
227
100
AcDbEntity
  8
cut
 62
256
370
-1
 48
1.0
  6
BYLAYER
100
AcDbLine
 10
136.2499999999995168
 20
59.4000000000004391
 30
0.0
 11
141.9999999999992895
 21
59.4000000000004391
 31
0.0
  0
LINE
  5
228
100
AcDbEntity
  8
cut
 62
256
370
-1
 48
1.0
  6
BYLAYER
100
AcDbLine
 10
80.9999999999993463
 20
-60.2000000000005002
 30
0.0
 11
93.7999999999993577
 21
-60.2000000000004647
 31
0.0
  0
LINE
  5
229
100
AcDbEntity
  8
cut
 62
256
370
-1
 48
1.0
  6
BYLAYER
100
AcDbLine
 10
80.9999999999993463
 20
-58.6000000000004775
 30
0.0
 11
93.7999999999993577
 21
-58.600000000000442
 31
0.0
  0
LINE
  5
22A
100
AcDbEntity
  8
cut
 62
256
370
-1
 48
1.0
  6
BYLAYER
100
AcDbLine
 10
80.9999999999993463
 20
-57.0000000000004547
 30
0.0
 11
93.7999999999993577
 21
-57.0000000000004192
 31
0.0
  0
LINE
  5
22B
100
AcDbEntity
  8
cut
 62
256
370
-1
 48
1.0
  6
BYLAYER
100
AcDbLine
 10
80.9999999999993463
 20
-55.400000000000432
 30
0.0
 11
93.7999999999993577
 21
-55.4000000000003965
 31
0.0
  0
LINE
  5
22C
100
AcDbEntity
  8
cut
 62
256
370
-1
 48
1.0
  6
BYLAYER
100
AcDbLine
 10
80.9999999999993463
 20
-53.8000000000004093
 30
0.0
 11
93.7999999999993577
 21
-53.8000000000003737
 31
0.0
  0
LINE
  5
22D
100
AcDbEntity
  8
cut
 62
256
370
-1
 48
1.0
  6
BYLAYER
100
AcDbLine
 10
80.9999999999993463
 20
-52.2000000000003865
 30
0.0
 11
93.7999999999993577
 21
-52.200000000000351
 31
0.0
  0
LINE
  5
22E
100
AcDbEntity
  8
cut
 62
256
370
-1
 48
1.0
  6
BYLAYER
100
AcDbLine
 10
80.9999999999993463
 20
-50.6000000000003638
 30
0.0
 11
93.7999999999993577
 21
-50.6000000000003283
 31
0.0
  0
LINE
  5
22F
100
AcDbEntity
  8
cut
 62
256
370
-1
 48
1.0
  6
BYLAYER
100
AcDbLine
 10
80.9999999999993463
 20
-49.0000000000003411
 30
0.0
 11
93.7999999999993577
 21
-49.0000000000003055
 31
0.0
  0
LINE
  5
230
100
AcDbEntity
  8
cut
 62
256
370
-1
 48
1.0
  6
BYLAYER
100
AcDbLine
 10
80.9999999999993463
 20
-47.4000000000003183
 30
0.0
 11
93.7999999999993577
 21
-47.4000000000002828
 31
0.0
  0
LINE
  5
231
100
AcDbEntity
  8
cut
 62
256
370
-1
 48
1.0
  6
BYLAYER
100
AcDbLine
 10
80.9999999999993463
 20
-45.8000000000002956
 30
0.0
 11
93.7999999999993577
 21
-45.8000000000002601
 31
0.0
  0
LINE
  5
232
100
AcDbEntity
  8
cut
 62
256
370
-1
 48
1.0
  6
BYLAYER
100
AcDbLine
 10
80.9999999999993463
 20
-44.2000000000002728
 30
0.0
 11
93.7999999999993577
 21
-44.2000000000002373
 31
0.0
  0
LINE
  5
233
100
AcDbEntity
  8
cut
 62
256
370
-1
 48
1.0
  6
BYLAYER
100
AcDbLine
 10
80.9999999999993463
 20
-42.6000000000002501
 30
0.0
 11
93.7999999999993577
 21
-42.6000000000002146
 31
0.0
  0
LINE
  5
234
100
AcDbEntity
  8
cut
 62
256
370
-1
 48
1.0
  6
BYLAYER
100
AcDbLine
 10
80.9999999999993463
 20
-41.0000000000002274
 30
0.0
 11
93.7999999999993577
 21
-41.0000000000001918
 31
0.0
  0
LINE
  5
235
100
AcDbEntity
  8
cut
 62
256
370
-1
 48
1.0
  6
BYLAYER
100
AcDbLine
 10
80.9999999999993463
 20
-39.4000000000002046
 30
0.0
 11
93.7999999999993577
 21
-39.4000000000001691
 31
0.0
  0
LINE
  5
236
100
AcDbEntity
  8
cut
 62
256
370
-1
 48
1.0
  6
BYLAYER
100
AcDbLine
 10
80.9999999999993463
 20
-37.8000000000001819
 30
0.0
 11
93.7999999999993577
 21
-37.8000000000001464
 31
0.0
  0
LINE
  5
237
100
AcDbEntity
  8
cut
 62
256
370
-1
 48
1.0
  6
BYLAYER
100
AcDbLine
 10
80.9999999999993463
 20
-36.2000000000001592
 30
0.0
 11
93.7999999999993577
 21
-36.2000000000001236
 31
0.0
  0
LINE
  5
238
100
AcDbEntity
  8
cut
 62
256
370
-1
 48
1.0
  6
BYLAYER
100
AcDbLine
 10
80.9999999999993463
 20
-34.6000000000001364
 30
0.0
 11
93.7999999999993577
 21
-34.6000000000001009
 31
0.0
  0
LINE
  5
239
100
AcDbEntity
  8
cut
 62
256
370
-1
 48
1.0
  6
BYLAYER
100
AcDbLine
 10
80.9999999999993463
 20
-33.0000000000001137
 30
0.0
 11
93.7999999999993577
 21
-33.0000000000000782
 31
0.0
  0
LINE
  5
23A
100
AcDbEntity
  8
cut
 62
256
370
-1
 48
1.0
  6
BYLAYER
100
AcDbLine
 10
80.9999999999993463
 20
-31.4000000000000909
 30
0.0
 11
93.7999999999993577
 21
-31.4000000000000554
 31
0.0
  0
LINE
  5
23B
100
AcDbEntity
  8
cut
 62
256
370
-1
 48
1.0
  6
BYLAYER
100
AcDbLine
 10
80.9999999999993463
 20
-29.8000000000000682
 30
0.0
 11
93.7999999999993577
 21
-29.8000000000000327
 31
0.0
  0
LINE
  5
23C
100
AcDbEntity
  8
cut
 62
256
370
-1
 48
1.0
  6
BYLAYER
100
AcDbLine
 10
80.9999999999993463
 20
-28.2000000000000455
 30
0.0
 11
93.7999999999993577
 21
-28.2000000000000099
 31
0.0
  0
LINE
  5
23D
100
AcDbEntity
  8
cut
 62
256
370
-1
 48
1.0
  6
BYLAYER
100
AcDbLine
 10
80.9999999999993463
 20
-26.6000000000000227
 30
0.0
 11
93.7999999999993577
 21
-26.5999999999999872
 31
0.0
  0
LINE
  5
23E
100
AcDbEntity
  8
cut
 62
256
370
-1
 48
1.0
  6
BYLAYER
100
AcDbLine
 10
80.9999999999993463
 20
-25.0
 30
0.0
 11
93.7999999999993577
 21
-24.9999999999999645
 31
0.0
  0
LINE
  5
23F
100
AcDbEntity
  8
cut
 62
256
370
-1
 48
1.0
  6
BYLAYER
100
AcDbLine
 10
96.99999999999946
 20
-60.2000000000004931
 30
0.0
 11
109.9999999999996874
 21
-60.2000000000005286
 31
0.0
  0
LINE
  5
240
100
AcDbEntity
  8
cut
 62
256
370
-1
 48
1.0
  6
BYLAYER
100
AcDbLine
 10
96.99999999999946
 20
-58.6000000000004704
 30
0.0
 11
109.9999999999996874
 21
-58.6000000000005059
 31
0.0
  0
LINE
  5
241
100
AcDbEntity
  8
cut
 62
256
370
-1
 48
1.0
  6
BYLAYER
100
AcDbLine
 10
96.99999999999946
 20
-57.0000000000004476
 30
0.0
 11
109.9999999999996874
 21
-57.0000000000004832
 31
0.0
  0
LINE
  5
242
100
AcDbEntity
  8
cut
 62
256
370
-1
 48
1.0
  6
BYLAYER
100
AcDbLine
 10
96.99999999999946
 20
-55.4000000000004249
 30
0.0
 11
109.9999999999996874
 21
-55.4000000000004604
 31
0.0
  0
LINE
  5
243
100
AcDbEntity
  8
cut
 62
256
370
-1
 48
1.0
  6
BYLAYER
100
AcDbLine
 10
96.99999999999946
 20
-53.8000000000004022
 30
0.0
 11
109.9999999999996874
 21
-53.8000000000004377
 31
0.0
  0
LINE
  5
244
100
AcDbEntity
  8
cut
 62
256
370
-1
 48
1.0
  6
BYLAYER
100
AcDbLine
 10
96.99999999999946
 20
-52.2000000000003794
 30
0.0
 11
109.9999999999996874
 21
-52.200000000000415
 31
0.0
  0
LINE
  5
245
100
AcDbEntity
  8
cut
 62
256
370
-1
 48
1.0
  6
BYLAYER
100
AcDbLine
 10
96.99999999999946
 20
-50.6000000000003567
 30
0.0
 11
109.9999999999996874
 21
-50.6000000000003922
 31
0.0
  0
LINE
  5
246
100
AcDbEntity
  8
cut
 62
256
370
-1
 48
1.0
  6
BYLAYER
100
AcDbLine
 10
96.99999999999946
 20
-49.000000000000334
 30
0.0
 11
109.9999999999996874
 21
-49.0000000000003695
 31
0.0
  0
LINE
  5
247
100
AcDbEntity
  8
cut
 62
256
370
-1
 48
1.0
  6
BYLAYER
100
AcDbLine
 10
96.99999999999946
 20
-47.4000000000003112
 30
0.0
 11
109.9999999999996874
 21
-47.4000000000003467
 31
0.0
  0
LINE
  5
248
100
AcDbEntity
  8
cut
 62
256
370
-1
 48
1.0
  6
BYLAYER
100
AcDbLine
 10
96.99999999999946
 20
-45.8000000000002885
 30
0.0
 11
109.9999999999996874
 21
-45.800000000000324
 31
0.0
  0
LINE
  5
249
100
AcDbEntity
  8
cut
 62
256
370
-1
 48
1.0
  6
BYLAYER
100
AcDbLine
 10
96.99999999999946
 20
-44.2000000000002657
 30
0.0
 11
109.9999999999996874
 21
-44.2000000000003013
 31
0.0
  0
LINE
  5
24A
100
AcDbEntity
  8
cut
 62
256
370
-1
 48
1.0
  6
BYLAYER
100
AcDbLine
 10
96.99999999999946
 20
-42.600000000000243
 30
0.0
 11
109.9999999999996874
 21
-42.6000000000002785
 31
0.0
  0
LINE
  5
24B
100
AcDbEntity
  8
cut
 62
256
370
-1
 48
1.0
  6
BYLAYER
100
AcDbLine
 10
96.99999999999946
 20
-41.0000000000002203
 30
0.0
 11
109.9999999999996874
 21
-41.0000000000002558
 31
0.0
  0
LINE
  5
24C
100
AcDbEntity
  8
cut
 62
256
370
-1
 48
1.0
  6
BYLAYER
100
AcDbLine
 10
96.99999999999946
 20
-39.4000000000001975
 30
0.0
 11
109.9999999999996874
 21
-39.4000000000002331
 31
0.0
  0
LINE
  5
24D
100
AcDbEntity
  8
cut
 62
256
370
-1
 48
1.0
  6
BYLAYER
100
AcDbLine
 10
96.99999999999946
 20
-37.8000000000001748
 30
0.0
 11
109.9999999999996874
 21
-37.8000000000002103
 31
0.0
  0
LINE
  5
24E
100
AcDbEntity
  8
cut
 62
256
370
-1
 48
1.0
  6
BYLAYER
100
AcDbLine
 10
96.99999999999946
 20
-36.2000000000001521
 30
0.0
 11
109.9999999999996874
 21
-36.2000000000001876
 31
0.0
  0
LINE
  5
24F
100
AcDbEntity
  8
cut
 62
256
370
-1
 48
1.0
  6
BYLAYER
100
AcDbLine
 10
96.99999999999946
 20
-34.6000000000001293
 30
0.0
 11
109.9999999999996874
 21
-34.6000000000001648
 31
0.0
  0
LINE
  5
250
100
AcDbEntity
  8
cut
 62
256
370
-1
 48
1.0
  6
BYLAYER
100
AcDbLine
 10
96.99999999999946
 20
-33.0000000000001066
 30
0.0
 11
109.9999999999996874
 21
-33.0000000000001421
 31
0.0
  0
LINE
  5
251
100
AcDbEntity
  8
cut
 62
256
370
-1
 48
1.0
  6
BYLAYER
100
AcDbLine
 10
96.99999999999946
 20
-31.4000000000000838
 30
0.0
 11
109.9999999999996874
 21
-31.4000000000001194
 31
0.0
  0
LINE
  5
252
100
AcDbEntity
  8
cut
 62
256
370
-1
 48
1.0
  6
BYLAYER
100
AcDbLine
 10
96.99999999999946
 20
-29.8000000000000611
 30
0.0
 11
109.9999999999996874
 21
-29.8000000000000966
 31
0.0
  0
LINE
  5
253
100
AcDbEntity
  8
cut
 62
256
370
-1
 48
1.0
  6
BYLAYER
100
AcDbLine
 10
96.99999999999946
 20
-28.2000000000000384
 30
0.0
 11
109.9999999999996874
 21
-28.2000000000000739
 31
0.0
  0
LINE
  5
254
100
AcDbEntity
  8
cut
 62
256
370
-1
 48
1.0
  6
BYLAYER
100
AcDbLine
 10
96.99999999999946
 20
-26.6000000000000156
 30
0.0
 11
109.9999999999996874
 21
-26.6000000000000512
 31
0.0
  0
LINE
  5
255
100
AcDbEntity
  8
cut
 62
256
370
-1
 48
1.0
  6
BYLAYER
100
AcDbLine
 10
96.99999999999946
 20
-24.9999999999999929
 30
0.0
 11
109.9999999999996874
 21
-25.0000000000000284
 31
0.0
  0
LINE
  5
256
100
AcDbEntity
  8
cut
 62
256
370
-1
 48
1.0
  6
BYLAYER
100
AcDbLine
 10
112.9999999999993463
 20
-60.2000000000005002
 30
0.0
 11
125.7999999999993577
 21
-60.2000000000004647
 31
0.0
  0
LINE
  5
257
100
AcDbEntity
  8
cut
 62
256
370
-1
 48
1.0
  6
BYLAYER
100
AcDbLine
 10
112.9999999999993463
 20
-58.6000000000004775
 30
0.0
 11
125.7999999999993577
 21
-58.600000000000442
 31
0.0
  0
LINE
  5
258
100
AcDbEntity
  8
cut
 62
256
370
-1
 48
1.0
  6
BYLAYER
100
AcDbLine
 10
112.9999999999993463
 20
-57.0000000000004547
 30
0.0
 11
125.7999999999993577
 21
-57.0000000000004192
 31
0.0
  0
LINE
  5
259
100
AcDbEntity
  8
cut
 62
256
370
-1
 48
1.0
  6
BYLAYER
100
AcDbLine
 10
112.9999999999993463
 20
-55.400000000000432
 30
0.0
 11
125.7999999999993577
 21
-55.4000000000003965
 31
0.0
  0
LINE
  5
25A
100
AcDbEntity
  8
cut
 62
256
370
-1
 48
1.0
  6
BYLAYER
100
AcDbLine
 10
112.9999999999993463
 20
-53.8000000000004093
 30
0.0
 11
125.7999999999993577
 21
-53.8000000000003737
 31
0.0
  0
LINE
  5
25B
100
AcDbEntity
  8
cut
 62
256
370
-1
 48
1.0
  6
BYLAYER
100
AcDbLine
 10
112.9999999999993463
 20
-52.2000000000003865
 30
0.0
 11
125.7999999999993577
 21
-52.200000000000351
 31
0.0
  0
LINE
  5
25C
100
AcDbEntity
  8
cut
 62
256
370
-1
 48
1.0
  6
BYLAYER
100
AcDbLine
 10
112.9999999999993463
 20
-50.6000000000003638
 30
0.0
 11
125.7999999999993577
 21
-50.6000000000003283
 31
0.0
  0
LINE
  5
25D
100
AcDbEntity
  8
cut
 62
256
370
-1
 48
1.0
  6
BYLAYER
100
AcDbLine
 10
112.9999999999993463
 20
-49.0000000000003411
 30
0.0
 11
125.7999999999993577
 21
-49.0000000000003055
 31
0.0
  0
LINE
  5
25E
100
AcDbEntity
  8
cut
 62
256
370
-1
 48
1.0
  6
BYLAYER
100
AcDbLine
 10
112.9999999999993463
 20
-47.4000000000003183
 30
0.0
 11
125.7999999999993577
 21
-47.4000000000002828
 31
0.0
  0
LINE
  5
25F
100
AcDbEntity
  8
cut
 62
256
370
-1
 48
1.0
  6
BYLAYER
100
AcDbLine
 10
112.9999999999993463
 20
-45.8000000000002956
 30
0.0
 11
125.7999999999993577
 21
-45.8000000000002601
 31
0.0
  0
LINE
  5
260
100
AcDbEntity
  8
cut
 62
256
370
-1
 48
1.0
  6
BYLAYER
100
AcDbLine
 10
112.9999999999993463
 20
-44.2000000000002728
 30
0.0
 11
125.7999999999993577
 21
-44.2000000000002373
 31
0.0
  0
LINE
  5
261
100
AcDbEntity
  8
cut
 62
256
370
-1
 48
1.0
  6
BYLAYER
100
AcDbLine
 10
112.9999999999993463
 20
-42.6000000000002501
 30
0.0
 11
125.7999999999993577
 21
-42.6000000000002146
 31
0.0
  0
LINE
  5
262
100
AcDbEntity
  8
cut
 62
256
370
-1
 48
1.0
  6
BYLAYER
100
AcDbLine
 10
112.9999999999993463
 20
-41.0000000000002274
 30
0.0
 11
125.7999999999993577
 21
-41.0000000000001918
 31
0.0
  0
LINE
  5
263
100
AcDbEntity
  8
cut
 62
256
370
-1
 48
1.0
  6
BYLAYER
100
AcDbLine
 10
112.9999999999993463
 20
-39.4000000000002046
 30
0.0
 11
125.7999999999993577
 21
-39.4000000000001691
 31
0.0
  0
LINE
  5
264
100
AcDbEntity
  8
cut
 62
256
370
-1
 48
1.0
  6
BYLAYER
100
AcDbLine
 10
112.9999999999993463
 20
-37.8000000000001819
 30
0.0
 11
125.7999999999993577
 21
-37.8000000000001464
 31
0.0
  0
LINE
  5
265
100
AcDbEntity
  8
cut
 62
256
370
-1
 48
1.0
  6
BYLAYER
100
AcDbLine
 10
112.9999999999993463
 20
-36.2000000000001592
 30
0.0
 11
125.7999999999993577
 21
-36.2000000000001236
 31
0.0
  0
LINE
  5
266
100
AcDbEntity
  8
cut
 62
256
370
-1
 48
1.0
  6
BYLAYER
100
AcDbLine
 10
112.9999999999993463
 20
-34.6000000000001364
 30
0.0
 11
125.7999999999993577
 21
-34.6000000000001009
 31
0.0
  0
LINE
  5
267
100
AcDbEntity
  8
cut
 62
256
370
-1
 48
1.0
  6
BYLAYER
100
AcDbLine
 10
112.9999999999993463
 20
-33.0000000000001137
 30
0.0
 11
125.7999999999993577
 21
-33.0000000000000782
 31
0.0
  0
LINE
  5
268
100
AcDbEntity
  8
cut
 62
256
370
-1
 48
1.0
  6
BYLAYER
100
AcDbLine
 10
112.9999999999993463
 20
-31.4000000000000909
 30
0.0
 11
125.7999999999993577
 21
-31.4000000000000554
 31
0.0
  0
LINE
  5
269
100
AcDbEntity
  8
cut
 62
256
370
-1
 48
1.0
  6
BYLAYER
100
AcDbLine
 10
112.9999999999993463
 20
-29.8000000000000682
 30
0.0
 11
125.7999999999993577
 21
-29.8000000000000327
 31
0.0
  0
LINE
  5
26A
100
AcDbEntity
  8
cut
 62
256
370
-1
 48
1.0
  6
BYLAYER
100
AcDbLine
 10
112.9999999999993463
 20
-28.2000000000000455
 30
0.0
 11
125.7999999999993577
 21
-28.2000000000000099
 31
0.0
  0
LINE
  5
26B
100
AcDbEntity
  8
cut
 62
256
370
-1
 48
1.0
  6
BYLAYER
100
AcDbLine
 10
112.9999999999993463
 20
-26.6000000000000227
 30
0.0
 11
125.7999999999993577
 21
-26.5999999999999872
 31
0.0
  0
LINE
  5
26C
100
AcDbEntity
  8
cut
 62
256
370
-1
 48
1.0
  6
BYLAYER
100
AcDbLine
 10
112.9999999999993463
 20
-25.0
 30
0.0
 11
125.7999999999993577
 21
-24.9999999999999645
 31
0.0
  0
LINE
  5
26D
100
AcDbEntity
  8
cut
 62
256
370
-1
 48
1.0
  6
BYLAYER
100
AcDbLine
 10
128.99999999999946
 20
-60.2000000000004931
 30
0.0
 11
141.9999999999993463
 21
-60.2000000000005215
 31
0.0
  0
LINE
  5
26E
100
AcDbEntity
  8
cut
 62
256
370
-1
 48
1.0
  6
BYLAYER
100
AcDbLine
 10
128.99999999999946
 20
-58.6000000000004704
 30
0.0
 11
141.9999999999993463
 21
-58.6000000000004988
 31
0.0
  0
LINE
  5
26F
100
AcDbEntity
  8
cut
 62
256
370
-1
 48
1.0
  6
BYLAYER
100
AcDbLine
 10
128.99999999999946
 20
-57.0000000000004476
 30
0.0
 11
141.9999999999993463
 21
-57.0000000000004761
 31
0.0
  0
LINE
  5
270
100
AcDbEntity
  8
cut
 62
256
370
-1
 48
1.0
  6
BYLAYER
100
AcDbLine
 10
128.99999999999946
 20
-55.4000000000004249
 30
0.0
 11
141.9999999999993463
 21
-55.4000000000004533
 31
0.0
  0
LINE
  5
271
100
AcDbEntity
  8
cut
 62
256
370
-1
 48
1.0
  6
BYLAYER
100
AcDbLine
 10
128.99999999999946
 20
-53.8000000000004022
 30
0.0
 11
141.9999999999993463
 21
-53.8000000000004306
 31
0.0
  0
LINE
  5
272
100
AcDbEntity
  8
cut
 62
256
370
-1
 48
1.0
  6
BYLAYER
100
AcDbLine
 10
128.99999999999946
 20
-52.2000000000003794
 30
0.0
 11
141.9999999999993463
 21
-52.2000000000004079
 31
0.0
  0
LINE
  5
273
100
AcDbEntity
  8
cut
 62
256
370
-1
 48
1.0
  6
BYLAYER
100
AcDbLine
 10
128.99999999999946
 20
-50.6000000000003567
 30
0.0
 11
141.9999999999993463
 21
-50.6000000000003851
 31
0.0
  0
LINE
  5
274
100
AcDbEntity
  8
cut
 62
256
370
-1
 48
1.0
  6
BYLAYER
100
AcDbLine
 10
128.99999999999946
 20
-49.000000000000334
 30
0.0
 11
141.9999999999993463
 21
-49.0000000000003624
 31
0.0
  0
LINE
  5
275
100
AcDbEntity
  8
cut
 62
256
370
-1
 48
1.0
  6
BYLAYER
100
AcDbLine
 10
128.99999999999946
 20
-47.4000000000003112
 30
0.0
 11
141.9999999999993463
 21
-47.4000000000003396
 31
0.0
  0
LINE
  5
276
100
AcDbEntity
  8
cut
 62
256
370
-1
 48
1.0
  6
BYLAYER
100
AcDbLine
 10
128.99999999999946
 20
-45.8000000000002885
 30
0.0
 11
141.9999999999993463
 21
-45.8000000000003169
 31
0.0
  0
LINE
  5
277
100
AcDbEntity
  8
cut
 62
256
370
-1
 48
1.0
  6
BYLAYER
100
AcDbLine
 10
128.99999999999946
 20
-44.2000000000002657
 30
0.0
 11
141.9999999999993463
 21
-44.2000000000002942
 31
0.0
  0
LINE
  5
278
100
AcDbEntity
  8
cut
 62
256
370
-1
 48
1.0
  6
BYLAYER
100
AcDbLine
 10
128.99999999999946
 20
-42.600000000000243
 30
0.0
 11
141.9999999999993463
 21
-42.6000000000002714
 31
0.0
  0
LINE
  5
279
100
AcDbEntity
  8
cut
 62
256
370
-1
 48
1.0
  6
BYLAYER
100
AcDbLine
 10
128.99999999999946
 20
-41.0000000000002203
 30
0.0
 11
141.9999999999993463
 21
-41.0000000000002487
 31
0.0
  0
LINE
  5
27A
100
AcDbEntity
  8
cut
 62
256
370
-1
 48
1.0
  6
BYLAYER
100
AcDbLine
 10
128.99999999999946
 20
-39.4000000000001975
 30
0.0
 11
141.9999999999993463
 21
-39.400000000000226
 31
0.0
  0
LINE
  5
27B
100
AcDbEntity
  8
cut
 62
256
370
-1
 48
1.0
  6
BYLAYER
100
AcDbLine
 10
128.99999999999946
 20
-37.8000000000001748
 30
0.0
 11
141.9999999999993463
 21
-37.8000000000002032
 31
0.0
  0
LINE
  5
27C
100
AcDbEntity
  8
cut
 62
256
370
-1
 48
1.0
  6
BYLAYER
100
AcDbLine
 10
128.99999999999946
 20
-36.2000000000001521
 30
0.0
 11
141.9999999999993463
 21
-36.2000000000001805
 31
0.0
  0
LINE
  5
27D
100
AcDbEntity
  8
cut
 62
256
370
-1
 48
1.0
  6
BYLAYER
100
AcDbLine
 10
128.99999999999946
 20
-34.6000000000001293
 30
0.0
 11
141.9999999999993463
 21
-34.6000000000001577
 31
0.0
  0
LINE
  5
27E
100
AcDbEntity
  8
cut
 62
256
370
-1
 48
1.0
  6
BYLAYER
100
AcDbLine
 10
128.99999999999946
 20
-33.0000000000001066
 30
0.0
 11
141.9999999999993463
 21
-33.000000000000135
 31
0.0
  0
LINE
  5
27F
100
AcDbEntity
  8
cut
 62
256
370
-1
 48
1.0
  6
BYLAYER
100
AcDbLine
 10
128.99999999999946
 20
-31.4000000000000838
 30
0.0
 11
141.9999999999993463
 21
-31.4000000000001123
 31
0.0
  0
LINE
  5
280
100
AcDbEntity
  8
cut
 62
256
370
-1
 48
1.0
  6
BYLAYER
100
AcDbLine
 10
128.99999999999946
 20
-29.8000000000000611
 30
0.0
 11
141.9999999999993463
 21
-29.8000000000000895
 31
0.0
  0
LINE
  5
281
100
AcDbEntity
  8
cut
 62
256
370
-1
 48
1.0
  6
BYLAYER
100
AcDbLine
 10
128.99999999999946
 20
-28.2000000000000384
 30
0.0
 11
141.9999999999993463
 21
-28.2000000000000668
 31
0.0
  0
LINE
  5
282
100
AcDbEntity
  8
cut
 62
256
370
-1
 48
1.0
  6
BYLAYER
100
AcDbLine
 10
128.99999999999946
 20
-26.6000000000000156
 30
0.0
 11
141.9999999999993463
 21
-26.6000000000000441
 31
0.0
  0
LINE
  5
283
100
AcDbEntity
  8
cut
 62
256
370
-1
 48
1.0
  6
BYLAYER
100
AcDbLine
 10
128.99999999999946
 20
-24.9999999999999929
 30
0.0
 11
141.9999999999993463
 21
-25.0000000000000213
 31
0.0
  0
LINE
  5
284
100
AcDbEntity
  8
cut
 62
256
370
-1
 48
1.0
  6
BYLAYER
100
AcDbLine
 10
80.9999999999993463
 20
-59.4000000000004889
 30
0.0
 11
86.7499999999994031
 21
-59.4000000000004817
 31
0.0
  0
LINE
  5
285
100
AcDbEntity
  8
cut
 62
256
370
-1
 48
1.0
  6
BYLAYER
100
AcDbLine
 10
80.9999999999993463
 20
-57.8000000000004661
 30
0.0
 11
86.7499999999994031
 21
-57.800000000000459
 31
0.0
  0
LINE
  5
286
100
AcDbEntity
  8
cut
 62
256
370
-1
 48
1.0
  6
BYLAYER
100
AcDbLine
 10
80.9999999999993463
 20
-56.2000000000004434
 30
0.0
 11
86.7499999999994031
 21
-56.2000000000004363
 31
0.0
  0
LINE
  5
287
100
AcDbEntity
  8
cut
 62
256
370
-1
 48
1.0
  6
BYLAYER
100
AcDbLine
 10
80.9999999999993463
 20
-54.6000000000004206
 30
0.0
 11
86.7499999999994031
 21
-54.6000000000004135
 31
0.0
  0
LINE
  5
288
100
AcDbEntity
  8
cut
 62
256
370
-1
 48
1.0
  6
BYLAYER
100
AcDbLine
 10
80.9999999999993463
 20
-53.0000000000003979
 30
0.0
 11
86.7499999999994031
 21
-53.0000000000003908
 31
0.0
  0
LINE
  5
289
100
AcDbEntity
  8
cut
 62
256
370
-1
 48
1.0
  6
BYLAYER
100
AcDbLine
 10
80.9999999999993463
 20
-51.4000000000003752
 30
0.0
 11
86.7499999999994031
 21
-51.4000000000003681
 31
0.0
  0
LINE
  5
28A
100
AcDbEntity
  8
cut
 62
256
370
-1
 48
1.0
  6
BYLAYER
100
AcDbLine
 10
80.9999999999993463
 20
-49.8000000000003524
 30
0.0
 11
86.7499999999994031
 21
-49.8000000000003453
 31
0.0
  0
LINE
  5
28B
100
AcDbEntity
  8
cut
 62
256
370
-1
 48
1.0
  6
BYLAYER
100
AcDbLine
 10
80.9999999999993463
 20
-48.2000000000003297
 30
0.0
 11
86.7499999999994031
 21
-48.2000000000003226
 31
0.0
  0
LINE
  5
28C
100
AcDbEntity
  8
cut
 62
256
370
-1
 48
1.0
  6
BYLAYER
100
AcDbLine
 10
80.9999999999993463
 20
-46.600000000000307
 30
0.0
 11
86.7499999999994031
 21
-46.6000000000002998
 31
0.0
  0
LINE
  5
28D
100
AcDbEntity
  8
cut
 62
256
370
-1
 48
1.0
  6
BYLAYER
100
AcDbLine
 10
80.9999999999993463
 20
-45.0000000000002842
 30
0.0
 11
86.7499999999994031
 21
-45.0000000000002771
 31
0.0
  0
LINE
  5
28E
100
AcDbEntity
  8
cut
 62
256
370
-1
 48
1.0
  6
BYLAYER
100
AcDbLine
 10
80.9999999999993463
 20
-43.4000000000002615
 30
0.0
 11
86.7499999999994031
 21
-43.4000000000002544
 31
0.0
  0
LINE
  5
28F
100
AcDbEntity
  8
cut
 62
256
370
-1
 48
1.0
  6
BYLAYER
100
AcDbLine
 10
80.9999999999993463
 20
-41.8000000000002387
 30
0.0
 11
86.7499999999994031
 21
-41.8000000000002316
 31
0.0
  0
LINE
  5
290
100
AcDbEntity
  8
cut
 62
256
370
-1
 48
1.0
  6
BYLAYER
100
AcDbLine
 10
80.9999999999993463
 20
-40.200000000000216
 30
0.0
 11
86.7499999999994031
 21
-40.2000000000002089
 31
0.0
  0
LINE
  5
291
100
AcDbEntity
  8
cut
 62
256
370
-1
 48
1.0
  6
BYLAYER
100
AcDbLine
 10
80.9999999999993463
 20
-38.6000000000001933
 30
0.0
 11
86.7499999999994031
 21
-38.6000000000001862
 31
0.0
  0
LINE
  5
292
100
AcDbEntity
  8
cut
 62
256
370
-1
 48
1.0
  6
BYLAYER
100
AcDbLine
 10
80.9999999999993463
 20
-37.0000000000001705
 30
0.0
 11
86.7499999999994031
 21
-37.0000000000001634
 31
0.0
  0
LINE
  5
293
100
AcDbEntity
  8
cut
 62
256
370
-1
 48
1.0
  6
BYLAYER
100
AcDbLine
 10
80.9999999999993463
 20
-35.4000000000001478
 30
0.0
 11
86.7499999999994031
 21
-35.4000000000001407
 31
0.0
  0
LINE
  5
294
100
AcDbEntity
  8
cut
 62
256
370
-1
 48
1.0
  6
BYLAYER
100
AcDbLine
 10
80.9999999999993463
 20
-33.8000000000001251
 30
0.0
 11
86.7499999999994031
 21
-33.800000000000118
 31
0.0
  0
LINE
  5
295
100
AcDbEntity
  8
cut
 62
256
370
-1
 48
1.0
  6
BYLAYER
100
AcDbLine
 10
80.9999999999993463
 20
-32.2000000000001023
 30
0.0
 11
86.7499999999994031
 21
-32.2000000000000952
 31
0.0
  0
LINE
  5
296
100
AcDbEntity
  8
cut
 62
256
370
-1
 48
1.0
  6
BYLAYER
100
AcDbLine
 10
80.9999999999993463
 20
-30.6000000000000796
 30
0.0
 11
86.7499999999994031
 21
-30.6000000000000725
 31
0.0
  0
LINE
  5
297
100
AcDbEntity
  8
cut
 62
256
370
-1
 48
1.0
  6
BYLAYER
100
AcDbLine
 10
80.9999999999993463
 20
-29.0000000000000568
 30
0.0
 11
86.7499999999994031
 21
-29.0000000000000497
 31
0.0
  0
LINE
  5
298
100
AcDbEntity
  8
cut
 62
256
370
-1
 48
1.0
  6
BYLAYER
100
AcDbLine
 10
80.9999999999993463
 20
-27.4000000000000341
 30
0.0
 11
86.7499999999994031
 21
-27.400000000000027
 31
0.0
  0
LINE
  5
299
100
AcDbEntity
  8
cut
 62
256
370
-1
 48
1.0
  6
BYLAYER
100
AcDbLine
 10
80.9999999999993463
 20
-25.8000000000000114
 30
0.0
 11
86.7499999999994031
 21
-25.8000000000000043
 31
0.0
  0
LINE
  5
29A
100
AcDbEntity
  8
cut
 62
256
370
-1
 48
1.0
  6
BYLAYER
100
AcDbLine
 10
89.7499999999994031
 20
-59.4000000000004817
 30
0.0
 11
101.1999999999995055
 21
-59.4000000000004817
 31
0.0
  0
LINE
  5
29B
100
AcDbEntity
  8
cut
 62
256
370
-1
 48
1.0
  6
BYLAYER
100
AcDbLine
 10
89.7499999999994031
 20
-57.800000000000459
 30
0.0
 11
101.1999999999995055
 21
-57.800000000000459
 31
0.0
  0
LINE
  5
29C
100
AcDbEntity
  8
cut
 62
256
370
-1
 48
1.0
  6
BYLAYER
100
AcDbLine
 10
89.7499999999994031
 20
-56.2000000000004363
 30
0.0
 11
101.1999999999995055
 21
-56.2000000000004363
 31
0.0
  0
LINE
  5
29D
100
AcDbEntity
  8
cut
 62
256
370
-1
 48
1.0
  6
BYLAYER
100
AcDbLine
 10
89.7499999999994031
 20
-54.6000000000004135
 30
0.0
 11
101.1999999999995055
 21
-54.6000000000004135
 31
0.0
  0
LINE
  5
29E
100
AcDbEntity
  8
cut
 62
256
370
-1
 48
1.0
  6
BYLAYER
100
AcDbLine
 10
89.7499999999994031
 20
-53.0000000000003908
 30
0.0
 11
101.1999999999995055
 21
-53.0000000000003908
 31
0.0
  0
LINE
  5
29F
100
AcDbEntity
  8
cut
 62
256
370
-1
 48
1.0
  6
BYLAYER
100
AcDbLine
 10
89.7499999999994031
 20
-51.4000000000003681
 30
0.0
 11
101.1999999999995055
 21
-51.4000000000003681
 31
0.0
  0
LINE
  5
2A0
100
AcDbEntity
  8
cut
 62
256
370
-1
 48
1.0
  6
BYLAYER
100
AcDbLine
 10
89.7499999999994031
 20
-49.8000000000003453
 30
0.0
 11
101.1999999999995055
 21
-49.8000000000003453
 31
0.0
  0
LINE
  5
2A1
100
AcDbEntity
  8
cut
 62
256
370
-1
 48
1.0
  6
BYLAYER
100
AcDbLine
 10
89.7499999999994031
 20
-48.2000000000003226
 30
0.0
 11
101.1999999999995055
 21
-48.2000000000003226
 31
0.0
  0
LINE
  5
2A2
100
AcDbEntity
  8
cut
 62
256
370
-1
 48
1.0
  6
BYLAYER
100
AcDbLine
 10
89.7499999999994031
 20
-46.6000000000002998
 30
0.0
 11
101.1999999999995055
 21
-46.6000000000002998
 31
0.0
  0
LINE
  5
2A3
100
AcDbEntity
  8
cut
 62
256
370
-1
 48
1.0
  6
BYLAYER
100
AcDbLine
 10
89.7499999999994031
 20
-45.0000000000002771
 30
0.0
 11
101.1999999999995055
 21
-45.0000000000002771
 31
0.0
  0
LINE
  5
2A4
100
AcDbEntity
  8
cut
 62
256
370
-1
 48
1.0
  6
BYLAYER
100
AcDbLine
 10
89.7499999999994031
 20
-43.4000000000002544
 30
0.0
 11
101.1999999999995055
 21
-43.4000000000002544
 31
0.0
  0
LINE
  5
2A5
100
AcDbEntity
  8
cut
 62
256
370
-1
 48
1.0
  6
BYLAYER
100
AcDbLine
 10
89.7499999999994031
 20
-41.8000000000002316
 30
0.0
 11
101.1999999999995055
 21
-41.8000000000002316
 31
0.0
  0
LINE
  5
2A6
100
AcDbEntity
  8
cut
 62
256
370
-1
 48
1.0
  6
BYLAYER
100
AcDbLine
 10
89.7499999999994031
 20
-40.2000000000002089
 30
0.0
 11
101.1999999999995055
 21
-40.2000000000002089
 31
0.0
  0
LINE
  5
2A7
100
AcDbEntity
  8
cut
 62
256
370
-1
 48
1.0
  6
BYLAYER
100
AcDbLine
 10
89.7499999999994031
 20
-38.6000000000001862
 30
0.0
 11
101.1999999999995055
 21
-38.6000000000001862
 31
0.0
  0
LINE
  5
2A8
100
AcDbEntity
  8
cut
 62
256
370
-1
 48
1.0
  6
BYLAYER
100
AcDbLine
 10
89.7499999999994031
 20
-37.0000000000001634
 30
0.0
 11
101.1999999999995055
 21
-37.0000000000001634
 31
0.0
  0
LINE
  5
2A9
100
AcDbEntity
  8
cut
 62
256
370
-1
 48
1.0
  6
BYLAYER
100
AcDbLine
 10
89.7499999999994031
 20
-35.4000000000001407
 30
0.0
 11
101.1999999999995055
 21
-35.4000000000001407
 31
0.0
  0
LINE
  5
2AA
100
AcDbEntity
  8
cut
 62
256
370
-1
 48
1.0
  6
BYLAYER
100
AcDbLine
 10
89.7499999999994031
 20
-33.800000000000118
 30
0.0
 11
101.1999999999995055
 21
-33.800000000000118
 31
0.0
  0
LINE
  5
2AB
100
AcDbEntity
  8
cut
 62
256
370
-1
 48
1.0
  6
BYLAYER
100
AcDbLine
 10
89.7499999999994031
 20
-32.2000000000000952
 30
0.0
 11
101.1999999999995055
 21
-32.2000000000000952
 31
0.0
  0
LINE
  5
2AC
100
AcDbEntity
  8
cut
 62
256
370
-1
 48
1.0
  6
BYLAYER
100
AcDbLine
 10
89.7499999999994031
 20
-30.6000000000000725
 30
0.0
 11
101.1999999999995055
 21
-30.6000000000000725
 31
0.0
  0
LINE
  5
2AD
100
AcDbEntity
  8
cut
 62
256
370
-1
 48
1.0
  6
BYLAYER
100
AcDbLine
 10
89.7499999999994031
 20
-29.0000000000000497
 30
0.0
 11
101.1999999999995055
 21
-29.0000000000000497
 31
0.0
  0
LINE
  5
2AE
100
AcDbEntity
  8
cut
 62
256
370
-1
 48
1.0
  6
BYLAYER
100
AcDbLine
 10
89.7499999999994031
 20
-27.400000000000027
 30
0.0
 11
101.1999999999995055
 21
-27.400000000000027
 31
0.0
  0
LINE
  5
2AF
100
AcDbEntity
  8
cut
 62
256
370
-1
 48
1.0
  6
BYLAYER
100
AcDbLine
 10
89.7499999999994031
 20
-25.8000000000000043
 30
0.0
 11
101.1999999999995055
 21
-25.8000000000000043
 31
0.0
  0
LINE
  5
2B0
100
AcDbEntity
  8
cut
 62
256
370
-1
 48
1.0
  6
BYLAYER
100
AcDbLine
 10
104.24999999999946
 20
-59.400000000000496
 30
0.0
 11
109.9999999999992895
 21
-59.4000000000005031
 31
0.0
  0
LINE
  5
2B1
100
AcDbEntity
  8
cut
 62
256
370
-1
 48
1.0
  6
BYLAYER
100
AcDbLine
 10
104.24999999999946
 20
-57.8000000000004732
 30
0.0
 11
109.9999999999992895
 21
-57.8000000000004803
 31
0.0
  0
LINE
  5
2B2
100
AcDbEntity
  8
cut
 62
256
370
-1
 48
1.0
  6
BYLAYER
100
AcDbLine
 10
104.24999999999946
 20
-56.2000000000004505
 30
0.0
 11
109.9999999999992895
 21
-56.2000000000004576
 31
0.0
  0
LINE
  5
2B3
100
AcDbEntity
  8
cut
 62
256
370
-1
 48
1.0
  6
BYLAYER
100
AcDbLine
 10
104.24999999999946
 20
-54.6000000000004277
 30
0.0
 11
109.9999999999992895
 21
-54.6000000000004349
 31
0.0
  0
LINE
  5
2B4
100
AcDbEntity
  8
cut
 62
256
370
-1
 48
1.0
  6
BYLAYER
100
AcDbLine
 10
104.24999999999946
 20
-53.000000000000405
 30
0.0
 11
109.9999999999992895
 21
-53.0000000000004121
 31
0.0
  0
LINE
  5
2B5
100
AcDbEntity
  8
cut
 62
256
370
-1
 48
1.0
  6
BYLAYER
100
AcDbLine
 10
104.24999999999946
 20
-51.4000000000003823
 30
0.0
 11
109.9999999999992895
 21
-51.4000000000003894
 31
0.0
  0
LINE
  5
2B6
100
AcDbEntity
  8
cut
 62
256
370
-1
 48
1.0
  6
BYLAYER
100
AcDbLine
 10
104.24999999999946
 20
-49.8000000000003595
 30
0.0
 11
109.9999999999992895
 21
-49.8000000000003666
 31
0.0
  0
LINE
  5
2B7
100
AcDbEntity
  8
cut
 62
256
370
-1
 48
1.0
  6
BYLAYER
100
AcDbLine
 10
104.24999999999946
 20
-48.2000000000003368
 30
0.0
 11
109.9999999999992895
 21
-48.2000000000003439
 31
0.0
  0
LINE
  5
2B8
100
AcDbEntity
  8
cut
 62
256
370
-1
 48
1.0
  6
BYLAYER
100
AcDbLine
 10
104.24999999999946
 20
-46.6000000000003141
 30
0.0
 11
109.9999999999992895
 21
-46.6000000000003212
 31
0.0
  0
LINE
  5
2B9
100
AcDbEntity
  8
cut
 62
256
370
-1
 48
1.0
  6
BYLAYER
100
AcDbLine
 10
104.24999999999946
 20
-45.0000000000002913
 30
0.0
 11
109.9999999999992895
 21
-45.0000000000002984
 31
0.0
  0
LINE
  5
2BA
100
AcDbEntity
  8
cut
 62
256
370
-1
 48
1.0
  6
BYLAYER
100
AcDbLine
 10
104.24999999999946
 20
-43.4000000000002686
 30
0.0
 11
109.9999999999992895
 21
-43.4000000000002757
 31
0.0
  0
LINE
  5
2BB
100
AcDbEntity
  8
cut
 62
256
370
-1
 48
1.0
  6
BYLAYER
100
AcDbLine
 10
104.24999999999946
 20
-41.8000000000002458
 30
0.0
 11
109.9999999999992895
 21
-41.800000000000253
 31
0.0
  0
LINE
  5
2BC
100
AcDbEntity
  8
cut
 62
256
370
-1
 48
1.0
  6
BYLAYER
100
AcDbLine
 10
104.24999999999946
 20
-40.2000000000002231
 30
0.0
 11
109.9999999999992895
 21
-40.2000000000002302
 31
0.0
  0
LINE
  5
2BD
100
AcDbEntity
  8
cut
 62
256
370
-1
 48
1.0
  6
BYLAYER
100
AcDbLine
 10
104.24999999999946
 20
-38.6000000000002004
 30
0.0
 11
109.9999999999992895
 21
-38.6000000000002075
 31
0.0
  0
LINE
  5
2BE
100
AcDbEntity
  8
cut
 62
256
370
-1
 48
1.0
  6
BYLAYER
100
AcDbLine
 10
104.24999999999946
 20
-37.0000000000001776
 30
0.0
 11
109.9999999999992895
 21
-37.0000000000001847
 31
0.0
  0
LINE
  5
2BF
100
AcDbEntity
  8
cut
 62
256
370
-1
 48
1.0
  6
BYLAYER
100
AcDbLine
 10
104.24999999999946
 20
-35.4000000000001549
 30
0.0
 11
109.9999999999992895
 21
-35.400000000000162
 31
0.0
  0
LINE
  5
2C0
100
AcDbEntity
  8
cut
 62
256
370
-1
 48
1.0
  6
BYLAYER
100
AcDbLine
 10
104.24999999999946
 20
-33.8000000000001322
 30
0.0
 11
109.9999999999992895
 21
-33.8000000000001393
 31
0.0
  0
LINE
  5
2C1
100
AcDbEntity
  8
cut
 62
256
370
-1
 48
1.0
  6
BYLAYER
100
AcDbLine
 10
104.24999999999946
 20
-32.2000000000001094
 30
0.0
 11
109.9999999999992895
 21
-32.2000000000001165
 31
0.0
  0
LINE
  5
2C2
100
AcDbEntity
  8
cut
 62
256
370
-1
 48
1.0
  6
BYLAYER
100
AcDbLine
 10
104.24999999999946
 20
-30.6000000000000867
 30
0.0
 11
109.9999999999992895
 21
-30.6000000000000938
 31
0.0
  0
LINE
  5
2C3
100
AcDbEntity
  8
cut
 62
256
370
-1
 48
1.0
  6
BYLAYER
100
AcDbLine
 10
104.24999999999946
 20
-29.0000000000000639
 30
0.0
 11
109.9999999999992895
 21
-29.0000000000000711
 31
0.0
  0
LINE
  5
2C4
100
AcDbEntity
  8
cut
 62
256
370
-1
 48
1.0
  6
BYLAYER
100
AcDbLine
 10
104.24999999999946
 20
-27.4000000000000412
 30
0.0
 11
109.9999999999992895
 21
-27.4000000000000483
 31
0.0
  0
LINE
  5
2C5
100
AcDbEntity
  8
cut
 62
256
370
-1
 48
1.0
  6
BYLAYER
100
AcDbLine
 10
104.24999999999946
 20
-25.8000000000000185
 30
0.0
 11
109.9999999999992895
 21
-25.8000000000000256
 31
0.0
  0
LINE
  5
2C6
100
AcDbEntity
  8
cut
 62
256
370
-1
 48
1.0
  6
BYLAYER
100
AcDbLine
 10
112.9999999999994031
 20
-59.4000000000004889
 30
0.0
 11
118.7499999999994031
 21
-59.4000000000004817
 31
0.0
  0
LINE
  5
2C7
100
AcDbEntity
  8
cut
 62
256
370
-1
 48
1.0
  6
BYLAYER
100
AcDbLine
 10
112.9999999999994031
 20
-57.8000000000004661
 30
0.0
 11
118.7499999999994031
 21
-57.800000000000459
 31
0.0
  0
LINE
  5
2C8
100
AcDbEntity
  8
cut
 62
256
370
-1
 48
1.0
  6
BYLAYER
100
AcDbLine
 10
112.9999999999994031
 20
-56.2000000000004434
 30
0.0
 11
118.7499999999994031
 21
-56.2000000000004363
 31
0.0
  0
LINE
  5
2C9
100
AcDbEntity
  8
cut
 62
256
370
-1
 48
1.0
  6
BYLAYER
100
AcDbLine
 10
112.9999999999994031
 20
-54.6000000000004206
 30
0.0
 11
118.7499999999994031
 21
-54.6000000000004135
 31
0.0
  0
LINE
  5
2CA
100
AcDbEntity
  8
cut
 62
256
370
-1
 48
1.0
  6
BYLAYER
100
AcDbLine
 10
112.9999999999994031
 20
-53.0000000000003979
 30
0.0
 11
118.7499999999994031
 21
-53.0000000000003908
 31
0.0
  0
LINE
  5
2CB
100
AcDbEntity
  8
cut
 62
256
370
-1
 48
1.0
  6
BYLAYER
100
AcDbLine
 10
112.9999999999994031
 20
-51.4000000000003752
 30
0.0
 11
118.7499999999994031
 21
-51.4000000000003681
 31
0.0
  0
LINE
  5
2CC
100
AcDbEntity
  8
cut
 62
256
370
-1
 48
1.0
  6
BYLAYER
100
AcDbLine
 10
112.9999999999994031
 20
-49.8000000000003524
 30
0.0
 11
118.7499999999994031
 21
-49.8000000000003453
 31
0.0
  0
LINE
  5
2CD
100
AcDbEntity
  8
cut
 62
256
370
-1
 48
1.0
  6
BYLAYER
100
AcDbLine
 10
112.9999999999994031
 20
-48.2000000000003297
 30
0.0
 11
118.7499999999994031
 21
-48.2000000000003226
 31
0.0
  0
LINE
  5
2CE
100
AcDbEntity
  8
cut
 62
256
370
-1
 48
1.0
  6
BYLAYER
100
AcDbLine
 10
112.9999999999994031
 20
-46.600000000000307
 30
0.0
 11
118.7499999999994031
 21
-46.6000000000002998
 31
0.0
  0
LINE
  5
2CF
100
AcDbEntity
  8
cut
 62
256
370
-1
 48
1.0
  6
BYLAYER
100
AcDbLine
 10
112.9999999999994031
 20
-45.0000000000002842
 30
0.0
 11
118.7499999999994031
 21
-45.0000000000002771
 31
0.0
  0
LINE
  5
2D0
100
AcDbEntity
  8
cut
 62
256
370
-1
 48
1.0
  6
BYLAYER
100
AcDbLine
 10
112.9999999999994031
 20
-43.4000000000002615
 30
0.0
 11
118.7499999999994031
 21
-43.4000000000002544
 31
0.0
  0
LINE
  5
2D1
100
AcDbEntity
  8
cut
 62
256
370
-1
 48
1.0
  6
BYLAYER
100
AcDbLine
 10
112.9999999999994031
 20
-41.8000000000002387
 30
0.0
 11
118.7499999999994031
 21
-41.8000000000002316
 31
0.0
  0
LINE
  5
2D2
100
AcDbEntity
  8
cut
 62
256
370
-1
 48
1.0
  6
BYLAYER
100
AcDbLine
 10
112.9999999999994031
 20
-40.200000000000216
 30
0.0
 11
118.7499999999994031
 21
-40.2000000000002089
 31
0.0
  0
LINE
  5
2D3
100
AcDbEntity
  8
cut
 62
256
370
-1
 48
1.0
  6
BYLAYER
100
AcDbLine
 10
112.9999999999994031
 20
-38.6000000000001933
 30
0.0
 11
118.7499999999994031
 21
-38.6000000000001862
 31
0.0
  0
LINE
  5
2D4
100
AcDbEntity
  8
cut
 62
256
370
-1
 48
1.0
  6
BYLAYER
100
AcDbLine
 10
112.9999999999994031
 20
-37.0000000000001705
 30
0.0
 11
118.7499999999994031
 21
-37.0000000000001634
 31
0.0
  0
LINE
  5
2D5
100
AcDbEntity
  8
cut
 62
256
370
-1
 48
1.0
  6
BYLAYER
100
AcDbLine
 10
112.9999999999994031
 20
-35.4000000000001478
 30
0.0
 11
118.7499999999994031
 21
-35.4000000000001407
 31
0.0
  0
LINE
  5
2D6
100
AcDbEntity
  8
cut
 62
256
370
-1
 48
1.0
  6
BYLAYER
100
AcDbLine
 10
112.9999999999994031
 20
-33.8000000000001251
 30
0.0
 11
118.7499999999994031
 21
-33.800000000000118
 31
0.0
  0
LINE
  5
2D7
100
AcDbEntity
  8
cut
 62
256
370
-1
 48
1.0
  6
BYLAYER
100
AcDbLine
 10
112.9999999999994031
 20
-32.2000000000001023
 30
0.0
 11
118.7499999999994031
 21
-32.2000000000000952
 31
0.0
  0
LINE
  5
2D8
100
AcDbEntity
  8
cut
 62
256
370
-1
 48
1.0
  6
BYLAYER
100
AcDbLine
 10
112.9999999999994031
 20
-30.6000000000000796
 30
0.0
 11
118.7499999999994031
 21
-30.6000000000000725
 31
0.0
  0
LINE
  5
2D9
100
AcDbEntity
  8
cut
 62
256
370
-1
 48
1.0
  6
BYLAYER
100
AcDbLine
 10
112.9999999999994031
 20
-29.0000000000000568
 30
0.0
 11
118.7499999999994031
 21
-29.0000000000000497
 31
0.0
  0
LINE
  5
2DA
100
AcDbEntity
  8
cut
 62
256
370
-1
 48
1.0
  6
BYLAYER
100
AcDbLine
 10
112.9999999999994031
 20
-27.4000000000000341
 30
0.0
 11
118.7499999999994031
 21
-27.400000000000027
 31
0.0
  0
LINE
  5
2DB
100
AcDbEntity
  8
cut
 62
256
370
-1
 48
1.0
  6
BYLAYER
100
AcDbLine
 10
112.9999999999994031
 20
-25.8000000000000114
 30
0.0
 11
118.7499999999994031
 21
-25.8000000000000043
 31
0.0
  0
LINE
  5
2DC
100
AcDbEntity
  8
cut
 62
256
370
-1
 48
1.0
  6
BYLAYER
100
AcDbLine
 10
121.7499999999994031
 20
-59.4000000000004817
 30
0.0
 11
133.1999999999995055
 21
-59.4000000000004817
 31
0.0
  0
LINE
  5
2DD
100
AcDbEntity
  8
cut
 62
256
370
-1
 48
1.0
  6
BYLAYER
100
AcDbLine
 10
121.7499999999994031
 20
-57.800000000000459
 30
0.0
 11
133.1999999999995055
 21
-57.800000000000459
 31
0.0
  0
LINE
  5
2DE
100
AcDbEntity
  8
cut
 62
256
370
-1
 48
1.0
  6
BYLAYER
100
AcDbLine
 10
121.7499999999994031
 20
-56.2000000000004363
 30
0.0
 11
133.1999999999995055
 21
-56.2000000000004363
 31
0.0
  0
LINE
  5
2DF
100
AcDbEntity
  8
cut
 62
256
370
-1
 48
1.0
  6
BYLAYER
100
AcDbLine
 10
121.7499999999994031
 20
-54.6000000000004135
 30
0.0
 11
133.1999999999995055
 21
-54.6000000000004135
 31
0.0
  0
LINE
  5
2E0
100
AcDbEntity
  8
cut
 62
256
370
-1
 48
1.0
  6
BYLAYER
100
AcDbLine
 10
121.7499999999994031
 20
-53.0000000000003908
 30
0.0
 11
133.1999999999995055
 21
-53.0000000000003908
 31
0.0
  0
LINE
  5
2E1
100
AcDbEntity
  8
cut
 62
256
370
-1
 48
1.0
  6
BYLAYER
100
AcDbLine
 10
121.7499999999994031
 20
-51.4000000000003681
 30
0.0
 11
133.1999999999995055
 21
-51.4000000000003681
 31
0.0
  0
LINE
  5
2E2
100
AcDbEntity
  8
cut
 62
256
370
-1
 48
1.0
  6
BYLAYER
100
AcDbLine
 10
121.7499999999994031
 20
-49.8000000000003453
 30
0.0
 11
133.1999999999995055
 21
-49.8000000000003453
 31
0.0
  0
LINE
  5
2E3
100
AcDbEntity
  8
cut
 62
256
370
-1
 48
1.0
  6
BYLAYER
100
AcDbLine
 10
121.7499999999994031
 20
-48.2000000000003226
 30
0.0
 11
133.1999999999995055
 21
-48.2000000000003226
 31
0.0
  0
LINE
  5
2E4
100
AcDbEntity
  8
cut
 62
256
370
-1
 48
1.0
  6
BYLAYER
100
AcDbLine
 10
121.7499999999994031
 20
-46.6000000000002998
 30
0.0
 11
133.1999999999995055
 21
-46.6000000000002998
 31
0.0
  0
LINE
  5
2E5
100
AcDbEntity
  8
cut
 62
256
370
-1
 48
1.0
  6
BYLAYER
100
AcDbLine
 10
121.7499999999994031
 20
-45.0000000000002771
 30
0.0
 11
133.1999999999995055
 21
-45.0000000000002771
 31
0.0
  0
LINE
  5
2E6
100
AcDbEntity
  8
cut
 62
256
370
-1
 48
1.0
  6
BYLAYER
100
AcDbLine
 10
121.7499999999994031
 20
-43.4000000000002544
 30
0.0
 11
133.1999999999995055
 21
-43.4000000000002544
 31
0.0
  0
LINE
  5
2E7
100
AcDbEntity
  8
cut
 62
256
370
-1
 48
1.0
  6
BYLAYER
100
AcDbLine
 10
121.7499999999994031
 20
-41.8000000000002316
 30
0.0
 11
133.1999999999995055
 21
-41.8000000000002316
 31
0.0
  0
LINE
  5
2E8
100
AcDbEntity
  8
cut
 62
256
370
-1
 48
1.0
  6
BYLAYER
100
AcDbLine
 10
121.7499999999994031
 20
-40.2000000000002089
 30
0.0
 11
133.1999999999995055
 21
-40.2000000000002089
 31
0.0
  0
LINE
  5
2E9
100
AcDbEntity
  8
cut
 62
256
370
-1
 48
1.0
  6
BYLAYER
100
AcDbLine
 10
121.7499999999994031
 20
-38.6000000000001862
 30
0.0
 11
133.1999999999995055
 21
-38.6000000000001862
 31
0.0
  0
LINE
  5
2EA
100
AcDbEntity
  8
cut
 62
256
370
-1
 48
1.0
  6
BYLAYER
100
AcDbLine
 10
121.7499999999994031
 20
-37.0000000000001634
 30
0.0
 11
133.1999999999995055
 21
-37.0000000000001634
 31
0.0
  0
LINE
  5
2EB
100
AcDbEntity
  8
cut
 62
256
370
-1
 48
1.0
  6
BYLAYER
100
AcDbLine
 10
121.7499999999994031
 20
-35.4000000000001407
 30
0.0
 11
133.1999999999995055
 21
-35.4000000000001407
 31
0.0
  0
LINE
  5
2EC
100
AcDbEntity
  8
cut
 62
256
370
-1
 48
1.0
  6
BYLAYER
100
AcDbLine
 10
121.7499999999994031
 20
-33.800000000000118
 30
0.0
 11
133.1999999999995055
 21
-33.800000000000118
 31
0.0
  0
LINE
  5
2ED
100
AcDbEntity
  8
cut
 62
256
370
-1
 48
1.0
  6
BYLAYER
100
AcDbLine
 10
121.7499999999994031
 20
-32.2000000000000952
 30
0.0
 11
133.1999999999995055
 21
-32.2000000000000952
 31
0.0
  0
LINE
  5
2EE
100
AcDbEntity
  8
cut
 62
256
370
-1
 48
1.0
  6
BYLAYER
100
AcDbLine
 10
121.7499999999994031
 20
-30.6000000000000725
 30
0.0
 11
133.1999999999995055
 21
-30.6000000000000725
 31
0.0
  0
LINE
  5
2EF
100
AcDbEntity
  8
cut
 62
256
370
-1
 48
1.0
  6
BYLAYER
100
AcDbLine
 10
121.7499999999994031
 20
-29.0000000000000497
 30
0.0
 11
133.1999999999995055
 21
-29.0000000000000497
 31
0.0
  0
LINE
  5
2F0
100
AcDbEntity
  8
cut
 62
256
370
-1
 48
1.0
  6
BYLAYER
100
AcDbLine
 10
121.7499999999994031
 20
-27.400000000000027
 30
0.0
 11
133.1999999999995055
 21
-27.400000000000027
 31
0.0
  0
LINE
  5
2F1
100
AcDbEntity
  8
cut
 62
256
370
-1
 48
1.0
  6
BYLAYER
100
AcDbLine
 10
121.7499999999994031
 20
-25.8000000000000043
 30
0.0
 11
133.1999999999995055
 21
-25.8000000000000043
 31
0.0
  0
LINE
  5
2F2
100
AcDbEntity
  8
cut
 62
256
370
-1
 48
1.0
  6
BYLAYER
100
AcDbLine
 10
136.24999999999946
 20
-59.400000000000496
 30
0.0
 11
141.9999999999993463
 21
-59.4000000000005031
 31
0.0
  0
LINE
  5
2F3
100
AcDbEntity
  8
cut
 62
256
370
-1
 48
1.0
  6
BYLAYER
100
AcDbLine
 10
136.24999999999946
 20
-57.8000000000004732
 30
0.0
 11
141.9999999999993463
 21
-57.8000000000004803
 31
0.0
  0
LINE
  5
2F4
100
AcDbEntity
  8
cut
 62
256
370
-1
 48
1.0
  6
BYLAYER
100
AcDbLine
 10
136.24999999999946
 20
-56.2000000000004505
 30
0.0
 11
141.9999999999993463
 21
-56.2000000000004576
 31
0.0
  0
LINE
  5
2F5
100
AcDbEntity
  8
cut
 62
256
370
-1
 48
1.0
  6
BYLAYER
100
AcDbLine
 10
136.24999999999946
 20
-54.6000000000004277
 30
0.0
 11
141.9999999999993463
 21
-54.6000000000004349
 31
0.0
  0
LINE
  5
2F6
100
AcDbEntity
  8
cut
 62
256
370
-1
 48
1.0
  6
BYLAYER
100
AcDbLine
 10
136.24999999999946
 20
-53.000000000000405
 30
0.0
 11
141.9999999999993463
 21
-53.0000000000004121
 31
0.0
  0
LINE
  5
2F7
100
AcDbEntity
  8
cut
 62
256
370
-1
 48
1.0
  6
BYLAYER
100
AcDbLine
 10
136.24999999999946
 20
-51.4000000000003823
 30
0.0
 11
141.9999999999993463
 21
-51.4000000000003894
 31
0.0
  0
LINE
  5
2F8
100
AcDbEntity
  8
cut
 62
256
370
-1
 48
1.0
  6
BYLAYER
100
AcDbLine
 10
136.24999999999946
 20
-49.8000000000003595
 30
0.0
 11
141.9999999999993463
 21
-49.8000000000003666
 31
0.0
  0
LINE
  5
2F9
100
AcDbEntity
  8
cut
 62
256
370
-1
 48
1.0
  6
BYLAYER
100
AcDbLine
 10
136.24999999999946
 20
-48.2000000000003368
 30
0.0
 11
141.9999999999993463
 21
-48.2000000000003439
 31
0.0
  0
LINE
  5
2FA
100
AcDbEntity
  8
cut
 62
256
370
-1
 48
1.0
  6
BYLAYER
100
AcDbLine
 10
136.24999999999946
 20
-46.6000000000003141
 30
0.0
 11
141.9999999999993463
 21
-46.6000000000003212
 31
0.0
  0
LINE
  5
2FB
100
AcDbEntity
  8
cut
 62
256
370
-1
 48
1.0
  6
BYLAYER
100
AcDbLine
 10
136.24999999999946
 20
-45.0000000000002913
 30
0.0
 11
141.9999999999993463
 21
-45.0000000000002984
 31
0.0
  0
LINE
  5
2FC
100
AcDbEntity
  8
cut
 62
256
370
-1
 48
1.0
  6
BYLAYER
100
AcDbLine
 10
136.24999999999946
 20
-43.4000000000002686
 30
0.0
 11
141.9999999999993463
 21
-43.4000000000002757
 31
0.0
  0
LINE
  5
2FD
100
AcDbEntity
  8
cut
 62
256
370
-1
 48
1.0
  6
BYLAYER
100
AcDbLine
 10
136.24999999999946
 20
-41.8000000000002458
 30
0.0
 11
141.9999999999993463
 21
-41.800000000000253
 31
0.0
  0
LINE
  5
2FE
100
AcDbEntity
  8
cut
 62
256
370
-1
 48
1.0
  6
BYLAYER
100
AcDbLine
 10
136.24999999999946
 20
-40.2000000000002231
 30
0.0
 11
141.9999999999993463
 21
-40.2000000000002302
 31
0.0
  0
LINE
  5
2FF
100
AcDbEntity
  8
cut
 62
256
370
-1
 48
1.0
  6
BYLAYER
100
AcDbLine
 10
136.24999999999946
 20
-38.6000000000002004
 30
0.0
 11
141.9999999999993463
 21
-38.6000000000002075
 31
0.0
  0
LINE
  5
300
100
AcDbEntity
  8
cut
 62
256
370
-1
 48
1.0
  6
BYLAYER
100
AcDbLine
 10
136.24999999999946
 20
-37.0000000000001776
 30
0.0
 11
141.9999999999993463
 21
-37.0000000000001847
 31
0.0
  0
LINE
  5
301
100
AcDbEntity
  8
cut
 62
256
370
-1
 48
1.0
  6
BYLAYER
100
AcDbLine
 10
136.24999999999946
 20
-35.4000000000001549
 30
0.0
 11
141.9999999999993463
 21
-35.400000000000162
 31
0.0
  0
LINE
  5
302
100
AcDbEntity
  8
cut
 62
256
370
-1
 48
1.0
  6
BYLAYER
100
AcDbLine
 10
136.24999999999946
 20
-33.8000000000001322
 30
0.0
 11
141.9999999999993463
 21
-33.8000000000001393
 31
0.0
  0
LINE
  5
303
100
AcDbEntity
  8
cut
 62
256
370
-1
 48
1.0
  6
BYLAYER
100
AcDbLine
 10
136.24999999999946
 20
-32.2000000000001094
 30
0.0
 11
141.9999999999993463
 21
-32.2000000000001165
 31
0.0
  0
LINE
  5
304
100
AcDbEntity
  8
cut
 62
256
370
-1
 48
1.0
  6
BYLAYER
100
AcDbLine
 10
136.24999999999946
 20
-30.6000000000000867
 30
0.0
 11
141.9999999999993463
 21
-30.6000000000000938
 31
0.0
  0
LINE
  5
305
100
AcDbEntity
  8
cut
 62
256
370
-1
 48
1.0
  6
BYLAYER
100
AcDbLine
 10
136.24999999999946
 20
-29.0000000000000639
 30
0.0
 11
141.9999999999993463
 21
-29.0000000000000711
 31
0.0
  0
LINE
  5
306
100
AcDbEntity
  8
cut
 62
256
370
-1
 48
1.0
  6
BYLAYER
100
AcDbLine
 10
136.24999999999946
 20
-27.4000000000000412
 30
0.0
 11
141.9999999999993463
 21
-27.4000000000000483
 31
0.0
  0
LINE
  5
307
100
AcDbEntity
  8
cut
 62
256
370
-1
 48
1.0
  6
BYLAYER
100
AcDbLine
 10
136.24999999999946
 20
-25.8000000000000185
 30
0.0
 11
141.9999999999993463
 21
-25.8000000000000256
 31
0.0
  0
LINE
  5
308
100
AcDbEntity
  8
cut
 62
256
370
-1
 48
1.0
  6
BYLAYER
100
AcDbLine
 10
109.9999999999993463
 20
-85.2000000000004434
 30
0.0
 11
77.99999999999946
 21
-85.200000000000415
 31
0.0
  0
LINE
  5
309
100
AcDbEntity
  8
cut
 62
256
370
-1
 48
1.0
  6
BYLAYER
100
AcDbLine
 10
77.9999999999995168
 20
85.200000000000415
 30
0.0
 11
77.99999999999946
 21
80.2000000000004718
 31
0.0
  0
LINE
  5
30A
100
AcDbEntity
  8
cut
 62
256
370
-1
 48
1.0
  6
BYLAYER
100
AcDbLine
 10
77.9999999999995737
 20
70.2000000000004434
 30
0.0
 11
77.9999999999995168
 21
60.2000000000004505
 31
0.0
  0
LINE
  5
30B
100
AcDbEntity
  8
cut
 62
256
370
-1
 48
1.0
  6
BYLAYER
100
AcDbLine
 10
77.9999999999995168
 20
60.2000000000004505
 30
0.0
 11
77.9999999999995168
 21
25.0000000000000071
 31
0.0
  0
LINE
  5
30C
100
AcDbEntity
  8
cut
 62
256
370
-1
 48
1.0
  6
BYLAYER
100
AcDbLine
 10
77.9999999999995168
 20
25.0000000000000071
 30
0.0
 11
77.9999999999995737
 21
15.0000000000000071
 31
0.0
  0
LINE
  5
30D
100
AcDbEntity
  8
cut
 62
256
370
-1
 48
1.0
  6
BYLAYER
100
AcDbLine
 10
77.99999999999946
 20
5.0000000000000071
 30
0.0
 11
77.99999999999946
 21
-4.9999999999999929
 31
0.0
  0
LINE
  5
30E
100
AcDbEntity
  8
cut
 62
256
370
-1
 48
1.0
  6
BYLAYER
100
AcDbLine
 10
77.9999999999995737
 20
-14.9999999999999929
 30
0.0
 11
77.9999999999995168
 21
-24.9999999999999929
 31
0.0
  0
LINE
  5
30F
100
AcDbEntity
  8
cut
 62
256
370
-1
 48
1.0
  6
BYLAYER
100
AcDbLine
 10
77.9999999999995168
 20
-24.9999999999999929
 30
0.0
 11
77.9999999999995168
 21
-60.2000000000004363
 31
0.0
  0
LINE
  5
310
100
AcDbEntity
  8
cut
 62
256
370
-1
 48
1.0
  6
BYLAYER
100
AcDbLine
 10
77.9999999999995168
 20
-60.2000000000004363
 30
0.0
 11
77.9999999999995737
 21
-70.2000000000004434
 31
0.0
  0
LINE
  5
311
100
AcDbEntity
  8
cut
 62
256
370
-1
 48
1.0
  6
BYLAYER
100
AcDbLine
 10
77.9999999999995168
 20
-80.2000000000004434
 30
0.0
 11
77.99999999999946
 21
-85.200000000000415
 31
0.0
  0
ENDSEC
  0
SECTION
  2
OBJECTS
  0
DICTIONARY
  5
C
100
AcDbDictionary
280
0
281
1
  3
ACAD_GROUP
350
D
  3
ACAD_LAYOUT
350
1A
  3
ACAD_MLINESTYLE
350
17
  3
ACAD_PLOTSETTINGS
350
19
  3
ACAD_PLOTSTYLENAME
350
E
  3
AcDbVariableDictionary
350
312
  3
QCAD_OBJECTS
350
313
  0
DICTIONARY
  5
D
100
AcDbDictionary
280
0
281
1
  0
ACDBDICTIONARYWDFLT
  5
E
100
AcDbDictionary
281
1
  3
Normal
350
F
100
AcDbDictionaryWithDefault
340
F
  0
ACDBPLACEHOLDER
  5
F
  0
DICTIONARY
  5
17
100
AcDbDictionary
280
0
281
1
  3
Standard
350
18
  0
MLINESTYLE
  5
18
100
AcDbMlineStyle
  2
STANDARD
 70
0
  3

 62
256
 51
90.0
 52
90.0
 71
2
 49
0.5
 62
256
  6
BYLAYER
 49
-0.5
 62
256
  6
BYLAYER
  0
DICTIONARY
  5
19
100
AcDbDictionary
280
0
281
1
  0
DICTIONARY
  5
1A
100
AcDbDictionary
281
1
  3
Layout1
350
1E
  3
Layout2
350
26
  3
Model
350
22
  0
LAYOUT
  5
1E
100
AcDbPlotSettings
  1

  2
none_device
  4

  6

 40
0.0
 41
0.0
 42
0.0
 43
0.0
 44
0.0
 45
0.0
 46
0.0
 47
0.0
 48
0.0
 49
0.0
140
0.0
141
0.0
142
1.0
143
1.0
 70
688
 72
0
 73
0
 74
5
  7

 75
16
147
1.0
148
0.0
149
0.0
100
AcDbLayout
  1
Layout1
 70
1
 71
1
 10
0.0
 20
0.0
 11
420.0
 21
297.0
 12
0.0
 22
0.0
 32
0.0
 14
100000000000000000000.0
 24
100000000000000000000.0
 34
100000000000000000000.0
 15
-100000000000000000000.0
 25
-100000000000000000000.0
 35
-100000000000000000000.0
146
0.0
 13
0.0
 23
0.0
 33
0.0
 16
1.0
 26
0.0
 36
0.0
 17
0.0
 27
1.0
 37
0.0
 76
0
330
1B
  0
LAYOUT
  5
22
100
AcDbPlotSettings
  1

  2
none_device
  4

  6

 40
0.0
 41
0.0
 42
0.0
 43
0.0
 44
0.0
 45
0.0
 46
0.0
 47
0.0
 48
0.0
 49
0.0
140
0.0
141
0.0
142
1.0
143
1.0
 70
1712
 72
0
 73
0
 74
0
  7

 75
0
147
1.0
148
0.0
149
0.0
100
AcDbLayout
  1
Model
 70
1
 71
0
 10
0.0
 20
0.0
 11
12.0
 21
9.0
 12
0.0
 22
0.0
 32
0.0
 14
0.0
 24
0.0
 34
0.0
 15
0.0
 25
0.0
 35
0.0
146
0.0
 13
0.0
 23
0.0
 33
0.0
 16
1.0
 26
0.0
 36
0.0
 17
0.0
 27
1.0
 37
0.0
 76
0
330
1F
  0
LAYOUT
  5
26
100
AcDbPlotSettings
  1

  2
none_device
  4

  6

 40
0.0
 41
0.0
 42
0.0
 43
0.0
 44
0.0
 45
0.0
 46
0.0
 47
0.0
 48
0.0
 49
0.0
140
0.0
141
0.0
142
1.0
143
1.0
 70
688
 72
0
 73
0
 74
5
  7

 75
16
147
1.0
148
0.0
149
0.0
100
AcDbLayout
  1
Layout2
 70
1
 71
2
 10
0.0
 20
0.0
 11
12.0
 21
9.0
 12
0.0
 22
0.0
 32
0.0
 14
0.0
 24
0.0
 34
0.0
 15
0.0
 25
0.0
 35
0.0
146
0.0
 13
0.0
 23
0.0
 33
0.0
 16
1.0
 26
0.0
 36
0.0
 17
0.0
 27
1.0
 37
0.0
 76
0
330
23
  0
DICTIONARY
  5
312
100
AcDbDictionary
281
1
  3
DIMASSOC
350
315
  3
HIDETEXT
350
314
  0
DICTIONARYVAR
  5
314
100
DictionaryVariables
280
0
  1
2
  0
DICTIONARYVAR
  5
315
100
DictionaryVariables
280
0
  1
1
  0
DICTIONARY
  5
313
100
AcDbDictionary
281
1
  3
ColorSettings/BackgroundColor
350
316
  3
ColorSettings/ColorMode
350
317
  3
Grid/DisplayGrid00
350
318
  3
Grid/DisplayGrid01
350
319
  3
Grid/DisplayGrid02
350
31A
  3
Grid/DisplayGrid03
350
31B
  3
Grid/GridSpacingX00
350
31C
  3
Grid/GridSpacingX01
350
31D
  3
Grid/GridSpacingX02
350
31E
  3
Grid/GridSpacingX03
350
31F
  3
Grid/GridSpacingY00
350
320
  3
Grid/GridSpacingY01
350
321
  3
Grid/GridSpacingY02
350
322
  3
Grid/GridSpacingY03
350
323
  3
Grid/IsometricGrid00
350
324
  3
Grid/IsometricGrid01
350
325
  3
Grid/IsometricGrid02
350
326
  3
Grid/IsometricGrid03
350
327
  3
Grid/IsometricProjection00
350
328
  3
Grid/IsometricProjection01
350
329
  3
Grid/IsometricProjection02
350
32A
  3
Grid/IsometricProjection03
350
32B
  3
Grid/MetaGridSpacingX00
350
32C
  3
Grid/MetaGridSpacingX01
350
32D
  3
Grid/MetaGridSpacingX02
350
32E
  3
Grid/MetaGridSpacingX03
350
32F
  3
Grid/MetaGridSpacingY00
350
330
  3
Grid/MetaGridSpacingY01
350
331
  3
Grid/MetaGridSpacingY02
350
332
  3
Grid/MetaGridSpacingY03
350
333
  3
MultiPageSettings/Columns
350
334
  3
MultiPageSettings/GlueMarginsBottom
350
335
  3
MultiPageSettings/GlueMarginsLeft
350
336
  3
MultiPageSettings/GlueMarginsRight
350
337
  3
MultiPageSettings/GlueMarginsTop
350
338
  3
MultiPageSettings/PrintCropMarks
350
339
  3
MultiPageSettings/Rows
350
33A
  3
PageSettings/OffsetX
350
33B
  3
PageSettings/OffsetY
350
33C
  3
PageSettings/PageOrientation
350
33D
  3
PageSettings/PaperHeight
350
33E
  3
PageSettings/PaperWidth
350
33F
  3
PageSettings/Scale
350
340
  3
PageSettings/ShowPaperBorders
350
341
  3
QCADVersion
350
342
  3
UnitSettings/PaperUnit
350
343
  3
ViewportCenter
350
344
  3
ViewportHeight
350
345
  3
ViewportWidth
350
346
  0
XRECORD
  5
316
330
313
100
AcDbXrecord
280
1
1000
Blanc
  0
XRECORD
  5
317
330
313
100
AcDbXrecord
280
1
1000
FullColor
  0
XRECORD
  5
318
330
313
100
AcDbXrecord
280
1
290
1
  0
XRECORD
  5
319
330
313
100
AcDbXrecord
280
1
290
1
  0
XRECORD
  5
31A
330
313
100
AcDbXrecord
280
1
290
1
  0
XRECORD
  5
31B
330
313
100
AcDbXrecord
280
1
290
1
  0
XRECORD
  5
31C
330
313
100
AcDbXrecord
280
1
1000
auto
  0
XRECORD
  5
31D
330
313
100
AcDbXrecord
280
1
1000
auto
  0
XRECORD
  5
31E
330
313
100
AcDbXrecord
280
1
1000
auto
  0
XRECORD
  5
31F
330
313
100
AcDbXrecord
280
1
1000
auto
  0
XRECORD
  5
320
330
313
100
AcDbXrecord
280
1
1000
auto
  0
XRECORD
  5
321
330
313
100
AcDbXrecord
280
1
1000
auto
  0
XRECORD
  5
322
330
313
100
AcDbXrecord
280
1
1000
auto
  0
XRECORD
  5
323
330
313
100
AcDbXrecord
280
1
1000
auto
  0
XRECORD
  5
324
330
313
100
AcDbXrecord
280
1
290
0
  0
XRECORD
  5
325
330
313
100
AcDbXrecord
280
1
290
0
  0
XRECORD
  5
326
330
313
100
AcDbXrecord
280
1
290
0
  0
XRECORD
  5
327
330
313
100
AcDbXrecord
280
1
290
0
  0
XRECORD
  5
328
330
313
100
AcDbXrecord
280
1
 90
65537
  0
XRECORD
  5
329
330
313
100
AcDbXrecord
280
1
 90
65537
  0
XRECORD
  5
32A
330
313
100
AcDbXrecord
280
1
 90
65537
  0
XRECORD
  5
32B
330
313
100
AcDbXrecord
280
1
 90
65537
  0
XRECORD
  5
32C
330
313
100
AcDbXrecord
280
1
1000
auto
  0
XRECORD
  5
32D
330
313
100
AcDbXrecord
280
1
1000
auto
  0
XRECORD
  5
32E
330
313
100
AcDbXrecord
280
1
1000
auto
  0
XRECORD
  5
32F
330
313
100
AcDbXrecord
280
1
1000
auto
  0
XRECORD
  5
330
330
313
100
AcDbXrecord
280
1
1000
auto
  0
XRECORD
  5
331
330
313
100
AcDbXrecord
280
1
1000
auto
  0
XRECORD
  5
332
330
313
100
AcDbXrecord
280
1
1000
auto
  0
XRECORD
  5
333
330
313
100
AcDbXrecord
280
1
1000
auto
  0
XRECORD
  5
334
330
313
100
AcDbXrecord
280
1
 90
1
  0
XRECORD
  5
335
330
313
100
AcDbXrecord
280
1
 40
10.0
  0
XRECORD
  5
336
330
313
100
AcDbXrecord
280
1
 40
10.0
  0
XRECORD
  5
337
330
313
100
AcDbXrecord
280
1
 40
10.0
  0
XRECORD
  5
338
330
313
100
AcDbXrecord
280
1
 40
10.0
  0
XRECORD
  5
339
330
313
100
AcDbXrecord
280
1
290
0
  0
XRECORD
  5
33A
330
313
100
AcDbXrecord
280
1
 90
1
  0
XRECORD
  5
33B
330
313
100
AcDbXrecord
280
1
 40
0.0
  0
XRECORD
  5
33C
330
313
100
AcDbXrecord
280
1
 40
0.0
  0
XRECORD
  5
33D
330
313
100
AcDbXrecord
280
1
1000
Portrait
  0
XRECORD
  5
33E
330
313
100
AcDbXrecord
280
1
 40
297.0
  0
XRECORD
  5
33F
330
313
100
AcDbXrecord
280
1
 40
210.0
  0
XRECORD
  5
340
330
313
100
AcDbXrecord
280
1
1000
1:1
  0
XRECORD
  5
341
330
313
100
AcDbXrecord
280
1
290
1
  0
XRECORD
  5
342
330
313
100
AcDbXrecord
280
1
1000
3.17.3
  0
XRECORD
  5
343
330
313
100
AcDbXrecord
280
1
 90
4
  0
XRECORD
  5
345
330
313
100
AcDbXrecord
280
1
 40
214.9095900439239131
  0
XRECORD
  5
346
330
313
100
AcDbXrecord
280
1
 40
323.6837481698389638
  0
ENDSEC
  0
EOF
